<?xml version="1.0" encoding="UTF-8" standalone="no"?><!DOCTYPE svg PUBLIC "-//W3C//DTD SVG 1.1//EN" "http://www.w3.org/Graphics/SVG/1.1/DTD/svg11.dtd"><svg width="100%" height="100%" viewBox="0 0 25 9" version="1.1" xmlns="http://www.w3.org/2000/svg" xmlns:xlink="http://www.w3.org/1999/xlink" xml:space="preserve" xmlns:serif="http://www.serif.com/" style="fill-rule:evenodd;clip-rule:evenodd;stroke-linejoin:round;stroke-miterlimit:1.41421;"><path d="M11.641,0.069c0.097,-0.046 0.201,-0.071 0.452,-0.069c0.008,0.001 0.016,0.001 0.024,0.002c0.01,0 0.02,0.001 0.03,0.001c0.139,0.017 0.271,0.053 0.399,0.111c3.728,1.971 7.333,4.167 10.999,6.252c0.99,0.603 0.246,2.575 -1.051,1.989c-3.534,-1.868 -6.957,-3.939 -10.427,-5.925c-3.414,2.052 -6.935,3.923 -10.398,5.892c-1.002,0.53 -2.439,-1.036 -1.172,-1.92c3.553,-2.168 7.234,-4.12 10.854,-6.174c0.084,-0.066 0.18,-0.12 0.29,-0.159Z" style="fill:#fff;fill-rule:nonzero;"/></svg>