<?xml version="1.0" encoding="UTF-8" standalone="no"?><!DOCTYPE svg PUBLIC "-//W3C//DTD SVG 1.1//EN" "http://www.w3.org/Graphics/SVG/1.1/DTD/svg11.dtd"><svg width="100%" height="100%" viewBox="0 0 30 45" version="1.1" xmlns="http://www.w3.org/2000/svg" xmlns:xlink="http://www.w3.org/1999/xlink" xml:space="preserve" xmlns:serif="http://www.serif.com/" style="fill-rule:evenodd;clip-rule:evenodd;stroke-linecap:round;stroke-linejoin:round;stroke-miterlimit:1.5;"><path d="M15,2.647c6.826,0 12.367,5.542 12.367,12.367c0,6.826 -12.238,19.067 -12.367,28.986c0.129,-9.767 -12.367,-22.16 -12.367,-28.986c0,-6.825 5.541,-12.367 12.367,-12.367Z" style="fill:#9a9a9a;stroke:#fff;stroke-width:1px;"/><path d="M13.318,21.004l-3.621,0l0,-7.005l5.303,-4.709l5.303,4.709l0,7.005l-3.661,0l0,-3.265l-3.324,0l0,3.265Zm1.662,-14.306l7.559,6.708l-0.811,0.87l-6.728,-5.956l-6.767,5.956l-0.772,-0.87l7.519,-6.708Z" style="fill:#fff;"/></svg>