<?xml version="1.0" encoding="UTF-8" standalone="no"?><!DOCTYPE svg PUBLIC "-//W3C//DTD SVG 1.1//EN" "http://www.w3.org/Graphics/SVG/1.1/DTD/svg11.dtd"><svg width="100%" height="100%" viewBox="0 0 64 64" version="1.1" xmlns="http://www.w3.org/2000/svg" xmlns:xlink="http://www.w3.org/1999/xlink" xml:space="preserve" xmlns:serif="http://www.serif.com/" style="fill-rule:evenodd;clip-rule:evenodd;stroke-linejoin:round;stroke-miterlimit:1.41421;"><path d="M32.004,20.014l0.04,0l0.04,0.001c0.678,0.008 1.331,0.126 1.941,0.337l0.038,0.013l0.036,0.013l0.036,0.013l0.039,0.014c2.353,0.881 4.03,3.151 4.03,5.809c0,0.012 0,0.024 -0.001,0.036l0,0.004l0,0.006l0,0.013l0,0.015l0,0.006l0,0.004c0,0.011 0,0.023 -0.001,0.035l0,0.001l0,0.004l0,0.024l0,0.007l0,0.005l-0.001,0.006l0,0.011l0,0.017l-0.001,0.006l0,0.002c0,0.012 0,0.024 -0.001,0.036l0,0.002l0,0.004l-0.001,0.021l0,0.01l-0.001,0.004l0,0.005l0,0.01l-0.001,0.021l0,0.004l-0.001,0.001c0,0.012 -0.001,0.025 -0.002,0.037l0,0.002l0,0.003l-0.001,0.02l-0.001,0.012l0,0.004l0,0.003c-0.002,0.025 -0.004,0.05 -0.005,0.074l0,0.002l-0.001,0.003l-0.001,0.018l-0.001,0.015l-0.001,0.003l0,0.002c-0.002,0.025 -0.004,0.05 -0.006,0.075l-0.001,0.002l0,0.002l-0.001,0.016l-0.002,0.019l0,0.002l0,0c-0.003,0.026 -0.006,0.051 -0.009,0.077l0,0.001l0,0.001c-0.067,0.583 -0.215,1.141 -0.432,1.663l0,0.002l-0.001,0.001l-0.005,0.013l-0.009,0.019l0,0.001l0,0.001c-0.005,0.011 -0.01,0.022 -0.014,0.033l-0.001,0.001l-0.001,0.003l-0.008,0.019l-0.004,0.008l-0.002,0.005l-0.002,0.004l-0.003,0.008l-0.007,0.015l-0.003,0.007l-0.001,0.002c-0.004,0.01 -0.008,0.019 -0.013,0.028l-0.001,0.005l-0.005,0.01l-0.004,0.009l-0.003,0.006l-0.004,0.009l-0.004,0.008l-0.001,0.002l-0.003,0.007c-0.011,0.023 -0.021,0.045 -0.032,0.068l0,0.001l-0.001,0c-0.634,1.326 -1.727,2.393 -3.072,2.993l0,25.734l-2.523,4.371l-2.524,-4.371l0,-25.734c-0.803,-0.359 -1.515,-0.883 -2.095,-1.529c-0.984,-1.097 -1.582,-2.546 -1.582,-4.135c0,-3.394 2.735,-6.156 6.121,-6.199l0,0l0.009,0l0.031,-0.001l0,0l0.04,0l0,0Zm0.042,-5.379c3.528,0.02 6.992,1.829 9.009,4.841l0.12,0.231c0.022,0.084 0.053,0.166 0.066,0.252c0.107,0.757 -0.677,1.534 -1.503,1.272c-0.167,-0.052 -0.32,-0.142 -0.447,-0.262c-0.164,-0.155 -0.268,-0.351 -0.399,-0.529c-1.998,-2.711 -5.638,-4.065 -8.985,-3.22c-2.029,0.513 -3.846,1.792 -5.024,3.55l-0.168,0.199c-0.069,0.052 -0.133,0.112 -0.208,0.156c-0.669,0.393 -1.678,-0.066 -1.748,-0.906c-0.014,-0.174 0.011,-0.349 0.073,-0.512c0.078,-0.204 0.212,-0.37 0.336,-0.543c1.939,-2.696 5.15,-4.419 8.495,-4.524c0.128,-0.004 0.256,-0.005 0.383,-0.005Zm-0.01,-5.399c5.335,0.014 10.581,2.755 13.622,7.303l0.119,0.231c0.022,0.084 0.053,0.167 0.066,0.253c0.106,0.757 -0.678,1.534 -1.504,1.27c-0.508,-0.162 -0.773,-0.715 -1.126,-1.178c-2.439,-3.205 -6.307,-5.276 -10.33,-5.527c-3.492,-0.217 -7.045,0.922 -9.756,3.12c-1.099,0.891 -2.062,1.952 -2.845,3.124l-0.168,0.198c-0.139,0.105 -0.281,0.21 -0.445,0.263c-0.66,0.21 -1.45,-0.277 -1.512,-1.01c-0.029,-0.345 0.141,-0.674 0.336,-0.955c2.87,-4.16 7.725,-6.859 12.805,-7.077c0.246,-0.011 0.492,-0.015 0.738,-0.015Zm0.009,-5.219c5.012,0.016 9.984,1.87 13.768,5.135c1.433,1.236 2.697,2.669 3.748,4.236c0,0 0.097,0.144 0.142,0.264c0.249,0.65 -0.207,1.464 -0.923,1.566c-0.346,0.049 -0.707,-0.066 -0.961,-0.306c-0.119,-0.112 -0.203,-0.253 -0.292,-0.383c-2.386,-3.48 -5.954,-6.11 -9.982,-7.353c-4.419,-1.362 -9.317,-1.027 -13.519,0.942c-3.088,1.446 -5.767,3.751 -7.67,6.595l-0.168,0.199c-0.139,0.104 -0.281,0.21 -0.446,0.262c-0.66,0.21 -1.449,-0.278 -1.51,-1.01c-0.023,-0.259 0.066,-0.51 0.191,-0.744c0.001,-0.001 0.046,-0.067 0.046,-0.067c2.772,-4.119 7.06,-7.219 11.851,-8.558c1.819,-0.508 3.703,-0.768 5.601,-0.778c0.041,0 0.083,0 0.124,0Z" style="fill:#fff;"/></svg>