<?xml version="1.0" encoding="UTF-8" standalone="no"?><!DOCTYPE svg PUBLIC "-//W3C//DTD SVG 1.1//EN" "http://www.w3.org/Graphics/SVG/1.1/DTD/svg11.dtd"><svg width="100%" height="100%" viewBox="0 0 64 64" version="1.1" xmlns="http://www.w3.org/2000/svg" xmlns:xlink="http://www.w3.org/1999/xlink" xml:space="preserve" xmlns:serif="http://www.serif.com/" style="fill-rule:evenodd;clip-rule:evenodd;stroke-linejoin:round;stroke-miterlimit:1.41421;"><path d="M62.589,38.619c0.471,-0.144 0.972,0.119 1.116,0.589c0.145,0.474 -0.119,0.972 -0.589,1.12c-3.694,1.066 -8.133,2.747 -11.623,3.897c-4.274,1.408 -8.99,2.195 -13.213,0.251c-1.411,-0.649 -2.703,-1.583 -4.108,-2.257c-1.42,-0.681 -2.894,-1.239 -4.421,-1.625c-3.217,-0.812 -6.565,-0.831 -9.851,-0.511c-5.6,0.549 -8.334,0.64 -13.727,2.226c-1.615,0.477 -3.205,1.098 -4.829,1.531c-0.48,0.109 -0.96,-0.192 -1.066,-0.675c-0.11,-0.479 0.188,-0.959 0.671,-1.069c3.96,-1.088 4.982,-1.495 8.522,-3.568c3.396,-1.988 6.701,-4.27 9.519,-7.03c4.23,-4.132 7.388,-9.776 13.088,-12.131c1.038,-0.426 2.232,-0.815 3.355,-0.937c7.252,-0.769 12.608,5.227 12.739,12.488c0.032,0.458 -0.313,0.853 -0.771,0.884c-0.26,0.019 -0.502,-0.087 -0.665,-0.266c-1.147,-1.082 -2.696,-1.746 -4.402,-1.746c-3.901,0 -6.418,2.875 -6.418,6.421c0,3.48 3.116,6.556 8.412,6.556c5.776,0 14.499,-2.969 18.261,-4.148Z" style="fill:#fff;fill-rule:nonzero;"/></svg>