<?xml version="1.0" encoding="UTF-8" standalone="no"?><!DOCTYPE svg PUBLIC "-//W3C//DTD SVG 1.1//EN" "http://www.w3.org/Graphics/SVG/1.1/DTD/svg11.dtd"><svg width="100%" height="100%" viewBox="0 0 50 70" version="1.1" xmlns="http://www.w3.org/2000/svg" xmlns:xlink="http://www.w3.org/1999/xlink" xml:space="preserve" xmlns:serif="http://www.serif.com/" style="fill-rule:evenodd;clip-rule:evenodd;stroke-linejoin:round;stroke-miterlimit:1.41421;"><path d="M22.393,36.498c-2.239,-0.996 -3.799,-3.241 -3.799,-5.848c0,-3.535 2.87,-6.406 6.406,-6.406c3.536,0 6.407,2.871 6.407,6.406c0,2.607 -1.56,4.852 -3.8,5.848l0,26.594l-2.607,4.516l-2.607,-4.516l0,-26.594Zm2.651,-17.812c3.535,0.021 7.028,1.795 9.11,4.714c0.068,0.095 0.134,0.191 0.199,0.288l0.123,0.238c0.023,0.087 0.055,0.172 0.068,0.261c0.076,0.537 -0.252,1.097 -0.76,1.291c-0.422,0.162 -0.925,0.062 -1.253,-0.248c-0.179,-0.168 -0.291,-0.381 -0.434,-0.574c-2.054,-2.765 -5.804,-4.172 -9.262,-3.299c-2.1,0.531 -3.974,1.85 -5.191,3.668l-0.174,0.205c-0.072,0.054 -0.138,0.116 -0.215,0.162c-0.692,0.406 -1.734,-0.069 -1.806,-0.936c-0.015,-0.18 0.01,-0.361 0.075,-0.53c0.086,-0.224 0.235,-0.406 0.373,-0.597c2.051,-2.829 5.468,-4.608 9.015,-4.643c0.044,0 0.088,0 0.132,0Zm-0.011,-5.579c3.996,0.011 7.988,1.489 11.025,4.1c1.168,1.004 2.195,2.168 3.05,3.446l0.124,0.239c0.022,0.087 0.055,0.172 0.067,0.261c0.076,0.537 -0.253,1.096 -0.76,1.29c-0.423,0.161 -0.926,0.061 -1.254,-0.249c-0.123,-0.116 -0.21,-0.261 -0.302,-0.395c-2.688,-3.885 -7.344,-6.345 -12.154,-6.289c-4.682,0.055 -9.26,2.503 -11.908,6.43l-0.032,0.049l-0.174,0.205c-0.071,0.054 -0.137,0.116 -0.215,0.162c-0.612,0.361 -1.522,0.06 -1.754,-0.671c-0.082,-0.258 -0.073,-0.543 0.022,-0.793c0.064,-0.166 0.17,-0.309 0.272,-0.457c2.965,-4.297 7.983,-7.087 13.232,-7.312c0.254,-0.011 0.508,-0.016 0.761,-0.016Z" style="fill:#e9d834;"/><g><clipPath id="_clip1"><path d="M22.393,36.498c-2.239,-0.996 -3.799,-3.241 -3.799,-5.848c0,-3.535 2.87,-6.406 6.406,-6.406c3.536,0 6.407,2.871 6.407,6.406c0,2.607 -1.56,4.852 -3.8,5.848l0,26.594l-2.607,4.516l-2.607,-4.516l0,-26.594Zm2.651,-17.812c3.535,0.021 7.028,1.795 9.11,4.714c0.068,0.095 0.134,0.191 0.199,0.288l0.123,0.238c0.023,0.087 0.055,0.172 0.068,0.261c0.076,0.537 -0.252,1.097 -0.76,1.291c-0.422,0.162 -0.925,0.062 -1.253,-0.248c-0.179,-0.168 -0.291,-0.381 -0.434,-0.574c-2.054,-2.765 -5.804,-4.172 -9.262,-3.299c-2.1,0.531 -3.974,1.85 -5.191,3.668l-0.174,0.205c-0.072,0.054 -0.138,0.116 -0.215,0.162c-0.692,0.406 -1.734,-0.069 -1.806,-0.936c-0.015,-0.18 0.01,-0.361 0.075,-0.53c0.086,-0.224 0.235,-0.406 0.373,-0.597c2.051,-2.829 5.468,-4.608 9.015,-4.643c0.044,0 0.088,0 0.132,0Zm-0.011,-5.579c3.996,0.011 7.988,1.489 11.025,4.1c1.168,1.004 2.195,2.168 3.05,3.446l0.124,0.239c0.022,0.087 0.055,0.172 0.067,0.261c0.076,0.537 -0.253,1.096 -0.76,1.29c-0.423,0.161 -0.926,0.061 -1.254,-0.249c-0.123,-0.116 -0.21,-0.261 -0.302,-0.395c-2.688,-3.885 -7.344,-6.345 -12.154,-6.289c-4.682,0.055 -9.26,2.503 -11.908,6.43l-0.032,0.049l-0.174,0.205c-0.071,0.054 -0.137,0.116 -0.215,0.162c-0.612,0.361 -1.522,0.06 -1.754,-0.671c-0.082,-0.258 -0.073,-0.543 0.022,-0.793c0.064,-0.166 0.17,-0.309 0.272,-0.457c2.965,-4.297 7.983,-7.087 13.232,-7.312c0.254,-0.011 0.508,-0.016 0.761,-0.016Z"/></clipPath><g clip-path="url(#_clip1)"><path d="M22.393,30.65l5.214,0l0,32.442l-2.607,4.516l-2.607,-4.516l0,-32.442Z" style="fill:#e9d834;"/><circle cx="25" cy="30.65" r="6.406" style="fill:#e9d834;"/></g></g><path d="M25.253,10.778l0.214,0.004l0.214,0.007l0.214,0.009l0.213,0.012l0.213,0.014l0.213,0.016l0.213,0.019l0.212,0.021l0.212,0.023l0.212,0.026l0.211,0.028l0.211,0.03l0.211,0.033l0.21,0.035l0.21,0.038l0.209,0.039l0.209,0.042l0.208,0.045l0.208,0.046l0.208,0.049l0.206,0.051l0.206,0.053l0.206,0.056l0.205,0.057l0.204,0.06l0.204,0.062l0.203,0.065l0.202,0.066l0.202,0.069l0.2,0.071l0.2,0.073l0.2,0.075l0.198,0.077l0.198,0.08l0.196,0.082l0.196,0.083l0.195,0.086l0.194,0.088l0.193,0.091l0.192,0.092l0.191,0.094l0.19,0.097l0.189,0.098l0.188,0.101l0.187,0.102l0.186,0.105l0.185,0.107l0.183,0.109l0.183,0.111l0.181,0.113l0.18,0.115l0.179,0.117l0.177,0.119l0.176,0.121l0.175,0.123l0.174,0.125l0.172,0.127l0.171,0.129l0.169,0.131l0.168,0.133l0.167,0.135l0.165,0.137l0.162,0.138l0.126,0.109l0.123,0.109l0.122,0.11l0.122,0.111l0.12,0.111l0.119,0.113l0.119,0.114l0.117,0.115l0.116,0.116l0.116,0.117l0.114,0.117l0.113,0.119l0.113,0.12l0.111,0.12l0.11,0.121l0.109,0.123l0.108,0.123l0.107,0.124l0.106,0.125l0.105,0.126l0.104,0.127l0.103,0.128l0.102,0.128l0.2,0.26l0.098,0.131l0.194,0.264l0.095,0.134l0.094,0.134l0.092,0.135l0.086,0.128l0.073,0.114l0.066,0.119l0.123,0.239l0.068,0.143l0.058,0.147l0.048,0.15l0.014,0.049l0.019,0.067l0.022,0.077l0.025,0.1l0.027,0.125l0.024,0.142l0.019,0.161l0.011,0.157l0.004,0.155l-0.002,0.153l-0.01,0.152l-0.016,0.15l-0.022,0.147l-0.028,0.145l-0.033,0.143l-0.04,0.14l-0.044,0.137l-0.05,0.135l-0.055,0.132l-0.06,0.13l-0.065,0.127l-0.07,0.124l-0.074,0.121l-0.08,0.118l-0.084,0.115l-0.089,0.112l-0.094,0.11l-0.099,0.105l-0.103,0.103l-0.109,0.098l-0.113,0.095l-0.119,0.091l-0.123,0.086l-0.128,0.082l-0.133,0.077l-0.138,0.072l-0.143,0.066l-0.142,0.058l-0.126,0.046l-0.123,0.039l-0.124,0.034l-0.123,0.03l-0.123,0.025l-0.124,0.02l-0.123,0.016l-0.123,0.011l-0.122,0.007l-0.123,0.003l-0.121,-0.001l-0.121,-0.005l-0.121,-0.01l-0.119,-0.013l-0.119,-0.018l-0.119,-0.021l-0.117,-0.026l-0.117,-0.029l-0.115,-0.034l-0.115,-0.037l-0.082,-0.03l-0.001,0.006l-0.015,0.15l-0.022,0.147l-0.028,0.145l-0.034,0.143l-0.039,0.14l-0.044,0.138l-0.05,0.134l-0.055,0.133l-0.06,0.129l-0.064,0.127l-0.07,0.124l-0.075,0.121l-0.079,0.119l-0.084,0.115l-0.089,0.112l-0.094,0.109l-0.098,0.106l-0.104,0.103l-0.108,0.098l-0.114,0.095l-0.118,0.091l-0.123,0.087l-0.128,0.082l-0.134,0.077l-0.137,0.072l-0.143,0.066l-0.142,0.058l-0.126,0.046l-0.123,0.039l-0.123,0.035l-0.124,0.029l-0.123,0.025l-0.124,0.021l-0.123,0.016l-0.123,0.011l-0.122,0.008l-0.122,0.003l-0.101,-0.001l0.022,0.066l0.033,0.102l0.031,0.104l0.03,0.103l0.029,0.104l0.028,0.105l0.026,0.105l0.025,0.106l0.024,0.106l0.023,0.106l0.021,0.107l0.02,0.108l0.036,0.216l0.016,0.109l0.014,0.109l0.013,0.109l0.012,0.11l0.011,0.11l0.009,0.111l0.008,0.111l0.006,0.111l0.005,0.111l0.004,0.112l0.002,0.112l0,0.116l-0.001,0.162l-0.005,0.165l-0.007,0.164l-0.011,0.164l-0.014,0.163l-0.017,0.162l-0.019,0.161l-0.023,0.161l-0.025,0.159l-0.029,0.159l-0.031,0.158l-0.034,0.157l-0.037,0.155l-0.04,0.155l-0.042,0.154l-0.045,0.152l-0.048,0.152l-0.05,0.15l-0.054,0.149l-0.055,0.147l-0.058,0.146l-0.061,0.145l-0.063,0.144l-0.066,0.142l-0.068,0.141l-0.071,0.14l-0.073,0.137l-0.075,0.137l-0.078,0.135l-0.08,0.133l-0.082,0.132l-0.085,0.13l-0.087,0.128l-0.089,0.127l-0.091,0.125l-0.093,0.124l-0.095,0.122l-0.098,0.12l-0.099,0.118l-0.102,0.116l-0.103,0.115l-0.106,0.112l-0.107,0.111l-0.11,0.109l-0.111,0.107l-0.113,0.105l-0.115,0.103l-0.117,0.101l-0.119,0.099l-0.12,0.097l-0.123,0.094l-0.124,0.093l-0.125,0.091l-0.105,0.072l0,25.238l-0.009,0.203l-0.026,0.202l-0.044,0.198l-0.061,0.194l-0.078,0.188l-0.094,0.181l-2.607,4.516l-0.12,0.186l-0.137,0.175l-0.153,0.16l-0.168,0.145l-0.181,0.129l-0.192,0.111l-0.202,0.092l-0.209,0.073l-0.216,0.052l-0.219,0.031l-0.222,0.011l-0.221,-0.011l-0.22,-0.031l-0.215,-0.052l-0.21,-0.073l-0.202,-0.092l-0.192,-0.111l-0.181,-0.129l-0.167,-0.145l-0.153,-0.16l-0.137,-0.175l-0.12,-0.186l-2.608,-4.516l-0.094,-0.181l-0.077,-0.188l-0.062,-0.194l-0.044,-0.198l-0.026,-0.202l-0.009,-0.203l0,-25.238l-0.104,-0.072l-0.126,-0.091l-0.124,-0.093l-0.122,-0.094l-0.121,-0.097l-0.118,-0.099l-0.117,-0.101l-0.115,-0.103l-0.114,-0.105l-0.111,-0.107l-0.109,-0.109l-0.108,-0.111l-0.105,-0.112l-0.104,-0.115l-0.101,-0.116l-0.1,-0.118l-0.097,-0.12l-0.096,-0.122l-0.093,-0.124l-0.091,-0.125l-0.089,-0.127l-0.087,-0.128l-0.084,-0.13l-0.083,-0.132l-0.08,-0.133l-0.077,-0.135l-0.076,-0.137l-0.073,-0.137l-0.07,-0.14l-0.068,-0.141l-0.066,-0.142l-0.063,-0.144l-0.061,-0.145l-0.058,-0.146l-0.056,-0.147l-0.053,-0.149l-0.051,-0.15l-0.047,-0.152l-0.046,-0.152l-0.042,-0.154l-0.04,-0.155l-0.037,-0.155l-0.034,-0.157l-0.031,-0.158l-0.028,-0.159l-0.026,-0.159l-0.022,-0.161l-0.02,-0.161l-0.017,-0.162l-0.014,-0.163l-0.01,-0.164l-0.008,-0.164l-0.005,-0.165l-0.001,-0.162l0.001,-0.116l0.002,-0.112l0.003,-0.112l0.005,-0.111l0.007,-0.111l0.007,-0.111l0.01,-0.111l0.01,-0.11l0.012,-0.11l0.013,-0.109l0.015,-0.109l0.016,-0.109l0.017,-0.108l0.019,-0.108l0.019,-0.108l0.022,-0.107l0.022,-0.106l0.024,-0.106l0.025,-0.106l0.026,-0.105l0.028,-0.105l0.029,-0.104l0.03,-0.103l0.032,-0.104l0.032,-0.102l0.027,-0.081l-0.036,0l-0.107,-0.002l-0.106,-0.005l-0.105,-0.009l-0.104,-0.011l-0.103,-0.014l-0.103,-0.017l-0.101,-0.02l-0.1,-0.023l-0.1,-0.026l-0.098,-0.028l-0.097,-0.031l-0.097,-0.033l-0.095,-0.036l-0.094,-0.039l-0.093,-0.042l-0.093,-0.044l-0.091,-0.046l-0.089,-0.05l-0.089,-0.052l-0.088,-0.054l-0.086,-0.058l-0.085,-0.06l-0.084,-0.063l-0.082,-0.066l-0.081,-0.068l-0.08,-0.071l-0.078,-0.075l-0.076,-0.077l-0.074,-0.08l-0.072,-0.083l-0.07,-0.086l-0.068,-0.088l-0.066,-0.092l-0.063,-0.095l-0.061,-0.097l-0.058,-0.101l-0.054,-0.103l-0.052,-0.105l-0.048,-0.108l-0.045,-0.111l-0.042,-0.113l-0.037,-0.115l-0.034,-0.117l-0.03,-0.119l-0.025,-0.12l-0.021,-0.122l-0.017,-0.123l-0.012,-0.119l-0.002,-0.025l-0.009,0.004l-0.097,0.033l-0.096,0.03l-0.097,0.028l-0.098,0.024l-0.097,0.021l-0.096,0.018l-0.097,0.016l-0.097,0.013l-0.096,0.01l-0.095,0.007l-0.096,0.005l-0.095,0.002l-0.094,0l-0.095,-0.003l-0.093,-0.005l-0.093,-0.008l-0.093,-0.01l-0.092,-0.012l-0.092,-0.015l-0.091,-0.017l-0.09,-0.019l-0.09,-0.022l-0.089,-0.023l-0.088,-0.026l-0.088,-0.029l-0.088,-0.03l-0.086,-0.033l-0.086,-0.035l-0.086,-0.038l-0.084,-0.039l-0.084,-0.042l-0.083,-0.045l-0.082,-0.047l-0.081,-0.049l-0.08,-0.051l-0.08,-0.054l-0.078,-0.056l-0.077,-0.059l-0.076,-0.061l-0.075,-0.064l-0.073,-0.066l-0.072,-0.069l-0.071,-0.071l-0.069,-0.074l-0.067,-0.076l-0.065,-0.079l-0.064,-0.081l-0.061,-0.084l-0.06,-0.086l-0.057,-0.088l-0.054,-0.091l-0.052,-0.093l-0.05,-0.094l-0.047,-0.097l-0.043,-0.099l-0.041,-0.101l-0.038,-0.102l-0.038,-0.11l-0.041,-0.139l-0.036,-0.147l-0.03,-0.147l-0.023,-0.148l-0.017,-0.147l-0.011,-0.147l-0.005,-0.147l0.001,-0.147l0.008,-0.147l0.013,-0.146l0.019,-0.146l0.026,-0.145l0.032,-0.144l0.038,-0.144l0.044,-0.143l0.049,-0.136l0.042,-0.107l0.042,-0.095l0.042,-0.089l0.043,-0.084l0.041,-0.077l0.046,-0.08l0.07,-0.115l0.068,-0.105l0.058,-0.086l0.085,-0.123l0.076,-0.109l0.081,-0.114l0.081,-0.114l0.083,-0.113l0.083,-0.112l0.084,-0.112l0.085,-0.111l0.086,-0.11l0.086,-0.11l0.088,-0.109l0.088,-0.108l0.088,-0.107l0.09,-0.107l0.09,-0.106l0.091,-0.106l0.092,-0.104l0.093,-0.104l0.093,-0.104l0.094,-0.102l0.095,-0.102l0.095,-0.101l0.097,-0.101l0.096,-0.099l0.098,-0.099l0.098,-0.098l0.099,-0.098l0.1,-0.097l0.1,-0.096l0.101,-0.095l0.102,-0.094l0.102,-0.094l0.103,-0.093l0.104,-0.092l0.104,-0.092l0.105,-0.091l0.105,-0.09l0.107,-0.089l0.106,-0.088l0.108,-0.088l0.108,-0.087l0.108,-0.086l0.109,-0.085l0.11,-0.085l0.111,-0.084l0.111,-0.083l0.111,-0.082l0.112,-0.081l0.113,-0.081l0.113,-0.08l0.114,-0.079l0.114,-0.078l0.115,-0.077l0.115,-0.077l0.116,-0.076l0.117,-0.075l0.117,-0.074l0.117,-0.073l0.118,-0.073l0.119,-0.071l0.119,-0.071l0.119,-0.07l0.12,-0.069l0.121,-0.069l0.121,-0.067l0.121,-0.067l0.122,-0.066l0.122,-0.065l0.123,-0.064l0.123,-0.063l0.124,-0.063l0.124,-0.061l0.125,-0.061l0.125,-0.06l0.125,-0.058l0.126,-0.059l0.127,-0.057l0.126,-0.056l0.127,-0.055l0.128,-0.055l0.128,-0.053l0.128,-0.053l0.129,-0.052l0.129,-0.051l0.129,-0.05l0.13,-0.049l0.13,-0.048l0.131,-0.048l0.131,-0.046l0.131,-0.045l0.132,-0.045l0.132,-0.043l0.132,-0.043l0.133,-0.042l0.133,-0.041l0.133,-0.039l0.133,-0.039l0.134,-0.038l0.135,-0.037l0.134,-0.036l0.135,-0.035l0.135,-0.034l0.135,-0.033l0.136,-0.033l0.136,-0.031l0.136,-0.03l0.136,-0.029l0.137,-0.028l0.137,-0.028l0.137,-0.026l0.138,-0.025l0.137,-0.024l0.138,-0.024l0.138,-0.022l0.139,-0.021l0.138,-0.02l0.139,-0.019l0.139,-0.018l0.139,-0.018l0.139,-0.016l0.14,-0.015l0.14,-0.014l0.139,-0.013l0.14,-0.011l0.141,-0.011l0.14,-0.01l0.14,-0.009l0.141,-0.007l0.143,-0.007l0.215,-0.008l0.216,-0.006l0.216,-0.003l0.217,-0.001l0.215,0.002Zm-0.336,13.467l-0.082,0.001l-0.082,0.003l-0.082,0.003l-0.082,0.005l-0.081,0.006l-0.082,0.006l-0.08,0.008l-0.081,0.009l-0.08,0.01l-0.08,0.01l-0.08,0.012l-0.079,0.013l-0.079,0.013l-0.079,0.015l-0.078,0.015l-0.078,0.017l-0.078,0.017l-0.077,0.019l-0.077,0.019l-0.077,0.02l-0.076,0.021l-0.076,0.022l-0.075,0.023l-0.075,0.024l-0.075,0.025l-0.074,0.026l-0.074,0.026l-0.073,0.027l-0.073,0.029l-0.072,0.029l-0.072,0.03l-0.072,0.031l-0.071,0.031l-0.071,0.033l-0.07,0.033l-0.07,0.034l-0.069,0.035l-0.069,0.036l-0.068,0.037l-0.068,0.037l-0.068,0.038l-0.066,0.039l-0.067,0.04l-0.066,0.041l-0.065,0.041l-0.064,0.042l-0.065,0.043l-0.063,0.043l-0.063,0.045l-0.063,0.045l-0.062,0.045l-0.061,0.047l-0.061,0.047l-0.06,0.048l-0.06,0.049l-0.059,0.049l-0.058,0.05l-0.058,0.051l-0.057,0.051l-0.057,0.052l-0.056,0.053l-0.055,0.053l-0.055,0.054l-0.054,0.055l-0.053,0.055l-0.053,0.056l-0.052,0.057l-0.051,0.057l-0.051,0.058l-0.05,0.058l-0.05,0.059l-0.048,0.06l-0.048,0.06l-0.047,0.061l-0.047,0.061l-0.046,0.062l-0.045,0.063l-0.044,0.063l-0.043,0.064l-0.043,0.064l-0.042,0.065l-0.042,0.065l-0.04,0.066l-0.04,0.066l-0.039,0.067l-0.038,0.067l-0.038,0.068l-0.036,0.068l-0.036,0.069l-0.035,0.069l-0.034,0.07l-0.033,0.07l-0.033,0.071l-0.032,0.071l-0.03,0.072l-0.03,0.072l-0.03,0.072l-0.028,0.073l-0.027,0.074l-0.027,0.073l-0.025,0.075l-0.025,0.074l-0.024,0.075l-0.023,0.076l-0.022,0.075l-0.021,0.077l-0.02,0.076l-0.02,0.077l-0.018,0.077l-0.017,0.078l-0.017,0.078l-0.015,0.078l-0.015,0.079l-0.014,0.079l-0.012,0.079l-0.012,0.08l-0.011,0.08l-0.009,0.08l-0.009,0.081l-0.008,0.081l-0.007,0.081l-0.005,0.081l-0.005,0.082l-0.004,0.082l-0.002,0.082l-0.002,0.083l0,0.082l0.001,0.122l0.003,0.122l0.006,0.12l0.008,0.121l0.01,0.119l0.012,0.119l0.015,0.119l0.016,0.117l0.019,0.117l0.021,0.116l0.023,0.116l0.025,0.115l0.026,0.114l0.03,0.113l0.031,0.112l0.033,0.112l0.034,0.11l0.037,0.11l0.039,0.109l0.041,0.108l0.043,0.107l0.044,0.106l0.046,0.105l0.048,0.104l0.05,0.103l0.052,0.103l0.054,0.101l0.055,0.099l0.057,0.099l0.058,0.098l0.061,0.097l0.062,0.095l0.063,0.094l0.065,0.093l0.067,0.092l0.069,0.091l0.07,0.089l0.071,0.088l0.073,0.087l0.075,0.085l0.076,0.084l0.077,0.083l0.079,0.081l0.08,0.08l0.082,0.079l0.083,0.077l0.085,0.075l0.086,0.074l0.087,0.073l0.088,0.071l0.09,0.07l0.091,0.068l0.092,0.066l0.093,0.065l0.095,0.063l0.096,0.061l0.097,0.06l0.098,0.058l0.099,0.057l0.1,0.055l0.102,0.053l0.102,0.051l0.103,0.049l0.105,0.048l0,26.594l2.607,4.516l2.607,-4.516l0,-26.594l0.105,-0.048l0.103,-0.049l0.103,-0.051l0.101,-0.053l0.1,-0.055l0.1,-0.057l0.098,-0.058l0.097,-0.06l0.095,-0.061l0.095,-0.063l0.093,-0.065l0.093,-0.066l0.091,-0.068l0.089,-0.07l0.089,-0.071l0.087,-0.073l0.086,-0.074l0.084,-0.075l0.083,-0.077l0.082,-0.079l0.08,-0.08l0.079,-0.081l0.078,-0.083l0.076,-0.084l0.074,-0.085l0.073,-0.087l0.072,-0.088l0.07,-0.089l0.068,-0.091l0.067,-0.092l0.065,-0.093l0.064,-0.094l0.062,-0.095l0.06,-0.097l0.059,-0.098l0.057,-0.099l0.055,-0.099l0.053,-0.101l0.052,-0.103l0.05,-0.103l0.048,-0.104l0.046,-0.105l0.045,-0.106l0.042,-0.107l0.041,-0.108l0.039,-0.109l0.037,-0.11l0.035,-0.11l0.033,-0.112l0.031,-0.112l0.029,-0.113l0.027,-0.114l0.025,-0.115l0.023,-0.116l0.02,-0.116l0.019,-0.117l0.017,-0.117l0.014,-0.119l0.012,-0.119l0.01,-0.119l0.008,-0.121l0.006,-0.12l0.003,-0.122l0.002,-0.122l-0.001,-0.082l-0.002,-0.083l-0.002,-0.082l-0.004,-0.082l-0.004,-0.082l-0.006,-0.081l-0.007,-0.081l-0.008,-0.081l-0.008,-0.081l-0.01,-0.08l-0.011,-0.08l-0.011,-0.08l-0.013,-0.079l-0.014,-0.079l-0.014,-0.079l-0.016,-0.078l-0.016,-0.078l-0.018,-0.078l-0.018,-0.077l-0.019,-0.077l-0.021,-0.076l-0.021,-0.077l-0.022,-0.075l-0.023,-0.076l-0.024,-0.075l-0.024,-0.074l-0.026,-0.075l-0.026,-0.073l-0.028,-0.074l-0.028,-0.073l-0.029,-0.072l-0.03,-0.072l-0.031,-0.072l-0.032,-0.071l-0.032,-0.071l-0.034,-0.07l-0.034,-0.07l-0.035,-0.069l-0.036,-0.069l-0.036,-0.068l-0.038,-0.068l-0.038,-0.067l-0.039,-0.067l-0.039,-0.066l-0.041,-0.066l-0.041,-0.065l-0.042,-0.065l-0.043,-0.064l-0.044,-0.064l-0.044,-0.063l-0.045,-0.063l-0.046,-0.062l-0.046,-0.061l-0.048,-0.061l-0.048,-0.06l-0.048,-0.06l-0.049,-0.059l-0.05,-0.058l-0.051,-0.058l-0.052,-0.057l-0.052,-0.057l-0.052,-0.056l-0.054,-0.055l-0.054,-0.055l-0.054,-0.054l-0.056,-0.053l-0.056,-0.053l-0.056,-0.052l-0.057,-0.051l-0.058,-0.051l-0.059,-0.05l-0.059,-0.049l-0.059,-0.049l-0.061,-0.048l-0.06,-0.047l-0.062,-0.047l-0.062,-0.045l-0.062,-0.045l-0.063,-0.045l-0.064,-0.043l-0.064,-0.043l-0.065,-0.042l-0.065,-0.041l-0.066,-0.041l-0.066,-0.04l-0.067,-0.039l-0.067,-0.038l-0.068,-0.037l-0.069,-0.037l-0.068,-0.036l-0.07,-0.035l-0.069,-0.034l-0.071,-0.033l-0.07,-0.033l-0.072,-0.031l-0.071,-0.031l-0.072,-0.03l-0.073,-0.029l-0.073,-0.029l-0.073,-0.027l-0.074,-0.026l-0.074,-0.026l-0.075,-0.025l-0.075,-0.024l-0.075,-0.023l-0.076,-0.022l-0.076,-0.021l-0.077,-0.02l-0.076,-0.019l-0.078,-0.019l-0.077,-0.017l-0.078,-0.017l-0.079,-0.015l-0.078,-0.015l-0.079,-0.013l-0.08,-0.013l-0.079,-0.012l-0.08,-0.01l-0.081,-0.01l-0.08,-0.009l-0.081,-0.008l-0.081,-0.006l-0.082,-0.006l-0.081,-0.005l-0.082,-0.003l-0.083,-0.003l-0.082,-0.001l-0.083,-0.001l-0.083,0.001Zm-0.005,-5.559l-0.166,0.003l-0.166,0.006l-0.166,0.008l-0.165,0.01l-0.165,0.013l-0.165,0.016l-0.164,0.017l-0.164,0.021l-0.164,0.023l-0.163,0.025l-0.163,0.027l-0.162,0.03l-0.162,0.033l-0.161,0.034l-0.16,0.037l-0.16,0.04l-0.16,0.041l-0.158,0.044l-0.158,0.046l-0.157,0.049l-0.157,0.051l-0.155,0.052l-0.155,0.056l-0.154,0.057l-0.153,0.059l-0.152,0.062l-0.152,0.064l-0.15,0.066l-0.149,0.068l-0.149,0.07l-0.147,0.072l-0.146,0.074l-0.145,0.076l-0.144,0.079l-0.143,0.08l-0.142,0.082l-0.14,0.085l-0.14,0.086l-0.138,0.088l-0.136,0.09l-0.136,0.092l-0.134,0.094l-0.132,0.096l-0.131,0.098l-0.13,0.099l-0.128,0.102l-0.127,0.103l-0.126,0.105l-0.123,0.107l-0.123,0.109l-0.12,0.11l-0.119,0.112l-0.117,0.114l-0.116,0.116l-0.114,0.117l-0.112,0.119l-0.11,0.12l-0.109,0.123l-0.107,0.124l-0.104,0.125l-0.103,0.127l-0.101,0.129l-0.1,0.13l-0.097,0.132l-0.104,0.142l-0.052,0.072l-0.05,0.072l-0.024,0.037l-0.024,0.037l-0.022,0.038l-0.022,0.038l-0.021,0.039l-0.019,0.04l-0.018,0.041l-0.017,0.041l-0.012,0.032l-0.01,0.032l-0.01,0.032l-0.009,0.033l-0.008,0.033l-0.007,0.033l-0.006,0.033l-0.006,0.033l-0.004,0.033l-0.003,0.034l-0.003,0.033l-0.001,0.034l-0.001,0.034l0.002,0.067l0.003,0.034l0.004,0.04l0.005,0.04l0.007,0.039l0.008,0.039l0.01,0.038l0.01,0.037l0.012,0.037l0.013,0.036l0.03,0.07l0.017,0.034l0.018,0.033l0.019,0.033l0.019,0.032l0.021,0.031l0.022,0.03l0.023,0.03l0.023,0.029l0.025,0.028l0.025,0.027l0.026,0.027l0.027,0.025l0.028,0.025l0.028,0.024l0.029,0.024l0.03,0.022l0.062,0.042l0.031,0.02l0.032,0.019l0.033,0.018l0.033,0.017l0.034,0.016l0.034,0.015l0.034,0.014l0.035,0.013l0.035,0.012l0.036,0.012l0.035,0.01l0.036,0.009l0.036,0.008l0.037,0.007l0.036,0.006l0.037,0.006l0.036,0.004l0.074,0.004l0.037,0.001l0.037,0l0.036,-0.002l0.037,-0.003l0.036,-0.003l0.037,-0.005l0.036,-0.006l0.036,-0.008l0.035,-0.008l0.036,-0.01l0.035,-0.011l0.035,-0.012l0.034,-0.013l0.034,-0.015l0.034,-0.016l0.033,-0.017l0.033,-0.018l0.028,-0.018l0.028,-0.019l0.027,-0.02l0.026,-0.021l0.053,-0.042l0.053,-0.042l0.174,-0.205l0.057,-0.085l0.059,-0.084l0.059,-0.083l0.06,-0.083l0.062,-0.082l0.062,-0.081l0.063,-0.08l0.064,-0.08l0.065,-0.079l0.066,-0.078l0.066,-0.077l0.068,-0.076l0.068,-0.076l0.069,-0.074l0.07,-0.074l0.071,-0.073l0.072,-0.073l0.072,-0.071l0.073,-0.071l0.074,-0.069l0.075,-0.069l0.075,-0.068l0.077,-0.067l0.077,-0.066l0.077,-0.066l0.079,-0.064l0.079,-0.064l0.08,-0.062l0.08,-0.062l0.081,-0.061l0.082,-0.06l0.082,-0.059l0.084,-0.057l0.083,-0.058l0.085,-0.056l0.085,-0.055l0.085,-0.054l0.086,-0.053l0.087,-0.052l0.088,-0.051l0.088,-0.05l0.088,-0.05l0.089,-0.048l0.09,-0.047l0.09,-0.046l0.09,-0.045l0.091,-0.044l0.092,-0.043l0.092,-0.042l0.093,-0.041l0.093,-0.04l0.093,-0.039l0.094,-0.038l0.095,-0.036l0.095,-0.036l0.095,-0.034l0.096,-0.034l0.096,-0.032l0.096,-0.031l0.097,-0.03l0.097,-0.029l0.098,-0.028l0.098,-0.026l0.098,-0.026l0.081,-0.02l0.081,-0.019l0.081,-0.018l0.082,-0.018l0.081,-0.017l0.082,-0.015l0.081,-0.016l0.082,-0.014l0.082,-0.013l0.082,-0.013l0.082,-0.012l0.081,-0.011l0.082,-0.01l0.082,-0.01l0.082,-0.008l0.082,-0.008l0.082,-0.007l0.082,-0.006l0.083,-0.006l0.082,-0.004l0.082,-0.004l0.082,-0.004l0.082,-0.002l0.082,-0.001l0.082,-0.001l0.163,0l0.164,0.004l0.082,0.003l0.081,0.004l0.164,0.01l0.081,0.006l0.163,0.014l0.162,0.017l0.162,0.021l0.161,0.023l0.161,0.026l0.16,0.029l0.159,0.031l0.159,0.035l0.159,0.037l0.157,0.04l0.157,0.043l0.155,0.046l0.155,0.048l0.154,0.052l0.153,0.053l0.152,0.057l0.151,0.059l0.15,0.062l0.149,0.064l0.147,0.067l0.146,0.07l0.145,0.072l0.143,0.074l0.142,0.077l0.141,0.08l0.139,0.082l0.138,0.084l0.136,0.087l0.135,0.089l0.132,0.092l0.131,0.093l0.13,0.097l0.127,0.098l0.126,0.101l0.124,0.103l0.122,0.105l0.119,0.108l0.06,0.055l0.116,0.11l0.115,0.113l0.057,0.058l0.056,0.058l0.055,0.058l0.055,0.059l0.054,0.059l0.054,0.06l0.106,0.122l0.052,0.061l0.052,0.062l0.051,0.063l0.05,0.063l0.049,0.063l0.05,0.064l0.048,0.065l0.027,0.036l0.025,0.037l0.051,0.074l0.05,0.075l0.051,0.074l0.052,0.073l0.027,0.036l0.028,0.036l0.029,0.034l0.03,0.034l0.031,0.033l0.033,0.032l0.031,0.029l0.032,0.027l0.033,0.026l0.034,0.024l0.035,0.024l0.036,0.022l0.036,0.021l0.038,0.019l0.037,0.018l0.039,0.017l0.039,0.016l0.039,0.014l0.04,0.013l0.04,0.012l0.041,0.01l0.041,0.009l0.042,0.007l0.041,0.006l0.042,0.005l0.042,0.003l0.042,0.002l0.042,0.001l0.042,-0.002l0.042,-0.002l0.041,-0.004l0.042,-0.005l0.042,-0.007l0.041,-0.009l0.041,-0.009l0.04,-0.012l0.041,-0.013l0.039,-0.014l0.048,-0.019l0.045,-0.022l0.045,-0.023l0.044,-0.025l0.042,-0.027l0.042,-0.029l0.039,-0.031l0.039,-0.032l0.037,-0.034l0.036,-0.036l0.034,-0.036l0.033,-0.038l0.031,-0.04l0.03,-0.041l0.028,-0.041l0.026,-0.043l0.025,-0.044l0.023,-0.045l0.021,-0.045l0.019,-0.047l0.017,-0.047l0.016,-0.048l0.013,-0.048l0.012,-0.049l0.009,-0.05l0.008,-0.049l0.005,-0.05l0.003,-0.05l0.001,-0.051l-0.001,-0.05l-0.004,-0.051l-0.006,-0.05l-0.006,-0.033l-0.007,-0.033l-0.008,-0.033l-0.009,-0.032l-0.019,-0.065l-0.019,-0.065l-0.123,-0.238l-0.099,-0.145l-0.1,-0.143l-0.098,-0.136l-0.101,-0.134l-0.103,-0.133l-0.104,-0.131l-0.107,-0.129l-0.108,-0.127l-0.111,-0.126l-0.112,-0.124l-0.114,-0.122l-0.116,-0.12l-0.118,-0.119l-0.119,-0.116l-0.121,-0.115l-0.122,-0.113l-0.125,-0.111l-0.126,-0.109l-0.127,-0.107l-0.129,-0.106l-0.131,-0.103l-0.131,-0.102l-0.134,-0.099l-0.135,-0.098l-0.136,-0.095l-0.137,-0.094l-0.139,-0.091l-0.14,-0.09l-0.142,-0.088l-0.142,-0.085l-0.144,-0.083l-0.145,-0.082l-0.146,-0.079l-0.147,-0.077l-0.148,-0.075l-0.15,-0.073l-0.15,-0.07l-0.151,-0.069l-0.152,-0.066l-0.153,-0.064l-0.154,-0.062l-0.155,-0.06l-0.156,-0.058l-0.156,-0.055l-0.157,-0.053l-0.158,-0.05l-0.159,-0.049l-0.159,-0.046l-0.16,-0.044l-0.16,-0.041l-0.161,-0.039l-0.161,-0.037l-0.162,-0.034l-0.163,-0.032l-0.163,-0.03l-0.163,-0.027l-0.164,-0.025l-0.164,-0.022l-0.164,-0.02l-0.165,-0.017l-0.165,-0.015l-0.165,-0.013l-0.165,-0.01l-0.166,-0.007l-0.165,-0.005l-0.166,-0.002l-0.132,0Zm-0.069,-5.578l-0.19,0.003l-0.191,0.005l-0.19,0.007l-0.123,0.005l-0.123,0.007l-0.123,0.008l-0.123,0.008l-0.122,0.01l-0.123,0.01l-0.122,0.011l-0.122,0.013l-0.122,0.013l-0.122,0.014l-0.122,0.015l-0.122,0.016l-0.122,0.017l-0.121,0.017l-0.121,0.019l-0.121,0.019l-0.121,0.021l-0.121,0.021l-0.12,0.022l-0.121,0.023l-0.12,0.024l-0.12,0.025l-0.12,0.025l-0.119,0.027l-0.12,0.027l-0.119,0.029l-0.119,0.029l-0.119,0.03l-0.118,0.03l-0.118,0.032l-0.118,0.033l-0.118,0.033l-0.118,0.034l-0.117,0.035l-0.117,0.036l-0.117,0.037l-0.116,0.037l-0.116,0.039l-0.116,0.039l-0.116,0.04l-0.115,0.041l-0.115,0.041l-0.115,0.043l-0.114,0.043l-0.114,0.044l-0.114,0.045l-0.114,0.046l-0.113,0.046l-0.113,0.048l-0.112,0.048l-0.112,0.048l-0.112,0.05l-0.111,0.051l-0.111,0.051l-0.111,0.052l-0.11,0.052l-0.11,0.054l-0.11,0.054l-0.109,0.055l-0.109,0.056l-0.108,0.057l-0.108,0.057l-0.107,0.058l-0.108,0.059l-0.106,0.059l-0.107,0.061l-0.105,0.061l-0.106,0.062l-0.105,0.062l-0.104,0.063l-0.105,0.064l-0.103,0.065l-0.103,0.065l-0.103,0.067l-0.102,0.066l-0.102,0.068l-0.101,0.068l-0.101,0.069l-0.101,0.07l-0.099,0.07l-0.1,0.071l-0.098,0.072l-0.099,0.073l-0.098,0.073l-0.097,0.074l-0.097,0.074l-0.096,0.075l-0.095,0.076l-0.095,0.077l-0.095,0.077l-0.094,0.078l-0.094,0.078l-0.092,0.08l-0.093,0.079l-0.091,0.081l-0.092,0.081l-0.09,0.082l-0.09,0.082l-0.09,0.084l-0.088,0.083l-0.089,0.085l-0.087,0.085l-0.087,0.085l-0.086,0.087l-0.086,0.087l-0.085,0.087l-0.085,0.088l-0.084,0.089l-0.083,0.089l-0.082,0.09l-0.082,0.091l-0.081,0.091l-0.081,0.092l-0.08,0.092l-0.079,0.093l-0.078,0.094l-0.078,0.094l-0.077,0.095l-0.076,0.095l-0.076,0.096l-0.075,0.096l-0.074,0.097l-0.074,0.098l-0.073,0.098l-0.072,0.099l-0.071,0.099l-0.071,0.1l-0.07,0.101l-0.076,0.11l-0.038,0.056l-0.036,0.056l-0.035,0.057l-0.016,0.028l-0.016,0.03l-0.015,0.029l-0.014,0.03l-0.013,0.03l-0.013,0.031l-0.016,0.047l-0.015,0.048l-0.013,0.049l-0.011,0.049l-0.009,0.05l-0.006,0.05l-0.005,0.05l-0.003,0.051l0,0.05l0.002,0.051l0.003,0.05l0.006,0.05l0.008,0.051l0.01,0.049l0.013,0.05l0.014,0.048l0.011,0.034l0.013,0.034l0.013,0.032l0.014,0.032l0.015,0.032l0.016,0.03l0.017,0.03l0.018,0.03l0.018,0.028l0.04,0.056l0.042,0.052l0.023,0.026l0.022,0.024l0.024,0.024l0.024,0.023l0.025,0.022l0.026,0.022l0.026,0.021l0.026,0.02l0.027,0.02l0.028,0.019l0.028,0.018l0.028,0.017l0.029,0.016l0.03,0.016l0.029,0.015l0.03,0.014l0.062,0.026l0.031,0.012l0.031,0.011l0.032,0.01l0.064,0.018l0.032,0.008l0.032,0.006l0.033,0.007l0.033,0.005l0.032,0.004l0.033,0.004l0.066,0.004l0.033,0.001l0.066,0l0.033,-0.002l0.032,-0.003l0.033,-0.003l0.033,-0.004l0.032,-0.006l0.032,-0.006l0.032,-0.007l0.032,-0.008l0.032,-0.008l0.031,-0.01l0.031,-0.011l0.031,-0.012l0.03,-0.012l0.031,-0.014l0.029,-0.014l0.03,-0.016l0.028,-0.016l0.029,-0.018l0.028,-0.019l0.027,-0.02l0.026,-0.021l0.052,-0.042l0.053,-0.042l0.174,-0.205l0.032,-0.049l0.063,-0.092l0.063,-0.091l0.064,-0.09l0.064,-0.091l0.065,-0.089l0.066,-0.089l0.067,-0.089l0.067,-0.087l0.068,-0.088l0.068,-0.087l0.07,-0.086l0.069,-0.085l0.071,-0.085l0.071,-0.085l0.072,-0.084l0.072,-0.083l0.073,-0.083l0.074,-0.082l0.074,-0.082l0.075,-0.081l0.075,-0.08l0.076,-0.08l0.077,-0.079l0.077,-0.079l0.078,-0.078l0.078,-0.077l0.079,-0.077l0.08,-0.076l0.08,-0.075l0.081,-0.075l0.081,-0.075l0.081,-0.073l0.083,-0.073l0.083,-0.073l0.083,-0.072l0.084,-0.071l0.084,-0.07l0.085,-0.07l0.085,-0.069l0.086,-0.069l0.087,-0.068l0.087,-0.067l0.087,-0.067l0.088,-0.066l0.088,-0.065l0.089,-0.065l0.089,-0.064l0.09,-0.063l0.09,-0.063l0.091,-0.062l0.091,-0.061l0.091,-0.061l0.092,-0.06l0.093,-0.059l0.093,-0.059l0.093,-0.058l0.093,-0.057l0.095,-0.057l0.094,-0.056l0.095,-0.055l0.095,-0.054l0.096,-0.054l0.096,-0.053l0.096,-0.053l0.097,-0.051l0.097,-0.051l0.098,-0.051l0.098,-0.049l0.098,-0.049l0.098,-0.048l0.099,-0.047l0.099,-0.047l0.1,-0.046l0.1,-0.045l0.1,-0.044l0.101,-0.044l0.101,-0.043l0.101,-0.042l0.101,-0.042l0.102,-0.04l0.102,-0.04l0.102,-0.04l0.103,-0.038l0.103,-0.038l0.103,-0.037l0.103,-0.036l0.104,-0.035l0.104,-0.035l0.104,-0.034l0.104,-0.033l0.105,-0.032l0.105,-0.032l0.105,-0.03l0.105,-0.03l0.106,-0.03l0.106,-0.028l0.106,-0.028l0.106,-0.026l0.106,-0.026l0.107,-0.026l0.106,-0.024l0.107,-0.024l0.107,-0.022l0.107,-0.022l0.108,-0.021l0.107,-0.021l0.108,-0.019l0.108,-0.019l0.108,-0.018l0.108,-0.017l0.108,-0.016l0.109,-0.016l0.108,-0.014l0.109,-0.014l0.109,-0.013l0.109,-0.012l0.109,-0.011l0.109,-0.01l0.109,-0.01l0.109,-0.008l0.109,-0.008l0.11,-0.007l0.109,-0.006l0.11,-0.005l0.109,-0.005l0.11,-0.003l0.109,-0.003l0.11,-0.002l0.226,0l0.112,0.001l0.225,0.004l0.112,0.004l0.113,0.005l0.112,0.005l0.224,0.014l0.112,0.008l0.111,0.009l0.112,0.01l0.112,0.011l0.222,0.024l0.222,0.028l0.111,0.015l0.111,0.016l0.11,0.017l0.11,0.018l0.111,0.018l0.11,0.02l0.109,0.02l0.11,0.021l0.109,0.022l0.11,0.023l0.109,0.024l0.108,0.024l0.109,0.026l0.108,0.026l0.109,0.027l0.107,0.028l0.108,0.028l0.108,0.03l0.107,0.03l0.107,0.031l0.107,0.032l0.106,0.032l0.212,0.068l0.106,0.035l0.105,0.036l0.21,0.074l0.105,0.038l0.104,0.039l0.104,0.04l0.103,0.04l0.103,0.041l0.103,0.042l0.103,0.043l0.204,0.088l0.102,0.045l0.202,0.092l0.101,0.047l0.1,0.048l0.1,0.049l0.198,0.1l0.099,0.051l0.098,0.051l0.196,0.106l0.097,0.053l0.096,0.055l0.097,0.055l0.096,0.056l0.19,0.114l0.095,0.058l0.094,0.058l0.093,0.06l0.094,0.06l0.092,0.061l0.093,0.061l0.092,0.062l0.182,0.126l0.09,0.064l0.18,0.13l0.089,0.066l0.176,0.134l0.087,0.068l0.174,0.138l0.085,0.07l0.086,0.071l0.084,0.071l0.085,0.072l0.083,0.072l0.083,0.073l0.083,0.074l0.082,0.074l0.081,0.075l0.162,0.152l0.158,0.154l0.079,0.078l0.078,0.079l0.154,0.158l0.076,0.081l0.15,0.162l0.074,0.082l0.074,0.083l0.073,0.083l0.072,0.083l0.213,0.255l0.069,0.086l0.069,0.087l0.136,0.174l0.067,0.088l0.132,0.178l0.128,0.18l0.064,0.091l0.069,0.102l0.07,0.102l0.038,0.051l0.039,0.048l0.02,0.024l0.022,0.023l0.021,0.023l0.023,0.022l0.031,0.028l0.032,0.028l0.034,0.026l0.068,0.048l0.036,0.022l0.037,0.021l0.074,0.038l0.039,0.017l0.078,0.03l0.04,0.013l0.041,0.011l0.04,0.01l0.041,0.009l0.042,0.008l0.041,0.006l0.042,0.005l0.042,0.003l0.042,0.002l0.042,0l0.042,-0.001l0.042,-0.002l0.041,-0.004l0.042,-0.005l0.042,-0.007l0.041,-0.009l0.041,-0.009l0.04,-0.012l0.041,-0.013l0.04,-0.014l0.047,-0.019l0.046,-0.022l0.044,-0.023l0.044,-0.025l0.043,-0.027l0.041,-0.029l0.04,-0.031l0.038,-0.032l0.037,-0.034l0.036,-0.035l0.035,-0.037l0.032,-0.038l0.032,-0.039l0.029,-0.041l0.028,-0.042l0.027,-0.043l0.024,-0.043l0.023,-0.045l0.021,-0.046l0.02,-0.046l0.017,-0.047l0.016,-0.048l0.013,-0.049l0.012,-0.048l0.009,-0.05l0.008,-0.049l0.005,-0.05l0.003,-0.051l0.001,-0.05l-0.001,-0.051l-0.004,-0.05l-0.006,-0.05l-0.005,-0.033l-0.007,-0.033l-0.009,-0.033l-0.009,-0.032l-0.019,-0.065l-0.018,-0.065l-0.124,-0.239l-0.08,-0.119l-0.082,-0.119l-0.083,-0.118l-0.083,-0.118l-0.085,-0.116l-0.086,-0.117l-0.086,-0.115l-0.088,-0.114l-0.088,-0.114l-0.09,-0.113l-0.09,-0.113l-0.092,-0.111l-0.092,-0.111l-0.093,-0.11l-0.094,-0.109l-0.095,-0.109l-0.097,-0.108l-0.096,-0.106l-0.098,-0.106l-0.099,-0.106l-0.1,-0.104l-0.1,-0.103l-0.102,-0.103l-0.102,-0.102l-0.103,-0.101l-0.104,-0.1l-0.105,-0.099l-0.106,-0.098l-0.106,-0.098l-0.108,-0.096l-0.108,-0.096l-0.109,-0.094l-0.143,-0.122l-0.145,-0.12l-0.145,-0.118l-0.147,-0.116l-0.149,-0.115l-0.15,-0.113l-0.151,-0.112l-0.152,-0.11l-0.153,-0.108l-0.155,-0.106l-0.156,-0.104l-0.157,-0.103l-0.158,-0.101l-0.159,-0.1l-0.161,-0.097l-0.161,-0.096l-0.163,-0.094l-0.163,-0.092l-0.165,-0.09l-0.165,-0.089l-0.167,-0.087l-0.167,-0.085l-0.168,-0.083l-0.17,-0.081l-0.17,-0.079l-0.171,-0.078l-0.171,-0.076l-0.173,-0.074l-0.173,-0.072l-0.175,-0.07l-0.174,-0.068l-0.176,-0.066l-0.176,-0.065l-0.177,-0.062l-0.178,-0.061l-0.178,-0.058l-0.179,-0.057l-0.18,-0.055l-0.18,-0.053l-0.181,-0.05l-0.181,-0.049l-0.181,-0.047l-0.182,-0.045l-0.183,-0.043l-0.183,-0.041l-0.184,-0.039l-0.183,-0.037l-0.185,-0.035l-0.184,-0.033l-0.185,-0.031l-0.185,-0.029l-0.186,-0.026l-0.186,-0.025l-0.186,-0.023l-0.186,-0.02l-0.186,-0.019l-0.187,-0.016l-0.187,-0.014l-0.187,-0.013l-0.187,-0.01l-0.187,-0.008l-0.187,-0.006l-0.187,-0.003l-0.188,-0.002l-0.19,0.001Z" style="fill:#fff;"/></svg>