<?xml version="1.0" encoding="UTF-8" standalone="no"?><!DOCTYPE svg PUBLIC "-//W3C//DTD SVG 1.1//EN" "http://www.w3.org/Graphics/SVG/1.1/DTD/svg11.dtd"><svg width="100%" height="100%" viewBox="0 0 60 80" version="1.1" xmlns="http://www.w3.org/2000/svg" xmlns:xlink="http://www.w3.org/1999/xlink" xml:space="preserve" xmlns:serif="http://www.serif.com/" style="fill-rule:evenodd;clip-rule:evenodd;stroke-linejoin:round;stroke-miterlimit:1.41421;"><g><path d="M27.393,46.498c-2.24,-0.996 -3.799,-3.241 -3.799,-5.848c0,-3.535 2.87,-6.406 6.406,-6.406c3.536,0 6.406,2.871 6.406,6.406c0,2.607 -1.559,4.852 -3.799,5.848l0,26.594l-2.607,4.516l-2.607,-4.516l0,-26.594Z" style="fill:#25c829;"/><path d="M30.112,31.914l0.112,0.002l0.112,0.004l0.112,0.005l0.111,0.006l0.111,0.008l0.11,0.009l0.11,0.01l0.11,0.012l0.11,0.013l0.109,0.015l0.109,0.016l0.108,0.017l0.108,0.019l0.107,0.02l0.107,0.021l0.107,0.022l0.106,0.024l0.105,0.025l0.106,0.027l0.104,0.027l0.104,0.029l0.104,0.03l0.103,0.032l0.103,0.032l0.101,0.034l0.102,0.035l0.101,0.037l0.1,0.037l0.1,0.039l0.099,0.039l0.098,0.041l0.098,0.042l0.097,0.044l0.097,0.044l0.096,0.046l0.095,0.046l0.095,0.048l0.093,0.049l0.094,0.05l0.092,0.051l0.092,0.052l0.091,0.053l0.091,0.054l0.089,0.056l0.089,0.056l0.088,0.057l0.088,0.059l0.087,0.059l0.086,0.06l0.085,0.062l0.084,0.062l0.084,0.063l0.083,0.065l0.082,0.065l0.081,0.066l0.08,0.067l0.08,0.068l0.078,0.069l0.078,0.07l0.077,0.071l0.077,0.072l0.075,0.073l0.074,0.073l0.074,0.075l0.072,0.075l0.072,0.076l0.071,0.077l0.07,0.078l0.069,0.079l0.068,0.079l0.067,0.081l0.066,0.081l0.066,0.082l0.064,0.083l0.063,0.083l0.063,0.085l0.061,0.085l0.06,0.086l0.06,0.086l0.058,0.088l0.057,0.088l0.057,0.089l0.055,0.09l0.054,0.09l0.053,0.091l0.053,0.092l0.051,0.093l0.049,0.093l0.049,0.094l0.048,0.094l0.047,0.096l0.045,0.096l0.045,0.096l0.043,0.097l0.042,0.098l0.041,0.099l0.04,0.099l0.038,0.099l0.038,0.101l0.036,0.1l0.035,0.102l0.034,0.102l0.033,0.102l0.031,0.104l0.03,0.103l0.029,0.104l0.028,0.105l0.026,0.105l0.025,0.106l0.024,0.106l0.023,0.106l0.021,0.107l0.02,0.108l0.018,0.108l0.018,0.108l0.015,0.109l0.015,0.109l0.013,0.109l0.012,0.11l0.011,0.11l0.009,0.111l0.008,0.111l0.006,0.111l0.005,0.111l0.003,0.112l0.002,0.112l0.001,0.116l-0.001,0.162l-0.005,0.165l-0.008,0.164l-0.01,0.164l-0.014,0.163l-0.017,0.162l-0.019,0.161l-0.023,0.161l-0.026,0.159l-0.028,0.159l-0.031,0.158l-0.034,0.157l-0.037,0.155l-0.04,0.155l-0.042,0.154l-0.045,0.152l-0.048,0.152l-0.051,0.15l-0.053,0.149l-0.055,0.147l-0.059,0.146l-0.06,0.145l-0.064,0.144l-0.065,0.142l-0.069,0.141l-0.07,0.14l-0.073,0.137l-0.076,0.137l-0.077,0.135l-0.08,0.133l-0.083,0.132l-0.084,0.13l-0.087,0.128l-0.089,0.127l-0.091,0.125l-0.093,0.124l-0.095,0.122l-0.098,0.12l-0.099,0.118l-0.102,0.116l-0.104,0.115l-0.105,0.112l-0.107,0.111l-0.11,0.109l-0.111,0.107l-0.113,0.105l-0.116,0.103l-0.116,0.101l-0.119,0.099l-0.121,0.097l-0.122,0.094l-0.124,0.093l-0.126,0.09l-0.104,0.073l0,25.238l-0.006,0.174l-0.02,0.174l-0.032,0.171l-0.045,0.168l-0.058,0.165l-0.07,0.16l-0.081,0.154l-2.607,4.516l-0.105,0.164l-0.118,0.156l-0.131,0.145l-0.142,0.134l-0.153,0.121l-0.163,0.108l-0.171,0.094l-0.178,0.079l-0.184,0.065l-0.189,0.048l-0.193,0.033l-0.194,0.016l-0.196,0l-0.194,-0.016l-0.193,-0.033l-0.189,-0.048l-0.184,-0.065l-0.178,-0.079l-0.171,-0.094l-0.163,-0.108l-0.153,-0.121l-0.142,-0.134l-0.131,-0.145l-0.118,-0.156l-0.105,-0.164l-2.607,-4.516l-0.081,-0.154l-0.07,-0.16l-0.058,-0.165l-0.045,-0.168l-0.032,-0.171l-0.02,-0.174l-0.006,-0.174l0,-25.238l-0.104,-0.073l-0.126,-0.09l-0.124,-0.093l-0.122,-0.094l-0.121,-0.097l-0.119,-0.099l-0.116,-0.101l-0.116,-0.103l-0.113,-0.105l-0.111,-0.107l-0.11,-0.109l-0.107,-0.111l-0.105,-0.112l-0.104,-0.115l-0.102,-0.116l-0.099,-0.118l-0.098,-0.12l-0.095,-0.122l-0.093,-0.124l-0.091,-0.125l-0.089,-0.127l-0.087,-0.128l-0.084,-0.13l-0.083,-0.132l-0.08,-0.133l-0.077,-0.135l-0.076,-0.137l-0.073,-0.137l-0.07,-0.14l-0.069,-0.141l-0.065,-0.142l-0.064,-0.144l-0.06,-0.145l-0.059,-0.146l-0.055,-0.147l-0.053,-0.149l-0.051,-0.15l-0.048,-0.152l-0.045,-0.152l-0.042,-0.154l-0.04,-0.155l-0.037,-0.155l-0.034,-0.157l-0.031,-0.158l-0.028,-0.159l-0.026,-0.159l-0.023,-0.161l-0.019,-0.161l-0.017,-0.162l-0.014,-0.163l-0.01,-0.164l-0.008,-0.164l-0.005,-0.165l-0.001,-0.162l0.001,-0.116l0.002,-0.112l0.003,-0.112l0.005,-0.111l0.006,-0.111l0.008,-0.111l0.009,-0.111l0.011,-0.11l0.012,-0.11l0.013,-0.109l0.015,-0.109l0.015,-0.109l0.018,-0.108l0.018,-0.108l0.02,-0.108l0.021,-0.107l0.023,-0.106l0.024,-0.106l0.025,-0.106l0.026,-0.105l0.028,-0.105l0.029,-0.104l0.03,-0.103l0.031,-0.104l0.033,-0.102l0.034,-0.102l0.035,-0.101l0.036,-0.101l0.038,-0.101l0.038,-0.099l0.04,-0.099l0.041,-0.099l0.042,-0.098l0.043,-0.097l0.045,-0.096l0.045,-0.096l0.047,-0.095l0.048,-0.095l0.049,-0.094l0.049,-0.093l0.051,-0.093l0.053,-0.092l0.053,-0.091l0.054,-0.09l0.055,-0.09l0.057,-0.089l0.057,-0.088l0.058,-0.088l0.06,-0.086l0.06,-0.086l0.061,-0.085l0.063,-0.085l0.063,-0.083l0.064,-0.083l0.066,-0.082l0.066,-0.081l0.067,-0.081l0.068,-0.079l0.069,-0.079l0.07,-0.078l0.071,-0.077l0.072,-0.076l0.072,-0.075l0.074,-0.075l0.074,-0.073l0.075,-0.073l0.077,-0.072l0.077,-0.071l0.078,-0.07l0.078,-0.069l0.08,-0.068l0.08,-0.067l0.081,-0.066l0.082,-0.065l0.083,-0.065l0.084,-0.063l0.084,-0.062l0.085,-0.062l0.086,-0.06l0.087,-0.059l0.088,-0.059l0.088,-0.057l0.089,-0.056l0.089,-0.056l0.091,-0.054l0.091,-0.053l0.092,-0.052l0.092,-0.051l0.094,-0.05l0.093,-0.049l0.095,-0.048l0.095,-0.046l0.096,-0.046l0.097,-0.044l0.097,-0.044l0.098,-0.042l0.098,-0.041l0.099,-0.039l0.1,-0.039l0.1,-0.037l0.101,-0.037l0.102,-0.035l0.101,-0.034l0.103,-0.032l0.103,-0.032l0.104,-0.03l0.104,-0.029l0.104,-0.027l0.106,-0.027l0.105,-0.025l0.106,-0.024l0.107,-0.022l0.107,-0.021l0.107,-0.02l0.108,-0.019l0.108,-0.017l0.109,-0.016l0.109,-0.015l0.11,-0.013l0.11,-0.012l0.11,-0.01l0.11,-0.009l0.111,-0.008l0.111,-0.006l0.112,-0.005l0.112,-0.004l0.112,-0.002l0.112,-0.001l0.112,0.001Zm-0.195,2.331l-0.082,0.001l-0.082,0.003l-0.082,0.003l-0.082,0.005l-0.082,0.006l-0.081,0.006l-0.081,0.008l-0.08,0.009l-0.08,0.01l-0.08,0.01l-0.08,0.012l-0.079,0.013l-0.079,0.013l-0.079,0.015l-0.078,0.015l-0.078,0.017l-0.078,0.017l-0.077,0.019l-0.077,0.019l-0.077,0.02l-0.076,0.021l-0.076,0.022l-0.075,0.023l-0.075,0.024l-0.075,0.025l-0.074,0.026l-0.074,0.026l-0.073,0.027l-0.073,0.029l-0.073,0.029l-0.072,0.03l-0.071,0.031l-0.071,0.031l-0.071,0.033l-0.07,0.033l-0.07,0.034l-0.069,0.035l-0.069,0.036l-0.069,0.037l-0.067,0.037l-0.068,0.038l-0.067,0.039l-0.066,0.04l-0.066,0.041l-0.065,0.041l-0.065,0.042l-0.064,0.043l-0.063,0.043l-0.064,0.045l-0.062,0.045l-0.062,0.045l-0.061,0.047l-0.061,0.047l-0.06,0.048l-0.06,0.049l-0.059,0.049l-0.059,0.05l-0.057,0.051l-0.058,0.051l-0.056,0.052l-0.056,0.053l-0.055,0.053l-0.055,0.054l-0.054,0.055l-0.054,0.055l-0.052,0.056l-0.052,0.057l-0.052,0.057l-0.05,0.058l-0.05,0.058l-0.05,0.059l-0.048,0.06l-0.048,0.06l-0.047,0.061l-0.047,0.061l-0.046,0.062l-0.045,0.063l-0.044,0.063l-0.044,0.064l-0.042,0.064l-0.043,0.065l-0.041,0.065l-0.04,0.066l-0.04,0.066l-0.039,0.067l-0.038,0.067l-0.038,0.068l-0.036,0.068l-0.036,0.069l-0.035,0.069l-0.034,0.07l-0.034,0.07l-0.032,0.071l-0.032,0.071l-0.031,0.072l-0.03,0.072l-0.029,0.072l-0.028,0.073l-0.027,0.074l-0.027,0.073l-0.026,0.075l-0.024,0.074l-0.024,0.075l-0.023,0.076l-0.022,0.075l-0.021,0.077l-0.021,0.076l-0.019,0.077l-0.018,0.077l-0.018,0.078l-0.016,0.078l-0.016,0.078l-0.014,0.079l-0.014,0.079l-0.012,0.079l-0.012,0.08l-0.011,0.08l-0.01,0.08l-0.008,0.081l-0.008,0.081l-0.007,0.081l-0.005,0.081l-0.005,0.082l-0.004,0.082l-0.002,0.082l-0.002,0.083l0,0.082l0.001,0.122l0.003,0.122l0.006,0.12l0.008,0.121l0.01,0.119l0.012,0.119l0.014,0.119l0.017,0.117l0.019,0.117l0.021,0.116l0.022,0.116l0.025,0.115l0.027,0.114l0.029,0.113l0.031,0.112l0.033,0.112l0.035,0.11l0.037,0.11l0.039,0.109l0.041,0.108l0.042,0.107l0.045,0.106l0.046,0.105l0.048,0.104l0.05,0.103l0.052,0.103l0.053,0.101l0.056,0.099l0.057,0.099l0.058,0.098l0.06,0.097l0.062,0.095l0.064,0.094l0.065,0.093l0.067,0.092l0.069,0.091l0.07,0.089l0.071,0.088l0.073,0.087l0.075,0.085l0.076,0.084l0.077,0.083l0.079,0.081l0.08,0.08l0.082,0.079l0.083,0.077l0.085,0.075l0.085,0.074l0.088,0.073l0.088,0.071l0.09,0.07l0.091,0.068l0.092,0.066l0.093,0.065l0.095,0.063l0.096,0.061l0.096,0.06l0.099,0.058l0.099,0.057l0.1,0.055l0.101,0.053l0.103,0.051l0.103,0.049l0.105,0.048l0,26.594l2.607,4.516l2.607,-4.516l0,-26.594l0.105,-0.048l0.103,-0.049l0.103,-0.051l0.101,-0.053l0.1,-0.055l0.099,-0.057l0.099,-0.058l0.096,-0.06l0.096,-0.061l0.095,-0.063l0.093,-0.065l0.092,-0.066l0.091,-0.068l0.09,-0.07l0.088,-0.071l0.088,-0.073l0.085,-0.074l0.085,-0.075l0.083,-0.077l0.082,-0.079l0.08,-0.08l0.079,-0.081l0.077,-0.083l0.076,-0.084l0.075,-0.085l0.073,-0.087l0.071,-0.088l0.07,-0.089l0.069,-0.091l0.067,-0.092l0.065,-0.093l0.064,-0.094l0.062,-0.095l0.06,-0.097l0.058,-0.098l0.057,-0.099l0.056,-0.099l0.053,-0.101l0.052,-0.103l0.05,-0.103l0.048,-0.104l0.046,-0.105l0.045,-0.106l0.042,-0.107l0.041,-0.108l0.039,-0.109l0.037,-0.11l0.035,-0.11l0.033,-0.112l0.031,-0.112l0.029,-0.113l0.027,-0.114l0.025,-0.115l0.022,-0.116l0.021,-0.116l0.019,-0.117l0.017,-0.117l0.014,-0.119l0.012,-0.119l0.01,-0.119l0.008,-0.121l0.006,-0.12l0.003,-0.122l0.001,-0.122l0,-0.082l-0.002,-0.083l-0.002,-0.082l-0.004,-0.082l-0.005,-0.082l-0.005,-0.081l-0.007,-0.081l-0.008,-0.081l-0.008,-0.081l-0.01,-0.08l-0.011,-0.08l-0.012,-0.08l-0.012,-0.079l-0.014,-0.079l-0.014,-0.079l-0.016,-0.078l-0.016,-0.078l-0.018,-0.078l-0.018,-0.077l-0.019,-0.077l-0.021,-0.076l-0.021,-0.077l-0.022,-0.075l-0.023,-0.076l-0.024,-0.075l-0.024,-0.074l-0.026,-0.075l-0.027,-0.073l-0.027,-0.074l-0.028,-0.073l-0.029,-0.072l-0.03,-0.072l-0.031,-0.072l-0.032,-0.071l-0.032,-0.071l-0.034,-0.07l-0.034,-0.07l-0.035,-0.069l-0.036,-0.069l-0.036,-0.068l-0.038,-0.068l-0.038,-0.067l-0.039,-0.067l-0.04,-0.066l-0.04,-0.066l-0.041,-0.065l-0.043,-0.065l-0.042,-0.064l-0.044,-0.064l-0.044,-0.063l-0.045,-0.063l-0.046,-0.062l-0.047,-0.061l-0.047,-0.061l-0.048,-0.06l-0.048,-0.06l-0.05,-0.059l-0.05,-0.058l-0.05,-0.058l-0.052,-0.057l-0.052,-0.057l-0.052,-0.056l-0.054,-0.055l-0.054,-0.055l-0.055,-0.054l-0.055,-0.053l-0.056,-0.053l-0.056,-0.052l-0.058,-0.051l-0.057,-0.051l-0.059,-0.05l-0.059,-0.049l-0.06,-0.049l-0.06,-0.048l-0.061,-0.047l-0.061,-0.047l-0.062,-0.045l-0.062,-0.045l-0.064,-0.045l-0.063,-0.043l-0.064,-0.043l-0.065,-0.042l-0.065,-0.041l-0.066,-0.041l-0.066,-0.04l-0.067,-0.039l-0.068,-0.038l-0.067,-0.037l-0.069,-0.037l-0.069,-0.036l-0.069,-0.035l-0.07,-0.034l-0.07,-0.033l-0.071,-0.033l-0.071,-0.031l-0.071,-0.031l-0.072,-0.03l-0.073,-0.029l-0.073,-0.029l-0.073,-0.027l-0.074,-0.026l-0.074,-0.026l-0.075,-0.025l-0.075,-0.024l-0.075,-0.023l-0.076,-0.022l-0.076,-0.021l-0.077,-0.02l-0.077,-0.019l-0.077,-0.019l-0.078,-0.017l-0.078,-0.017l-0.078,-0.015l-0.079,-0.015l-0.079,-0.013l-0.079,-0.013l-0.08,-0.012l-0.08,-0.01l-0.08,-0.01l-0.08,-0.009l-0.081,-0.008l-0.081,-0.006l-0.082,-0.006l-0.082,-0.005l-0.082,-0.003l-0.082,-0.003l-0.082,-0.001l-0.083,-0.001l-0.083,0.001Z" style="fill:#fff;"/></g></svg>