<?xml version="1.0" encoding="UTF-8" standalone="no"?><!DOCTYPE svg PUBLIC "-//W3C//DTD SVG 1.1//EN" "http://www.w3.org/Graphics/SVG/1.1/DTD/svg11.dtd"><svg width="100%" height="100%" viewBox="0 0 52 68" version="1.1" xmlns="http://www.w3.org/2000/svg" xmlns:xlink="http://www.w3.org/1999/xlink" xml:space="preserve" xmlns:serif="http://www.serif.com/" style="fill-rule:evenodd;clip-rule:evenodd;stroke-linejoin:round;stroke-miterlimit:1.41421;"><path d="M19.88,49.12c-8.752,-2.631 -15.136,-10.756 -15.136,-20.36c0,-11.732 9.524,-21.256 21.256,-21.256c11.732,0 21.256,9.524 21.256,21.256c0,9.604 -6.384,17.729 -15.136,20.36l-6.12,14.636l-6.12,-14.636Z" style="fill:#063;"/><path d="M26.325,3.506l0.325,0.006l0.323,0.01l0.323,0.014l0.322,0.019l0.32,0.022l0.32,0.027l0.319,0.03l0.317,0.034l0.317,0.039l0.315,0.042l0.314,0.046l0.313,0.05l0.312,0.053l0.31,0.058l0.309,0.061l0.308,0.065l0.307,0.069l0.305,0.073l0.303,0.076l0.302,0.08l0.301,0.083l0.299,0.087l0.298,0.091l0.296,0.094l0.295,0.098l0.292,0.101l0.292,0.105l0.289,0.108l0.288,0.111l0.286,0.115l0.285,0.119l0.282,0.121l0.281,0.125l0.279,0.128l0.277,0.132l0.275,0.135l0.274,0.138l0.271,0.141l0.27,0.144l0.267,0.148l0.266,0.15l0.263,0.154l0.261,0.157l0.26,0.16l0.257,0.162l0.255,0.166l0.253,0.169l0.251,0.171l0.248,0.175l0.246,0.178l0.244,0.18l0.242,0.183l0.24,0.186l0.237,0.189l0.235,0.191l0.232,0.194l0.231,0.197l0.227,0.2l0.226,0.202l0.222,0.205l0.221,0.208l0.218,0.21l0.215,0.213l0.213,0.215l0.21,0.218l0.207,0.22l0.205,0.223l0.203,0.226l0.199,0.227l0.197,0.23l0.195,0.233l0.191,0.235l0.189,0.237l0.186,0.239l0.183,0.242l0.18,0.244l0.178,0.247l0.174,0.248l0.172,0.251l0.169,0.253l0.165,0.255l0.163,0.257l0.16,0.259l0.157,0.262l0.153,0.263l0.151,0.266l0.147,0.267l0.145,0.27l0.141,0.271l0.138,0.273l0.135,0.276l0.131,0.277l0.129,0.279l0.125,0.281l0.121,0.282l0.119,0.285l0.115,0.286l0.111,0.288l0.108,0.289l0.105,0.291l0.101,0.293l0.098,0.295l0.094,0.296l0.091,0.297l0.087,0.3l0.083,0.3l0.08,0.303l0.076,0.303l0.073,0.305l0.069,0.307l0.065,0.307l0.061,0.31l0.057,0.31l0.054,0.312l0.05,0.313l0.046,0.314l0.042,0.315l0.038,0.317l0.035,0.317l0.03,0.319l0.027,0.319l0.022,0.321l0.018,0.322l0.015,0.323l0.01,0.323l0.006,0.325l0.002,0.323l-0.001,0.268l-0.004,0.266l-0.007,0.265l-0.01,0.265l-0.012,0.264l-0.015,0.263l-0.018,0.263l-0.021,0.262l-0.023,0.261l-0.025,0.261l-0.029,0.26l-0.031,0.259l-0.033,0.258l-0.037,0.258l-0.039,0.257l-0.041,0.256l-0.044,0.255l-0.047,0.254l-0.049,0.254l-0.051,0.252l-0.054,0.252l-0.057,0.251l-0.059,0.249l-0.062,0.249l-0.064,0.248l-0.066,0.247l-0.069,0.246l-0.072,0.245l-0.073,0.244l-0.076,0.243l-0.079,0.242l-0.081,0.24l-0.083,0.24l-0.085,0.239l-0.088,0.237l-0.09,0.236l-0.093,0.235l-0.094,0.234l-0.097,0.233l-0.099,0.232l-0.102,0.23l-0.103,0.229l-0.106,0.228l-0.108,0.227l-0.11,0.225l-0.113,0.225l-0.114,0.222l-0.117,0.222l-0.118,0.22l-0.121,0.219l-0.123,0.218l-0.125,0.216l-0.127,0.215l-0.129,0.213l-0.131,0.212l-0.133,0.211l-0.135,0.209l-0.137,0.208l-0.14,0.206l-0.141,0.205l-0.143,0.204l-0.145,0.202l-0.146,0.2l-0.149,0.199l-0.151,0.197l-0.152,0.196l-0.155,0.195l-0.156,0.192l-0.158,0.192l-0.16,0.189l-0.162,0.188l-0.163,0.186l-0.166,0.185l-0.167,0.183l-0.168,0.182l-0.171,0.179l-0.172,0.178l-0.175,0.177l-0.175,0.175l-0.178,0.173l-0.179,0.171l-0.181,0.169l-0.182,0.168l-0.184,0.166l-0.186,0.164l-0.188,0.162l-0.189,0.161l-0.19,0.159l-0.192,0.157l-0.194,0.155l-0.195,0.153l-0.197,0.151l-0.199,0.15l-0.2,0.147l-0.201,0.146l-0.203,0.143l-0.204,0.142l-0.206,0.14l-0.208,0.138l-0.208,0.135l-0.21,0.134l-0.212,0.132l-0.213,0.13l-0.214,0.128l-0.216,0.125l-0.217,0.124l-0.219,0.121l-0.219,0.12l-0.222,0.117l-0.222,0.115l-0.224,0.113l-0.225,0.111l-0.226,0.109l-0.228,0.107l-0.228,0.104l-0.23,0.102l-0.231,0.1l-0.233,0.098l-0.233,0.095l-0.235,0.093l-0.07,0.027l-5.43,12.984l-0.123,0.266l-0.142,0.257l-0.161,0.246l-0.178,0.233l-0.195,0.219l-0.211,0.205l-0.225,0.189l-0.238,0.171l-0.251,0.154l-0.26,0.135l-0.27,0.115l-0.278,0.095l-0.284,0.075l-0.289,0.053l-0.292,0.033l-0.293,0.011l-0.293,-0.011l-0.292,-0.033l-0.289,-0.053l-0.284,-0.075l-0.278,-0.095l-0.27,-0.115l-0.26,-0.135l-0.251,-0.154l-0.238,-0.171l-0.225,-0.189l-0.211,-0.205l-0.195,-0.219l-0.178,-0.233l-0.161,-0.246l-0.142,-0.257l-0.123,-0.266l-5.43,-12.984l-0.07,-0.027l-0.235,-0.093l-0.233,-0.095l-0.233,-0.098l-0.231,-0.1l-0.23,-0.102l-0.228,-0.104l-0.228,-0.107l-0.226,-0.109l-0.225,-0.111l-0.224,-0.113l-0.222,-0.115l-0.222,-0.117l-0.219,-0.12l-0.219,-0.121l-0.217,-0.124l-0.216,-0.125l-0.214,-0.128l-0.213,-0.13l-0.212,-0.132l-0.21,-0.134l-0.208,-0.135l-0.208,-0.138l-0.206,-0.14l-0.204,-0.142l-0.203,-0.143l-0.201,-0.146l-0.2,-0.147l-0.199,-0.15l-0.197,-0.151l-0.195,-0.153l-0.194,-0.155l-0.192,-0.157l-0.19,-0.159l-0.189,-0.161l-0.188,-0.162l-0.186,-0.164l-0.184,-0.166l-0.182,-0.168l-0.181,-0.169l-0.179,-0.172l-0.178,-0.172l-0.175,-0.175l-0.175,-0.177l-0.172,-0.178l-0.171,-0.179l-0.168,-0.182l-0.167,-0.183l-0.166,-0.185l-0.163,-0.186l-0.162,-0.188l-0.16,-0.189l-0.158,-0.192l-0.156,-0.192l-0.155,-0.195l-0.152,-0.196l-0.151,-0.197l-0.149,-0.199l-0.146,-0.2l-0.145,-0.202l-0.143,-0.204l-0.141,-0.205l-0.14,-0.206l-0.137,-0.208l-0.135,-0.209l-0.133,-0.211l-0.131,-0.212l-0.129,-0.213l-0.127,-0.215l-0.125,-0.216l-0.123,-0.218l-0.121,-0.219l-0.118,-0.22l-0.117,-0.222l-0.114,-0.222l-0.113,-0.225l-0.11,-0.225l-0.108,-0.227l-0.106,-0.228l-0.103,-0.229l-0.102,-0.23l-0.099,-0.232l-0.097,-0.233l-0.094,-0.234l-0.093,-0.235l-0.09,-0.236l-0.088,-0.237l-0.085,-0.239l-0.083,-0.24l-0.081,-0.24l-0.079,-0.242l-0.076,-0.243l-0.073,-0.244l-0.072,-0.245l-0.069,-0.246l-0.066,-0.247l-0.064,-0.248l-0.062,-0.249l-0.059,-0.249l-0.057,-0.251l-0.054,-0.252l-0.051,-0.252l-0.049,-0.254l-0.047,-0.254l-0.044,-0.255l-0.041,-0.256l-0.039,-0.257l-0.037,-0.258l-0.033,-0.258l-0.031,-0.259l-0.029,-0.26l-0.025,-0.261l-0.023,-0.261l-0.021,-0.262l-0.018,-0.263l-0.015,-0.263l-0.012,-0.264l-0.01,-0.265l-0.007,-0.265l-0.004,-0.266l-0.001,-0.269l0.002,-0.322l0.006,-0.325l0.01,-0.323l0.015,-0.323l0.018,-0.322l0.022,-0.321l0.027,-0.319l0.03,-0.319l0.035,-0.317l0.038,-0.317l0.042,-0.315l0.046,-0.314l0.05,-0.313l0.054,-0.312l0.057,-0.31l0.061,-0.31l0.065,-0.307l0.069,-0.307l0.073,-0.305l0.076,-0.303l0.08,-0.303l0.083,-0.3l0.087,-0.3l0.091,-0.297l0.094,-0.296l0.098,-0.295l0.101,-0.293l0.105,-0.291l0.108,-0.289l0.111,-0.288l0.115,-0.286l0.119,-0.285l0.121,-0.282l0.125,-0.281l0.129,-0.279l0.131,-0.277l0.135,-0.276l0.138,-0.273l0.141,-0.271l0.145,-0.27l0.147,-0.267l0.151,-0.266l0.153,-0.263l0.157,-0.262l0.16,-0.259l0.163,-0.257l0.165,-0.255l0.169,-0.253l0.172,-0.251l0.174,-0.248l0.178,-0.247l0.18,-0.244l0.183,-0.242l0.186,-0.239l0.189,-0.237l0.191,-0.235l0.195,-0.233l0.197,-0.23l0.199,-0.227l0.203,-0.226l0.205,-0.223l0.207,-0.22l0.21,-0.218l0.213,-0.215l0.215,-0.213l0.218,-0.21l0.221,-0.208l0.223,-0.205l0.225,-0.202l0.227,-0.2l0.231,-0.197l0.232,-0.194l0.235,-0.191l0.237,-0.189l0.24,-0.186l0.242,-0.183l0.244,-0.18l0.246,-0.178l0.248,-0.175l0.251,-0.171l0.253,-0.169l0.255,-0.166l0.257,-0.162l0.26,-0.16l0.261,-0.157l0.263,-0.154l0.266,-0.15l0.267,-0.148l0.27,-0.144l0.271,-0.141l0.274,-0.138l0.275,-0.135l0.277,-0.132l0.279,-0.128l0.281,-0.125l0.282,-0.121l0.285,-0.119l0.286,-0.115l0.288,-0.111l0.289,-0.108l0.292,-0.105l0.292,-0.101l0.295,-0.098l0.296,-0.094l0.298,-0.091l0.299,-0.087l0.301,-0.083l0.302,-0.08l0.303,-0.076l0.305,-0.073l0.307,-0.069l0.308,-0.065l0.309,-0.061l0.31,-0.058l0.312,-0.053l0.313,-0.05l0.314,-0.046l0.315,-0.042l0.317,-0.039l0.317,-0.034l0.319,-0.03l0.32,-0.027l0.32,-0.022l0.322,-0.019l0.323,-0.014l0.323,-0.01l0.325,-0.006l0.325,-0.002l0.325,0.002Zm-0.6,3.999l-0.273,0.006l-0.273,0.008l-0.272,0.012l-0.271,0.016l-0.27,0.019l-0.27,0.022l-0.268,0.026l-0.267,0.028l-0.267,0.033l-0.265,0.035l-0.264,0.039l-0.263,0.042l-0.263,0.045l-0.261,0.048l-0.26,0.052l-0.258,0.055l-0.258,0.057l-0.256,0.061l-0.256,0.064l-0.254,0.068l-0.252,0.07l-0.252,0.073l-0.25,0.076l-0.249,0.079l-0.247,0.082l-0.247,0.085l-0.244,0.088l-0.244,0.091l-0.242,0.094l-0.24,0.097l-0.239,0.099l-0.238,0.103l-0.236,0.105l-0.235,0.108l-0.233,0.11l-0.231,0.114l-0.23,0.116l-0.229,0.118l-0.226,0.122l-0.225,0.124l-0.224,0.127l-0.222,0.129l-0.22,0.132l-0.218,0.134l-0.216,0.137l-0.215,0.14l-0.213,0.142l-0.211,0.145l-0.209,0.147l-0.208,0.149l-0.205,0.152l-0.204,0.154l-0.202,0.157l-0.2,0.159l-0.198,0.161l-0.195,0.164l-0.194,0.166l-0.192,0.168l-0.19,0.17l-0.188,0.173l-0.185,0.175l-0.184,0.177l-0.181,0.179l-0.18,0.182l-0.177,0.183l-0.175,0.186l-0.172,0.188l-0.171,0.19l-0.168,0.191l-0.166,0.194l-0.164,0.196l-0.161,0.198l-0.159,0.2l-0.157,0.202l-0.154,0.203l-0.152,0.206l-0.149,0.207l-0.147,0.21l-0.145,0.211l-0.142,0.213l-0.139,0.214l-0.137,0.217l-0.135,0.218l-0.132,0.22l-0.129,0.222l-0.127,0.223l-0.124,0.225l-0.121,0.227l-0.119,0.228l-0.116,0.23l-0.114,0.232l-0.11,0.233l-0.108,0.235l-0.105,0.236l-0.103,0.237l-0.099,0.239l-0.097,0.241l-0.093,0.242l-0.091,0.243l-0.088,0.245l-0.085,0.246l-0.083,0.248l-0.079,0.249l-0.076,0.25l-0.073,0.251l-0.07,0.253l-0.067,0.254l-0.064,0.255l-0.061,0.257l-0.058,0.257l-0.055,0.259l-0.051,0.26l-0.049,0.261l-0.045,0.262l-0.042,0.264l-0.039,0.264l-0.035,0.265l-0.032,0.266l-0.029,0.268l-0.026,0.268l-0.022,0.269l-0.019,0.271l-0.015,0.271l-0.012,0.272l-0.009,0.273l-0.005,0.273l-0.002,0.275l0.001,0.225l0.004,0.224l0.005,0.224l0.009,0.223l0.01,0.222l0.013,0.222l0.015,0.222l0.017,0.22l0.019,0.22l0.022,0.22l0.024,0.219l0.026,0.218l0.028,0.217l0.031,0.217l0.032,0.216l0.035,0.215l0.037,0.215l0.04,0.214l0.041,0.213l0.043,0.212l0.046,0.212l0.047,0.211l0.05,0.21l0.052,0.209l0.054,0.208l0.055,0.208l0.058,0.206l0.06,0.206l0.062,0.205l0.064,0.204l0.066,0.204l0.068,0.202l0.07,0.201l0.072,0.201l0.074,0.199l0.075,0.199l0.078,0.198l0.08,0.196l0.081,0.196l0.084,0.195l0.085,0.194l0.087,0.192l0.089,0.192l0.091,0.191l0.092,0.189l0.095,0.189l0.096,0.187l0.098,0.187l0.1,0.185l0.102,0.184l0.103,0.183l0.105,0.182l0.107,0.181l0.109,0.18l0.11,0.178l0.112,0.178l0.114,0.176l0.115,0.175l0.118,0.174l0.118,0.172l0.121,0.172l0.122,0.17l0.123,0.168l0.126,0.168l0.127,0.166l0.128,0.165l0.13,0.164l0.132,0.162l0.133,0.161l0.135,0.16l0.136,0.158l0.138,0.157l0.139,0.156l0.141,0.154l0.142,0.153l0.144,0.152l0.145,0.15l0.147,0.148l0.148,0.147l0.149,0.146l0.151,0.144l0.153,0.143l0.154,0.142l0.155,0.139l0.156,0.139l0.158,0.136l0.159,0.136l0.161,0.133l0.162,0.133l0.163,0.13l0.165,0.129l0.165,0.128l0.168,0.126l0.168,0.124l0.17,0.122l0.17,0.121l0.173,0.12l0.173,0.117l0.174,0.116l0.176,0.115l0.177,0.112l0.178,0.111l0.179,0.11l0.181,0.107l0.181,0.106l0.183,0.104l0.184,0.102l0.185,0.101l0.186,0.098l0.187,0.097l0.188,0.095l0.189,0.094l0.191,0.091l0.191,0.09l0.192,0.088l0.194,0.085l0.194,0.085l0.196,0.082l0.196,0.08l0.197,0.078l0.199,0.077l0.199,0.074l0.2,0.073l0.201,0.07l0.202,0.069l0.203,0.067l0.204,0.064l0.205,0.063l6.12,14.636l6.12,-14.636l0.205,-0.063l0.204,-0.064l0.203,-0.067l0.202,-0.069l0.201,-0.07l0.2,-0.073l0.199,-0.074l0.199,-0.077l0.197,-0.078l0.196,-0.08l0.196,-0.082l0.194,-0.085l0.194,-0.085l0.192,-0.088l0.191,-0.09l0.191,-0.091l0.189,-0.094l0.188,-0.095l0.187,-0.097l0.186,-0.098l0.185,-0.101l0.184,-0.102l0.183,-0.104l0.181,-0.106l0.181,-0.107l0.179,-0.11l0.178,-0.111l0.177,-0.112l0.176,-0.115l0.174,-0.116l0.173,-0.117l0.173,-0.12l0.17,-0.121l0.17,-0.122l0.168,-0.124l0.168,-0.126l0.165,-0.128l0.165,-0.129l0.163,-0.13l0.162,-0.133l0.161,-0.133l0.159,-0.136l0.158,-0.136l0.156,-0.139l0.155,-0.139l0.154,-0.142l0.153,-0.143l0.151,-0.144l0.149,-0.146l0.148,-0.147l0.147,-0.148l0.145,-0.15l0.144,-0.152l0.142,-0.153l0.141,-0.154l0.139,-0.156l0.138,-0.157l0.136,-0.158l0.135,-0.16l0.133,-0.161l0.132,-0.162l0.13,-0.164l0.128,-0.165l0.127,-0.166l0.126,-0.168l0.123,-0.168l0.122,-0.17l0.121,-0.172l0.118,-0.172l0.118,-0.174l0.115,-0.175l0.114,-0.176l0.112,-0.178l0.11,-0.178l0.109,-0.18l0.107,-0.181l0.105,-0.182l0.103,-0.183l0.102,-0.184l0.1,-0.185l0.098,-0.187l0.096,-0.187l0.095,-0.189l0.092,-0.189l0.091,-0.191l0.089,-0.192l0.087,-0.192l0.085,-0.194l0.084,-0.195l0.081,-0.196l0.08,-0.196l0.078,-0.198l0.075,-0.199l0.074,-0.199l0.072,-0.201l0.07,-0.201l0.068,-0.202l0.066,-0.204l0.064,-0.204l0.062,-0.205l0.06,-0.206l0.058,-0.206l0.055,-0.208l0.054,-0.208l0.052,-0.209l0.05,-0.21l0.047,-0.211l0.046,-0.212l0.043,-0.212l0.041,-0.213l0.04,-0.214l0.037,-0.215l0.035,-0.215l0.032,-0.216l0.031,-0.217l0.028,-0.217l0.026,-0.218l0.024,-0.219l0.022,-0.22l0.019,-0.22l0.017,-0.22l0.015,-0.222l0.013,-0.222l0.01,-0.222l0.009,-0.223l0.005,-0.224l0.004,-0.224l0.001,-0.225l-0.002,-0.275l-0.005,-0.273l-0.009,-0.273l-0.012,-0.272l-0.015,-0.271l-0.019,-0.271l-0.022,-0.269l-0.026,-0.268l-0.029,-0.268l-0.032,-0.266l-0.035,-0.265l-0.039,-0.264l-0.042,-0.264l-0.045,-0.262l-0.049,-0.261l-0.051,-0.26l-0.055,-0.259l-0.058,-0.257l-0.061,-0.257l-0.064,-0.255l-0.067,-0.254l-0.07,-0.253l-0.073,-0.251l-0.076,-0.25l-0.079,-0.249l-0.083,-0.248l-0.085,-0.246l-0.088,-0.245l-0.091,-0.243l-0.093,-0.242l-0.097,-0.241l-0.099,-0.239l-0.103,-0.237l-0.105,-0.236l-0.108,-0.235l-0.11,-0.233l-0.114,-0.232l-0.116,-0.23l-0.119,-0.228l-0.121,-0.227l-0.124,-0.225l-0.127,-0.223l-0.129,-0.222l-0.132,-0.22l-0.135,-0.218l-0.137,-0.217l-0.139,-0.214l-0.142,-0.213l-0.145,-0.211l-0.147,-0.21l-0.149,-0.207l-0.152,-0.206l-0.154,-0.203l-0.157,-0.202l-0.159,-0.2l-0.161,-0.198l-0.164,-0.196l-0.166,-0.194l-0.168,-0.191l-0.171,-0.19l-0.172,-0.188l-0.175,-0.186l-0.177,-0.183l-0.18,-0.182l-0.181,-0.179l-0.184,-0.177l-0.185,-0.175l-0.188,-0.173l-0.19,-0.17l-0.192,-0.168l-0.194,-0.166l-0.195,-0.164l-0.198,-0.161l-0.2,-0.159l-0.202,-0.157l-0.204,-0.154l-0.205,-0.152l-0.208,-0.149l-0.209,-0.147l-0.211,-0.145l-0.213,-0.142l-0.215,-0.14l-0.216,-0.137l-0.218,-0.134l-0.22,-0.132l-0.222,-0.129l-0.224,-0.127l-0.225,-0.124l-0.226,-0.122l-0.229,-0.118l-0.23,-0.116l-0.231,-0.114l-0.233,-0.11l-0.235,-0.108l-0.236,-0.105l-0.238,-0.103l-0.239,-0.099l-0.24,-0.097l-0.242,-0.094l-0.244,-0.091l-0.244,-0.088l-0.247,-0.085l-0.247,-0.082l-0.249,-0.079l-0.25,-0.076l-0.252,-0.073l-0.252,-0.07l-0.254,-0.068l-0.256,-0.064l-0.256,-0.061l-0.258,-0.057l-0.258,-0.055l-0.26,-0.052l-0.261,-0.048l-0.263,-0.045l-0.263,-0.042l-0.264,-0.039l-0.265,-0.035l-0.267,-0.033l-0.267,-0.028l-0.268,-0.026l-0.27,-0.022l-0.27,-0.019l-0.271,-0.016l-0.272,-0.012l-0.273,-0.008l-0.273,-0.006l-0.275,-0.001l-0.275,0.001Z" style="fill:#fff;"/><g><circle cx="25.627" cy="28.817" r="13.38" style="fill:#fff;fill-opacity:0.560784;"/><path d="M24.119,14.6c0.057,0.274 0.188,0.48 0.418,0.53c0.618,0.136 0.715,0.18 0.908,0.6c0.077,0.165 -0.484,0.611 0.092,0.913c0.189,0.103 0.63,-0.376 0.719,-0.536c0.132,0.131 0.317,0.418 0.364,0.579c-1.237,0.448 -0.387,0.802 0.129,1.223c1.115,0.907 0.052,0.665 -0.115,1.862c-0.166,1.142 0.835,1.381 -0.186,2.636c-0.507,0.623 -0.178,1.408 0.484,1.808c-0.032,-0.132 0.055,-0.344 -0.056,-0.608c1.12,-0.192 1.37,-0.361 1.129,-1.484c-0.126,-0.596 -0.012,-2.787 0.718,-1.49c0.097,0.174 0.186,2.438 0.117,2.616c-0.294,0.692 -1.085,0.374 -0.626,1.447c0.082,0.029 0.405,0.101 0.475,0.107c0.144,-2.077 1.546,0.863 0.166,0.135c-0.357,0.79 0.594,1.833 1.169,2.352c0.163,-0.191 0.206,-0.395 0.24,-0.646c0.383,0.195 0.633,0.487 0.708,0.859c0.976,0.317 0.955,-1.328 0.074,-0.782c-0.01,-0.1 -0.023,-0.206 -0.033,-0.306c0.262,-0.046 0.254,-0.069 0.445,-0.2c-0.396,-0.258 -0.709,-0.526 -0.705,-0.854c0.027,-0.853 0.424,-0.295 0.856,-0.7c0.015,-0.018 -0.015,-1.347 0.685,-0.842c0.437,0.318 0.077,1.312 0.155,1.526c0.861,-0.144 1.277,-1.87 0.117,-1.86c0.192,-0.625 -0.046,-0.978 0.385,-1.507c0.35,-0.43 0.583,0.243 0.875,0.29c1.723,0.302 0.773,-0.134 0.641,-1.295c-0.035,-0.317 0.539,-0.821 0.111,-1.17c-0.353,-0.287 -0.621,-0.083 -1.034,-0.634c-0.531,-0.708 -0.72,-1.008 -1.065,-1.769c-0.351,-0.783 0.706,-0.407 1.022,-0.15c0.272,0.222 0.663,0.39 0.582,0.753c-0.188,0.842 0.7,0.849 1.124,1.194c0.857,0.698 -0.512,2.681 1.054,1.976c0.314,-0.14 0.707,-0.357 1.038,-0.603c1.655,2.331 2.625,5.177 2.625,8.247c0,7.891 -6.406,14.297 -14.297,14.297c-0.946,0 -1.871,-0.092 -2.766,-0.27c0.07,-0.188 0.112,-0.383 0.061,-0.634c-0.769,-0.041 -0.546,0.263 -0.645,0.505l-0.221,-0.052l-0.5,-0.142l0.076,-0.1c0.114,-0.14 -0.295,-1.014 -0.674,-0.549c-0.116,0.142 -0.255,0.244 -0.415,0.307l-0.479,-0.189l-0.49,-0.222c0.131,-0.12 0.289,-0.195 0.336,-0.333c-0.107,0.308 0.638,-0.99 0.244,-0.64c0.241,-0.212 -0.189,-0.454 0.411,-0.504c0.618,-0.052 0.309,0.483 0.672,0.547c1.253,0.219 0.443,-1.67 -0.52,-2.031c-0.884,-0.334 -0.97,-0.442 -1.547,-1.545c-0.521,-0.99 -1.383,-2.086 -1.704,-3.128c-0.24,-0.764 -0.788,-4.914 0.073,-5.256c1.129,-0.445 1.407,2.91 1.379,3.64c-0.019,0.479 -0.13,1.001 -0.08,1.471c0.048,0.414 0.671,0.506 0.86,0.84c0.438,0.789 0.166,1.747 0.264,2.594c0.076,0.698 4.15,2.089 3.848,-0.085c-0.289,-2.069 -2.351,0.464 -2.294,-1.309c0.143,0.042 0.335,0.061 0.47,0.104c-1.073,-1.838 0.947,-1.452 1.085,0.041c1.031,0.11 0.812,-0.638 0.593,-1.341c-0.328,-1.057 -0.856,-0.267 -1.455,-1.037c0.313,-0.386 0.844,-0.339 1.19,-0.429c-0.428,-0.236 -1.296,-1.64 -0.296,-1.361c0.536,0.153 1.029,2.332 1.369,2.793c0.363,-0.505 0.632,-1.212 0.287,-1.722c-0.142,-0.214 -1.952,-1.323 -0.264,-1.056c-0.012,-1.271 0.916,-0.532 1.25,0.176c0.227,0.876 -1.229,3.21 0.47,3.044c0.508,-0.054 0.242,-1.156 0.541,-1.523c0.466,-0.572 0.668,0.891 0.328,1.309c-0.228,0.281 -0.258,0.656 -0.49,0.941c-0.408,0.502 -0.028,0.164 0.067,0.613c0.085,0.386 0.61,0.381 0.485,0.953c-0.076,0.337 -0.458,0.814 -0.45,0.892c0.099,1.031 0.836,-0.512 0.868,-0.551c0.269,-0.33 0.298,-0.45 0.547,-0.673c0.247,-0.215 0.875,-0.405 1.02,-0.566c0.446,-0.503 0.688,-1.628 0.929,-2.264c0.302,-0.789 -0.008,-1.27 -0.666,-0.463c-0.292,0.359 -1.034,-0.266 -1.061,-0.588c-0.138,-1.363 1.017,-0.044 1.272,-0.358c0.341,-0.418 -0.309,-0.95 -0.707,-1.274c-0.445,-0.362 -0.337,-2.09 -1.251,-1.996c-0.805,0.084 -1.901,-0.017 -2.119,-0.88c-0.155,-0.626 -0.831,-1.63 -0.344,-2.106c0.462,0.914 1.241,1.569 2.079,2.251c0.396,0.322 1.001,-0.024 1.184,0.548c0.114,0.378 0.513,1.198 1.007,1.235l1.228,-0.817c0.332,-0.408 -0.509,-0.836 -0.767,-1.046c-0.568,-0.462 -2.753,-1.508 -2.121,-2.285c0.968,-1.189 -4.875,-2.257 -3.283,-4.213c0.233,-0.287 0.646,0.127 0.951,-0.483c0.228,-0.448 0.149,-0.86 -0.334,-0.97c-0.875,-0.198 0.174,-1.667 0.327,-2.115c-0.529,-0.124 -1.017,-0.375 -1.178,-0.96c-0.125,-0.449 0.388,-0.699 0.013,-1.385c-0.068,-0.125 -0.653,-0.164 -0.814,-0.381c-0.208,-0.285 -0.276,-0.929 -0.358,-1.272l-0.014,-0.067l0.347,-0.062l0.668,-0.085Z" style="fill:#fff;"/></g></svg>