<?xml version="1.0" encoding="UTF-8" standalone="no"?><!DOCTYPE svg PUBLIC "-//W3C//DTD SVG 1.1//EN" "http://www.w3.org/Graphics/SVG/1.1/DTD/svg11.dtd"><svg width="100%" height="100%" viewBox="0 0 26 34" version="1.1" xmlns="http://www.w3.org/2000/svg" xmlns:xlink="http://www.w3.org/1999/xlink" xml:space="preserve" xmlns:serif="http://www.serif.com/" style="fill-rule:evenodd;clip-rule:evenodd;stroke-linejoin:round;stroke-miterlimit:1.41421;"><path d="M9.94,24.56c-4.376,-1.315 -7.568,-5.378 -7.568,-10.18c0,-5.866 4.762,-10.628 10.628,-10.628c5.866,0 10.628,4.762 10.628,10.628c0,4.802 -3.192,8.865 -7.568,10.18l-3.06,7.318l-3.06,-7.318Z" style="fill:#326e50;"/><path d="M13.163,1.753l0.162,0.003l0.162,0.005l0.161,0.007l0.161,0.009l0.16,0.012l0.16,0.013l0.159,0.015l0.159,0.017l0.158,0.019l0.158,0.021l0.157,0.023l0.157,0.025l0.155,0.027l0.156,0.029l0.154,0.031l0.154,0.032l0.153,0.035l0.153,0.036l0.152,0.038l0.151,0.04l0.15,0.042l0.15,0.043l0.148,0.045l0.149,0.047l0.147,0.049l0.146,0.051l0.146,0.052l0.145,0.054l0.144,0.056l0.143,0.058l0.142,0.059l0.141,0.061l0.141,0.062l0.139,0.064l0.139,0.066l0.137,0.067l0.137,0.069l0.136,0.071l0.134,0.072l0.134,0.074l0.133,0.075l0.131,0.077l0.131,0.078l0.13,0.08l0.128,0.082l0.128,0.083l0.126,0.084l0.126,0.086l0.124,0.087l0.123,0.089l0.122,0.09l0.121,0.091l0.12,0.093l0.119,0.095l0.117,0.096l0.116,0.097l0.115,0.098l0.114,0.1l0.113,0.101l0.111,0.103l0.11,0.104l0.109,0.105l0.108,0.106l0.106,0.108l0.105,0.109l0.104,0.11l0.103,0.111l0.101,0.113l0.1,0.114l0.098,0.115l0.097,0.116l0.096,0.117l0.094,0.119l0.093,0.12l0.092,0.121l0.09,0.122l0.089,0.123l0.087,0.124l0.086,0.125l0.084,0.127l0.083,0.127l0.082,0.129l0.079,0.13l0.079,0.13l0.077,0.132l0.075,0.133l0.074,0.134l0.072,0.134l0.07,0.136l0.069,0.137l0.068,0.137l0.066,0.139l0.064,0.139l0.062,0.141l0.061,0.141l0.059,0.142l0.058,0.143l0.056,0.144l0.054,0.145l0.052,0.146l0.051,0.146l0.048,0.147l0.048,0.148l0.045,0.149l0.043,0.15l0.042,0.15l0.04,0.151l0.038,0.152l0.036,0.153l0.035,0.153l0.032,0.154l0.031,0.154l0.029,0.156l0.027,0.155l0.025,0.157l0.023,0.157l0.021,0.158l0.019,0.158l0.017,0.159l0.015,0.159l0.013,0.16l0.011,0.16l0.01,0.161l0.007,0.161l0.005,0.162l0.003,0.162l0.001,0.162l-0.001,0.134l-0.002,0.133l-0.003,0.133l-0.005,0.132l-0.006,0.132l-0.008,0.132l-0.009,0.131l-0.01,0.131l-0.011,0.131l-0.013,0.13l-0.014,0.13l-0.016,0.129l-0.017,0.13l-0.018,0.128l-0.019,0.129l-0.021,0.128l-0.022,0.127l-0.023,0.128l-0.025,0.126l-0.026,0.127l-0.027,0.125l-0.028,0.126l-0.03,0.125l-0.03,0.124l-0.032,0.124l-0.034,0.124l-0.034,0.123l-0.036,0.122l-0.037,0.122l-0.038,0.121l-0.039,0.121l-0.04,0.121l-0.042,0.119l-0.043,0.12l-0.044,0.118l-0.045,0.119l-0.046,0.117l-0.047,0.117l-0.049,0.117l-0.049,0.115l-0.051,0.116l-0.052,0.114l-0.053,0.114l-0.054,0.113l-0.055,0.113l-0.056,0.112l-0.057,0.112l-0.058,0.111l-0.06,0.11l-0.06,0.109l-0.062,0.109l-0.062,0.108l-0.064,0.107l-0.064,0.107l-0.066,0.106l-0.066,0.106l-0.068,0.104l-0.068,0.104l-0.07,0.103l-0.07,0.103l-0.072,0.101l-0.072,0.101l-0.074,0.101l-0.074,0.099l-0.075,0.099l-0.077,0.098l-0.077,0.097l-0.078,0.096l-0.079,0.096l-0.08,0.095l-0.081,0.094l-0.082,0.093l-0.082,0.092l-0.084,0.092l-0.084,0.09l-0.086,0.09l-0.086,0.089l-0.087,0.088l-0.088,0.088l-0.088,0.086l-0.09,0.086l-0.09,0.085l-0.092,0.083l-0.092,0.083l-0.093,0.083l-0.093,0.081l-0.095,0.08l-0.095,0.079l-0.096,0.079l-0.097,0.077l-0.098,0.077l-0.098,0.076l-0.099,0.074l-0.1,0.074l-0.101,0.073l-0.101,0.072l-0.103,0.071l-0.103,0.069l-0.103,0.069l-0.105,0.068l-0.105,0.067l-0.105,0.066l-0.107,0.065l-0.107,0.064l-0.108,0.063l-0.109,0.061l-0.109,0.061l-0.11,0.06l-0.11,0.059l-0.112,0.057l-0.111,0.057l-0.113,0.055l-0.113,0.055l-0.114,0.053l-0.114,0.052l-0.115,0.051l-0.116,0.05l-0.116,0.049l-0.117,0.048l-0.117,0.046l-0.035,0.014l-2.715,6.491l-0.061,0.134l-0.072,0.128l-0.08,0.123l-0.089,0.116l-0.098,0.11l-0.105,0.102l-0.113,0.095l-0.119,0.086l-0.125,0.076l-0.13,0.068l-0.135,0.058l-0.139,0.047l-0.142,0.037l-0.144,0.027l-0.146,0.016l-0.147,0.006l-0.147,-0.006l-0.146,-0.016l-0.144,-0.027l-0.142,-0.037l-0.139,-0.047l-0.135,-0.058l-0.13,-0.068l-0.125,-0.076l-0.119,-0.086l-0.113,-0.095l-0.105,-0.102l-0.098,-0.11l-0.089,-0.116l-0.08,-0.123l-0.072,-0.128l-0.061,-0.134l-2.715,-6.491l-0.035,-0.014l-0.117,-0.046l-0.117,-0.048l-0.116,-0.049l-0.116,-0.05l-0.115,-0.051l-0.114,-0.052l-0.114,-0.053l-0.113,-0.055l-0.113,-0.055l-0.111,-0.057l-0.112,-0.057l-0.11,-0.059l-0.11,-0.06l-0.109,-0.061l-0.109,-0.061l-0.108,-0.063l-0.107,-0.064l-0.107,-0.065l-0.105,-0.066l-0.105,-0.067l-0.105,-0.068l-0.103,-0.069l-0.103,-0.069l-0.103,-0.071l-0.101,-0.072l-0.101,-0.073l-0.1,-0.074l-0.099,-0.074l-0.098,-0.076l-0.098,-0.077l-0.097,-0.077l-0.096,-0.079l-0.095,-0.079l-0.095,-0.08l-0.093,-0.081l-0.093,-0.083l-0.092,-0.083l-0.092,-0.083l-0.09,-0.085l-0.09,-0.086l-0.088,-0.086l-0.088,-0.088l-0.087,-0.088l-0.086,-0.089l-0.086,-0.09l-0.084,-0.09l-0.084,-0.092l-0.082,-0.092l-0.082,-0.093l-0.081,-0.094l-0.08,-0.095l-0.079,-0.096l-0.078,-0.096l-0.077,-0.097l-0.077,-0.098l-0.075,-0.099l-0.074,-0.099l-0.074,-0.101l-0.072,-0.101l-0.072,-0.101l-0.07,-0.103l-0.07,-0.103l-0.068,-0.104l-0.068,-0.104l-0.066,-0.106l-0.066,-0.106l-0.064,-0.107l-0.064,-0.107l-0.062,-0.108l-0.062,-0.109l-0.06,-0.109l-0.06,-0.11l-0.058,-0.111l-0.057,-0.112l-0.056,-0.112l-0.055,-0.113l-0.054,-0.113l-0.053,-0.114l-0.052,-0.114l-0.051,-0.116l-0.049,-0.115l-0.049,-0.117l-0.047,-0.117l-0.046,-0.117l-0.045,-0.119l-0.044,-0.118l-0.043,-0.12l-0.042,-0.119l-0.04,-0.121l-0.039,-0.121l-0.038,-0.121l-0.037,-0.122l-0.036,-0.122l-0.034,-0.123l-0.034,-0.124l-0.032,-0.124l-0.03,-0.124l-0.03,-0.125l-0.028,-0.126l-0.027,-0.125l-0.026,-0.127l-0.025,-0.126l-0.023,-0.128l-0.022,-0.127l-0.021,-0.128l-0.019,-0.129l-0.018,-0.128l-0.017,-0.13l-0.016,-0.129l-0.014,-0.13l-0.013,-0.13l-0.011,-0.131l-0.01,-0.131l-0.009,-0.131l-0.008,-0.132l-0.006,-0.132l-0.005,-0.132l-0.003,-0.133l-0.002,-0.133l-0.001,-0.134l0.001,-0.162l0.003,-0.162l0.005,-0.162l0.007,-0.161l0.01,-0.161l0.011,-0.16l0.013,-0.16l0.015,-0.159l0.017,-0.159l0.019,-0.158l0.021,-0.158l0.023,-0.157l0.025,-0.157l0.027,-0.155l0.029,-0.156l0.031,-0.154l0.032,-0.154l0.035,-0.153l0.036,-0.153l0.038,-0.152l0.04,-0.151l0.042,-0.15l0.043,-0.15l0.045,-0.149l0.048,-0.148l0.048,-0.147l0.051,-0.146l0.052,-0.146l0.054,-0.145l0.056,-0.144l0.058,-0.143l0.059,-0.142l0.061,-0.141l0.062,-0.141l0.064,-0.139l0.066,-0.139l0.068,-0.137l0.069,-0.137l0.07,-0.136l0.072,-0.134l0.074,-0.134l0.075,-0.133l0.077,-0.132l0.079,-0.13l0.079,-0.13l0.082,-0.129l0.083,-0.127l0.084,-0.127l0.086,-0.125l0.087,-0.124l0.089,-0.123l0.09,-0.122l0.092,-0.121l0.093,-0.12l0.094,-0.119l0.096,-0.117l0.097,-0.116l0.098,-0.115l0.1,-0.114l0.101,-0.113l0.103,-0.111l0.104,-0.11l0.105,-0.109l0.106,-0.108l0.108,-0.106l0.109,-0.105l0.11,-0.104l0.111,-0.103l0.113,-0.101l0.114,-0.1l0.115,-0.098l0.116,-0.097l0.117,-0.096l0.119,-0.095l0.12,-0.093l0.121,-0.091l0.122,-0.09l0.123,-0.089l0.124,-0.087l0.126,-0.086l0.126,-0.084l0.128,-0.083l0.128,-0.082l0.13,-0.08l0.131,-0.078l0.131,-0.077l0.133,-0.075l0.134,-0.074l0.134,-0.072l0.136,-0.071l0.137,-0.069l0.137,-0.067l0.139,-0.066l0.139,-0.064l0.141,-0.062l0.141,-0.061l0.142,-0.059l0.143,-0.058l0.144,-0.056l0.145,-0.054l0.146,-0.052l0.146,-0.051l0.147,-0.049l0.149,-0.047l0.148,-0.045l0.15,-0.043l0.15,-0.042l0.151,-0.04l0.152,-0.038l0.153,-0.036l0.153,-0.035l0.154,-0.032l0.154,-0.031l0.156,-0.029l0.155,-0.027l0.157,-0.025l0.157,-0.023l0.158,-0.021l0.158,-0.019l0.159,-0.017l0.159,-0.015l0.16,-0.013l0.16,-0.012l0.161,-0.009l0.161,-0.007l0.162,-0.005l0.162,-0.003l0.163,-0.001l0.163,0.001Zm-0.3,2l-0.137,0.002l-0.137,0.005l-0.136,0.006l-0.135,0.007l-0.135,0.01l-0.135,0.011l-0.134,0.013l-0.134,0.014l-0.133,0.016l-0.132,0.018l-0.133,0.019l-0.131,0.021l-0.131,0.023l-0.131,0.024l-0.13,0.026l-0.129,0.027l-0.129,0.029l-0.128,0.031l-0.128,0.032l-0.127,0.033l-0.126,0.035l-0.126,0.037l-0.125,0.038l-0.124,0.04l-0.124,0.041l-0.123,0.042l-0.123,0.044l-0.121,0.046l-0.121,0.047l-0.121,0.048l-0.119,0.05l-0.119,0.051l-0.118,0.052l-0.117,0.054l-0.117,0.056l-0.116,0.056l-0.115,0.058l-0.114,0.06l-0.113,0.06l-0.113,0.062l-0.111,0.064l-0.111,0.064l-0.11,0.066l-0.109,0.068l-0.109,0.068l-0.107,0.07l-0.106,0.071l-0.106,0.072l-0.105,0.074l-0.103,0.075l-0.103,0.075l-0.102,0.078l-0.101,0.078l-0.1,0.079l-0.099,0.081l-0.098,0.082l-0.097,0.083l-0.096,0.084l-0.094,0.085l-0.094,0.087l-0.093,0.087l-0.092,0.089l-0.091,0.089l-0.089,0.091l-0.089,0.092l-0.087,0.093l-0.087,0.093l-0.085,0.095l-0.084,0.096l-0.083,0.097l-0.082,0.098l-0.08,0.099l-0.08,0.1l-0.078,0.101l-0.077,0.102l-0.076,0.102l-0.075,0.104l-0.074,0.105l-0.072,0.105l-0.071,0.107l-0.07,0.107l-0.068,0.108l-0.067,0.11l-0.066,0.11l-0.065,0.11l-0.063,0.112l-0.062,0.113l-0.061,0.113l-0.06,0.114l-0.058,0.115l-0.056,0.116l-0.056,0.116l-0.054,0.118l-0.052,0.118l-0.051,0.119l-0.05,0.119l-0.048,0.12l-0.047,0.121l-0.046,0.122l-0.044,0.123l-0.042,0.123l-0.041,0.123l-0.04,0.125l-0.038,0.125l-0.037,0.126l-0.035,0.126l-0.033,0.127l-0.032,0.128l-0.031,0.128l-0.029,0.129l-0.027,0.129l-0.026,0.13l-0.024,0.131l-0.022,0.131l-0.021,0.131l-0.02,0.132l-0.018,0.133l-0.016,0.133l-0.014,0.134l-0.013,0.134l-0.011,0.135l-0.009,0.135l-0.008,0.135l-0.006,0.136l-0.005,0.137l-0.002,0.137l-0.001,0.137l0.001,0.112l0.001,0.112l0.003,0.112l0.004,0.112l0.005,0.111l0.007,0.111l0.007,0.111l0.009,0.11l0.01,0.11l0.01,0.11l0.012,0.109l0.013,0.109l0.015,0.109l0.015,0.108l0.016,0.108l0.018,0.108l0.018,0.107l0.02,0.107l0.02,0.107l0.022,0.106l0.023,0.106l0.024,0.105l0.024,0.105l0.026,0.105l0.027,0.104l0.028,0.104l0.029,0.103l0.03,0.103l0.031,0.103l0.032,0.102l0.033,0.101l0.034,0.101l0.035,0.101l0.036,0.1l0.037,0.1l0.038,0.1l0.039,0.098l0.039,0.099l0.041,0.098l0.042,0.097l0.042,0.097l0.044,0.096l0.044,0.096l0.046,0.095l0.046,0.095l0.047,0.094l0.049,0.094l0.049,0.093l0.05,0.093l0.05,0.092l0.052,0.092l0.053,0.091l0.053,0.09l0.054,0.09l0.056,0.089l0.056,0.089l0.057,0.088l0.057,0.087l0.059,0.087l0.059,0.087l0.06,0.085l0.061,0.085l0.062,0.085l0.063,0.083l0.063,0.084l0.065,0.082l0.065,0.082l0.065,0.081l0.067,0.081l0.067,0.079l0.069,0.08l0.068,0.078l0.07,0.078l0.07,0.077l0.072,0.077l0.071,0.075l0.073,0.075l0.073,0.075l0.074,0.073l0.075,0.073l0.076,0.072l0.076,0.072l0.077,0.07l0.077,0.07l0.079,0.069l0.079,0.069l0.079,0.067l0.08,0.067l0.081,0.066l0.082,0.066l0.082,0.064l0.083,0.064l0.084,0.063l0.084,0.062l0.085,0.061l0.085,0.061l0.086,0.059l0.087,0.059l0.087,0.058l0.088,0.057l0.089,0.057l0.089,0.055l0.089,0.055l0.09,0.054l0.091,0.052l0.092,0.052l0.091,0.052l0.093,0.05l0.093,0.049l0.094,0.049l0.094,0.047l0.094,0.047l0.095,0.046l0.096,0.044l0.096,0.044l0.097,0.043l0.097,0.042l0.098,0.041l0.098,0.04l0.099,0.04l0.099,0.038l0.099,0.037l0.101,0.036l0.1,0.036l0.101,0.034l0.102,0.033l0.101,0.033l0.103,0.031l3.06,7.318l3.06,-7.318l0.103,-0.031l0.101,-0.033l0.102,-0.033l0.101,-0.034l0.1,-0.036l0.101,-0.036l0.099,-0.037l0.099,-0.038l0.099,-0.04l0.098,-0.04l0.098,-0.041l0.097,-0.042l0.097,-0.043l0.096,-0.044l0.096,-0.044l0.095,-0.046l0.094,-0.047l0.094,-0.047l0.094,-0.049l0.093,-0.049l0.093,-0.05l0.091,-0.052l0.092,-0.052l0.091,-0.052l0.09,-0.054l0.089,-0.055l0.089,-0.055l0.089,-0.057l0.088,-0.057l0.087,-0.058l0.087,-0.059l0.086,-0.059l0.085,-0.061l0.085,-0.061l0.084,-0.062l0.084,-0.063l0.083,-0.064l0.082,-0.064l0.082,-0.066l0.081,-0.066l0.08,-0.067l0.079,-0.067l0.079,-0.069l0.079,-0.069l0.077,-0.07l0.077,-0.07l0.076,-0.072l0.076,-0.072l0.075,-0.073l0.074,-0.073l0.073,-0.075l0.073,-0.075l0.071,-0.075l0.072,-0.077l0.07,-0.077l0.07,-0.078l0.068,-0.078l0.069,-0.08l0.067,-0.079l0.067,-0.081l0.065,-0.081l0.065,-0.082l0.065,-0.082l0.063,-0.084l0.063,-0.083l0.062,-0.085l0.061,-0.085l0.06,-0.085l0.059,-0.087l0.059,-0.087l0.057,-0.087l0.057,-0.088l0.056,-0.089l0.056,-0.089l0.054,-0.09l0.053,-0.09l0.053,-0.091l0.052,-0.092l0.05,-0.092l0.05,-0.093l0.049,-0.093l0.049,-0.094l0.047,-0.094l0.046,-0.095l0.046,-0.095l0.044,-0.096l0.044,-0.096l0.042,-0.097l0.042,-0.097l0.041,-0.098l0.039,-0.099l0.039,-0.098l0.038,-0.1l0.037,-0.1l0.036,-0.1l0.035,-0.101l0.034,-0.101l0.033,-0.101l0.032,-0.102l0.031,-0.103l0.03,-0.103l0.029,-0.103l0.028,-0.104l0.027,-0.104l0.026,-0.105l0.024,-0.105l0.024,-0.105l0.023,-0.106l0.022,-0.106l0.02,-0.107l0.02,-0.107l0.018,-0.107l0.018,-0.108l0.016,-0.108l0.015,-0.108l0.015,-0.109l0.013,-0.109l0.012,-0.109l0.01,-0.11l0.01,-0.11l0.009,-0.11l0.007,-0.111l0.007,-0.111l0.005,-0.111l0.004,-0.112l0.003,-0.112l0.001,-0.112l0.001,-0.112l-0.001,-0.137l-0.002,-0.137l-0.005,-0.137l-0.006,-0.136l-0.008,-0.135l-0.009,-0.135l-0.011,-0.135l-0.013,-0.134l-0.014,-0.134l-0.016,-0.133l-0.018,-0.133l-0.02,-0.132l-0.021,-0.131l-0.022,-0.131l-0.024,-0.131l-0.026,-0.13l-0.027,-0.129l-0.029,-0.129l-0.031,-0.128l-0.032,-0.128l-0.033,-0.127l-0.035,-0.126l-0.037,-0.126l-0.038,-0.125l-0.04,-0.125l-0.041,-0.123l-0.042,-0.123l-0.044,-0.123l-0.046,-0.122l-0.047,-0.121l-0.048,-0.12l-0.05,-0.119l-0.051,-0.119l-0.052,-0.118l-0.054,-0.118l-0.056,-0.116l-0.056,-0.116l-0.058,-0.115l-0.06,-0.114l-0.061,-0.113l-0.062,-0.113l-0.063,-0.112l-0.065,-0.11l-0.066,-0.11l-0.067,-0.11l-0.068,-0.108l-0.07,-0.107l-0.071,-0.107l-0.072,-0.105l-0.074,-0.105l-0.075,-0.104l-0.076,-0.102l-0.077,-0.102l-0.078,-0.101l-0.08,-0.1l-0.08,-0.099l-0.082,-0.098l-0.083,-0.097l-0.084,-0.096l-0.085,-0.095l-0.087,-0.093l-0.087,-0.093l-0.089,-0.092l-0.089,-0.091l-0.091,-0.089l-0.092,-0.089l-0.093,-0.087l-0.094,-0.087l-0.094,-0.085l-0.096,-0.084l-0.097,-0.083l-0.098,-0.082l-0.099,-0.081l-0.1,-0.079l-0.101,-0.078l-0.102,-0.078l-0.103,-0.075l-0.103,-0.075l-0.105,-0.074l-0.106,-0.072l-0.106,-0.071l-0.107,-0.07l-0.109,-0.068l-0.109,-0.068l-0.11,-0.066l-0.111,-0.064l-0.111,-0.064l-0.113,-0.062l-0.113,-0.06l-0.114,-0.06l-0.115,-0.058l-0.116,-0.056l-0.117,-0.056l-0.117,-0.054l-0.118,-0.052l-0.119,-0.051l-0.119,-0.05l-0.121,-0.048l-0.121,-0.047l-0.121,-0.046l-0.123,-0.044l-0.123,-0.042l-0.124,-0.041l-0.124,-0.04l-0.125,-0.038l-0.126,-0.037l-0.126,-0.035l-0.127,-0.033l-0.128,-0.032l-0.128,-0.031l-0.129,-0.029l-0.129,-0.027l-0.13,-0.026l-0.131,-0.024l-0.131,-0.023l-0.131,-0.021l-0.133,-0.019l-0.132,-0.018l-0.133,-0.016l-0.134,-0.014l-0.134,-0.013l-0.135,-0.011l-0.135,-0.01l-0.135,-0.007l-0.136,-0.006l-0.137,-0.005l-0.137,-0.002l-0.137,-0.001l-0.137,0.001Z" style="fill:#fff;"/><g><circle cx="12.813" cy="14.409" r="6.69" style="fill:#fff;fill-opacity:0.560784;"/><path d="M12.059,7.3c0.029,0.137 0.094,0.24 0.209,0.265c0.31,0.068 0.358,0.09 0.455,0.3c0.038,0.083 -0.242,0.306 0.046,0.456c0.094,0.052 0.315,-0.188 0.359,-0.267c0.066,0.065 0.159,0.209 0.182,0.289c-0.619,0.224 -0.194,0.401 0.065,0.611c0.557,0.454 0.025,0.333 -0.058,0.931c-0.083,0.572 0.418,0.691 -0.093,1.318c-0.253,0.312 -0.089,0.705 0.242,0.904c-0.016,-0.065 0.028,-0.171 -0.028,-0.304c0.56,-0.096 0.685,-0.18 0.564,-0.741c-0.062,-0.298 -0.006,-1.394 0.36,-0.745c0.048,0.087 0.093,1.218 0.058,1.308c-0.147,0.345 -0.543,0.187 -0.313,0.723c0.041,0.014 0.202,0.051 0.238,0.053c0.071,-1.038 0.773,0.432 0.083,0.068c-0.179,0.395 0.296,0.916 0.584,1.176c0.081,-0.096 0.103,-0.197 0.12,-0.323c0.191,0.098 0.316,0.244 0.354,0.429c0.488,0.159 0.478,-0.664 0.037,-0.39c-0.005,-0.05 -0.011,-0.103 -0.016,-0.154c0.13,-0.022 0.126,-0.034 0.222,-0.099c-0.198,-0.129 -0.355,-0.264 -0.353,-0.427c0.014,-0.427 0.212,-0.148 0.428,-0.35c0.008,-0.01 -0.007,-0.674 0.343,-0.422c0.218,0.159 0.038,0.657 0.078,0.764c0.43,-0.073 0.638,-0.936 0.058,-0.931c0.096,-0.312 -0.023,-0.489 0.192,-0.753c0.176,-0.215 0.292,0.121 0.438,0.145c0.862,0.151 0.387,-0.067 0.32,-0.647c-0.017,-0.159 0.27,-0.411 0.056,-0.586c-0.176,-0.143 -0.31,-0.041 -0.517,-0.317c-0.266,-0.354 -0.36,-0.504 -0.532,-0.884c-0.176,-0.392 0.352,-0.204 0.51,-0.075c0.137,0.111 0.332,0.195 0.292,0.377c-0.094,0.421 0.349,0.424 0.562,0.597c0.428,0.348 -0.256,1.34 0.526,0.987c0.158,-0.069 0.354,-0.178 0.519,-0.301c0.828,1.166 1.313,2.588 1.313,4.124c0,3.945 -3.203,7.148 -7.149,7.148c-0.473,0 -0.935,-0.046 -1.383,-0.135c0.035,-0.094 0.056,-0.192 0.031,-0.317c-0.385,-0.02 -0.273,0.132 -0.322,0.252l-0.111,-0.025l-0.25,-0.071l0.038,-0.051c0.057,-0.069 -0.148,-0.507 -0.337,-0.274c-0.058,0.071 -0.128,0.122 -0.207,0.153l-0.24,-0.094l-0.245,-0.111c0.066,-0.06 0.144,-0.097 0.168,-0.167c-0.054,0.154 0.319,-0.494 0.122,-0.319c0.121,-0.107 -0.094,-0.227 0.205,-0.252c0.31,-0.026 0.155,0.241 0.336,0.273c0.627,0.11 0.222,-0.835 -0.26,-1.016c-0.441,-0.167 -0.484,-0.22 -0.773,-0.772c-0.26,-0.495 -0.691,-1.043 -0.852,-1.564c-0.12,-0.382 -0.394,-2.457 0.037,-2.628c0.564,-0.222 0.703,1.455 0.689,1.82c-0.009,0.239 -0.065,0.501 -0.04,0.736c0.024,0.207 0.336,0.253 0.43,0.42c0.219,0.394 0.083,0.873 0.132,1.296c0.038,0.35 2.075,1.045 1.924,-0.042c-0.145,-1.035 -1.176,0.232 -1.147,-0.655c0.071,0.021 0.167,0.031 0.235,0.052c-0.536,-0.919 0.473,-0.725 0.542,0.021c0.516,0.055 0.406,-0.319 0.297,-0.67c-0.164,-0.529 -0.428,-0.134 -0.728,-0.519c0.157,-0.193 0.423,-0.169 0.595,-0.214c-0.214,-0.118 -0.647,-0.821 -0.147,-0.681c0.268,0.077 0.514,1.166 0.684,1.397c0.182,-0.253 0.316,-0.607 0.144,-0.861c-0.072,-0.108 -0.977,-0.662 -0.133,-0.529c-0.006,-0.635 0.459,-0.266 0.626,0.088c0.113,0.439 -0.615,1.606 0.235,1.522c0.253,-0.027 0.121,-0.578 0.27,-0.761c0.233,-0.286 0.334,0.446 0.164,0.655c-0.114,0.14 -0.129,0.328 -0.245,0.47c-0.204,0.251 -0.014,0.082 0.034,0.306c0.042,0.193 0.305,0.191 0.242,0.477c-0.038,0.168 -0.229,0.407 -0.225,0.446c0.049,0.515 0.418,-0.256 0.434,-0.276c0.134,-0.165 0.149,-0.224 0.274,-0.336c0.123,-0.107 0.437,-0.202 0.51,-0.283c0.223,-0.251 0.343,-0.814 0.464,-1.132c0.151,-0.395 -0.004,-0.635 -0.333,-0.231c-0.146,0.179 -0.517,-0.133 -0.531,-0.294c-0.069,-0.682 0.509,-0.023 0.637,-0.179c0.17,-0.209 -0.155,-0.476 -0.354,-0.638c-0.222,-0.181 -0.168,-1.045 -0.626,-0.998c-0.402,0.043 -0.95,-0.008 -1.059,-0.439c-0.077,-0.314 -0.415,-0.815 -0.172,-1.054c0.231,0.458 0.62,0.785 1.04,1.126c0.197,0.161 0.5,-0.012 0.591,0.274c0.057,0.189 0.257,0.599 0.504,0.618l0.614,-0.409c0.166,-0.204 -0.254,-0.418 -0.384,-0.523c-0.283,-0.231 -1.376,-0.754 -1.06,-1.143c0.484,-0.594 -2.437,-1.128 -1.642,-2.106c0.117,-0.143 0.323,0.064 0.476,-0.241c0.114,-0.224 0.074,-0.431 -0.167,-0.486c-0.438,-0.098 0.087,-0.833 0.164,-1.057c-0.265,-0.062 -0.509,-0.187 -0.59,-0.48c-0.062,-0.224 0.195,-0.349 0.007,-0.693c-0.034,-0.062 -0.327,-0.082 -0.407,-0.19c-0.104,-0.142 -0.138,-0.465 -0.179,-0.636l-0.007,-0.033l0.173,-0.032l0.334,-0.042Z" style="fill:#fff;"/></g></svg>