<?xml version="1.0" encoding="UTF-8" standalone="no"?><!DOCTYPE svg PUBLIC "-//W3C//DTD SVG 1.1//EN" "http://www.w3.org/Graphics/SVG/1.1/DTD/svg11.dtd"><svg width="100%" height="100%" viewBox="0 0 35 45" version="1.1" xmlns="http://www.w3.org/2000/svg" xmlns:xlink="http://www.w3.org/1999/xlink" xml:space="preserve" xmlns:serif="http://www.serif.com/" style="fill-rule:evenodd;clip-rule:evenodd;stroke-linejoin:round;stroke-miterlimit:1.41421;"><path d="M14.896,27.584c-2.239,-0.996 -3.799,-3.24 -3.799,-5.847c0,-3.536 2.871,-6.406 6.407,-6.406c3.536,0 6.406,2.87 6.406,6.406c0,2.607 -1.56,4.851 -3.799,5.847l0,10.492l-2.607,4.516l-2.608,-4.516l0,-10.492Zm2.652,-17.811c3.645,0.021 7.224,1.89 9.308,5.002l0.124,0.238c0.023,0.087 0.055,0.172 0.068,0.261c0.111,0.782 -0.699,1.585 -1.553,1.314c-0.172,-0.055 -0.33,-0.147 -0.461,-0.271c-0.17,-0.161 -0.277,-0.363 -0.413,-0.547c-2.064,-2.8 -5.825,-4.199 -9.283,-3.326c-2.097,0.53 -3.974,1.851 -5.191,3.667l-0.174,0.206c-0.071,0.054 -0.137,0.116 -0.215,0.161c-0.691,0.407 -1.734,-0.068 -1.806,-0.935c-0.015,-0.18 0.011,-0.361 0.075,-0.53c0.081,-0.21 0.219,-0.382 0.348,-0.562c2.003,-2.784 5.321,-4.565 8.777,-4.673c0.132,-0.004 0.264,-0.005 0.396,-0.005Zm-0.011,-5.579c5.513,0.015 10.933,2.847 14.075,7.546l0.123,0.239c0.023,0.087 0.055,0.172 0.068,0.26c0.11,0.782 -0.7,1.585 -1.554,1.313c-0.525,-0.167 -0.798,-0.738 -1.163,-1.218c-2.52,-3.311 -6.517,-5.45 -10.674,-5.71c-3.608,-0.225 -7.279,0.953 -10.08,3.224c-1.135,0.921 -2.13,2.017 -2.939,3.227l-0.174,0.206c-0.144,0.108 -0.29,0.217 -0.46,0.271c-0.682,0.217 -1.498,-0.287 -1.562,-1.044c-0.03,-0.355 0.146,-0.695 0.347,-0.987c2.965,-4.297 7.982,-7.086 13.231,-7.312c0.254,-0.01 0.508,-0.015 0.762,-0.015Z" style="fill:#e9721c;"/><path d="M17.687,2.195l0.145,0.002l0.145,0.003l0.29,0.01l0.145,0.007l0.144,0.008l0.145,0.009l0.144,0.01l0.144,0.011l0.145,0.012l0.143,0.014l0.288,0.03l0.143,0.017l0.144,0.018l0.143,0.019l0.143,0.02l0.142,0.021l0.143,0.023l0.142,0.023l0.284,0.05l0.142,0.027l0.142,0.028l0.282,0.058l0.14,0.031l0.141,0.032l0.28,0.068l0.14,0.035l0.139,0.036l0.139,0.037l0.278,0.078l0.138,0.04l0.138,0.042l0.137,0.042l0.138,0.044l0.137,0.044l0.136,0.046l0.272,0.094l0.136,0.049l0.135,0.049l0.135,0.051l0.268,0.104l0.134,0.054l0.133,0.054l0.133,0.056l0.133,0.057l0.132,0.057l0.131,0.059l0.132,0.059l0.13,0.061l0.131,0.061l0.13,0.063l0.129,0.063l0.258,0.13l0.128,0.067l0.127,0.067l0.127,0.068l0.127,0.069l0.252,0.142l0.125,0.072l0.124,0.073l0.124,0.074l0.124,0.075l0.123,0.075l0.122,0.077l0.122,0.078l0.122,0.079l0.121,0.079l0.12,0.081l0.119,0.081l0.12,0.082l0.118,0.083l0.118,0.085l0.117,0.085l0.117,0.086l0.116,0.086l0.116,0.088l0.114,0.089l0.115,0.089l0.226,0.182l0.112,0.092l0.112,0.093l0.111,0.094l0.11,0.095l0.11,0.096l0.109,0.097l0.108,0.097l0.214,0.198l0.106,0.1l0.106,0.101l0.208,0.204l0.206,0.208l0.202,0.212l0.1,0.107l0.099,0.107l0.099,0.109l0.098,0.11l0.097,0.11l0.096,0.111l0.095,0.112l0.095,0.113l0.093,0.113l0.093,0.115l0.092,0.115l0.091,0.116l0.18,0.234l0.176,0.238l0.087,0.12l0.085,0.121l0.085,0.122l0.084,0.122l0.079,0.117l0.062,0.098l0.057,0.101l0.123,0.239l0.058,0.123l0.05,0.126l0.041,0.129l0.014,0.052l0.02,0.066l0.02,0.071l0.023,0.09l0.024,0.112l0.02,0.122l0.015,0.116l0.009,0.108l0.006,0.107l0.001,0.106l-0.002,0.106l-0.005,0.104l-0.009,0.104l-0.013,0.102l-0.015,0.1l-0.019,0.1l-0.021,0.097l-0.025,0.097l-0.027,0.094l-0.03,0.094l-0.033,0.091l-0.035,0.09l-0.037,0.088l-0.04,0.087l-0.042,0.085l-0.045,0.084l-0.046,0.081l-0.049,0.08l-0.051,0.079l-0.053,0.077l-0.055,0.075l-0.056,0.073l-0.059,0.072l-0.061,0.07l-0.063,0.068l-0.065,0.067l-0.067,0.065l-0.068,0.063l-0.071,0.062l-0.072,0.06l-0.075,0.057l-0.077,0.056l-0.078,0.054l-0.08,0.052l-0.083,0.05l-0.084,0.047l-0.086,0.046l-0.089,0.043l-0.09,0.04l-0.092,0.038l-0.094,0.036l-0.095,0.032l-0.098,0.03l-0.099,0.027l-0.101,0.024l-0.102,0.02l-0.104,0.018l-0.105,0.013l-0.106,0.011l-0.108,0.006l-0.108,0.003l-0.109,0l-0.109,-0.005l-0.11,-0.008l-0.11,-0.013l-0.11,-0.016l-0.109,-0.021l-0.11,-0.024l-0.108,-0.029l-0.116,-0.034l-0.138,-0.048l-0.142,-0.058l-0.135,-0.063l-0.129,-0.068l-0.04,-0.023l0.001,0.012l0.005,0.107l0.002,0.106l-0.002,0.106l-0.005,0.104l-0.009,0.103l-0.012,0.102l-0.016,0.101l-0.018,0.099l-0.022,0.098l-0.024,0.097l-0.028,0.094l-0.029,0.094l-0.033,0.091l-0.035,0.09l-0.037,0.089l-0.04,0.086l-0.042,0.085l-0.045,0.084l-0.046,0.081l-0.049,0.081l-0.051,0.078l-0.052,0.077l-0.055,0.075l-0.057,0.073l-0.059,0.072l-0.061,0.071l-0.063,0.068l-0.064,0.067l-0.067,0.065l-0.069,0.063l-0.07,0.062l-0.073,0.059l-0.074,0.058l-0.077,0.056l-0.078,0.054l-0.08,0.052l-0.083,0.05l-0.084,0.047l-0.086,0.046l-0.089,0.043l-0.09,0.04l-0.092,0.039l-0.094,0.035l-0.095,0.033l-0.098,0.03l-0.099,0.027l-0.101,0.023l-0.102,0.021l-0.104,0.017l-0.105,0.014l-0.106,0.011l-0.107,0.007l-0.108,0.003l-0.109,-0.001l-0.11,-0.004l-0.11,-0.009l-0.11,-0.012l-0.109,-0.017l-0.023,-0.004l0.024,0.06l0.037,0.096l0.036,0.096l0.035,0.097l0.034,0.098l0.064,0.196l0.03,0.1l0.029,0.099l0.028,0.1l0.052,0.202l0.024,0.102l0.023,0.102l0.021,0.102l0.021,0.103l0.019,0.104l0.018,0.103l0.016,0.105l0.016,0.104l0.014,0.105l0.012,0.106l0.012,0.105l0.01,0.106l0.009,0.107l0.007,0.106l0.006,0.107l0.005,0.108l0.003,0.107l0.002,0.108l0.001,0.111l-0.001,0.156l-0.005,0.159l-0.007,0.158l-0.01,0.158l-0.014,0.157l-0.016,0.156l-0.019,0.155l-0.021,0.154l-0.025,0.154l-0.027,0.153l-0.03,0.151l-0.033,0.151l-0.036,0.15l-0.038,0.149l-0.041,0.148l-0.043,0.146l-0.046,0.146l-0.048,0.144l-0.051,0.143l-0.054,0.142l-0.056,0.141l-0.059,0.14l-0.06,0.138l-0.064,0.137l-0.065,0.135l-0.068,0.134l-0.07,0.133l-0.073,0.131l-0.075,0.13l-0.077,0.128l-0.079,0.127l-0.081,0.125l-0.084,0.124l-0.085,0.122l-0.088,0.12l-0.09,0.119l-0.091,0.117l-0.094,0.115l-0.096,0.114l-0.098,0.112l-0.099,0.11l-0.102,0.109l-0.103,0.106l-0.105,0.105l-0.108,0.103l-0.108,0.101l-0.111,0.099l-0.113,0.097l-0.114,0.095l-0.116,0.094l-0.117,0.091l-0.12,0.089l-0.121,0.087l-0.122,0.085l-0.122,0.081l0,9.312l-0.008,0.174l-0.022,0.173l-0.038,0.171l-0.053,0.166l-0.066,0.161l-0.081,0.155l-2.607,4.516l-0.094,0.147l-0.106,0.138l-0.118,0.129l-0.129,0.118l-0.138,0.106l-0.147,0.094l-0.155,0.081l-0.161,0.066l-0.167,0.053l-0.17,0.038l-0.173,0.022l-0.174,0.008l-0.175,-0.008l-0.173,-0.022l-0.17,-0.038l-0.166,-0.053l-0.161,-0.066l-0.155,-0.081l-0.147,-0.094l-0.139,-0.106l-0.128,-0.118l-0.118,-0.129l-0.107,-0.138l-0.093,-0.147l-2.608,-4.516l-0.08,-0.155l-0.067,-0.161l-0.052,-0.166l-0.038,-0.171l-0.023,-0.173l-0.008,-0.174l0,-9.312l-0.121,-0.081l-0.123,-0.085l-0.121,-0.087l-0.119,-0.089l-0.118,-0.091l-0.116,-0.094l-0.114,-0.095l-0.112,-0.097l-0.111,-0.099l-0.109,-0.101l-0.107,-0.103l-0.105,-0.105l-0.104,-0.106l-0.101,-0.109l-0.1,-0.11l-0.098,-0.112l-0.095,-0.114l-0.094,-0.115l-0.092,-0.117l-0.09,-0.119l-0.087,-0.12l-0.086,-0.122l-0.083,-0.124l-0.082,-0.125l-0.079,-0.127l-0.077,-0.128l-0.075,-0.13l-0.072,-0.131l-0.07,-0.133l-0.068,-0.134l-0.066,-0.135l-0.063,-0.137l-0.061,-0.138l-0.058,-0.14l-0.056,-0.141l-0.054,-0.142l-0.051,-0.143l-0.049,-0.144l-0.046,-0.146l-0.043,-0.146l-0.041,-0.148l-0.038,-0.149l-0.035,-0.15l-0.033,-0.151l-0.03,-0.151l-0.028,-0.153l-0.024,-0.154l-0.022,-0.154l-0.019,-0.155l-0.016,-0.156l-0.013,-0.157l-0.01,-0.158l-0.008,-0.158l-0.004,-0.159l-0.002,-0.156l0.001,-0.111l0.002,-0.108l0.004,-0.107l0.004,-0.108l0.006,-0.107l0.008,-0.106l0.009,-0.107l0.01,-0.106l0.011,-0.105l0.013,-0.106l0.014,-0.105l0.015,-0.104l0.017,-0.105l0.018,-0.103l0.019,-0.104l0.02,-0.103l0.022,-0.102l0.023,-0.102l0.024,-0.102l0.025,-0.101l0.027,-0.101l0.028,-0.1l0.029,-0.099l0.03,-0.1l0.031,-0.098l0.033,-0.098l0.034,-0.098l0.034,-0.097l0.036,-0.096l0.038,-0.096l0.028,-0.07l-0.03,0.005l-0.1,0.013l-0.099,0.011l-0.099,0.007l-0.099,0.004l-0.097,0.001l-0.097,-0.002l-0.096,-0.005l-0.096,-0.007l-0.094,-0.011l-0.094,-0.013l-0.093,-0.015l-0.092,-0.018l-0.092,-0.021l-0.09,-0.023l-0.089,-0.026l-0.089,-0.028l-0.088,-0.03l-0.086,-0.033l-0.086,-0.035l-0.085,-0.038l-0.084,-0.04l-0.082,-0.043l-0.082,-0.045l-0.081,-0.047l-0.08,-0.05l-0.078,-0.052l-0.077,-0.054l-0.077,-0.057l-0.074,-0.06l-0.074,-0.062l-0.072,-0.065l-0.071,-0.067l-0.069,-0.07l-0.067,-0.073l-0.065,-0.075l-0.064,-0.078l-0.062,-0.08l-0.059,-0.083l-0.057,-0.086l-0.055,-0.088l-0.052,-0.091l-0.05,-0.093l-0.047,-0.095l-0.043,-0.098l-0.041,-0.1l-0.037,-0.102l-0.034,-0.104l-0.031,-0.106l-0.026,-0.107l-0.023,-0.109l-0.02,-0.11l-0.015,-0.111l-0.011,-0.108l-0.006,-0.093l-0.004,-0.09l-0.001,-0.09l0.001,-0.09l0.004,-0.09l0.005,-0.066l-0.036,0.021l-0.078,0.043l-0.083,0.042l-0.09,0.042l-0.096,0.041l-0.102,0.04l-0.103,0.035l-0.097,0.029l-0.093,0.025l-0.093,0.022l-0.093,0.018l-0.093,0.016l-0.093,0.013l-0.092,0.01l-0.092,0.007l-0.091,0.004l-0.091,0.002l-0.091,-0.001l-0.089,-0.003l-0.089,-0.006l-0.088,-0.008l-0.088,-0.011l-0.086,-0.013l-0.086,-0.016l-0.084,-0.017l-0.084,-0.02l-0.083,-0.021l-0.082,-0.024l-0.081,-0.026l-0.08,-0.028l-0.079,-0.03l-0.078,-0.032l-0.078,-0.033l-0.076,-0.036l-0.075,-0.038l-0.074,-0.039l-0.073,-0.041l-0.072,-0.043l-0.071,-0.045l-0.07,-0.047l-0.069,-0.049l-0.068,-0.05l-0.066,-0.052l-0.066,-0.055l-0.064,-0.056l-0.063,-0.058l-0.061,-0.06l-0.061,-0.061l-0.059,-0.064l-0.057,-0.065l-0.056,-0.068l-0.055,-0.069l-0.053,-0.071l-0.051,-0.073l-0.049,-0.075l-0.048,-0.077l-0.045,-0.079l-0.044,-0.08l-0.042,-0.083l-0.039,-0.084l-0.037,-0.085l-0.035,-0.088l-0.032,-0.089l-0.03,-0.09l-0.027,-0.092l-0.025,-0.093l-0.022,-0.095l-0.018,-0.096l-0.016,-0.096l-0.013,-0.098l-0.01,-0.1l-0.007,-0.102l-0.003,-0.102l0,-0.101l0.004,-0.099l0.006,-0.097l0.01,-0.095l0.012,-0.093l0.015,-0.091l0.017,-0.088l0.019,-0.085l0.021,-0.083l0.022,-0.081l0.024,-0.078l0.029,-0.086l0.049,-0.134l0.057,-0.136l0.058,-0.127l0.061,-0.119l0.06,-0.111l0.061,-0.104l0.061,-0.098l0.059,-0.092l0.056,-0.082l0.081,-0.117l0.08,-0.113l0.08,-0.111l0.081,-0.111l0.082,-0.111l0.082,-0.109l0.084,-0.109l0.084,-0.109l0.085,-0.107l0.085,-0.107l0.087,-0.106l0.087,-0.106l0.088,-0.105l0.089,-0.104l0.089,-0.104l0.091,-0.103l0.091,-0.102l0.091,-0.101l0.093,-0.101l0.093,-0.1l0.094,-0.1l0.094,-0.098l0.095,-0.098l0.096,-0.097l0.097,-0.097l0.097,-0.096l0.098,-0.095l0.099,-0.094l0.099,-0.094l0.1,-0.093l0.1,-0.092l0.102,-0.091l0.102,-0.091l0.102,-0.09l0.103,-0.089l0.104,-0.089l0.104,-0.087l0.105,-0.087l0.106,-0.086l0.106,-0.086l0.107,-0.085l0.107,-0.084l0.108,-0.083l0.108,-0.082l0.109,-0.082l0.11,-0.08l0.11,-0.081l0.111,-0.079l0.111,-0.078l0.112,-0.078l0.113,-0.077l0.113,-0.076l0.113,-0.075l0.114,-0.075l0.115,-0.074l0.115,-0.072l0.115,-0.073l0.116,-0.071l0.117,-0.07l0.117,-0.07l0.117,-0.069l0.118,-0.068l0.119,-0.067l0.118,-0.067l0.12,-0.065l0.12,-0.065l0.12,-0.064l0.121,-0.063l0.121,-0.062l0.122,-0.061l0.122,-0.061l0.122,-0.059l0.123,-0.059l0.124,-0.058l0.123,-0.057l0.125,-0.056l0.124,-0.056l0.125,-0.054l0.126,-0.054l0.125,-0.052l0.126,-0.052l0.127,-0.051l0.127,-0.05l0.127,-0.049l0.128,-0.049l0.128,-0.047l0.128,-0.047l0.129,-0.045l0.129,-0.045l0.129,-0.044l0.13,-0.042l0.13,-0.042l0.13,-0.041l0.131,-0.04l0.131,-0.04l0.131,-0.038l0.132,-0.037l0.132,-0.036l0.132,-0.036l0.133,-0.034l0.132,-0.034l0.133,-0.032l0.134,-0.032l0.133,-0.03l0.134,-0.03l0.134,-0.029l0.134,-0.028l0.135,-0.026l0.135,-0.026l0.135,-0.025l0.135,-0.024l0.136,-0.022l0.135,-0.022l0.136,-0.021l0.136,-0.02l0.137,-0.019l0.136,-0.018l0.137,-0.016l0.137,-0.016l0.137,-0.015l0.137,-0.014l0.137,-0.012l0.138,-0.012l0.137,-0.011l0.138,-0.009l0.138,-0.009l0.138,-0.007l0.141,-0.007l0.211,-0.008l0.213,-0.005l0.212,-0.003l0.211,-0.001l0.148,0.001Zm-0.266,13.136l-0.082,0.002l-0.083,0.002l-0.082,0.004l-0.081,0.005l-0.082,0.005l-0.081,0.007l-0.081,0.008l-0.08,0.009l-0.081,0.009l-0.08,0.011l-0.079,0.012l-0.08,0.012l-0.079,0.014l-0.078,0.014l-0.079,0.016l-0.078,0.017l-0.077,0.017l-0.078,0.018l-0.076,0.02l-0.077,0.02l-0.076,0.021l-0.076,0.022l-0.075,0.023l-0.075,0.024l-0.075,0.025l-0.074,0.025l-0.074,0.027l-0.073,0.027l-0.073,0.028l-0.073,0.03l-0.072,0.03l-0.072,0.03l-0.071,0.032l-0.07,0.033l-0.071,0.033l-0.069,0.034l-0.07,0.035l-0.069,0.036l-0.068,0.036l-0.068,0.038l-0.067,0.038l-0.067,0.039l-0.066,0.04l-0.066,0.04l-0.065,0.042l-0.065,0.042l-0.064,0.043l-0.064,0.043l-0.063,0.044l-0.062,0.045l-0.062,0.046l-0.062,0.047l-0.06,0.047l-0.061,0.048l-0.059,0.048l-0.059,0.05l-0.059,0.05l-0.058,0.05l-0.057,0.052l-0.056,0.052l-0.056,0.053l-0.056,0.053l-0.054,0.054l-0.054,0.055l-0.054,0.055l-0.052,0.056l-0.053,0.057l-0.051,0.057l-0.051,0.058l-0.05,0.058l-0.049,0.059l-0.049,0.06l-0.047,0.06l-0.048,0.061l-0.046,0.061l-0.046,0.062l-0.045,0.063l-0.044,0.063l-0.044,0.063l-0.043,0.065l-0.042,0.064l-0.041,0.065l-0.041,0.066l-0.039,0.067l-0.039,0.066l-0.039,0.068l-0.037,0.068l-0.037,0.068l-0.035,0.069l-0.035,0.069l-0.034,0.07l-0.034,0.07l-0.032,0.071l-0.032,0.071l-0.031,0.071l-0.03,0.073l-0.029,0.072l-0.028,0.073l-0.028,0.073l-0.026,0.074l-0.026,0.074l-0.025,0.075l-0.023,0.075l-0.023,0.075l-0.022,0.076l-0.022,0.076l-0.02,0.077l-0.019,0.077l-0.018,0.077l-0.018,0.078l-0.016,0.078l-0.016,0.078l-0.014,0.079l-0.014,0.079l-0.013,0.079l-0.011,0.08l-0.011,0.08l-0.01,0.08l-0.009,0.081l-0.007,0.08l-0.007,0.082l-0.006,0.081l-0.004,0.082l-0.004,0.082l-0.003,0.082l-0.001,0.082l-0.001,0.083l0.002,0.122l0.003,0.121l0.006,0.121l0.007,0.12l0.011,0.12l0.012,0.119l0.014,0.118l0.017,0.118l0.018,0.117l0.021,0.116l0.023,0.116l0.025,0.114l0.027,0.114l0.029,0.113l0.031,0.113l0.033,0.111l0.035,0.111l0.037,0.11l0.039,0.109l0.041,0.108l0.042,0.107l0.045,0.106l0.046,0.105l0.048,0.104l0.05,0.103l0.052,0.102l0.053,0.101l0.055,0.1l0.057,0.099l0.059,0.098l0.06,0.096l0.062,0.096l0.064,0.094l0.065,0.093l0.067,0.092l0.068,0.09l0.07,0.09l0.072,0.088l0.073,0.086l0.074,0.086l0.076,0.084l0.078,0.083l0.079,0.081l0.08,0.08l0.082,0.078l0.083,0.077l0.084,0.076l0.086,0.074l0.087,0.073l0.089,0.071l0.089,0.069l0.091,0.068l0.093,0.067l0.093,0.065l0.095,0.063l0.095,0.061l0.097,0.06l0.098,0.058l0.099,0.057l0.101,0.054l0.101,0.053l0.103,0.051l0.103,0.05l0.104,0.047l0,10.492l2.608,4.516l2.607,-4.516l0,-10.492l0.105,-0.047l0.103,-0.05l0.102,-0.051l0.102,-0.053l0.1,-0.054l0.099,-0.057l0.098,-0.058l0.097,-0.06l0.096,-0.061l0.095,-0.063l0.093,-0.065l0.092,-0.067l0.091,-0.068l0.09,-0.069l0.088,-0.071l0.087,-0.073l0.086,-0.074l0.085,-0.076l0.083,-0.077l0.081,-0.078l0.081,-0.08l0.079,-0.081l0.077,-0.083l0.076,-0.084l0.075,-0.086l0.073,-0.086l0.071,-0.088l0.07,-0.09l0.069,-0.09l0.066,-0.092l0.066,-0.093l0.063,-0.094l0.062,-0.096l0.061,-0.096l0.058,-0.098l0.057,-0.099l0.055,-0.1l0.054,-0.101l0.052,-0.102l0.049,-0.103l0.049,-0.104l0.046,-0.105l0.044,-0.106l0.043,-0.107l0.041,-0.108l0.039,-0.109l0.036,-0.11l0.035,-0.111l0.033,-0.111l0.031,-0.113l0.029,-0.113l0.027,-0.114l0.025,-0.114l0.023,-0.116l0.021,-0.116l0.019,-0.117l0.016,-0.118l0.015,-0.118l0.012,-0.119l0.01,-0.12l0.008,-0.12l0.006,-0.121l0.003,-0.121l0.001,-0.122l0,-0.083l-0.002,-0.082l-0.003,-0.082l-0.003,-0.082l-0.005,-0.082l-0.006,-0.081l-0.006,-0.082l-0.008,-0.08l-0.009,-0.081l-0.009,-0.08l-0.011,-0.08l-0.012,-0.08l-0.012,-0.079l-0.014,-0.079l-0.015,-0.079l-0.015,-0.078l-0.017,-0.078l-0.017,-0.078l-0.018,-0.077l-0.02,-0.077l-0.02,-0.077l-0.021,-0.076l-0.022,-0.076l-0.023,-0.075l-0.024,-0.075l-0.025,-0.075l-0.025,-0.074l-0.027,-0.074l-0.027,-0.073l-0.029,-0.073l-0.029,-0.072l-0.03,-0.073l-0.03,-0.071l-0.032,-0.071l-0.033,-0.071l-0.033,-0.07l-0.034,-0.07l-0.035,-0.069l-0.036,-0.069l-0.037,-0.068l-0.037,-0.068l-0.038,-0.068l-0.039,-0.066l-0.04,-0.067l-0.04,-0.066l-0.042,-0.065l-0.042,-0.064l-0.043,-0.065l-0.043,-0.063l-0.044,-0.063l-0.046,-0.063l-0.045,-0.062l-0.047,-0.061l-0.047,-0.061l-0.048,-0.06l-0.049,-0.06l-0.049,-0.059l-0.05,-0.058l-0.051,-0.058l-0.051,-0.057l-0.052,-0.057l-0.053,-0.056l-0.053,-0.055l-0.054,-0.055l-0.055,-0.054l-0.055,-0.053l-0.056,-0.053l-0.057,-0.052l-0.057,-0.052l-0.058,-0.05l-0.058,-0.05l-0.059,-0.05l-0.06,-0.048l-0.06,-0.048l-0.061,-0.047l-0.061,-0.047l-0.062,-0.046l-0.063,-0.045l-0.063,-0.044l-0.063,-0.043l-0.065,-0.043l-0.064,-0.042l-0.066,-0.042l-0.065,-0.04l-0.067,-0.04l-0.066,-0.039l-0.068,-0.038l-0.068,-0.038l-0.068,-0.036l-0.069,-0.036l-0.069,-0.035l-0.07,-0.034l-0.07,-0.033l-0.071,-0.033l-0.071,-0.032l-0.072,-0.03l-0.072,-0.03l-0.072,-0.03l-0.073,-0.028l-0.073,-0.027l-0.074,-0.027l-0.074,-0.025l-0.075,-0.025l-0.075,-0.024l-0.075,-0.023l-0.076,-0.022l-0.076,-0.021l-0.077,-0.02l-0.077,-0.02l-0.077,-0.018l-0.078,-0.017l-0.078,-0.017l-0.078,-0.016l-0.079,-0.014l-0.079,-0.014l-0.079,-0.012l-0.08,-0.012l-0.08,-0.011l-0.08,-0.009l-0.081,-0.009l-0.08,-0.008l-0.082,-0.007l-0.081,-0.005l-0.082,-0.005l-0.082,-0.004l-0.082,-0.002l-0.082,-0.002l-0.083,0l-0.083,0Zm0.028,-5.558l-0.099,0.001l-0.099,0.002l-0.099,0.002l-0.162,0.007l-0.161,0.008l-0.162,0.011l-0.161,0.014l-0.161,0.016l-0.16,0.018l-0.16,0.021l-0.16,0.023l-0.159,0.025l-0.159,0.028l-0.159,0.03l-0.158,0.032l-0.157,0.034l-0.157,0.037l-0.156,0.039l-0.156,0.041l-0.155,0.044l-0.154,0.045l-0.154,0.048l-0.153,0.05l-0.152,0.052l-0.151,0.054l-0.151,0.057l-0.15,0.058l-0.149,0.061l-0.148,0.062l-0.147,0.065l-0.146,0.066l-0.146,0.069l-0.144,0.071l-0.143,0.072l-0.142,0.075l-0.142,0.077l-0.14,0.078l-0.139,0.081l-0.138,0.082l-0.136,0.084l-0.136,0.087l-0.134,0.088l-0.133,0.09l-0.132,0.091l-0.13,0.094l-0.129,0.095l-0.128,0.097l-0.126,0.099l-0.125,0.101l-0.124,0.102l-0.122,0.105l-0.12,0.106l-0.119,0.107l-0.118,0.109l-0.115,0.111l-0.115,0.113l-0.112,0.114l-0.111,0.116l-0.109,0.117l-0.108,0.12l-0.106,0.12l-0.104,0.122l-0.102,0.124l-0.101,0.125l-0.098,0.127l-0.097,0.129l-0.095,0.129l-0.097,0.134l-0.048,0.067l-0.047,0.069l-0.022,0.034l-0.022,0.035l-0.021,0.036l-0.02,0.036l-0.02,0.037l-0.018,0.037l-0.017,0.038l-0.016,0.039l-0.011,0.032l-0.011,0.032l-0.01,0.032l-0.009,0.033l-0.008,0.033l-0.007,0.032l-0.006,0.034l-0.005,0.033l-0.004,0.033l-0.004,0.034l-0.002,0.033l-0.001,0.034l-0.001,0.033l0,0.034l0.004,0.068l0.004,0.04l0.006,0.04l0.007,0.039l0.008,0.039l0.009,0.038l0.011,0.037l0.012,0.037l0.013,0.036l0.03,0.07l0.017,0.034l0.017,0.033l0.019,0.033l0.02,0.031l0.021,0.032l0.044,0.06l0.024,0.029l0.024,0.028l0.052,0.054l0.027,0.025l0.028,0.025l0.028,0.024l0.029,0.023l0.03,0.023l0.03,0.021l0.031,0.021l0.032,0.02l0.032,0.018l0.033,0.018l0.033,0.017l0.068,0.032l0.034,0.014l0.035,0.013l0.035,0.012l0.035,0.011l0.036,0.011l0.036,0.009l0.036,0.008l0.036,0.007l0.037,0.006l0.037,0.005l0.036,0.004l0.037,0.003l0.037,0.002l0.037,0.001l0.036,-0.001l0.037,-0.001l0.037,-0.003l0.036,-0.004l0.036,-0.005l0.037,-0.006l0.035,-0.007l0.036,-0.009l0.036,-0.009l0.035,-0.011l0.035,-0.012l0.034,-0.014l0.034,-0.014l0.034,-0.016l0.033,-0.017l0.032,-0.019l0.029,-0.018l0.028,-0.019l0.027,-0.02l0.026,-0.02l0.052,-0.043l0.053,-0.041l0.174,-0.206l0.058,-0.084l0.058,-0.084l0.06,-0.084l0.06,-0.082l0.061,-0.082l0.062,-0.081l0.064,-0.08l0.064,-0.08l0.064,-0.079l0.066,-0.078l0.067,-0.077l0.067,-0.076l0.069,-0.076l0.069,-0.074l0.07,-0.074l0.071,-0.073l0.071,-0.073l0.073,-0.071l0.073,-0.071l0.074,-0.069l0.075,-0.069l0.075,-0.068l0.076,-0.067l0.077,-0.066l0.078,-0.066l0.078,-0.064l0.08,-0.064l0.079,-0.062l0.081,-0.062l0.081,-0.061l0.082,-0.06l0.082,-0.059l0.084,-0.058l0.083,-0.057l0.085,-0.056l0.085,-0.055l0.085,-0.054l0.087,-0.053l0.087,-0.052l0.087,-0.052l0.088,-0.05l0.088,-0.049l0.089,-0.048l0.09,-0.047l0.09,-0.046l0.091,-0.046l0.091,-0.044l0.091,-0.043l0.093,-0.042l0.092,-0.041l0.093,-0.039l0.094,-0.039l0.094,-0.038l0.094,-0.037l0.095,-0.035l0.095,-0.035l0.096,-0.033l0.096,-0.032l0.096,-0.031l0.097,-0.03l0.097,-0.029l0.097,-0.028l0.098,-0.026l0.098,-0.026l0.082,-0.02l0.081,-0.019l0.081,-0.019l0.081,-0.017l0.082,-0.017l0.082,-0.016l0.081,-0.015l0.082,-0.014l0.082,-0.014l0.082,-0.012l0.081,-0.012l0.082,-0.011l0.082,-0.011l0.082,-0.009l0.082,-0.009l0.082,-0.008l0.083,-0.007l0.082,-0.006l0.082,-0.005l0.082,-0.005l0.082,-0.004l0.082,-0.003l0.082,-0.003l0.082,-0.001l0.082,-0.001l0.082,0l0.164,0.002l0.082,0.002l0.082,0.003l0.082,0.004l0.081,0.005l0.082,0.005l0.082,0.006l0.162,0.014l0.163,0.017l0.162,0.02l0.161,0.024l0.162,0.026l0.16,0.029l0.16,0.031l0.159,0.035l0.159,0.037l0.157,0.041l0.157,0.043l0.157,0.046l0.155,0.048l0.154,0.052l0.153,0.054l0.153,0.056l0.151,0.06l0.15,0.062l0.149,0.064l0.148,0.068l0.147,0.07l0.145,0.072l0.144,0.075l0.142,0.078l0.141,0.08l0.14,0.082l0.138,0.085l0.137,0.088l0.134,0.089l0.134,0.093l0.131,0.094l0.13,0.097l0.128,0.1l0.126,0.102l0.124,0.104l0.062,0.053l0.061,0.053l0.06,0.054l0.06,0.055l0.059,0.055l0.118,0.112l0.057,0.057l0.058,0.057l0.057,0.058l0.056,0.058l0.056,0.059l0.055,0.06l0.054,0.06l0.108,0.122l0.053,0.062l0.052,0.062l0.052,0.063l0.051,0.063l0.1,0.128l0.098,0.13l0.05,0.07l0.048,0.071l0.047,0.071l0.098,0.14l0.026,0.034l0.027,0.034l0.027,0.032l0.029,0.033l0.03,0.031l0.031,0.031l0.025,0.023l0.025,0.022l0.027,0.021l0.026,0.021l0.027,0.019l0.028,0.02l0.028,0.018l0.058,0.034l0.03,0.016l0.03,0.015l0.031,0.014l0.062,0.026l0.064,0.022l0.04,0.012l0.04,0.01l0.04,0.009l0.039,0.007l0.04,0.006l0.039,0.005l0.039,0.003l0.078,0.002l0.039,-0.002l0.038,-0.002l0.038,-0.004l0.038,-0.005l0.037,-0.006l0.037,-0.007l0.037,-0.009l0.036,-0.01l0.036,-0.011l0.035,-0.012l0.035,-0.013l0.034,-0.015l0.034,-0.015l0.034,-0.016l0.033,-0.018l0.032,-0.018l0.032,-0.019l0.031,-0.02l0.031,-0.021l0.03,-0.022l0.03,-0.023l0.028,-0.024l0.028,-0.024l0.028,-0.025l0.026,-0.026l0.026,-0.027l0.025,-0.027l0.024,-0.028l0.024,-0.029l0.023,-0.029l0.021,-0.03l0.021,-0.031l0.02,-0.031l0.02,-0.031l0.018,-0.032l0.017,-0.033l0.016,-0.033l0.016,-0.033l0.014,-0.034l0.013,-0.034l0.013,-0.035l0.011,-0.034l0.01,-0.035l0.009,-0.036l0.008,-0.035l0.006,-0.036l0.006,-0.036l0.004,-0.036l0.003,-0.037l0.002,-0.036l0.001,-0.037l-0.001,-0.036l-0.002,-0.037l-0.003,-0.037l-0.004,-0.036l-0.006,-0.033l-0.007,-0.033l-0.008,-0.033l-0.01,-0.032l-0.019,-0.065l-0.018,-0.065l-0.124,-0.238l-0.098,-0.145l-0.101,-0.144l-0.103,-0.141l-0.106,-0.139l-0.107,-0.138l-0.109,-0.135l-0.111,-0.134l-0.113,-0.132l-0.116,-0.13l-0.117,-0.128l-0.118,-0.126l-0.121,-0.124l-0.123,-0.122l-0.124,-0.12l-0.126,-0.118l-0.128,-0.116l-0.129,-0.114l-0.131,-0.111l-0.133,-0.11l-0.134,-0.108l-0.135,-0.106l-0.138,-0.103l-0.138,-0.102l-0.141,-0.099l-0.141,-0.097l-0.143,-0.095l-0.144,-0.093l-0.146,-0.09l-0.147,-0.089l-0.148,-0.086l-0.149,-0.084l-0.15,-0.081l-0.152,-0.08l-0.153,-0.077l-0.153,-0.075l-0.155,-0.072l-0.156,-0.07l-0.157,-0.068l-0.158,-0.066l-0.158,-0.063l-0.16,-0.061l-0.16,-0.058l-0.162,-0.056l-0.162,-0.053l-0.162,-0.052l-0.164,-0.048l-0.164,-0.047l-0.165,-0.043l-0.165,-0.042l-0.166,-0.038l-0.167,-0.037l-0.167,-0.033l-0.168,-0.032l-0.168,-0.028l-0.168,-0.026l-0.169,-0.024l-0.169,-0.021l-0.17,-0.018l-0.17,-0.016l-0.17,-0.013l-0.17,-0.01l-0.171,-0.008l-0.17,-0.005l-0.171,-0.002l-0.099,0Zm-0.102,-5.578l-0.191,0.002l-0.19,0.005l-0.191,0.007l-0.123,0.006l-0.123,0.007l-0.122,0.007l-0.123,0.009l-0.123,0.009l-0.122,0.011l-0.122,0.011l-0.123,0.012l-0.122,0.014l-0.122,0.014l-0.122,0.015l-0.121,0.015l-0.122,0.017l-0.121,0.018l-0.122,0.019l-0.121,0.019l-0.121,0.02l-0.12,0.022l-0.121,0.022l-0.12,0.023l-0.12,0.024l-0.12,0.024l-0.12,0.026l-0.12,0.027l-0.119,0.027l-0.119,0.028l-0.119,0.029l-0.119,0.03l-0.119,0.031l-0.118,0.032l-0.118,0.032l-0.118,0.034l-0.117,0.034l-0.117,0.035l-0.117,0.036l-0.117,0.036l-0.117,0.038l-0.116,0.038l-0.116,0.04l-0.115,0.04l-0.116,0.04l-0.115,0.042l-0.114,0.042l-0.115,0.044l-0.114,0.044l-0.114,0.045l-0.113,0.045l-0.113,0.047l-0.113,0.047l-0.112,0.048l-0.112,0.049l-0.112,0.05l-0.112,0.05l-0.111,0.051l-0.11,0.052l-0.111,0.053l-0.109,0.053l-0.11,0.055l-0.109,0.055l-0.109,0.056l-0.108,0.056l-0.108,0.057l-0.108,0.058l-0.107,0.059l-0.107,0.06l-0.106,0.06l-0.106,0.061l-0.105,0.062l-0.105,0.063l-0.105,0.063l-0.104,0.064l-0.104,0.064l-0.103,0.066l-0.102,0.066l-0.103,0.067l-0.101,0.067l-0.102,0.069l-0.101,0.069l-0.1,0.069l-0.1,0.071l-0.099,0.071l-0.099,0.072l-0.098,0.072l-0.098,0.073l-0.097,0.074l-0.097,0.075l-0.096,0.075l-0.096,0.076l-0.095,0.076l-0.094,0.077l-0.094,0.078l-0.094,0.079l-0.093,0.079l-0.092,0.08l-0.092,0.08l-0.091,0.082l-0.091,0.081l-0.09,0.083l-0.089,0.083l-0.089,0.084l-0.088,0.084l-0.088,0.085l-0.086,0.086l-0.087,0.086l-0.086,0.087l-0.085,0.088l-0.084,0.088l-0.084,0.088l-0.083,0.09l-0.083,0.09l-0.081,0.09l-0.082,0.092l-0.08,0.091l-0.08,0.093l-0.079,0.093l-0.079,0.093l-0.077,0.095l-0.077,0.094l-0.077,0.096l-0.076,0.096l-0.075,0.096l-0.074,0.097l-0.073,0.098l-0.073,0.098l-0.072,0.099l-0.072,0.099l-0.07,0.1l-0.07,0.1l-0.037,0.056l-0.037,0.056l-0.035,0.057l-0.034,0.059l-0.033,0.059l-0.03,0.06l-0.028,0.061l-0.026,0.062l-0.023,0.062l-0.011,0.032l-0.009,0.032l-0.009,0.031l-0.008,0.033l-0.007,0.032l-0.007,0.032l-0.005,0.033l-0.004,0.032l-0.004,0.033l-0.002,0.033l-0.001,0.033l0,0.033l0.001,0.033l0.002,0.033l0.004,0.036l0.004,0.034l0.006,0.035l0.014,0.068l0.009,0.033l0.01,0.033l0.022,0.064l0.013,0.032l0.013,0.031l0.014,0.03l0.032,0.06l0.016,0.029l0.036,0.056l0.02,0.028l0.02,0.026l0.02,0.027l0.021,0.025l0.022,0.025l0.023,0.025l0.023,0.024l0.024,0.023l0.05,0.044l0.025,0.021l0.027,0.021l0.026,0.02l0.027,0.019l0.028,0.019l0.028,0.017l0.058,0.034l0.029,0.015l0.03,0.015l0.03,0.014l0.03,0.013l0.031,0.013l0.031,0.012l0.031,0.01l0.031,0.011l0.032,0.009l0.064,0.016l0.033,0.006l0.032,0.006l0.033,0.005l0.032,0.004l0.033,0.003l0.066,0.004l0.033,0l0.032,-0.001l0.033,-0.001l0.033,-0.003l0.033,-0.003l0.033,-0.005l0.032,-0.005l0.033,-0.007l0.032,-0.008l0.032,-0.008l0.033,-0.01l0.031,-0.011l0.031,-0.012l0.031,-0.013l0.03,-0.014l0.03,-0.015l0.029,-0.016l0.029,-0.017l0.029,-0.017l0.056,-0.037l0.055,-0.039l0.055,-0.04l0.054,-0.04l0.174,-0.206l0.076,-0.113l0.078,-0.112l0.078,-0.112l0.08,-0.111l0.08,-0.11l0.082,-0.11l0.083,-0.109l0.084,-0.108l0.085,-0.107l0.085,-0.107l0.087,-0.106l0.088,-0.105l0.089,-0.104l0.09,-0.104l0.09,-0.102l0.092,-0.102l0.093,-0.101l0.094,-0.1l0.094,-0.099l0.096,-0.098l0.096,-0.098l0.097,-0.096l0.099,-0.096l0.099,-0.094l0.1,-0.094l0.101,-0.093l0.101,-0.092l0.103,-0.091l0.104,-0.089l0.104,-0.089l0.105,-0.088l0.106,-0.087l0.132,-0.106l0.133,-0.104l0.135,-0.102l0.135,-0.101l0.137,-0.099l0.138,-0.098l0.139,-0.096l0.14,-0.094l0.142,-0.092l0.142,-0.091l0.144,-0.09l0.144,-0.087l0.146,-0.086l0.146,-0.084l0.148,-0.083l0.148,-0.081l0.15,-0.079l0.15,-0.077l0.151,-0.076l0.152,-0.073l0.153,-0.073l0.154,-0.07l0.154,-0.069l0.156,-0.066l0.156,-0.065l0.157,-0.064l0.157,-0.061l0.159,-0.06l0.158,-0.058l0.16,-0.056l0.16,-0.054l0.161,-0.053l0.162,-0.051l0.162,-0.048l0.162,-0.047l0.163,-0.045l0.164,-0.044l0.164,-0.041l0.164,-0.04l0.165,-0.037l0.166,-0.036l0.166,-0.034l0.166,-0.032l0.166,-0.03l0.167,-0.028l0.167,-0.027l0.168,-0.024l0.168,-0.022l0.168,-0.021l0.168,-0.018l0.168,-0.017l0.169,-0.014l0.169,-0.013l0.169,-0.011l0.169,-0.008l0.169,-0.007l0.169,-0.004l0.169,-0.003l0.17,-0.001l0.169,0.002l0.169,0.003l0.17,0.005l0.169,0.008l0.169,0.009l0.195,0.014l0.194,0.016l0.194,0.019l0.194,0.022l0.194,0.024l0.193,0.027l0.193,0.03l0.192,0.032l0.192,0.035l0.191,0.038l0.191,0.04l0.19,0.043l0.189,0.045l0.189,0.048l0.189,0.051l0.187,0.052l0.187,0.056l0.186,0.058l0.186,0.06l0.184,0.063l0.184,0.065l0.183,0.068l0.182,0.07l0.181,0.072l0.18,0.075l0.179,0.077l0.178,0.079l0.177,0.082l0.176,0.084l0.175,0.087l0.173,0.088l0.173,0.091l0.171,0.093l0.17,0.095l0.169,0.098l0.168,0.1l0.166,0.102l0.165,0.104l0.163,0.106l0.162,0.108l0.161,0.11l0.159,0.113l0.158,0.114l0.156,0.117l0.155,0.119l0.153,0.12l0.151,0.123l0.15,0.125l0.148,0.126l0.146,0.129l0.145,0.131l0.143,0.132l0.141,0.135l0.139,0.136l0.137,0.138l0.136,0.14l0.133,0.142l0.132,0.144l0.129,0.145l0.128,0.147l0.125,0.15l0.124,0.15l0.121,0.153l0.119,0.154l0.068,0.091l0.066,0.092l0.192,0.279l0.064,0.09l0.065,0.089l0.033,0.043l0.068,0.084l0.034,0.04l0.035,0.04l0.036,0.038l0.036,0.037l0.037,0.035l0.038,0.034l0.039,0.033l0.04,0.031l0.041,0.029l0.042,0.027l0.043,0.026l0.045,0.023l0.045,0.021l0.048,0.019l0.048,0.017l0.04,0.012l0.04,0.011l0.04,0.009l0.039,0.007l0.04,0.006l0.039,0.004l0.04,0.003l0.039,0.002l0.038,0l0.039,-0.001l0.038,-0.002l0.038,-0.004l0.038,-0.005l0.037,-0.006l0.037,-0.008l0.037,-0.008l0.036,-0.01l0.036,-0.011l0.035,-0.012l0.035,-0.013l0.035,-0.014l0.034,-0.016l0.033,-0.016l0.033,-0.017l0.033,-0.019l0.032,-0.019l0.031,-0.02l0.031,-0.021l0.03,-0.022l0.029,-0.023l0.029,-0.024l0.028,-0.024l0.027,-0.025l0.027,-0.026l0.026,-0.027l0.025,-0.027l0.024,-0.028l0.024,-0.029l0.022,-0.029l0.022,-0.03l0.021,-0.03l0.02,-0.031l0.019,-0.032l0.019,-0.032l0.017,-0.032l0.016,-0.033l0.015,-0.034l0.015,-0.033l0.013,-0.034l0.012,-0.035l0.012,-0.035l0.01,-0.035l0.009,-0.035l0.008,-0.036l0.006,-0.036l0.006,-0.036l0.004,-0.036l0.003,-0.036l0.002,-0.037l0.001,-0.036l-0.001,-0.037l-0.002,-0.036l-0.003,-0.037l-0.004,-0.037l-0.006,-0.033l-0.007,-0.033l-0.008,-0.032l-0.009,-0.033l-0.019,-0.064l-0.019,-0.065l-0.123,-0.239l-0.074,-0.11l-0.075,-0.109l-0.076,-0.108l-0.076,-0.108l-0.078,-0.107l-0.078,-0.106l-0.079,-0.106l-0.079,-0.105l-0.081,-0.104l-0.081,-0.104l-0.082,-0.103l-0.083,-0.102l-0.084,-0.101l-0.084,-0.101l-0.085,-0.1l-0.086,-0.099l-0.086,-0.098l-0.088,-0.098l-0.088,-0.097l-0.088,-0.096l-0.09,-0.096l-0.09,-0.095l-0.091,-0.094l-0.091,-0.093l-0.093,-0.093l-0.092,-0.091l-0.094,-0.092l-0.094,-0.09l-0.095,-0.089l-0.096,-0.089l-0.096,-0.088l-0.097,-0.087l-0.097,-0.087l-0.098,-0.086l-0.099,-0.085l-0.099,-0.084l-0.1,-0.083l-0.101,-0.083l-0.101,-0.081l-0.101,-0.081l-0.103,-0.081l-0.103,-0.079l-0.103,-0.079l-0.104,-0.078l-0.105,-0.077l-0.105,-0.076l-0.105,-0.075l-0.107,-0.075l-0.106,-0.074l-0.108,-0.073l-0.108,-0.072l-0.108,-0.071l-0.109,-0.07l-0.109,-0.07l-0.11,-0.069l-0.11,-0.068l-0.111,-0.067l-0.111,-0.066l-0.112,-0.066l-0.112,-0.065l-0.113,-0.063l-0.113,-0.063l-0.114,-0.062l-0.114,-0.062l-0.114,-0.06l-0.115,-0.06l-0.115,-0.058l-0.116,-0.058l-0.116,-0.057l-0.117,-0.056l-0.116,-0.055l-0.118,-0.054l-0.117,-0.054l-0.119,-0.052l-0.118,-0.052l-0.119,-0.051l-0.119,-0.05l-0.119,-0.049l-0.12,-0.048l-0.121,-0.047l-0.12,-0.046l-0.121,-0.046l-0.121,-0.044l-0.122,-0.044l-0.121,-0.042l-0.123,-0.042l-0.122,-0.041l-0.123,-0.04l-0.123,-0.039l-0.123,-0.038l-0.124,-0.037l-0.123,-0.036l-0.124,-0.035l-0.125,-0.035l-0.124,-0.033l-0.125,-0.033l-0.125,-0.031l-0.125,-0.031l-0.126,-0.029l-0.126,-0.029l-0.125,-0.028l-0.127,-0.026l-0.126,-0.026l-0.126,-0.025l-0.127,-0.024l-0.127,-0.023l-0.127,-0.022l-0.127,-0.02l-0.128,-0.02l-0.127,-0.019l-0.128,-0.018l-0.127,-0.017l-0.128,-0.016l-0.128,-0.015l-0.129,-0.014l-0.128,-0.013l-0.128,-0.013l-0.129,-0.011l-0.128,-0.01l-0.129,-0.009l-0.129,-0.008l-0.129,-0.007l-0.129,-0.006l-0.129,-0.005l-0.129,-0.003l-0.129,-0.003l-0.129,-0.002l-0.129,-0.001l-0.19,0.001Z" style="fill:#fff;"/></svg>