<?xml version="1.0" encoding="UTF-8" standalone="no"?><!DOCTYPE svg PUBLIC "-//W3C//DTD SVG 1.1//EN" "http://www.w3.org/Graphics/SVG/1.1/DTD/svg11.dtd"><svg width="100%" height="100%" viewBox="0 0 60 80" version="1.1" xmlns="http://www.w3.org/2000/svg" xmlns:xlink="http://www.w3.org/1999/xlink" xml:space="preserve" xmlns:serif="http://www.serif.com/" style="fill-rule:evenodd;clip-rule:evenodd;stroke-linejoin:round;stroke-miterlimit:1.41421;"><path d="M27.393,46.498c-2.239,-0.996 -3.799,-3.241 -3.799,-5.848c0,-3.535 2.871,-6.406 6.407,-6.406c3.535,0 6.406,2.871 6.406,6.406c0,2.607 -1.56,4.852 -3.799,5.848l0,26.594l-2.607,4.516l-2.608,-4.516l0,-26.594Zm2.651,-17.812c3.555,0.021 7.066,1.823 9.136,4.75c0.059,0.083 0.116,0.167 0.173,0.252l0.124,0.239c0.022,0.086 0.055,0.171 0.067,0.26c0.077,0.537 -0.252,1.097 -0.759,1.291c-0.423,0.162 -0.926,0.062 -1.254,-0.248c-0.179,-0.168 -0.29,-0.381 -0.434,-0.574c-2.054,-2.764 -5.804,-4.172 -9.262,-3.299c-2.1,0.531 -3.973,1.85 -5.191,3.668l-0.174,0.205c-0.072,0.054 -0.138,0.116 -0.215,0.162c-0.692,0.406 -1.734,-0.069 -1.806,-0.936c-0.015,-0.18 0.011,-0.361 0.075,-0.529c0.081,-0.211 0.219,-0.383 0.348,-0.562c2.056,-2.86 5.493,-4.644 9.04,-4.679c0.044,0 0.088,0 0.132,0Zm-0.01,-5.579c5.337,0.015 10.628,2.7 13.774,7.111c0.103,0.143 0.203,0.289 0.301,0.435l0.123,0.239c0.023,0.087 0.055,0.172 0.068,0.261c0.112,0.794 -0.725,1.577 -1.554,1.312c-0.475,-0.151 -0.733,-0.64 -1.061,-1.081c-2.38,-3.204 -6.12,-5.353 -10.101,-5.788c-3.533,-0.386 -7.198,0.574 -10.094,2.66c-1.396,1.005 -2.609,2.262 -3.568,3.684l-0.033,0.049l-0.173,0.205c-0.072,0.054 -0.138,0.116 -0.215,0.162c-0.612,0.361 -1.522,0.06 -1.755,-0.671c-0.082,-0.258 -0.073,-0.543 0.023,-0.793c0.063,-0.166 0.169,-0.309 0.272,-0.457c3.065,-4.443 8.308,-7.279 13.827,-7.327c0.055,-0.001 0.11,-0.001 0.166,-0.001Z" style="fill:#e9721c;"/><clipPath id="_clip1"><path d="M27.393,46.498c-2.239,-0.996 -3.799,-3.241 -3.799,-5.848c0,-3.535 2.871,-6.406 6.407,-6.406c3.535,0 6.406,2.871 6.406,6.406c0,2.607 -1.56,4.852 -3.799,5.848l0,26.594l-2.607,4.516l-2.608,-4.516l0,-26.594Zm2.651,-17.812c3.555,0.021 7.066,1.823 9.136,4.75c0.059,0.083 0.116,0.167 0.173,0.252l0.124,0.239c0.022,0.086 0.055,0.171 0.067,0.26c0.077,0.537 -0.252,1.097 -0.759,1.291c-0.423,0.162 -0.926,0.062 -1.254,-0.248c-0.179,-0.168 -0.29,-0.381 -0.434,-0.574c-2.054,-2.764 -5.804,-4.172 -9.262,-3.299c-2.1,0.531 -3.973,1.85 -5.191,3.668l-0.174,0.205c-0.072,0.054 -0.138,0.116 -0.215,0.162c-0.692,0.406 -1.734,-0.069 -1.806,-0.936c-0.015,-0.18 0.011,-0.361 0.075,-0.529c0.081,-0.211 0.219,-0.383 0.348,-0.562c2.056,-2.86 5.493,-4.644 9.04,-4.679c0.044,0 0.088,0 0.132,0Zm-0.01,-5.579c5.337,0.015 10.628,2.7 13.774,7.111c0.103,0.143 0.203,0.289 0.301,0.435l0.123,0.239c0.023,0.087 0.055,0.172 0.068,0.261c0.112,0.794 -0.725,1.577 -1.554,1.312c-0.475,-0.151 -0.733,-0.64 -1.061,-1.081c-2.38,-3.204 -6.12,-5.353 -10.101,-5.788c-3.533,-0.386 -7.198,0.574 -10.094,2.66c-1.396,1.005 -2.609,2.262 -3.568,3.684l-0.033,0.049l-0.173,0.205c-0.072,0.054 -0.138,0.116 -0.215,0.162c-0.612,0.361 -1.522,0.06 -1.755,-0.671c-0.082,-0.258 -0.073,-0.543 0.023,-0.793c0.063,-0.166 0.169,-0.309 0.272,-0.457c3.065,-4.443 8.308,-7.279 13.827,-7.327c0.055,-0.001 0.11,-0.001 0.166,-0.001Z"/></clipPath><g clip-path="url(#_clip1)"><path d="M27.393,40.65l5.215,0l0,32.442l-2.607,4.516l-2.608,-4.516l0,-32.442Z" style="fill:#e9721c;"/><circle cx="30.001" cy="40.65" r="6.406" style="fill:#e9721c;"/></g><path d="M30.183,20.777l0.143,0.002l0.144,0.004l0.143,0.004l0.143,0.005l0.142,0.007l0.143,0.007l0.143,0.009l0.142,0.01l0.143,0.011l0.142,0.012l0.142,0.013l0.142,0.014l0.142,0.015l0.142,0.016l0.141,0.017l0.142,0.019l0.141,0.019l0.141,0.021l0.141,0.021l0.141,0.023l0.14,0.023l0.14,0.025l0.14,0.026l0.14,0.027l0.14,0.027l0.139,0.029l0.139,0.03l0.139,0.031l0.139,0.032l0.138,0.032l0.138,0.034l0.138,0.035l0.138,0.036l0.137,0.037l0.137,0.038l0.137,0.039l0.137,0.04l0.136,0.04l0.136,0.042l0.135,0.043l0.135,0.044l0.135,0.045l0.135,0.045l0.134,0.047l0.134,0.048l0.134,0.048l0.133,0.05l0.133,0.051l0.132,0.051l0.132,0.052l0.132,0.054l0.132,0.054l0.131,0.056l0.13,0.056l0.13,0.057l0.13,0.058l0.13,0.059l0.128,0.06l0.129,0.061l0.128,0.062l0.128,0.062l0.127,0.064l0.127,0.065l0.126,0.065l0.126,0.067l0.125,0.067l0.125,0.068l0.125,0.069l0.124,0.07l0.123,0.071l0.123,0.072l0.123,0.073l0.122,0.073l0.121,0.075l0.121,0.075l0.121,0.076l0.119,0.077l0.12,0.078l0.119,0.079l0.118,0.08l0.118,0.081l0.117,0.081l0.116,0.082l0.116,0.084l0.116,0.084l0.115,0.085l0.114,0.085l0.113,0.087l0.113,0.088l0.113,0.088l0.112,0.089l0.111,0.09l0.11,0.091l0.11,0.092l0.109,0.092l0.109,0.094l0.108,0.094l0.107,0.095l0.107,0.096l0.106,0.096l0.105,0.098l0.104,0.098l0.104,0.099l0.103,0.1l0.103,0.101l0.101,0.102l0.101,0.102l0.101,0.103l0.099,0.104l0.099,0.105l0.098,0.106l0.097,0.106l0.096,0.108l0.096,0.107l0.095,0.109l0.094,0.11l0.093,0.11l0.093,0.111l0.091,0.112l0.091,0.113l0.09,0.113l0.09,0.115l0.088,0.115l0.087,0.115l0.087,0.117l0.086,0.117l0.085,0.118l0.087,0.123l0.086,0.124l0.084,0.123l0.079,0.117l0.072,0.114l0.065,0.118l0.124,0.239l0.068,0.143l0.058,0.147l0.047,0.15l0.014,0.05l0.02,0.066l0.021,0.078l0.026,0.1l0.027,0.124l0.023,0.137l0.016,0.131l0.01,0.121l0.006,0.12l0.002,0.12l-0.003,0.118l-0.006,0.118l-0.011,0.116l-0.014,0.114l-0.018,0.113l-0.021,0.112l-0.025,0.109l-0.028,0.108l-0.032,0.106l-0.034,0.104l-0.037,0.102l-0.04,0.1l-0.043,0.098l-0.045,0.096l-0.048,0.094l-0.05,0.092l-0.053,0.09l-0.055,0.088l-0.057,0.086l-0.059,0.084l-0.062,0.082l-0.063,0.08l-0.066,0.079l-0.068,0.076l-0.069,0.074l-0.072,0.072l-0.074,0.071l-0.076,0.068l-0.078,0.067l-0.08,0.064l-0.082,0.062l-0.084,0.06l-0.086,0.058l-0.088,0.056l-0.09,0.053l-0.092,0.051l-0.094,0.049l-0.096,0.046l-0.098,0.044l-0.101,0.041l-0.102,0.038l-0.104,0.035l-0.106,0.032l-0.109,0.029l-0.109,0.026l-0.112,0.022l-0.113,0.019l-0.115,0.015l-0.116,0.012l-0.117,0.007l-0.119,0.004l-0.119,-0.001l-0.12,-0.005l-0.121,-0.009l-0.121,-0.014l-0.121,-0.017l-0.121,-0.023l-0.121,-0.027l-0.12,-0.031l-0.126,-0.037l-0.143,-0.05l-0.013,-0.005l0,0.002l-0.016,0.15l-0.022,0.147l-0.028,0.145l-0.033,0.143l-0.04,0.14l-0.044,0.138l-0.05,0.135l-0.055,0.132l-0.059,0.129l-0.065,0.127l-0.07,0.124l-0.074,0.121l-0.08,0.119l-0.084,0.115l-0.089,0.112l-0.093,0.11l-0.099,0.105l-0.104,0.103l-0.108,0.099l-0.113,0.094l-0.119,0.091l-0.123,0.087l-0.128,0.082l-0.133,0.077l-0.138,0.072l-0.143,0.066l-0.142,0.058l-0.126,0.046l-0.123,0.039l-0.123,0.035l-0.124,0.029l-0.123,0.025l-0.123,0.021l-0.124,0.016l-0.123,0.011l-0.122,0.008l-0.122,0.003l-0.1,-0.001l0.022,0.066l0.032,0.102l0.032,0.104l0.03,0.103l0.029,0.104l0.027,0.105l0.027,0.105l0.025,0.106l0.024,0.106l0.022,0.106l0.021,0.107l0.02,0.108l0.019,0.108l0.017,0.108l0.016,0.109l0.015,0.109l0.013,0.109l0.012,0.11l0.01,0.11l0.009,0.111l0.008,0.111l0.006,0.111l0.005,0.111l0.004,0.112l0.002,0.112l0.001,0.116l-0.002,0.162l-0.004,0.165l-0.008,0.164l-0.011,0.164l-0.014,0.163l-0.016,0.162l-0.02,0.161l-0.023,0.161l-0.025,0.159l-0.028,0.159l-0.032,0.158l-0.034,0.157l-0.037,0.155l-0.039,0.155l-0.043,0.154l-0.045,0.152l-0.048,0.152l-0.05,0.15l-0.053,0.149l-0.056,0.147l-0.058,0.146l-0.061,0.145l-0.063,0.144l-0.066,0.142l-0.068,0.141l-0.071,0.14l-0.073,0.137l-0.075,0.137l-0.078,0.135l-0.08,0.133l-0.082,0.132l-0.085,0.13l-0.086,0.128l-0.089,0.127l-0.091,0.125l-0.094,0.124l-0.095,0.122l-0.097,0.12l-0.1,0.118l-0.101,0.116l-0.104,0.115l-0.106,0.112l-0.107,0.111l-0.109,0.109l-0.112,0.107l-0.113,0.105l-0.115,0.103l-0.117,0.101l-0.119,0.099l-0.12,0.097l-0.122,0.094l-0.124,0.093l-0.126,0.09l-0.104,0.073l0,25.238l-0.009,0.203l-0.027,0.202l-0.044,0.198l-0.061,0.194l-0.078,0.188l-0.094,0.181l-2.607,4.516l-0.12,0.186l-0.137,0.175l-0.153,0.16l-0.168,0.145l-0.18,0.129l-0.192,0.111l-0.202,0.092l-0.21,0.073l-0.215,0.052l-0.22,0.031l-0.221,0.011l-0.222,-0.011l-0.22,-0.031l-0.215,-0.052l-0.21,-0.073l-0.202,-0.092l-0.192,-0.111l-0.18,-0.129l-0.168,-0.145l-0.153,-0.16l-0.137,-0.175l-0.12,-0.186l-2.607,-4.516l-0.094,-0.181l-0.078,-0.188l-0.061,-0.194l-0.044,-0.198l-0.027,-0.202l-0.009,-0.203l0,-25.238l-0.104,-0.073l-0.126,-0.09l-0.124,-0.093l-0.122,-0.094l-0.12,-0.097l-0.119,-0.099l-0.117,-0.101l-0.115,-0.103l-0.113,-0.105l-0.112,-0.107l-0.109,-0.109l-0.107,-0.111l-0.106,-0.112l-0.104,-0.115l-0.101,-0.116l-0.1,-0.118l-0.097,-0.12l-0.095,-0.122l-0.094,-0.124l-0.091,-0.125l-0.089,-0.127l-0.086,-0.128l-0.085,-0.13l-0.082,-0.132l-0.08,-0.133l-0.078,-0.135l-0.075,-0.137l-0.073,-0.137l-0.071,-0.14l-0.068,-0.141l-0.066,-0.142l-0.063,-0.144l-0.061,-0.145l-0.058,-0.146l-0.056,-0.147l-0.053,-0.149l-0.05,-0.15l-0.048,-0.152l-0.045,-0.152l-0.043,-0.154l-0.039,-0.155l-0.037,-0.155l-0.034,-0.157l-0.032,-0.158l-0.028,-0.159l-0.025,-0.159l-0.023,-0.161l-0.02,-0.161l-0.016,-0.162l-0.014,-0.163l-0.011,-0.164l-0.008,-0.164l-0.004,-0.165l-0.002,-0.162l0.001,-0.116l0.002,-0.112l0.004,-0.112l0.005,-0.111l0.006,-0.111l0.008,-0.111l0.009,-0.111l0.01,-0.11l0.012,-0.11l0.013,-0.109l0.015,-0.109l0.016,-0.109l0.017,-0.108l0.019,-0.108l0.02,-0.108l0.021,-0.107l0.023,-0.106l0.023,-0.106l0.025,-0.106l0.027,-0.105l0.027,-0.105l0.029,-0.104l0.03,-0.103l0.032,-0.104l0.033,-0.102l0.026,-0.081l-0.035,0l-0.107,-0.002l-0.106,-0.005l-0.105,-0.009l-0.105,-0.011l-0.103,-0.014l-0.102,-0.017l-0.101,-0.02l-0.101,-0.023l-0.099,-0.026l-0.099,-0.028l-0.097,-0.031l-0.096,-0.033l-0.095,-0.036l-0.095,-0.039l-0.093,-0.042l-0.092,-0.044l-0.091,-0.046l-0.09,-0.05l-0.089,-0.052l-0.087,-0.054l-0.087,-0.058l-0.085,-0.06l-0.084,-0.063l-0.082,-0.065l-0.081,-0.069l-0.079,-0.071l-0.078,-0.075l-0.076,-0.077l-0.074,-0.08l-0.073,-0.083l-0.07,-0.086l-0.068,-0.088l-0.066,-0.092l-0.063,-0.095l-0.06,-0.097l-0.058,-0.1l-0.055,-0.103l-0.052,-0.106l-0.048,-0.108l-0.045,-0.111l-0.041,-0.113l-0.038,-0.115l-0.033,-0.117l-0.03,-0.119l-0.026,-0.12l-0.021,-0.122l-0.017,-0.123l-0.012,-0.119l-0.002,-0.025l-0.009,0.004l-0.096,0.033l-0.097,0.03l-0.097,0.028l-0.097,0.024l-0.097,0.021l-0.097,0.018l-0.097,0.016l-0.096,0.013l-0.096,0.01l-0.096,0.007l-0.095,0.005l-0.095,0.002l-0.095,0l-0.094,-0.003l-0.094,-0.005l-0.093,-0.008l-0.093,-0.01l-0.092,-0.012l-0.091,-0.015l-0.091,-0.017l-0.09,-0.019l-0.09,-0.022l-0.089,-0.023l-0.089,-0.026l-0.088,-0.029l-0.087,-0.03l-0.087,-0.033l-0.086,-0.035l-0.085,-0.038l-0.085,-0.039l-0.083,-0.042l-0.083,-0.045l-0.083,-0.047l-0.081,-0.049l-0.08,-0.051l-0.079,-0.054l-0.079,-0.056l-0.077,-0.059l-0.076,-0.061l-0.075,-0.064l-0.073,-0.066l-0.072,-0.069l-0.07,-0.071l-0.069,-0.074l-0.068,-0.076l-0.065,-0.079l-0.063,-0.081l-0.062,-0.084l-0.059,-0.086l-0.057,-0.088l-0.055,-0.091l-0.052,-0.092l-0.049,-0.095l-0.047,-0.097l-0.044,-0.099l-0.041,-0.1l-0.038,-0.103l-0.037,-0.11l-0.041,-0.139l-0.037,-0.147l-0.029,-0.147l-0.024,-0.147l-0.017,-0.148l-0.011,-0.147l-0.005,-0.147l0.002,-0.147l0.007,-0.147l0.013,-0.146l0.02,-0.146l0.025,-0.145l0.032,-0.144l0.038,-0.144l0.044,-0.143l0.049,-0.136l0.043,-0.106l0.041,-0.096l0.043,-0.089l0.042,-0.084l0.042,-0.077l0.045,-0.08l0.07,-0.115l0.068,-0.105l0.058,-0.086l0.085,-0.123l0.079,-0.113l0.083,-0.118l0.085,-0.117l0.085,-0.117l0.086,-0.116l0.087,-0.115l0.088,-0.115l0.089,-0.113l0.09,-0.114l0.09,-0.112l0.091,-0.111l0.092,-0.111l0.093,-0.11l0.094,-0.11l0.094,-0.108l0.095,-0.108l0.097,-0.107l0.096,-0.107l0.098,-0.105l0.098,-0.105l0.1,-0.104l0.099,-0.103l0.101,-0.103l0.102,-0.102l0.102,-0.101l0.103,-0.1l0.103,-0.099l0.105,-0.099l0.105,-0.098l0.105,-0.097l0.107,-0.096l0.107,-0.095l0.108,-0.095l0.108,-0.093l0.11,-0.093l0.11,-0.093l0.11,-0.091l0.111,-0.09l0.112,-0.09l0.113,-0.089l0.113,-0.088l0.114,-0.087l0.114,-0.086l0.115,-0.086l0.116,-0.085l0.116,-0.083l0.117,-0.083l0.118,-0.083l0.118,-0.081l0.119,-0.08l0.119,-0.08l0.12,-0.078l0.12,-0.078l0.121,-0.077l0.122,-0.076l0.122,-0.075l0.123,-0.074l0.123,-0.074l0.124,-0.072l0.124,-0.072l0.125,-0.071l0.126,-0.069l0.126,-0.069l0.126,-0.068l0.127,-0.067l0.128,-0.067l0.127,-0.065l0.129,-0.064l0.129,-0.063l0.129,-0.063l0.13,-0.061l0.131,-0.061l0.13,-0.06l0.132,-0.058l0.131,-0.058l0.133,-0.057l0.132,-0.056l0.133,-0.055l0.134,-0.054l0.134,-0.053l0.134,-0.052l0.135,-0.051l0.135,-0.05l0.136,-0.049l0.136,-0.048l0.136,-0.047l0.137,-0.046l0.137,-0.045l0.138,-0.044l0.138,-0.043l0.138,-0.042l0.138,-0.041l0.139,-0.04l0.14,-0.039l0.139,-0.038l0.141,-0.037l0.14,-0.036l0.141,-0.035l0.141,-0.034l0.141,-0.033l0.141,-0.032l0.142,-0.03l0.143,-0.03l0.142,-0.029l0.143,-0.027l0.143,-0.027l0.143,-0.025l0.144,-0.024l0.144,-0.024l0.144,-0.022l0.144,-0.021l0.145,-0.02l0.145,-0.019l0.145,-0.017l0.145,-0.017l0.146,-0.016l0.146,-0.014l0.146,-0.013l0.146,-0.013l0.146,-0.011l0.147,-0.01l0.146,-0.008l0.147,-0.008l0.147,-0.007l0.147,-0.005l0.148,-0.004l0.147,-0.003l0.15,-0.002l0.189,-0.001l0.145,0.001Zm-0.265,13.468l-0.083,0.001l-0.082,0.003l-0.082,0.003l-0.082,0.005l-0.081,0.006l-0.081,0.006l-0.081,0.008l-0.081,0.009l-0.08,0.01l-0.08,0.01l-0.08,0.012l-0.079,0.013l-0.079,0.013l-0.079,0.015l-0.078,0.015l-0.078,0.017l-0.078,0.017l-0.077,0.019l-0.077,0.019l-0.076,0.02l-0.076,0.021l-0.076,0.022l-0.076,0.023l-0.075,0.024l-0.074,0.025l-0.074,0.026l-0.074,0.026l-0.074,0.027l-0.073,0.029l-0.072,0.029l-0.072,0.03l-0.072,0.031l-0.071,0.031l-0.071,0.033l-0.07,0.033l-0.07,0.034l-0.069,0.035l-0.069,0.036l-0.068,0.037l-0.068,0.037l-0.067,0.038l-0.067,0.039l-0.066,0.04l-0.066,0.041l-0.065,0.041l-0.065,0.042l-0.064,0.043l-0.064,0.043l-0.063,0.045l-0.063,0.045l-0.062,0.045l-0.061,0.047l-0.061,0.047l-0.06,0.048l-0.06,0.049l-0.059,0.049l-0.058,0.05l-0.058,0.051l-0.057,0.051l-0.057,0.052l-0.056,0.053l-0.055,0.053l-0.055,0.054l-0.054,0.055l-0.053,0.055l-0.053,0.056l-0.052,0.057l-0.051,0.057l-0.051,0.058l-0.05,0.058l-0.049,0.059l-0.049,0.06l-0.048,0.06l-0.047,0.061l-0.046,0.061l-0.046,0.062l-0.045,0.063l-0.045,0.063l-0.043,0.064l-0.043,0.064l-0.042,0.065l-0.041,0.065l-0.041,0.066l-0.04,0.066l-0.039,0.067l-0.038,0.067l-0.037,0.068l-0.037,0.068l-0.036,0.069l-0.035,0.069l-0.034,0.07l-0.033,0.07l-0.033,0.071l-0.031,0.071l-0.031,0.072l-0.03,0.072l-0.029,0.072l-0.028,0.073l-0.028,0.074l-0.026,0.073l-0.026,0.075l-0.025,0.074l-0.024,0.075l-0.023,0.076l-0.022,0.075l-0.021,0.077l-0.02,0.076l-0.019,0.077l-0.019,0.077l-0.017,0.078l-0.017,0.078l-0.015,0.078l-0.015,0.079l-0.013,0.079l-0.013,0.079l-0.012,0.08l-0.01,0.08l-0.01,0.08l-0.009,0.081l-0.007,0.081l-0.007,0.081l-0.006,0.081l-0.005,0.082l-0.003,0.082l-0.003,0.082l-0.001,0.083l-0.001,0.082l0.001,0.122l0.004,0.122l0.005,0.12l0.008,0.121l0.01,0.119l0.013,0.119l0.014,0.119l0.017,0.117l0.018,0.117l0.021,0.116l0.023,0.116l0.025,0.115l0.027,0.114l0.029,0.113l0.031,0.112l0.033,0.112l0.035,0.11l0.037,0.11l0.039,0.109l0.04,0.108l0.043,0.107l0.044,0.106l0.047,0.105l0.048,0.104l0.05,0.103l0.051,0.103l0.054,0.101l0.055,0.099l0.057,0.099l0.059,0.098l0.06,0.097l0.062,0.095l0.064,0.094l0.065,0.093l0.067,0.092l0.068,0.091l0.07,0.089l0.072,0.088l0.073,0.087l0.074,0.085l0.076,0.084l0.078,0.083l0.079,0.081l0.08,0.08l0.082,0.079l0.083,0.077l0.084,0.075l0.086,0.074l0.087,0.073l0.088,0.071l0.09,0.07l0.091,0.068l0.092,0.066l0.094,0.065l0.094,0.063l0.096,0.061l0.097,0.06l0.098,0.058l0.099,0.057l0.101,0.055l0.101,0.053l0.102,0.051l0.104,0.049l0.104,0.048l0,26.594l2.608,4.516l2.607,-4.516l0,-26.594l0.104,-0.048l0.104,-0.049l0.102,-0.051l0.102,-0.053l0.1,-0.055l0.099,-0.057l0.098,-0.058l0.097,-0.06l0.096,-0.061l0.094,-0.063l0.094,-0.065l0.092,-0.066l0.091,-0.068l0.09,-0.07l0.088,-0.071l0.087,-0.073l0.086,-0.074l0.084,-0.075l0.083,-0.077l0.082,-0.079l0.08,-0.08l0.079,-0.081l0.078,-0.083l0.076,-0.084l0.074,-0.085l0.073,-0.087l0.072,-0.088l0.07,-0.089l0.068,-0.091l0.067,-0.092l0.065,-0.093l0.064,-0.094l0.062,-0.095l0.06,-0.097l0.059,-0.098l0.057,-0.099l0.055,-0.099l0.054,-0.101l0.051,-0.103l0.05,-0.103l0.048,-0.104l0.047,-0.105l0.044,-0.106l0.043,-0.107l0.04,-0.108l0.039,-0.109l0.037,-0.11l0.035,-0.11l0.033,-0.112l0.031,-0.112l0.029,-0.113l0.027,-0.114l0.025,-0.115l0.023,-0.116l0.021,-0.116l0.018,-0.117l0.017,-0.117l0.014,-0.119l0.013,-0.119l0.01,-0.119l0.008,-0.121l0.005,-0.12l0.004,-0.122l0.001,-0.122l-0.001,-0.082l-0.001,-0.083l-0.003,-0.082l-0.003,-0.082l-0.005,-0.082l-0.006,-0.081l-0.007,-0.081l-0.007,-0.081l-0.009,-0.081l-0.01,-0.08l-0.01,-0.08l-0.012,-0.08l-0.013,-0.079l-0.013,-0.079l-0.015,-0.079l-0.015,-0.078l-0.017,-0.078l-0.017,-0.078l-0.019,-0.077l-0.019,-0.077l-0.02,-0.076l-0.021,-0.077l-0.022,-0.075l-0.023,-0.076l-0.024,-0.075l-0.025,-0.074l-0.026,-0.075l-0.026,-0.073l-0.028,-0.074l-0.028,-0.073l-0.029,-0.072l-0.03,-0.072l-0.031,-0.072l-0.031,-0.071l-0.033,-0.071l-0.033,-0.07l-0.034,-0.07l-0.035,-0.069l-0.036,-0.069l-0.037,-0.068l-0.037,-0.068l-0.038,-0.067l-0.039,-0.067l-0.04,-0.066l-0.041,-0.066l-0.041,-0.065l-0.042,-0.065l-0.043,-0.064l-0.043,-0.064l-0.045,-0.063l-0.045,-0.063l-0.046,-0.062l-0.046,-0.061l-0.047,-0.061l-0.048,-0.06l-0.049,-0.06l-0.049,-0.059l-0.05,-0.058l-0.051,-0.058l-0.051,-0.057l-0.052,-0.057l-0.053,-0.056l-0.053,-0.055l-0.054,-0.055l-0.055,-0.054l-0.055,-0.053l-0.056,-0.053l-0.057,-0.052l-0.057,-0.051l-0.058,-0.051l-0.058,-0.05l-0.059,-0.049l-0.06,-0.049l-0.06,-0.048l-0.061,-0.047l-0.061,-0.047l-0.062,-0.045l-0.063,-0.045l-0.063,-0.045l-0.064,-0.043l-0.064,-0.043l-0.065,-0.042l-0.065,-0.041l-0.066,-0.041l-0.066,-0.04l-0.067,-0.039l-0.067,-0.038l-0.068,-0.037l-0.068,-0.037l-0.069,-0.036l-0.069,-0.035l-0.07,-0.034l-0.07,-0.033l-0.071,-0.033l-0.071,-0.031l-0.072,-0.031l-0.072,-0.03l-0.072,-0.029l-0.073,-0.029l-0.074,-0.027l-0.074,-0.026l-0.074,-0.026l-0.074,-0.025l-0.075,-0.024l-0.076,-0.023l-0.076,-0.022l-0.076,-0.021l-0.076,-0.02l-0.077,-0.019l-0.077,-0.019l-0.078,-0.017l-0.078,-0.017l-0.078,-0.015l-0.079,-0.015l-0.079,-0.013l-0.079,-0.013l-0.08,-0.012l-0.08,-0.01l-0.08,-0.01l-0.081,-0.009l-0.081,-0.008l-0.081,-0.006l-0.081,-0.006l-0.082,-0.005l-0.082,-0.003l-0.082,-0.003l-0.083,-0.001l-0.082,-0.001l-0.083,0.001Zm-0.006,-5.559l-0.166,0.003l-0.166,0.006l-0.165,0.008l-0.166,0.01l-0.165,0.013l-0.165,0.016l-0.165,0.018l-0.164,0.02l-0.164,0.023l-0.163,0.025l-0.163,0.028l-0.163,0.03l-0.162,0.032l-0.161,0.035l-0.161,0.037l-0.16,0.04l-0.16,0.042l-0.159,0.044l-0.158,0.046l-0.158,0.049l-0.157,0.051l-0.156,0.053l-0.155,0.055l-0.155,0.058l-0.153,0.06l-0.153,0.062l-0.152,0.064l-0.15,0.066l-0.15,0.068l-0.149,0.071l-0.148,0.073l-0.147,0.074l-0.145,0.077l-0.145,0.079l-0.143,0.081l-0.143,0.083l-0.141,0.084l-0.139,0.087l-0.139,0.089l-0.137,0.091l-0.136,0.093l-0.135,0.094l-0.133,0.097l-0.131,0.098l-0.131,0.101l-0.129,0.102l-0.127,0.104l-0.126,0.106l-0.124,0.108l-0.123,0.109l-0.121,0.112l-0.119,0.113l-0.118,0.115l-0.116,0.117l-0.114,0.118l-0.113,0.12l-0.11,0.122l-0.109,0.123l-0.107,0.125l-0.106,0.127l-0.103,0.129l-0.101,0.13l-0.1,0.131l-0.097,0.134l-0.097,0.133l-0.048,0.068l-0.047,0.068l-0.023,0.035l-0.021,0.035l-0.021,0.035l-0.021,0.036l-0.019,0.037l-0.018,0.037l-0.017,0.039l-0.016,0.039l-0.011,0.031l-0.011,0.032l-0.01,0.033l-0.009,0.032l-0.008,0.033l-0.007,0.033l-0.006,0.033l-0.005,0.033l-0.004,0.033l-0.004,0.034l-0.002,0.033l-0.002,0.034l0,0.034l0,0.033l0.002,0.034l0.002,0.034l0.004,0.04l0.005,0.04l0.007,0.039l0.008,0.039l0.01,0.038l0.011,0.037l0.012,0.037l0.013,0.036l0.014,0.035l0.016,0.035l0.016,0.034l0.018,0.033l0.019,0.033l0.02,0.032l0.02,0.031l0.022,0.03l0.023,0.03l0.024,0.029l0.024,0.028l0.025,0.027l0.027,0.027l0.027,0.025l0.027,0.025l0.029,0.024l0.029,0.024l0.03,0.022l0.03,0.021l0.031,0.021l0.032,0.02l0.032,0.019l0.032,0.018l0.034,0.017l0.033,0.016l0.034,0.015l0.035,0.014l0.034,0.013l0.036,0.012l0.035,0.012l0.036,0.01l0.036,0.009l0.036,0.008l0.036,0.007l0.037,0.006l0.036,0.006l0.037,0.004l0.037,0.002l0.036,0.002l0.037,0.001l0.037,0l0.037,-0.002l0.036,-0.003l0.037,-0.003l0.036,-0.005l0.036,-0.006l0.036,-0.008l0.036,-0.008l0.035,-0.01l0.035,-0.011l0.035,-0.012l0.035,-0.013l0.034,-0.015l0.033,-0.016l0.033,-0.017l0.033,-0.018l0.029,-0.018l0.027,-0.019l0.027,-0.02l0.027,-0.021l0.052,-0.042l0.053,-0.042l0.174,-0.205l0.057,-0.085l0.059,-0.084l0.059,-0.083l0.061,-0.083l0.061,-0.082l0.062,-0.081l0.063,-0.08l0.064,-0.08l0.065,-0.079l0.066,-0.078l0.067,-0.077l0.067,-0.076l0.069,-0.076l0.069,-0.074l0.07,-0.074l0.07,-0.073l0.072,-0.073l0.072,-0.071l0.074,-0.071l0.074,-0.069l0.074,-0.069l0.076,-0.068l0.076,-0.067l0.077,-0.066l0.078,-0.066l0.078,-0.064l0.079,-0.064l0.08,-0.062l0.08,-0.062l0.081,-0.061l0.082,-0.06l0.083,-0.059l0.083,-0.057l0.084,-0.058l0.084,-0.056l0.085,-0.055l0.086,-0.054l0.086,-0.053l0.087,-0.052l0.087,-0.051l0.088,-0.05l0.088,-0.05l0.089,-0.048l0.09,-0.047l0.09,-0.046l0.091,-0.045l0.091,-0.044l0.091,-0.043l0.093,-0.042l0.092,-0.041l0.093,-0.04l0.094,-0.039l0.094,-0.038l0.094,-0.036l0.095,-0.036l0.095,-0.034l0.096,-0.034l0.096,-0.032l0.096,-0.031l0.097,-0.03l0.097,-0.029l0.098,-0.028l0.098,-0.026l0.098,-0.026l0.081,-0.02l0.082,-0.019l0.081,-0.018l0.081,-0.018l0.082,-0.017l0.081,-0.015l0.082,-0.016l0.082,-0.014l0.081,-0.013l0.082,-0.013l0.082,-0.012l0.082,-0.011l0.082,-0.01l0.082,-0.01l0.082,-0.008l0.082,-0.008l0.082,-0.007l0.082,-0.006l0.082,-0.006l0.082,-0.004l0.082,-0.004l0.082,-0.004l0.082,-0.002l0.082,-0.001l0.082,-0.001l0.082,0l0.082,0l0.082,0.002l0.081,0.002l0.082,0.003l0.082,0.004l0.081,0.005l0.082,0.005l0.081,0.006l0.163,0.014l0.162,0.017l0.162,0.021l0.161,0.023l0.161,0.026l0.16,0.029l0.16,0.031l0.159,0.035l0.158,0.037l0.157,0.04l0.157,0.043l0.156,0.046l0.155,0.049l0.154,0.051l0.153,0.053l0.152,0.057l0.151,0.059l0.149,0.062l0.149,0.064l0.147,0.067l0.146,0.07l0.145,0.072l0.144,0.074l0.142,0.077l0.141,0.08l0.139,0.082l0.137,0.084l0.136,0.087l0.135,0.089l0.133,0.092l0.131,0.094l0.129,0.096l0.128,0.098l0.125,0.101l0.124,0.103l0.122,0.106l0.12,0.107l0.059,0.055l0.059,0.055l0.058,0.056l0.057,0.056l0.058,0.057l0.056,0.057l0.056,0.058l0.056,0.058l0.054,0.059l0.055,0.059l0.054,0.06l0.053,0.061l0.052,0.061l0.053,0.061l0.051,0.062l0.051,0.063l0.05,0.063l0.05,0.063l0.049,0.064l0.048,0.065l0.027,0.036l0.026,0.037l0.05,0.074l0.05,0.075l0.051,0.074l0.052,0.073l0.027,0.036l0.028,0.036l0.029,0.034l0.03,0.034l0.031,0.033l0.033,0.032l0.031,0.029l0.032,0.027l0.034,0.026l0.034,0.024l0.035,0.024l0.035,0.022l0.037,0.021l0.037,0.019l0.038,0.018l0.038,0.017l0.039,0.016l0.039,0.014l0.04,0.013l0.041,0.012l0.04,0.01l0.042,0.009l0.041,0.007l0.041,0.006l0.042,0.005l0.042,0.003l0.042,0.002l0.042,0.001l0.042,-0.002l0.042,-0.002l0.042,-0.004l0.041,-0.005l0.042,-0.007l0.041,-0.009l0.041,-0.009l0.041,-0.012l0.04,-0.013l0.04,-0.014l0.047,-0.019l0.046,-0.022l0.045,-0.023l0.043,-0.025l0.043,-0.027l0.041,-0.029l0.04,-0.031l0.038,-0.032l0.037,-0.034l0.036,-0.035l0.034,-0.037l0.033,-0.038l0.031,-0.04l0.03,-0.04l0.028,-0.042l0.026,-0.043l0.025,-0.044l0.023,-0.045l0.021,-0.045l0.019,-0.047l0.018,-0.047l0.015,-0.048l0.014,-0.048l0.011,-0.049l0.01,-0.05l0.007,-0.049l0.005,-0.05l0.003,-0.05l0.001,-0.051l-0.001,-0.05l-0.004,-0.051l-0.006,-0.05l-0.005,-0.033l-0.007,-0.033l-0.009,-0.033l-0.009,-0.032l-0.019,-0.065l-0.018,-0.064l-0.124,-0.239l-0.086,-0.127l-0.087,-0.125l-0.098,-0.136l-0.1,-0.135l-0.102,-0.133l-0.105,-0.131l-0.106,-0.13l-0.108,-0.128l-0.11,-0.126l-0.112,-0.125l-0.114,-0.122l-0.116,-0.121l-0.117,-0.119l-0.119,-0.117l-0.121,-0.116l-0.123,-0.113l-0.124,-0.112l-0.126,-0.11l-0.128,-0.108l-0.129,-0.106l-0.13,-0.104l-0.132,-0.102l-0.134,-0.101l-0.135,-0.098l-0.136,-0.096l-0.138,-0.095l-0.139,-0.092l-0.141,-0.09l-0.141,-0.089l-0.143,-0.086l-0.145,-0.084l-0.145,-0.082l-0.147,-0.08l-0.147,-0.078l-0.149,-0.076l-0.15,-0.073l-0.151,-0.071l-0.151,-0.07l-0.153,-0.067l-0.154,-0.065l-0.154,-0.062l-0.156,-0.061l-0.156,-0.058l-0.157,-0.056l-0.158,-0.053l-0.159,-0.052l-0.159,-0.049l-0.16,-0.046l-0.16,-0.045l-0.162,-0.042l-0.161,-0.039l-0.163,-0.037l-0.163,-0.035l-0.163,-0.033l-0.164,-0.03l-0.164,-0.027l-0.164,-0.025l-0.165,-0.023l-0.166,-0.02l-0.165,-0.018l-0.166,-0.015l-0.166,-0.012l-0.166,-0.01l-0.166,-0.008l-0.167,-0.005l-0.167,-0.002l-0.132,0Zm-0.044,-5.578l-0.13,0.001l-0.129,0.003l-0.129,0.004l-0.129,0.004l-0.129,0.006l-0.128,0.007l-0.129,0.007l-0.128,0.009l-0.129,0.01l-0.128,0.011l-0.128,0.011l-0.128,0.013l-0.127,0.013l-0.128,0.015l-0.127,0.016l-0.127,0.016l-0.127,0.018l-0.127,0.018l-0.126,0.02l-0.127,0.02l-0.126,0.021l-0.126,0.023l-0.125,0.023l-0.126,0.024l-0.125,0.025l-0.125,0.026l-0.125,0.027l-0.124,0.028l-0.125,0.029l-0.124,0.03l-0.123,0.031l-0.124,0.031l-0.123,0.033l-0.123,0.033l-0.122,0.035l-0.123,0.035l-0.122,0.036l-0.122,0.037l-0.121,0.038l-0.121,0.039l-0.121,0.04l-0.12,0.04l-0.121,0.042l-0.119,0.042l-0.12,0.043l-0.119,0.044l-0.119,0.045l-0.118,0.046l-0.118,0.047l-0.118,0.047l-0.117,0.049l-0.117,0.049l-0.117,0.05l-0.116,0.051l-0.116,0.052l-0.115,0.052l-0.115,0.054l-0.114,0.054l-0.115,0.055l-0.113,0.056l-0.113,0.057l-0.113,0.057l-0.113,0.058l-0.112,0.06l-0.111,0.06l-0.111,0.06l-0.111,0.062l-0.11,0.062l-0.11,0.063l-0.109,0.064l-0.109,0.065l-0.108,0.065l-0.108,0.067l-0.107,0.067l-0.106,0.068l-0.107,0.068l-0.105,0.07l-0.106,0.07l-0.104,0.07l-0.104,0.072l-0.104,0.072l-0.103,0.074l-0.103,0.073l-0.101,0.075l-0.102,0.075l-0.101,0.076l-0.1,0.077l-0.1,0.078l-0.099,0.078l-0.098,0.079l-0.098,0.08l-0.097,0.08l-0.097,0.081l-0.096,0.082l-0.096,0.082l-0.095,0.084l-0.094,0.084l-0.094,0.084l-0.093,0.085l-0.092,0.086l-0.092,0.087l-0.091,0.087l-0.09,0.088l-0.09,0.089l-0.089,0.089l-0.088,0.09l-0.088,0.091l-0.087,0.092l-0.087,0.092l-0.085,0.092l-0.085,0.093l-0.084,0.094l-0.084,0.095l-0.083,0.095l-0.082,0.096l-0.081,0.097l-0.081,0.097l-0.08,0.097l-0.079,0.099l-0.079,0.099l-0.077,0.099l-0.077,0.101l-0.076,0.1l-0.076,0.102l-0.074,0.102l-0.074,0.103l-0.073,0.103l-0.072,0.104l-0.077,0.11l-0.038,0.056l-0.036,0.056l-0.034,0.057l-0.017,0.028l-0.015,0.03l-0.015,0.029l-0.015,0.03l-0.013,0.03l-0.012,0.031l-0.017,0.048l-0.015,0.047l-0.013,0.049l-0.011,0.049l-0.008,0.05l-0.007,0.05l-0.005,0.05l-0.002,0.051l-0.001,0.05l0.002,0.051l0.004,0.05l0.006,0.051l0.008,0.05l0.01,0.049l0.012,0.05l0.014,0.048l0.012,0.034l0.012,0.034l0.013,0.032l0.015,0.032l0.015,0.032l0.016,0.03l0.017,0.03l0.017,0.03l0.019,0.028l0.019,0.028l0.02,0.028l0.021,0.026l0.022,0.026l0.022,0.026l0.023,0.024l0.023,0.024l0.025,0.023l0.024,0.022l0.026,0.022l0.026,0.021l0.026,0.02l0.028,0.02l0.027,0.019l0.028,0.018l0.029,0.017l0.029,0.016l0.029,0.016l0.03,0.015l0.03,0.014l0.03,0.013l0.031,0.013l0.031,0.012l0.032,0.011l0.031,0.01l0.032,0.009l0.032,0.009l0.032,0.008l0.033,0.006l0.032,0.007l0.033,0.005l0.033,0.004l0.033,0.004l0.032,0.002l0.033,0.002l0.033,0.001l0.033,0l0.033,0l0.033,-0.002l0.033,-0.003l0.033,-0.003l0.032,-0.004l0.032,-0.006l0.033,-0.006l0.032,-0.007l0.032,-0.008l0.031,-0.009l0.032,-0.009l0.031,-0.011l0.03,-0.012l0.031,-0.012l0.03,-0.014l0.03,-0.014l0.029,-0.016l0.029,-0.016l0.028,-0.018l0.028,-0.019l0.027,-0.02l0.026,-0.021l0.053,-0.042l0.053,-0.042l0.173,-0.205l0.033,-0.049l0.09,-0.133l0.093,-0.132l0.093,-0.13l0.095,-0.13l0.097,-0.129l0.098,-0.128l0.099,-0.127l0.101,-0.125l0.102,-0.125l0.103,-0.123l0.105,-0.123l0.106,-0.121l0.108,-0.12l0.109,-0.119l0.11,-0.117l0.111,-0.117l0.113,-0.115l0.114,-0.114l0.115,-0.112l0.117,-0.112l0.117,-0.11l0.119,-0.109l0.12,-0.107l0.122,-0.107l0.122,-0.104l0.124,-0.104l0.125,-0.102l0.125,-0.101l0.127,-0.099l0.129,-0.098l0.129,-0.096l0.13,-0.095l0.136,-0.097l0.138,-0.096l0.138,-0.093l0.14,-0.092l0.141,-0.09l0.141,-0.089l0.143,-0.087l0.144,-0.085l0.144,-0.084l0.146,-0.082l0.146,-0.08l0.147,-0.078l0.149,-0.077l0.149,-0.075l0.15,-0.074l0.15,-0.071l0.152,-0.07l0.152,-0.068l0.153,-0.067l0.154,-0.064l0.155,-0.063l0.155,-0.061l0.156,-0.06l0.156,-0.057l0.157,-0.056l0.158,-0.054l0.158,-0.053l0.159,-0.05l0.16,-0.049l0.16,-0.047l0.16,-0.045l0.161,-0.043l0.162,-0.042l0.162,-0.04l0.162,-0.037l0.163,-0.036l0.163,-0.035l0.163,-0.032l0.164,-0.031l0.164,-0.028l0.165,-0.027l0.165,-0.025l0.165,-0.023l0.165,-0.022l0.165,-0.019l0.166,-0.017l0.166,-0.016l0.166,-0.014l0.166,-0.012l0.166,-0.01l0.166,-0.008l0.167,-0.006l0.166,-0.004l0.167,-0.003l0.166,0l0.167,0.002l0.166,0.003l0.166,0.005l0.167,0.008l0.166,0.009l0.166,0.011l0.166,0.013l0.166,0.016l0.166,0.017l0.186,0.021l0.186,0.024l0.186,0.027l0.185,0.029l0.185,0.032l0.184,0.034l0.184,0.036l0.183,0.039l0.183,0.041l0.182,0.044l0.182,0.045l0.181,0.049l0.18,0.05l0.179,0.053l0.179,0.055l0.178,0.058l0.177,0.06l0.177,0.062l0.176,0.064l0.174,0.067l0.174,0.068l0.174,0.071l0.172,0.073l0.171,0.075l0.17,0.078l0.17,0.079l0.168,0.082l0.167,0.084l0.166,0.085l0.165,0.088l0.164,0.09l0.163,0.092l0.162,0.094l0.16,0.096l0.159,0.098l0.158,0.1l0.157,0.102l0.155,0.104l0.154,0.106l0.153,0.108l0.151,0.11l0.15,0.111l0.148,0.114l0.148,0.115l0.145,0.117l0.144,0.119l0.143,0.121l0.141,0.123l0.139,0.124l0.138,0.126l0.136,0.128l0.134,0.13l0.133,0.131l0.131,0.134l0.13,0.134l0.127,0.137l0.126,0.138l0.124,0.14l0.122,0.141l0.12,0.143l0.119,0.145l0.116,0.146l0.115,0.148l0.112,0.15l0.061,0.083l0.06,0.084l0.117,0.166l0.058,0.083l0.059,0.08l0.06,0.078l0.03,0.038l0.031,0.037l0.031,0.037l0.031,0.035l0.032,0.035l0.033,0.033l0.033,0.032l0.035,0.031l0.034,0.03l0.036,0.029l0.036,0.027l0.038,0.025l0.038,0.024l0.039,0.023l0.041,0.02l0.041,0.019l0.043,0.017l0.044,0.015l0.039,0.012l0.038,0.01l0.039,0.009l0.039,0.007l0.039,0.006l0.038,0.004l0.039,0.003l0.038,0.002l0.038,0l0.038,-0.001l0.038,-0.003l0.038,-0.003l0.037,-0.005l0.037,-0.007l0.037,-0.007l0.036,-0.008l0.036,-0.01l0.036,-0.011l0.035,-0.012l0.035,-0.013l0.035,-0.014l0.034,-0.015l0.033,-0.016l0.033,-0.017l0.033,-0.018l0.032,-0.019l0.031,-0.02l0.031,-0.021l0.031,-0.022l0.029,-0.022l0.029,-0.024l0.029,-0.024l0.027,-0.025l0.027,-0.025l0.027,-0.027l0.025,-0.027l0.025,-0.028l0.024,-0.028l0.023,-0.029l0.022,-0.03l0.021,-0.03l0.021,-0.031l0.019,-0.032l0.019,-0.032l0.018,-0.032l0.016,-0.033l0.016,-0.033l0.015,-0.034l0.013,-0.034l0.013,-0.034l0.012,-0.035l0.01,-0.035l0.009,-0.036l0.008,-0.036l0.007,-0.036l0.006,-0.036l0.005,-0.036l0.003,-0.037l0.002,-0.037l0.001,-0.037l-0.001,-0.037l-0.002,-0.037l-0.003,-0.037l-0.004,-0.037l-0.006,-0.033l-0.007,-0.033l-0.008,-0.033l-0.009,-0.032l-0.02,-0.065l-0.018,-0.065l-0.123,-0.239l-0.074,-0.109l-0.075,-0.11l-0.075,-0.108l-0.077,-0.108l-0.074,-0.103l-0.075,-0.103l-0.076,-0.102l-0.076,-0.101l-0.077,-0.1l-0.078,-0.1l-0.079,-0.099l-0.079,-0.099l-0.081,-0.098l-0.08,-0.097l-0.082,-0.097l-0.083,-0.095l-0.083,-0.096l-0.083,-0.094l-0.085,-0.094l-0.085,-0.094l-0.086,-0.092l-0.087,-0.092l-0.087,-0.091l-0.088,-0.091l-0.088,-0.09l-0.09,-0.089l-0.089,-0.088l-0.091,-0.088l-0.091,-0.087l-0.092,-0.087l-0.092,-0.085l-0.093,-0.085l-0.094,-0.084l-0.094,-0.084l-0.095,-0.083l-0.096,-0.082l-0.096,-0.081l-0.097,-0.081l-0.097,-0.08l-0.098,-0.079l-0.098,-0.079l-0.099,-0.078l-0.1,-0.077l-0.1,-0.076l-0.1,-0.076l-0.102,-0.074l-0.101,-0.074l-0.102,-0.074l-0.103,-0.072l-0.103,-0.072l-0.104,-0.071l-0.105,-0.071l-0.104,-0.069l-0.106,-0.069l-0.105,-0.068l-0.107,-0.067l-0.106,-0.067l-0.107,-0.065l-0.108,-0.065l-0.108,-0.064l-0.109,-0.064l-0.109,-0.062l-0.109,-0.062l-0.11,-0.061l-0.11,-0.06l-0.111,-0.06l-0.111,-0.058l-0.111,-0.058l-0.112,-0.057l-0.113,-0.056l-0.112,-0.056l-0.113,-0.054l-0.114,-0.054l-0.114,-0.053l-0.114,-0.052l-0.114,-0.051l-0.115,-0.051l-0.116,-0.049l-0.115,-0.049l-0.116,-0.048l-0.116,-0.047l-0.117,-0.047l-0.117,-0.045l-0.117,-0.045l-0.118,-0.043l-0.117,-0.043l-0.119,-0.042l-0.118,-0.042l-0.119,-0.04l-0.119,-0.039l-0.119,-0.039l-0.119,-0.038l-0.12,-0.037l-0.12,-0.036l-0.12,-0.035l-0.121,-0.034l-0.12,-0.033l-0.121,-0.033l-0.121,-0.031l-0.122,-0.031l-0.121,-0.03l-0.122,-0.029l-0.122,-0.028l-0.122,-0.027l-0.123,-0.026l-0.122,-0.025l-0.123,-0.025l-0.123,-0.023l-0.123,-0.023l-0.123,-0.022l-0.123,-0.02l-0.124,-0.02l-0.124,-0.019l-0.123,-0.018l-0.124,-0.017l-0.124,-0.016l-0.124,-0.015l-0.124,-0.015l-0.125,-0.013l-0.124,-0.012l-0.125,-0.012l-0.124,-0.01l-0.125,-0.01l-0.125,-0.008l-0.125,-0.008l-0.124,-0.006l-0.125,-0.006l-0.125,-0.005l-0.125,-0.003l-0.125,-0.003l-0.125,-0.002l-0.125,-0.001l-0.166,0.001Z" style="fill:#fff;"/></svg>