<?xml version="1.0" encoding="UTF-8" standalone="no"?><!DOCTYPE svg PUBLIC "-//W3C//DTD SVG 1.1//EN" "http://www.w3.org/Graphics/SVG/1.1/DTD/svg11.dtd"><svg width="100%" height="100%" viewBox="0 0 50 70" version="1.1" xmlns="http://www.w3.org/2000/svg" xmlns:xlink="http://www.w3.org/1999/xlink" xml:space="preserve" xmlns:serif="http://www.serif.com/" style="fill-rule:evenodd;clip-rule:evenodd;stroke-linejoin:round;stroke-miterlimit:1.41421;"><path d="M25.323,5.387l0.269,0.005l0.269,0.008l0.269,0.012l0.269,0.015l0.268,0.017l0.268,0.021l0.267,0.024l0.268,0.026l0.266,0.03l0.267,0.032l0.266,0.036l0.265,0.038l0.265,0.042l0.264,0.044l0.264,0.047l0.264,0.05l0.262,0.053l0.262,0.056l0.261,0.059l0.261,0.061l0.26,0.065l0.259,0.067l0.258,0.07l0.258,0.073l0.257,0.075l0.256,0.079l0.255,0.081l0.254,0.084l0.253,0.086l0.252,0.09l0.251,0.092l0.25,0.095l0.249,0.097l0.248,0.1l0.247,0.103l0.246,0.106l0.244,0.108l0.244,0.111l0.242,0.114l0.241,0.116l0.24,0.119l0.238,0.121l0.237,0.124l0.236,0.127l0.234,0.129l0.233,0.132l0.231,0.135l0.231,0.137l0.228,0.139l0.227,0.142l0.225,0.145l0.224,0.147l0.223,0.15l0.22,0.152l0.219,0.155l0.217,0.157l0.216,0.16l0.214,0.162l0.212,0.165l0.21,0.167l0.208,0.17l0.207,0.172l0.203,0.173l0.155,0.135l0.152,0.134l0.151,0.136l0.149,0.137l0.149,0.139l0.147,0.14l0.146,0.14l0.145,0.142l0.144,0.144l0.142,0.144l0.141,0.146l0.14,0.146l0.139,0.148l0.137,0.149l0.137,0.151l0.134,0.151l0.134,0.152l0.132,0.153l0.131,0.155l0.13,0.155l0.128,0.157l0.127,0.158l0.126,0.158l0.125,0.16l0.123,0.161l0.121,0.161l0.121,0.163l0.118,0.163l0.118,0.165l0.116,0.165l0.115,0.167l0.124,0.183l0.042,0.066l0.039,0.062l0.045,0.076l0.053,0.093l0.06,0.114l0.06,0.125l0.042,0.095l0.037,0.092l0.038,0.104l0.033,0.102l0.03,0.102l0.027,0.103l0.023,0.103l0.02,0.102l0.017,0.103l0.013,0.102l0.011,0.101l0.007,0.101l0.004,0.101l0.002,0.1l-0.002,0.099l-0.004,0.098l-0.007,0.097l-0.009,0.097l-0.012,0.095l-0.015,0.095l-0.016,0.094l-0.02,0.093l-0.021,0.091l-0.024,0.091l-0.027,0.09l-0.028,0.089l-0.031,0.087l-0.032,0.087l-0.035,0.085l-0.037,0.085l-0.039,0.084l-0.041,0.082l-0.043,0.081l-0.045,0.08l-0.047,0.08l-0.05,0.078l-0.051,0.077l-0.053,0.075l-0.056,0.075l-0.057,0.073l-0.06,0.072l-0.061,0.071l-0.064,0.07l-0.066,0.068l-0.068,0.067l-0.071,0.065l-0.072,0.064l-0.075,0.062l-0.076,0.06l-0.079,0.059l-0.081,0.057l-0.084,0.055l-0.085,0.052l-0.088,0.051l-0.089,0.049l-0.092,0.046l-0.094,0.044l-0.096,0.041l-0.097,0.038l-0.1,0.036l-0.101,0.033l-0.103,0.03l-0.104,0.027l-0.106,0.024l-0.107,0.02l-0.107,0.017l-0.102,0.013l-0.102,0.01l-0.1,0.007l-0.101,0.004l-0.1,0.001l-0.1,-0.002l-0.099,-0.005l-0.098,-0.007l-0.098,-0.01l-0.098,-0.013l-0.037,-0.006l-0.005,0.061l-0.014,0.113l-0.017,0.111l-0.021,0.11l-0.023,0.108l-0.028,0.107l-0.03,0.104l-0.033,0.103l-0.036,0.101l-0.038,0.099l-0.042,0.098l-0.044,0.095l-0.046,0.094l-0.049,0.092l-0.051,0.089l-0.054,0.088l-0.056,0.087l-0.058,0.084l-0.06,0.083l-0.063,0.081l-0.065,0.079l-0.066,0.077l-0.069,0.075l-0.072,0.073l-0.073,0.072l-0.076,0.069l-0.077,0.068l-0.08,0.065l-0.082,0.064l-0.084,0.061l-0.087,0.06l-0.088,0.057l-0.091,0.055l-0.093,0.052l-0.095,0.05l-0.097,0.047l-0.1,0.045l-0.101,0.042l-0.104,0.039l-0.106,0.036l-0.107,0.033l-0.11,0.03l-0.111,0.026l-0.113,0.023l-0.115,0.019l-0.116,0.015l-0.118,0.012l-0.119,0.007l-0.119,0.004l-0.121,-0.001l-0.121,-0.005l-0.121,-0.01l-0.122,-0.014l-0.122,-0.018l-0.121,-0.022l-0.12,-0.027l-0.12,-0.032l-0.129,-0.038l-0.153,-0.053l-0.004,-0.002l-0.004,0.053l-0.014,0.113l-0.017,0.111l-0.02,0.11l-0.024,0.108l-0.027,0.106l-0.03,0.105l-0.033,0.103l-0.036,0.101l-0.038,0.099l-0.042,0.097l-0.044,0.096l-0.046,0.094l-0.049,0.091l-0.051,0.09l-0.054,0.089l-0.055,0.086l-0.058,0.084l-0.061,0.083l-0.062,0.081l-0.065,0.079l-0.067,0.077l-0.069,0.075l-0.071,0.074l-0.073,0.071l-0.076,0.07l-0.077,0.067l-0.08,0.066l-0.082,0.064l-0.084,0.061l-0.087,0.06l-0.088,0.057l-0.091,0.055l-0.093,0.052l-0.095,0.05l-0.097,0.048l-0.099,0.044l-0.102,0.042l-0.103,0.04l-0.106,0.036l-0.108,0.033l-0.109,0.029l-0.112,0.027l-0.113,0.023l-0.115,0.019l-0.116,0.015l-0.117,0.012l-0.119,0.007l-0.12,0.004l-0.083,-0.001l0.022,0.066l0.032,0.102l0.032,0.104l0.03,0.103l0.029,0.104l0.054,0.21l0.025,0.106l0.024,0.106l0.022,0.106l0.022,0.107l0.038,0.216l0.017,0.108l0.016,0.109l0.015,0.109l0.013,0.109l0.012,0.11l0.01,0.11l0.01,0.111l0.014,0.222l0.005,0.111l0.003,0.112l0.002,0.112l0.001,0.116l-0.002,0.162l-0.004,0.165l-0.008,0.164l-0.011,0.164l-0.013,0.163l-0.017,0.162l-0.02,0.161l-0.022,0.161l-0.026,0.159l-0.028,0.159l-0.031,0.158l-0.035,0.157l-0.036,0.155l-0.04,0.155l-0.043,0.154l-0.045,0.152l-0.047,0.152l-0.051,0.15l-0.053,0.149l-0.056,0.147l-0.058,0.146l-0.061,0.145l-0.063,0.144l-0.066,0.142l-0.068,0.141l-0.07,0.14l-0.073,0.137l-0.076,0.137l-0.078,0.135l-0.08,0.133l-0.082,0.132l-0.084,0.13l-0.087,0.128l-0.089,0.127l-0.091,0.125l-0.093,0.124l-0.096,0.122l-0.097,0.12l-0.1,0.118l-0.101,0.116l-0.104,0.115l-0.105,0.112l-0.108,0.111l-0.109,0.109l-0.111,0.107l-0.114,0.105l-0.115,0.103l-0.117,0.101l-0.118,0.099l-0.121,0.097l-0.122,0.094l-0.124,0.093l-0.126,0.09l-0.104,0.073l0,25.238l-0.009,0.203l-0.027,0.202l-0.044,0.198l-0.061,0.194l-0.078,0.188l-0.093,0.181l-2.608,4.516l-0.126,0.195l-0.145,0.181l-0.162,0.167l-0.178,0.149l-0.192,0.131l-0.204,0.111l-0.214,0.09l-0.222,0.069l-0.228,0.046l-0.231,0.023l-0.232,0l-0.232,-0.023l-0.227,-0.046l-0.222,-0.069l-0.215,-0.09l-0.204,-0.111l-0.192,-0.131l-0.178,-0.149l-0.162,-0.167l-0.145,-0.181l-0.126,-0.195l-2.607,-4.516l-0.094,-0.181l-0.078,-0.188l-0.061,-0.194l-0.044,-0.198l-0.026,-0.202l-0.009,-0.203l0,-25.238l-0.105,-0.072l-0.125,-0.091l-0.124,-0.093l-0.123,-0.094l-0.12,-0.097l-0.119,-0.099l-0.117,-0.101l-0.115,-0.103l-0.113,-0.105l-0.111,-0.107l-0.11,-0.109l-0.107,-0.111l-0.106,-0.112l-0.103,-0.115l-0.102,-0.116l-0.099,-0.118l-0.098,-0.12l-0.095,-0.122l-0.093,-0.124l-0.091,-0.125l-0.089,-0.127l-0.087,-0.128l-0.085,-0.13l-0.082,-0.132l-0.08,-0.133l-0.078,-0.135l-0.075,-0.137l-0.073,-0.137l-0.071,-0.14l-0.068,-0.141l-0.066,-0.142l-0.063,-0.144l-0.061,-0.144l-0.058,-0.147l-0.056,-0.147l-0.053,-0.149l-0.05,-0.15l-0.048,-0.152l-0.045,-0.152l-0.042,-0.154l-0.04,-0.155l-0.037,-0.155l-0.034,-0.157l-0.031,-0.158l-0.029,-0.159l-0.025,-0.159l-0.023,-0.161l-0.019,-0.161l-0.017,-0.162l-0.014,-0.163l-0.011,-0.164l-0.007,-0.164l-0.005,-0.165l-0.001,-0.162l0,-0.116l0.002,-0.112l0.004,-0.112l0.005,-0.111l0.006,-0.111l0.008,-0.111l0.009,-0.111l0.011,-0.11l0.012,-0.11l0.013,-0.109l0.014,-0.109l0.016,-0.109l0.018,-0.108l0.018,-0.108l0.02,-0.108l0.021,-0.107l0.023,-0.106l0.024,-0.106l0.025,-0.106l0.026,-0.105l0.028,-0.105l0.029,-0.104l0.03,-0.103l0.031,-0.104l0.033,-0.102l0.027,-0.081l-0.036,0l-0.106,-0.002l-0.107,-0.005l-0.105,-0.009l-0.104,-0.011l-0.103,-0.014l-0.103,-0.017l-0.101,-0.02l-0.1,-0.023l-0.1,-0.026l-0.098,-0.028l-0.097,-0.031l-0.097,-0.033l-0.095,-0.036l-0.094,-0.039l-0.093,-0.041l-0.092,-0.044l-0.092,-0.047l-0.089,-0.05l-0.089,-0.051l-0.088,-0.055l-0.086,-0.058l-0.085,-0.06l-0.084,-0.063l-0.082,-0.065l-0.081,-0.069l-0.08,-0.071l-0.078,-0.074l-0.076,-0.077l-0.074,-0.08l-0.072,-0.083l-0.07,-0.086l-0.068,-0.089l-0.066,-0.092l-0.063,-0.094l-0.061,-0.098l-0.058,-0.1l-0.055,-0.103l-0.051,-0.106l-0.049,-0.108l-0.045,-0.111l-0.041,-0.112l-0.037,-0.116l-0.034,-0.117l-0.03,-0.118l-0.025,-0.121l-0.022,-0.121l-0.016,-0.123l-0.012,-0.119l-0.002,-0.024l-0.042,0.016l-0.115,0.039l-0.108,0.033l-0.103,0.027l-0.103,0.024l-0.103,0.021l-0.103,0.017l-0.102,0.015l-0.103,0.011l-0.101,0.007l-0.101,0.005l-0.101,0.002l-0.1,-0.001l-0.099,-0.004l-0.098,-0.006l-0.097,-0.009l-0.096,-0.012l-0.096,-0.015l-0.094,-0.016l-0.094,-0.02l-0.092,-0.021l-0.091,-0.024l-0.091,-0.027l-0.089,-0.028l-0.088,-0.031l-0.087,-0.033l-0.086,-0.035l-0.085,-0.037l-0.084,-0.039l-0.082,-0.041l-0.082,-0.043l-0.08,-0.046l-0.08,-0.047l-0.078,-0.05l-0.077,-0.051l-0.075,-0.054l-0.075,-0.055l-0.073,-0.058l-0.072,-0.06l-0.071,-0.061l-0.069,-0.064l-0.068,-0.066l-0.066,-0.068l-0.065,-0.07l-0.064,-0.072l-0.061,-0.074l-0.06,-0.077l-0.059,-0.078l-0.056,-0.081l-0.055,-0.083l-0.052,-0.085l-0.051,-0.086l-0.048,-0.089l-0.046,-0.091l-0.044,-0.093l-0.041,-0.095l-0.038,-0.097l-0.036,-0.098l-0.033,-0.1l-0.03,-0.102l-0.027,-0.103l-0.024,-0.105l-0.021,-0.106l-0.018,-0.107l-0.014,-0.108l-0.011,-0.11l-0.002,-0.027l-0.08,0.011l-0.102,0.011l-0.102,0.008l-0.101,0.005l-0.101,0.002l-0.099,-0.001l-0.099,-0.004l-0.099,-0.006l-0.097,-0.01l-0.096,-0.011l-0.096,-0.015l-0.094,-0.017l-0.093,-0.019l-0.093,-0.022l-0.091,-0.024l-0.09,-0.026l-0.09,-0.028l-0.088,-0.031l-0.087,-0.033l-0.086,-0.035l-0.085,-0.037l-0.083,-0.039l-0.083,-0.041l-0.082,-0.044l-0.08,-0.045l-0.079,-0.048l-0.078,-0.049l-0.077,-0.051l-0.076,-0.054l-0.075,-0.056l-0.073,-0.057l-0.072,-0.06l-0.07,-0.062l-0.07,-0.063l-0.068,-0.066l-0.066,-0.068l-0.065,-0.07l-0.063,-0.073l-0.062,-0.074l-0.06,-0.076l-0.059,-0.079l-0.056,-0.08l-0.055,-0.083l-0.052,-0.085l-0.051,-0.087l-0.048,-0.089l-0.046,-0.091l-0.043,-0.093l-0.041,-0.095l-0.039,-0.096l-0.036,-0.099l-0.033,-0.1l-0.03,-0.101l-0.027,-0.104l-0.024,-0.104l-0.021,-0.106l-0.017,-0.107l-0.014,-0.108l-0.013,-0.121l-0.009,-0.158l-0.001,-0.167l0.007,-0.162l0.014,-0.157l0.021,-0.151l0.026,-0.144l0.031,-0.139l0.034,-0.132l0.038,-0.125l0.04,-0.119l0.043,-0.113l0.044,-0.108l0.044,-0.102l0.046,-0.096l0.045,-0.092l0.035,-0.067l0.062,-0.11l0.067,-0.106l0.052,-0.078l0.148,-0.217l0.152,-0.219l0.156,-0.217l0.158,-0.216l0.16,-0.213l0.162,-0.212l0.165,-0.209l0.167,-0.208l0.17,-0.206l0.171,-0.204l0.174,-0.202l0.177,-0.2l0.178,-0.198l0.18,-0.196l0.183,-0.194l0.185,-0.192l0.186,-0.19l0.189,-0.188l0.191,-0.185l0.193,-0.184l0.195,-0.182l0.197,-0.179l0.198,-0.177l0.201,-0.175l0.202,-0.173l0.205,-0.171l0.206,-0.168l0.208,-0.166l0.21,-0.164l0.211,-0.162l0.213,-0.159l0.215,-0.157l0.217,-0.155l0.218,-0.152l0.22,-0.15l0.222,-0.148l0.223,-0.145l0.225,-0.143l0.226,-0.14l0.228,-0.138l0.229,-0.136l0.231,-0.133l0.232,-0.13l0.234,-0.128l0.235,-0.126l0.236,-0.122l0.238,-0.121l0.239,-0.117l0.241,-0.116l0.242,-0.112l0.243,-0.11l0.244,-0.107l0.246,-0.104l0.246,-0.102l0.248,-0.099l0.249,-0.096l0.25,-0.094l0.252,-0.09l0.252,-0.088l0.253,-0.085l0.255,-0.083l0.255,-0.079l0.257,-0.076l0.256,-0.073l0.197,-0.054l0.195,-0.053l0.197,-0.05l0.196,-0.049l0.197,-0.047l0.198,-0.045l0.197,-0.044l0.198,-0.042l0.199,-0.04l0.198,-0.039l0.199,-0.037l0.2,-0.035l0.199,-0.034l0.2,-0.032l0.2,-0.03l0.201,-0.029l0.2,-0.027l0.201,-0.025l0.201,-0.024l0.202,-0.022l0.201,-0.02l0.202,-0.019l0.202,-0.017l0.202,-0.015l0.202,-0.013l0.203,-0.012l0.202,-0.011l0.203,-0.008l0.203,-0.007l0.203,-0.005l0.203,-0.004l0.203,-0.002l0.149,0l0.267,0.003Z" style="fill:#fff;"/><path d="M22.396,36.498c-2.239,-0.996 -3.799,-3.241 -3.799,-5.848c0,-3.535 2.871,-6.406 6.407,-6.406c3.536,0 6.406,2.871 6.406,6.406c0,2.607 -1.56,4.852 -3.799,5.848l0,26.594l-2.607,4.516l-2.608,-4.516l0,-26.594Zm2.652,-17.812c3.645,0.021 7.224,1.89 9.308,5.002l0.124,0.239c0.023,0.086 0.055,0.171 0.068,0.26c0.111,0.782 -0.699,1.585 -1.553,1.314c-0.172,-0.054 -0.33,-0.147 -0.461,-0.271c-0.17,-0.16 -0.277,-0.362 -0.413,-0.546c-2.064,-2.801 -5.825,-4.2 -9.283,-3.327c-2.097,0.53 -3.974,1.851 -5.191,3.668l-0.174,0.205c-0.071,0.054 -0.137,0.116 -0.215,0.162c-0.691,0.406 -1.734,-0.069 -1.806,-0.936c-0.015,-0.18 0.011,-0.361 0.075,-0.529c0.081,-0.211 0.219,-0.383 0.348,-0.562c2.003,-2.785 5.321,-4.565 8.777,-4.674c0.132,-0.004 0.264,-0.005 0.396,-0.005Zm-0.011,-5.579c5.513,0.015 10.933,2.847 14.075,7.546l0.123,0.239c0.023,0.087 0.055,0.172 0.068,0.261c0.11,0.782 -0.7,1.585 -1.554,1.313c-0.525,-0.168 -0.798,-0.739 -1.163,-1.218c-2.52,-3.311 -6.517,-5.451 -10.674,-5.71c-3.608,-0.225 -7.279,0.952 -10.08,3.223c-1.135,0.921 -2.13,2.017 -2.939,3.228l-0.174,0.205c-0.144,0.108 -0.29,0.217 -0.46,0.272c-0.682,0.217 -1.498,-0.287 -1.562,-1.044c-0.03,-0.356 0.146,-0.696 0.347,-0.987c2.965,-4.298 7.982,-7.087 13.231,-7.312c0.254,-0.011 0.508,-0.016 0.762,-0.016Zm0.01,-5.392c5.178,0.016 10.316,1.932 14.225,5.306c1.481,1.277 2.787,2.757 3.873,4.376c0,0 0.1,0.149 0.147,0.273c0.257,0.672 -0.214,1.513 -0.954,1.618c-0.357,0.051 -0.731,-0.068 -0.993,-0.316c-0.123,-0.116 -0.21,-0.261 -0.302,-0.396c-2.465,-3.595 -6.152,-6.313 -10.314,-7.597c-4.565,-1.407 -9.626,-1.061 -13.968,0.973c-3.191,1.494 -5.959,3.876 -7.925,6.815l-0.174,0.205c-0.143,0.108 -0.29,0.217 -0.46,0.271c-0.682,0.217 -1.498,-0.287 -1.561,-1.044c-0.023,-0.267 0.069,-0.527 0.198,-0.768c0.001,-0.001 0.047,-0.07 0.047,-0.07c2.864,-4.256 7.295,-7.459 12.245,-8.842c1.88,-0.525 3.826,-0.794 5.787,-0.804c0.043,0 0.086,0 0.129,0Z" style="fill:#dd2e2e;"/></svg>