<?xml version="1.0" encoding="UTF-8" standalone="no"?><!DOCTYPE svg PUBLIC "-//W3C//DTD SVG 1.1//EN" "http://www.w3.org/Graphics/SVG/1.1/DTD/svg11.dtd"><svg width="100%" height="100%" viewBox="0 0 28 25" version="1.1" xmlns="http://www.w3.org/2000/svg" xmlns:xlink="http://www.w3.org/1999/xlink" xml:space="preserve" xmlns:serif="http://www.serif.com/" style="fill-rule:evenodd;clip-rule:evenodd;stroke-linecap:round;stroke-linejoin:round;stroke-miterlimit:1.5;"><path d="M4.934,16.544c-1.906,0 -3.454,-1.592 -3.454,-3.554l0,-8.943c0,-1.962 1.548,-3.554 3.454,-3.554l18.132,0c1.906,0 3.454,1.592 3.454,3.554l0,8.943c0,1.962 -1.548,3.554 -3.454,3.554l-5.827,0l-3.239,7.455l-3.239,-7.455l-5.827,0Z" style="fill:#4a9aff;stroke:#fff;stroke-width:1px;"/><path d="M23.756,10.268c0.15,-0.046 0.31,0.038 0.356,0.188c0.046,0.151 -0.038,0.31 -0.188,0.357c-1.178,0.34 -2.594,0.876 -3.707,1.243c-1.363,0.449 -2.867,0.7 -4.214,0.08c-0.45,-0.207 -0.862,-0.505 -1.31,-0.72c-0.453,-0.217 -0.923,-0.395 -1.41,-0.518c-1.026,-0.259 -2.094,-0.265 -3.142,-0.163c-1.786,0.175 -2.658,0.204 -4.378,0.71c-0.515,0.152 -1.022,0.349 -1.54,0.488c-0.153,0.034 -0.306,-0.061 -0.34,-0.215c-0.035,-0.153 0.06,-0.306 0.214,-0.341c1.263,-0.347 1.589,-0.477 2.718,-1.138c1.083,-0.634 2.137,-1.362 3.036,-2.242c1.349,-1.318 2.356,-3.119 4.174,-3.869c0.331,-0.136 0.712,-0.261 1.07,-0.299c2.313,-0.245 4.021,1.667 4.063,3.983c0.01,0.146 -0.1,0.272 -0.246,0.282c-0.083,0.006 -0.16,-0.028 -0.212,-0.085c-0.366,-0.345 -0.86,-0.558 -1.404,-0.558c-1.244,0 -2.047,0.918 -2.047,2.049c0,1.11 0.994,2.091 2.683,2.091c1.842,0 4.624,-0.947 5.824,-1.323Z" style="fill:#fff;fill-rule:nonzero;"/></svg>