<?xml version="1.0" encoding="UTF-8" standalone="no"?><!DOCTYPE svg PUBLIC "-//W3C//DTD SVG 1.1//EN" "http://www.w3.org/Graphics/SVG/1.1/DTD/svg11.dtd"><svg width="100%" height="100%" viewBox="0 0 30 28" version="1.1" xmlns="http://www.w3.org/2000/svg" xmlns:xlink="http://www.w3.org/1999/xlink" xml:space="preserve" xmlns:serif="http://www.serif.com/" style="fill-rule:evenodd;clip-rule:evenodd;stroke-linejoin:round;stroke-miterlimit:1.41421;"><path d="M6.274,18.066c-1.835,0 -3.324,-1.592 -3.324,-3.554l0,-8.943c0,-1.962 1.489,-3.554 3.324,-3.554l17.452,0c1.835,0 3.324,1.592 3.324,3.554l0,8.943c0,1.962 -1.489,3.554 -3.324,3.554l-5.608,0l-3.118,7.455l-3.118,-7.455l-5.608,0Z" style="fill:#4a9aff;"/><path d="M23.866,0.017l0.139,0.005l0.139,0.01l0.138,0.013l0.137,0.016l0.136,0.021l0.135,0.024l0.133,0.027l0.133,0.031l0.131,0.034l0.13,0.038l0.129,0.041l0.127,0.044l0.125,0.047l0.124,0.051l0.122,0.053l0.12,0.056l0.119,0.06l0.117,0.062l0.115,0.065l0.113,0.067l0.111,0.071l0.109,0.072l0.107,0.076l0.106,0.078l0.103,0.08l0.101,0.083l0.098,0.085l0.097,0.087l0.095,0.09l0.092,0.092l0.09,0.094l0.088,0.096l0.085,0.098l0.083,0.1l0.081,0.102l0.078,0.104l0.076,0.106l0.074,0.108l0.071,0.11l0.069,0.111l0.066,0.113l0.063,0.115l0.061,0.116l0.058,0.118l0.056,0.119l0.053,0.121l0.05,0.123l0.047,0.124l0.045,0.125l0.041,0.127l0.039,0.127l0.036,0.129l0.033,0.131l0.03,0.131l0.027,0.133l0.024,0.133l0.021,0.135l0.018,0.135l0.014,0.136l0.012,0.138l0.008,0.137l0.005,0.139l0.001,0.127l0,8.967l-0.001,0.127l-0.005,0.139l-0.008,0.137l-0.012,0.138l-0.014,0.136l-0.018,0.135l-0.021,0.135l-0.024,0.133l-0.027,0.133l-0.03,0.131l-0.033,0.13l-0.036,0.13l-0.039,0.127l-0.041,0.127l-0.045,0.125l-0.047,0.124l-0.05,0.123l-0.053,0.121l-0.056,0.119l-0.058,0.118l-0.061,0.116l-0.063,0.115l-0.066,0.113l-0.069,0.111l-0.071,0.11l-0.074,0.108l-0.076,0.106l-0.078,0.104l-0.081,0.102l-0.083,0.1l-0.085,0.098l-0.088,0.096l-0.09,0.094l-0.092,0.092l-0.095,0.089l-0.097,0.088l-0.098,0.085l-0.101,0.083l-0.103,0.08l-0.106,0.078l-0.107,0.076l-0.109,0.072l-0.111,0.071l-0.113,0.067l-0.115,0.065l-0.117,0.062l-0.119,0.06l-0.12,0.056l-0.122,0.053l-0.124,0.051l-0.125,0.047l-0.127,0.044l-0.129,0.041l-0.13,0.038l-0.131,0.034l-0.133,0.031l-0.133,0.027l-0.135,0.024l-0.136,0.02l-0.137,0.017l-0.138,0.013l-0.139,0.01l-0.139,0.005l-0.127,0.002l-4.29,0l-2.604,6.227l-0.058,0.125l-0.066,0.122l-0.074,0.116l-0.082,0.111l-0.09,0.105l-0.097,0.099l-0.103,0.092l-0.11,0.084l-0.115,0.076l-0.12,0.069l-0.124,0.06l-0.129,0.051l-0.131,0.042l-0.134,0.033l-0.136,0.024l-0.138,0.015l-0.138,0.004l-0.138,-0.004l-0.138,-0.015l-0.136,-0.024l-0.134,-0.033l-0.131,-0.042l-0.129,-0.051l-0.124,-0.06l-0.12,-0.069l-0.115,-0.076l-0.11,-0.084l-0.103,-0.092l-0.097,-0.099l-0.09,-0.105l-0.082,-0.111l-0.074,-0.116l-0.066,-0.122l-0.058,-0.125l-2.604,-6.227l-4.29,0l-0.127,-0.002l-0.139,-0.005l-0.139,-0.01l-0.138,-0.013l-0.137,-0.017l-0.136,-0.02l-0.135,-0.024l-0.133,-0.027l-0.133,-0.031l-0.131,-0.034l-0.13,-0.038l-0.129,-0.041l-0.127,-0.044l-0.125,-0.047l-0.124,-0.051l-0.122,-0.053l-0.12,-0.056l-0.119,-0.06l-0.117,-0.062l-0.115,-0.065l-0.113,-0.067l-0.111,-0.071l-0.109,-0.072l-0.107,-0.076l-0.106,-0.078l-0.103,-0.08l-0.101,-0.083l-0.098,-0.085l-0.097,-0.088l-0.095,-0.089l-0.092,-0.092l-0.09,-0.094l-0.088,-0.096l-0.085,-0.098l-0.083,-0.1l-0.081,-0.102l-0.078,-0.104l-0.076,-0.106l-0.074,-0.108l-0.071,-0.11l-0.069,-0.111l-0.066,-0.113l-0.063,-0.115l-0.061,-0.116l-0.058,-0.118l-0.056,-0.119l-0.053,-0.121l-0.05,-0.123l-0.047,-0.124l-0.045,-0.125l-0.041,-0.127l-0.039,-0.127l-0.036,-0.13l-0.033,-0.13l-0.03,-0.131l-0.027,-0.133l-0.024,-0.133l-0.021,-0.135l-0.018,-0.135l-0.014,-0.137l-0.012,-0.137l-0.008,-0.137l-0.005,-0.139l-0.001,-0.127l0,-8.967l0.001,-0.127l0.005,-0.139l0.008,-0.137l0.012,-0.138l0.014,-0.136l0.018,-0.135l0.021,-0.135l0.024,-0.133l0.027,-0.133l0.03,-0.131l0.033,-0.131l0.036,-0.129l0.039,-0.127l0.041,-0.127l0.045,-0.125l0.047,-0.124l0.05,-0.123l0.053,-0.121l0.056,-0.119l0.058,-0.118l0.061,-0.116l0.063,-0.115l0.066,-0.113l0.069,-0.111l0.071,-0.11l0.074,-0.108l0.076,-0.106l0.078,-0.104l0.081,-0.102l0.083,-0.1l0.085,-0.098l0.088,-0.096l0.09,-0.094l0.092,-0.092l0.095,-0.09l0.097,-0.087l0.098,-0.085l0.101,-0.083l0.103,-0.08l0.106,-0.078l0.107,-0.076l0.109,-0.072l0.111,-0.071l0.113,-0.067l0.115,-0.065l0.117,-0.062l0.119,-0.06l0.12,-0.056l0.122,-0.053l0.124,-0.051l0.125,-0.047l0.127,-0.044l0.129,-0.041l0.13,-0.038l0.131,-0.034l0.133,-0.031l0.133,-0.027l0.135,-0.024l0.136,-0.021l0.137,-0.016l0.138,-0.013l0.139,-0.01l0.139,-0.005l0.127,-0.002l17.478,0l0.127,0.002Zm-17.592,1.998l-0.086,0.001l-0.085,0.003l-0.084,0.006l-0.085,0.008l-0.083,0.01l-0.083,0.013l-0.082,0.014l-0.082,0.017l-0.08,0.019l-0.08,0.021l-0.08,0.023l-0.078,0.025l-0.078,0.027l-0.076,0.029l-0.076,0.031l-0.075,0.032l-0.075,0.035l-0.073,0.037l-0.072,0.038l-0.071,0.04l-0.07,0.042l-0.069,0.044l-0.068,0.045l-0.067,0.047l-0.066,0.049l-0.064,0.05l-0.064,0.052l-0.062,0.054l-0.061,0.055l-0.06,0.057l-0.058,0.058l-0.057,0.059l-0.056,0.061l-0.054,0.063l-0.053,0.064l-0.052,0.065l-0.05,0.066l-0.049,0.068l-0.047,0.069l-0.045,0.07l-0.044,0.072l-0.043,0.073l-0.041,0.073l-0.039,0.075l-0.038,0.077l-0.035,0.077l-0.035,0.078l-0.032,0.079l-0.031,0.08l-0.029,0.081l-0.027,0.083l-0.025,0.083l-0.023,0.083l-0.022,0.085l-0.019,0.086l-0.018,0.086l-0.015,0.087l-0.014,0.088l-0.012,0.089l-0.009,0.089l-0.008,0.09l-0.005,0.09l-0.003,0.091l-0.001,0.092l0,8.943l0.001,0.092l0.003,0.091l0.005,0.09l0.008,0.09l0.009,0.089l0.012,0.089l0.014,0.088l0.015,0.087l0.018,0.086l0.019,0.086l0.022,0.084l0.023,0.084l0.025,0.083l0.027,0.082l0.029,0.082l0.031,0.08l0.032,0.079l0.035,0.078l0.035,0.077l0.038,0.077l0.039,0.074l0.041,0.074l0.043,0.073l0.044,0.072l0.045,0.07l0.047,0.069l0.049,0.068l0.05,0.066l0.052,0.065l0.053,0.064l0.054,0.063l0.056,0.061l0.057,0.059l0.058,0.058l0.06,0.057l0.061,0.055l0.062,0.054l0.064,0.052l0.064,0.05l0.066,0.049l0.067,0.047l0.068,0.045l0.069,0.044l0.07,0.042l0.071,0.04l0.072,0.038l0.073,0.037l0.075,0.035l0.075,0.032l0.076,0.031l0.076,0.029l0.078,0.027l0.078,0.025l0.08,0.023l0.08,0.021l0.081,0.019l0.081,0.017l0.082,0.014l0.083,0.013l0.083,0.01l0.085,0.008l0.084,0.006l0.085,0.003l0.086,0.001l5.608,0l3.118,7.455l3.118,-7.455l5.608,0l0.086,-0.001l0.085,-0.003l0.084,-0.006l0.085,-0.008l0.083,-0.01l0.083,-0.013l0.082,-0.014l0.081,-0.017l0.081,-0.019l0.08,-0.021l0.08,-0.023l0.078,-0.025l0.078,-0.027l0.076,-0.029l0.076,-0.031l0.075,-0.032l0.075,-0.035l0.073,-0.037l0.072,-0.038l0.071,-0.04l0.07,-0.042l0.069,-0.044l0.068,-0.045l0.067,-0.047l0.066,-0.049l0.064,-0.05l0.064,-0.052l0.062,-0.054l0.061,-0.055l0.06,-0.057l0.058,-0.058l0.057,-0.059l0.056,-0.061l0.054,-0.063l0.053,-0.064l0.052,-0.065l0.05,-0.066l0.049,-0.068l0.047,-0.069l0.045,-0.07l0.044,-0.072l0.043,-0.073l0.041,-0.074l0.039,-0.074l0.038,-0.077l0.035,-0.077l0.035,-0.078l0.032,-0.079l0.031,-0.08l0.029,-0.082l0.027,-0.082l0.025,-0.083l0.023,-0.084l0.022,-0.084l0.019,-0.086l0.018,-0.086l0.015,-0.087l0.014,-0.088l0.012,-0.089l0.009,-0.089l0.008,-0.09l0.005,-0.09l0.003,-0.091l0.001,-0.092l0,-8.943l-0.001,-0.092l-0.003,-0.091l-0.005,-0.09l-0.008,-0.09l-0.009,-0.089l-0.012,-0.089l-0.014,-0.088l-0.015,-0.087l-0.018,-0.086l-0.019,-0.086l-0.022,-0.085l-0.023,-0.083l-0.025,-0.083l-0.027,-0.083l-0.029,-0.081l-0.031,-0.08l-0.032,-0.079l-0.035,-0.078l-0.035,-0.077l-0.038,-0.077l-0.039,-0.075l-0.041,-0.073l-0.043,-0.073l-0.044,-0.072l-0.045,-0.07l-0.047,-0.069l-0.049,-0.068l-0.05,-0.066l-0.052,-0.065l-0.053,-0.064l-0.054,-0.063l-0.056,-0.061l-0.057,-0.059l-0.058,-0.058l-0.06,-0.057l-0.061,-0.055l-0.062,-0.054l-0.064,-0.052l-0.064,-0.05l-0.066,-0.049l-0.067,-0.047l-0.068,-0.045l-0.069,-0.044l-0.07,-0.042l-0.071,-0.04l-0.072,-0.038l-0.073,-0.037l-0.075,-0.035l-0.075,-0.032l-0.076,-0.031l-0.076,-0.029l-0.078,-0.027l-0.078,-0.025l-0.08,-0.023l-0.08,-0.021l-0.08,-0.019l-0.082,-0.017l-0.082,-0.014l-0.083,-0.013l-0.083,-0.01l-0.085,-0.008l-0.084,-0.006l-0.085,-0.003l-0.086,-0.001l-17.452,0Z" style="fill:#fff;"/><path d="M24.756,11.79c0.15,-0.046 0.31,0.038 0.356,0.188c0.046,0.151 -0.038,0.31 -0.188,0.357c-1.178,0.34 -2.594,0.876 -3.707,1.243c-1.363,0.449 -2.867,0.7 -4.214,0.08c-0.45,-0.207 -0.862,-0.505 -1.31,-0.72c-0.453,-0.217 -0.923,-0.395 -1.41,-0.518c-1.026,-0.259 -2.094,-0.265 -3.142,-0.163c-1.786,0.175 -2.658,0.204 -4.378,0.71c-0.515,0.152 -1.022,0.35 -1.54,0.488c-0.153,0.035 -0.306,-0.061 -0.34,-0.215c-0.035,-0.153 0.06,-0.306 0.214,-0.341c1.263,-0.347 1.589,-0.477 2.718,-1.138c1.083,-0.634 2.137,-1.362 3.036,-2.242c1.349,-1.318 2.356,-3.118 4.174,-3.869c0.331,-0.136 0.712,-0.26 1.07,-0.299c2.313,-0.245 4.021,1.667 4.063,3.983c0.01,0.146 -0.1,0.272 -0.246,0.282c-0.083,0.006 -0.16,-0.028 -0.212,-0.085c-0.366,-0.345 -0.86,-0.557 -1.404,-0.557c-1.244,0 -2.047,0.917 -2.047,2.048c0,1.11 0.994,2.091 2.683,2.091c1.842,0 4.624,-0.947 5.824,-1.323Z" style="fill:#fff;fill-rule:nonzero;"/></svg>