<?xml version="1.0" encoding="UTF-8" standalone="no"?><!DOCTYPE svg PUBLIC "-//W3C//DTD SVG 1.1//EN" "http://www.w3.org/Graphics/SVG/1.1/DTD/svg11.dtd"><svg width="100%" height="100%" viewBox="0 0 60 80" version="1.1" xmlns="http://www.w3.org/2000/svg" xmlns:xlink="http://www.w3.org/1999/xlink" xml:space="preserve" xmlns:serif="http://www.serif.com/" style="fill-rule:evenodd;clip-rule:evenodd;stroke-linejoin:round;stroke-miterlimit:1.41421;"><path d="M27.396,46.498c-2.239,-0.996 -3.799,-3.241 -3.799,-5.848c0,-3.535 2.871,-6.406 6.407,-6.406c3.535,0 6.406,2.871 6.406,6.406c0,2.607 -1.56,4.852 -3.799,5.848l0,26.594l-2.607,4.516l-2.608,-4.516l0,-26.594Zm2.651,-17.812c3.553,0.021 7.068,1.826 9.136,4.75c0.059,0.083 0.116,0.167 0.173,0.252l0.124,0.239c0.022,0.086 0.055,0.171 0.067,0.26c0.113,0.794 -0.723,1.578 -1.552,1.314c-0.172,-0.054 -0.33,-0.147 -0.461,-0.271c-0.17,-0.16 -0.278,-0.362 -0.413,-0.546c-2.051,-2.782 -5.825,-4.2 -9.283,-3.327c-2.098,0.53 -3.973,1.85 -5.191,3.668l-0.174,0.205c-0.072,0.054 -0.138,0.116 -0.215,0.162c-0.692,0.406 -1.734,-0.069 -1.806,-0.936c-0.015,-0.18 0.011,-0.361 0.075,-0.529c0.081,-0.211 0.219,-0.383 0.348,-0.562c1.995,-2.775 5.268,-4.55 8.733,-4.672c0.146,-0.005 0.293,-0.007 0.439,-0.007Zm-0.01,-5.579c5.343,0.015 10.629,2.702 13.774,7.111c0.103,0.143 0.203,0.289 0.301,0.435l0.123,0.239c0.023,0.087 0.055,0.172 0.068,0.261c0.088,0.623 -0.383,1.267 -1.022,1.357c-0.357,0.051 -0.73,-0.068 -0.993,-0.316c-0.122,-0.116 -0.21,-0.261 -0.302,-0.395c-2.39,-3.456 -6.305,-5.788 -10.511,-6.215c-3.504,-0.356 -7.126,0.615 -9.982,2.672c-1.396,1.005 -2.609,2.262 -3.568,3.684l-0.033,0.049l-0.173,0.205c-0.072,0.054 -0.138,0.116 -0.215,0.162c-0.612,0.361 -1.522,0.06 -1.755,-0.671c-0.082,-0.258 -0.073,-0.543 0.023,-0.793c0.063,-0.166 0.169,-0.309 0.272,-0.457c3.065,-4.443 8.308,-7.279 13.827,-7.327c0.055,-0.001 0.11,-0.001 0.166,-0.001Zm0.009,-5.392c5.186,0.016 10.313,1.928 14.226,5.306c1.481,1.277 2.786,2.757 3.873,4.376c0,0 0.099,0.149 0.147,0.273c0.255,0.668 -0.202,1.512 -0.954,1.618c-0.357,0.051 -0.731,-0.068 -0.993,-0.316c-0.123,-0.116 -0.211,-0.261 -0.302,-0.396c-2.462,-3.59 -6.152,-6.313 -10.315,-7.597c-4.564,-1.407 -9.625,-1.061 -13.967,0.973c-3.192,1.494 -5.96,3.876 -7.925,6.815l-0.174,0.205c-0.071,0.054 -0.138,0.116 -0.215,0.162c-0.685,0.404 -1.732,-0.05 -1.807,-0.935c-0.022,-0.267 0.07,-0.527 0.199,-0.768c0,-0.001 0.047,-0.07 0.047,-0.07c2.856,-4.245 7.282,-7.456 12.245,-8.842c1.88,-0.525 3.826,-0.794 5.787,-0.804c0.043,0 0.086,0 0.128,0Z" style="fill:#dd2e2e;"/><clipPath id="_clip1"><path d="M27.396,46.498c-2.239,-0.996 -3.799,-3.241 -3.799,-5.848c0,-3.535 2.871,-6.406 6.407,-6.406c3.535,0 6.406,2.871 6.406,6.406c0,2.607 -1.56,4.852 -3.799,5.848l0,26.594l-2.607,4.516l-2.608,-4.516l0,-26.594Zm2.651,-17.812c3.553,0.021 7.068,1.826 9.136,4.75c0.059,0.083 0.116,0.167 0.173,0.252l0.124,0.239c0.022,0.086 0.055,0.171 0.067,0.26c0.113,0.794 -0.723,1.578 -1.552,1.314c-0.172,-0.054 -0.33,-0.147 -0.461,-0.271c-0.17,-0.16 -0.278,-0.362 -0.413,-0.546c-2.051,-2.782 -5.825,-4.2 -9.283,-3.327c-2.098,0.53 -3.973,1.85 -5.191,3.668l-0.174,0.205c-0.072,0.054 -0.138,0.116 -0.215,0.162c-0.692,0.406 -1.734,-0.069 -1.806,-0.936c-0.015,-0.18 0.011,-0.361 0.075,-0.529c0.081,-0.211 0.219,-0.383 0.348,-0.562c1.995,-2.775 5.268,-4.55 8.733,-4.672c0.146,-0.005 0.293,-0.007 0.439,-0.007Zm-0.01,-5.579c5.343,0.015 10.629,2.702 13.774,7.111c0.103,0.143 0.203,0.289 0.301,0.435l0.123,0.239c0.023,0.087 0.055,0.172 0.068,0.261c0.088,0.623 -0.383,1.267 -1.022,1.357c-0.357,0.051 -0.73,-0.068 -0.993,-0.316c-0.122,-0.116 -0.21,-0.261 -0.302,-0.395c-2.39,-3.456 -6.305,-5.788 -10.511,-6.215c-3.504,-0.356 -7.126,0.615 -9.982,2.672c-1.396,1.005 -2.609,2.262 -3.568,3.684l-0.033,0.049l-0.173,0.205c-0.072,0.054 -0.138,0.116 -0.215,0.162c-0.612,0.361 -1.522,0.06 -1.755,-0.671c-0.082,-0.258 -0.073,-0.543 0.023,-0.793c0.063,-0.166 0.169,-0.309 0.272,-0.457c3.065,-4.443 8.308,-7.279 13.827,-7.327c0.055,-0.001 0.11,-0.001 0.166,-0.001Zm0.009,-5.392c5.186,0.016 10.313,1.928 14.226,5.306c1.481,1.277 2.786,2.757 3.873,4.376c0,0 0.099,0.149 0.147,0.273c0.255,0.668 -0.202,1.512 -0.954,1.618c-0.357,0.051 -0.731,-0.068 -0.993,-0.316c-0.123,-0.116 -0.211,-0.261 -0.302,-0.396c-2.462,-3.59 -6.152,-6.313 -10.315,-7.597c-4.564,-1.407 -9.625,-1.061 -13.967,0.973c-3.192,1.494 -5.96,3.876 -7.925,6.815l-0.174,0.205c-0.071,0.054 -0.138,0.116 -0.215,0.162c-0.685,0.404 -1.732,-0.05 -1.807,-0.935c-0.022,-0.267 0.07,-0.527 0.199,-0.768c0,-0.001 0.047,-0.07 0.047,-0.07c2.856,-4.245 7.282,-7.456 12.245,-8.842c1.88,-0.525 3.826,-0.794 5.787,-0.804c0.043,0 0.086,0 0.128,0Z"/></clipPath><g clip-path="url(#_clip1)"><path d="M27.396,40.65l5.215,0l0,32.442l-2.607,4.516l-2.608,-4.516l0,-32.442Z" style="fill:#dd2e2e;"/><circle cx="30.004" cy="40.65" r="6.406" style="fill:#dd2e2e;"/></g><path d="M30.323,15.387l0.269,0.005l0.27,0.008l0.269,0.012l0.268,0.015l0.269,0.017l0.268,0.021l0.267,0.023l0.268,0.027l0.267,0.029l0.266,0.033l0.266,0.035l0.266,0.039l0.265,0.041l0.264,0.044l0.264,0.047l0.263,0.05l0.263,0.053l0.262,0.056l0.261,0.059l0.261,0.061l0.259,0.065l0.26,0.067l0.258,0.07l0.257,0.072l0.257,0.076l0.256,0.078l0.255,0.081l0.254,0.084l0.253,0.087l0.252,0.089l0.251,0.092l0.25,0.095l0.249,0.098l0.248,0.1l0.246,0.103l0.246,0.105l0.245,0.109l0.243,0.111l0.242,0.113l0.241,0.116l0.239,0.119l0.239,0.122l0.237,0.124l0.235,0.127l0.235,0.129l0.232,0.132l0.232,0.134l0.23,0.137l0.228,0.14l0.227,0.142l0.226,0.145l0.224,0.147l0.222,0.15l0.22,0.152l0.219,0.155l0.218,0.158l0.215,0.159l0.214,0.163l0.212,0.164l0.21,0.168l0.209,0.169l0.206,0.173l0.204,0.173l0.154,0.135l0.152,0.134l0.151,0.136l0.15,0.137l0.149,0.139l0.147,0.14l0.146,0.14l0.145,0.143l0.144,0.143l0.142,0.144l0.141,0.146l0.14,0.147l0.139,0.147l0.137,0.149l0.136,0.151l0.135,0.151l0.134,0.152l0.132,0.153l0.131,0.155l0.13,0.155l0.128,0.157l0.127,0.158l0.126,0.158l0.124,0.16l0.123,0.161l0.122,0.161l0.12,0.163l0.119,0.163l0.118,0.165l0.116,0.165l0.115,0.167l0.124,0.183l0.042,0.066l0.039,0.063l0.045,0.076l0.053,0.092l0.06,0.114l0.06,0.125l0.042,0.095l0.037,0.092l0.037,0.103l0.033,0.101l0.03,0.102l0.027,0.101l0.023,0.102l0.02,0.102l0.017,0.101l0.013,0.101l0.011,0.101l0.008,0.1l0.004,0.1l0.002,0.099l-0.001,0.098l-0.004,0.098l-0.006,0.097l-0.009,0.096l-0.011,0.095l-0.014,0.094l-0.017,0.094l-0.019,0.092l-0.021,0.092l-0.023,0.091l-0.026,0.089l-0.028,0.089l-0.03,0.088l-0.032,0.087l-0.034,0.086l-0.037,0.084l-0.038,0.084l-0.041,0.083l-0.043,0.082l-0.045,0.081l-0.047,0.079l-0.049,0.079l-0.051,0.078l-0.054,0.076l-0.055,0.075l-0.058,0.074l-0.06,0.073l-0.061,0.072l-0.065,0.07l-0.066,0.069l-0.068,0.067l-0.071,0.066l-0.073,0.064l-0.075,0.063l-0.077,0.061l-0.08,0.059l-0.082,0.057l-0.083,0.056l-0.087,0.053l-0.088,0.051l-0.09,0.049l-0.092,0.046l-0.095,0.044l-0.096,0.041l-0.098,0.039l-0.1,0.036l-0.101,0.033l-0.103,0.029l-0.105,0.027l-0.106,0.024l-0.107,0.02l-0.106,0.017l-0.103,0.013l-0.101,0.01l-0.101,0.007l-0.1,0.004l-0.1,0.001l-0.1,-0.002l-0.099,-0.005l-0.099,-0.007l-0.098,-0.01l-0.097,-0.013l-0.036,-0.006l-0.014,0.145l-0.026,0.173l-0.034,0.17l-0.042,0.165l-0.05,0.163l-0.056,0.158l-0.064,0.154l-0.07,0.15l-0.076,0.146l-0.083,0.142l-0.088,0.137l-0.095,0.134l-0.101,0.129l-0.107,0.125l-0.113,0.12l-0.119,0.116l-0.125,0.11l-0.131,0.106l-0.137,0.1l-0.143,0.094l-0.15,0.089l-0.142,0.074l-0.093,0.045l-0.081,0.036l-0.083,0.035l-0.084,0.032l-0.085,0.031l-0.087,0.028l-0.088,0.027l-0.089,0.024l-0.091,0.021l-0.091,0.02l-0.093,0.017l-0.094,0.014l-0.1,0.013l-0.101,0.01l-0.101,0.007l-0.101,0.004l-0.1,0.001l-0.1,-0.002l-0.099,-0.005l-0.098,-0.007l-0.098,-0.01l-0.098,-0.013l-0.096,-0.015l-0.096,-0.018l-0.096,-0.021l-0.094,-0.023l-0.094,-0.026l-0.093,-0.028l-0.092,-0.031l-0.075,-0.027l-0.005,0.066l-0.015,0.114l-0.017,0.113l-0.022,0.112l-0.025,0.109l-0.028,0.108l-0.031,0.106l-0.034,0.104l-0.037,0.102l-0.04,0.1l-0.043,0.098l-0.045,0.096l-0.048,0.094l-0.05,0.092l-0.052,0.09l-0.055,0.088l-0.057,0.086l-0.059,0.085l-0.062,0.082l-0.063,0.08l-0.066,0.078l-0.067,0.077l-0.07,0.074l-0.072,0.072l-0.074,0.071l-0.075,0.068l-0.078,0.067l-0.08,0.064l-0.082,0.062l-0.084,0.061l-0.086,0.058l-0.088,0.055l-0.09,0.054l-0.092,0.051l-0.094,0.049l-0.096,0.046l-0.098,0.044l-0.101,0.041l-0.102,0.038l-0.104,0.035l-0.106,0.033l-0.108,0.029l-0.11,0.026l-0.112,0.022l-0.113,0.019l-0.115,0.015l-0.116,0.012l-0.117,0.007l-0.119,0.004l-0.08,0l0.023,0.067l0.032,0.102l0.032,0.104l0.03,0.103l0.029,0.104l0.027,0.105l0.027,0.105l0.025,0.106l0.024,0.106l0.022,0.106l0.021,0.107l0.02,0.108l0.019,0.108l0.017,0.108l0.016,0.109l0.015,0.109l0.013,0.109l0.012,0.11l0.01,0.11l0.009,0.111l0.008,0.111l0.006,0.111l0.005,0.111l0.004,0.112l0.002,0.112l0.001,0.116l-0.002,0.162l-0.004,0.165l-0.008,0.164l-0.011,0.164l-0.014,0.163l-0.016,0.162l-0.02,0.161l-0.023,0.161l-0.025,0.159l-0.028,0.159l-0.032,0.158l-0.034,0.157l-0.037,0.155l-0.039,0.155l-0.043,0.154l-0.045,0.152l-0.048,0.152l-0.05,0.15l-0.053,0.149l-0.056,0.147l-0.058,0.146l-0.061,0.145l-0.063,0.144l-0.066,0.142l-0.068,0.141l-0.071,0.14l-0.073,0.137l-0.075,0.137l-0.078,0.135l-0.08,0.133l-0.082,0.132l-0.085,0.13l-0.086,0.128l-0.089,0.127l-0.091,0.125l-0.094,0.124l-0.095,0.122l-0.097,0.12l-0.1,0.118l-0.101,0.116l-0.104,0.115l-0.106,0.112l-0.107,0.111l-0.109,0.109l-0.112,0.107l-0.113,0.105l-0.115,0.103l-0.117,0.101l-0.119,0.099l-0.12,0.097l-0.122,0.094l-0.124,0.093l-0.126,0.091l-0.104,0.072l0,25.238l-0.009,0.203l-0.027,0.202l-0.044,0.198l-0.061,0.194l-0.078,0.188l-0.094,0.181l-2.607,4.516l-0.126,0.195l-0.145,0.181l-0.162,0.167l-0.178,0.149l-0.192,0.131l-0.204,0.111l-0.214,0.09l-0.222,0.069l-0.228,0.046l-0.231,0.023l-0.233,0l-0.231,-0.023l-0.228,-0.046l-0.222,-0.069l-0.214,-0.09l-0.204,-0.111l-0.192,-0.131l-0.178,-0.149l-0.162,-0.167l-0.145,-0.181l-0.126,-0.195l-2.607,-4.516l-0.094,-0.181l-0.078,-0.188l-0.061,-0.194l-0.044,-0.198l-0.027,-0.202l-0.009,-0.203l0,-25.238l-0.104,-0.073l-0.126,-0.09l-0.124,-0.093l-0.122,-0.094l-0.12,-0.097l-0.119,-0.099l-0.117,-0.101l-0.115,-0.103l-0.113,-0.105l-0.112,-0.107l-0.109,-0.109l-0.107,-0.111l-0.106,-0.112l-0.104,-0.115l-0.101,-0.116l-0.1,-0.118l-0.097,-0.12l-0.095,-0.122l-0.094,-0.124l-0.091,-0.125l-0.089,-0.127l-0.086,-0.128l-0.085,-0.13l-0.082,-0.132l-0.08,-0.133l-0.078,-0.135l-0.075,-0.137l-0.073,-0.137l-0.071,-0.14l-0.068,-0.141l-0.066,-0.142l-0.063,-0.144l-0.061,-0.145l-0.058,-0.146l-0.056,-0.147l-0.053,-0.149l-0.05,-0.15l-0.048,-0.152l-0.045,-0.152l-0.043,-0.154l-0.039,-0.155l-0.037,-0.155l-0.034,-0.157l-0.031,-0.158l-0.029,-0.159l-0.025,-0.159l-0.023,-0.161l-0.02,-0.161l-0.016,-0.162l-0.014,-0.163l-0.011,-0.164l-0.008,-0.164l-0.004,-0.165l-0.002,-0.162l0.001,-0.116l0.002,-0.112l0.004,-0.112l0.005,-0.111l0.006,-0.111l0.008,-0.111l0.009,-0.111l0.01,-0.11l0.012,-0.11l0.013,-0.109l0.015,-0.109l0.016,-0.109l0.017,-0.108l0.019,-0.108l0.02,-0.108l0.021,-0.107l0.023,-0.106l0.023,-0.106l0.025,-0.106l0.027,-0.105l0.027,-0.105l0.029,-0.104l0.031,-0.103l0.031,-0.104l0.033,-0.102l0.026,-0.081l-0.035,0l-0.107,-0.002l-0.106,-0.005l-0.105,-0.009l-0.105,-0.011l-0.103,-0.014l-0.102,-0.017l-0.102,-0.02l-0.1,-0.023l-0.099,-0.026l-0.099,-0.028l-0.097,-0.031l-0.096,-0.033l-0.095,-0.036l-0.095,-0.039l-0.093,-0.042l-0.092,-0.044l-0.091,-0.046l-0.09,-0.05l-0.089,-0.052l-0.087,-0.054l-0.087,-0.058l-0.085,-0.06l-0.084,-0.063l-0.082,-0.065l-0.081,-0.069l-0.079,-0.071l-0.078,-0.075l-0.076,-0.077l-0.074,-0.08l-0.073,-0.083l-0.07,-0.086l-0.068,-0.088l-0.066,-0.092l-0.063,-0.095l-0.06,-0.097l-0.058,-0.1l-0.055,-0.103l-0.052,-0.106l-0.048,-0.108l-0.045,-0.111l-0.041,-0.113l-0.038,-0.115l-0.033,-0.117l-0.03,-0.119l-0.026,-0.12l-0.021,-0.122l-0.017,-0.123l-0.012,-0.119l-0.002,-0.025l-0.009,0.004l-0.096,0.033l-0.097,0.03l-0.097,0.028l-0.097,0.024l-0.097,0.021l-0.097,0.018l-0.097,0.016l-0.096,0.013l-0.096,0.01l-0.096,0.007l-0.095,0.005l-0.096,0.002l-0.094,0l-0.094,-0.003l-0.094,-0.005l-0.093,-0.008l-0.093,-0.01l-0.092,-0.012l-0.091,-0.015l-0.091,-0.017l-0.091,-0.019l-0.089,-0.022l-0.09,-0.023l-0.088,-0.026l-0.088,-0.029l-0.087,-0.03l-0.087,-0.033l-0.086,-0.035l-0.085,-0.038l-0.085,-0.039l-0.084,-0.043l-0.083,-0.044l-0.082,-0.047l-0.081,-0.049l-0.08,-0.051l-0.079,-0.054l-0.079,-0.056l-0.077,-0.059l-0.076,-0.061l-0.075,-0.064l-0.073,-0.066l-0.072,-0.069l-0.071,-0.071l-0.068,-0.074l-0.068,-0.076l-0.065,-0.079l-0.063,-0.081l-0.062,-0.084l-0.059,-0.086l-0.057,-0.088l-0.055,-0.091l-0.052,-0.092l-0.049,-0.095l-0.047,-0.097l-0.044,-0.099l-0.041,-0.101l-0.038,-0.102l-0.037,-0.11l-0.041,-0.139l-0.037,-0.147l-0.029,-0.147l-0.024,-0.148l-0.017,-0.147l-0.006,-0.079l-0.049,0.007l-0.109,0.012l-0.108,0.008l-0.107,0.006l-0.107,0.001l-0.107,-0.001l-0.105,-0.004l-0.105,-0.008l-0.104,-0.01l-0.103,-0.014l-0.102,-0.016l-0.101,-0.019l-0.1,-0.022l-0.1,-0.025l-0.098,-0.027l-0.098,-0.03l-0.097,-0.033l-0.096,-0.036l-0.094,-0.038l-0.094,-0.041l-0.093,-0.043l-0.092,-0.046l-0.091,-0.049l-0.089,-0.052l-0.089,-0.055l-0.087,-0.057l-0.086,-0.06l-0.085,-0.063l-0.083,-0.066l-0.082,-0.069l-0.081,-0.071l-0.079,-0.075l-0.077,-0.077l-0.075,-0.081l-0.073,-0.084l-0.071,-0.086l-0.069,-0.09l-0.066,-0.092l-0.064,-0.096l-0.061,-0.098l-0.058,-0.101l-0.056,-0.104l-0.052,-0.106l-0.048,-0.109l-0.045,-0.111l-0.042,-0.114l-0.037,-0.115l-0.034,-0.118l-0.03,-0.119l-0.025,-0.12l-0.021,-0.122l-0.017,-0.122l-0.014,-0.133l-0.009,-0.161l-0.001,-0.167l0.007,-0.162l0.014,-0.157l0.021,-0.151l0.026,-0.144l0.03,-0.139l0.035,-0.132l0.038,-0.125l0.04,-0.119l0.043,-0.113l0.043,-0.108l0.045,-0.102l0.045,-0.097l0.046,-0.091l0.035,-0.067l0.061,-0.11l0.068,-0.106l0.051,-0.078l0.148,-0.216l0.152,-0.219l0.155,-0.217l0.158,-0.215l0.16,-0.213l0.162,-0.211l0.164,-0.209l0.167,-0.208l0.169,-0.205l0.172,-0.204l0.173,-0.202l0.176,-0.199l0.178,-0.198l0.18,-0.196l0.183,-0.194l0.184,-0.191l0.187,-0.19l0.188,-0.188l0.191,-0.185l0.192,-0.184l0.195,-0.181l0.196,-0.18l0.199,-0.177l0.2,-0.175l0.203,-0.173l0.204,-0.17l0.206,-0.169l0.208,-0.166l0.209,-0.164l0.212,-0.161l0.213,-0.16l0.215,-0.157l0.216,-0.155l0.219,-0.152l0.22,-0.15l0.221,-0.148l0.223,-0.146l0.225,-0.143l0.227,-0.14l0.227,-0.138l0.23,-0.136l0.231,-0.133l0.232,-0.131l0.234,-0.128l0.235,-0.126l0.237,-0.123l0.238,-0.12l0.239,-0.118l0.241,-0.115l0.242,-0.113l0.243,-0.11l0.245,-0.107l0.246,-0.105l0.247,-0.102l0.248,-0.099l0.25,-0.097l0.25,-0.093l0.252,-0.091l0.253,-0.088l0.254,-0.086l0.255,-0.082l0.256,-0.08l0.257,-0.076l0.256,-0.073l0.197,-0.054l0.196,-0.053l0.196,-0.05l0.197,-0.049l0.197,-0.047l0.197,-0.045l0.198,-0.044l0.198,-0.042l0.198,-0.04l0.199,-0.039l0.199,-0.037l0.199,-0.035l0.2,-0.034l0.2,-0.032l0.2,-0.03l0.2,-0.029l0.201,-0.027l0.201,-0.025l0.201,-0.024l0.201,-0.022l0.202,-0.02l0.202,-0.019l0.202,-0.017l0.202,-0.015l0.202,-0.013l0.202,-0.012l0.203,-0.011l0.203,-0.008l0.203,-0.007l0.202,-0.005l0.203,-0.004l0.203,-0.002l0.149,0l0.268,0.003Zm-0.402,18.858l-0.083,0.001l-0.082,0.003l-0.082,0.003l-0.082,0.005l-0.081,0.006l-0.081,0.006l-0.081,0.008l-0.081,0.009l-0.08,0.01l-0.08,0.01l-0.08,0.012l-0.079,0.013l-0.079,0.013l-0.079,0.015l-0.078,0.015l-0.078,0.017l-0.078,0.017l-0.077,0.019l-0.077,0.019l-0.076,0.02l-0.076,0.021l-0.076,0.022l-0.076,0.023l-0.075,0.024l-0.074,0.025l-0.074,0.026l-0.074,0.026l-0.074,0.027l-0.073,0.029l-0.072,0.029l-0.072,0.03l-0.072,0.031l-0.071,0.031l-0.071,0.033l-0.07,0.033l-0.07,0.034l-0.069,0.035l-0.069,0.036l-0.068,0.037l-0.068,0.037l-0.067,0.038l-0.067,0.039l-0.066,0.04l-0.066,0.041l-0.065,0.041l-0.065,0.042l-0.064,0.043l-0.064,0.043l-0.063,0.045l-0.063,0.045l-0.061,0.045l-0.062,0.047l-0.061,0.047l-0.06,0.048l-0.06,0.049l-0.059,0.049l-0.058,0.05l-0.058,0.051l-0.057,0.051l-0.057,0.052l-0.056,0.053l-0.055,0.053l-0.055,0.054l-0.054,0.055l-0.053,0.055l-0.053,0.056l-0.052,0.057l-0.051,0.057l-0.051,0.058l-0.05,0.058l-0.049,0.059l-0.049,0.06l-0.048,0.06l-0.047,0.061l-0.046,0.061l-0.046,0.062l-0.045,0.063l-0.045,0.063l-0.043,0.064l-0.043,0.064l-0.042,0.065l-0.041,0.065l-0.041,0.066l-0.04,0.066l-0.039,0.067l-0.038,0.067l-0.037,0.068l-0.037,0.068l-0.036,0.069l-0.035,0.069l-0.034,0.07l-0.033,0.07l-0.033,0.071l-0.031,0.071l-0.031,0.072l-0.03,0.072l-0.029,0.072l-0.028,0.073l-0.028,0.074l-0.026,0.073l-0.026,0.075l-0.025,0.074l-0.024,0.075l-0.023,0.076l-0.022,0.075l-0.021,0.077l-0.02,0.076l-0.019,0.077l-0.019,0.077l-0.017,0.078l-0.017,0.078l-0.015,0.078l-0.015,0.079l-0.013,0.079l-0.013,0.079l-0.012,0.08l-0.01,0.08l-0.01,0.08l-0.009,0.081l-0.007,0.081l-0.007,0.081l-0.006,0.081l-0.005,0.082l-0.003,0.082l-0.003,0.082l-0.001,0.083l-0.001,0.082l0.001,0.122l0.004,0.122l0.005,0.12l0.008,0.121l0.01,0.119l0.013,0.119l0.014,0.119l0.017,0.117l0.018,0.117l0.021,0.116l0.023,0.116l0.025,0.115l0.027,0.114l0.029,0.113l0.031,0.112l0.033,0.112l0.035,0.11l0.037,0.11l0.039,0.109l0.04,0.108l0.043,0.107l0.044,0.106l0.047,0.105l0.048,0.104l0.05,0.103l0.051,0.103l0.054,0.101l0.055,0.099l0.057,0.099l0.059,0.098l0.06,0.097l0.062,0.095l0.064,0.094l0.065,0.093l0.067,0.092l0.068,0.091l0.07,0.089l0.072,0.088l0.073,0.087l0.074,0.085l0.076,0.084l0.078,0.083l0.079,0.081l0.08,0.08l0.082,0.079l0.083,0.077l0.084,0.075l0.086,0.074l0.087,0.073l0.088,0.071l0.09,0.07l0.091,0.068l0.092,0.066l0.094,0.065l0.094,0.063l0.096,0.061l0.097,0.06l0.098,0.058l0.099,0.057l0.101,0.055l0.101,0.053l0.102,0.051l0.104,0.049l0.104,0.048l0,26.594l2.608,4.516l2.607,-4.516l0,-26.594l0.104,-0.048l0.104,-0.049l0.102,-0.051l0.102,-0.053l0.1,-0.055l0.099,-0.057l0.098,-0.058l0.097,-0.06l0.096,-0.061l0.094,-0.063l0.094,-0.065l0.092,-0.066l0.091,-0.068l0.09,-0.07l0.088,-0.071l0.087,-0.073l0.086,-0.074l0.084,-0.075l0.083,-0.077l0.082,-0.079l0.081,-0.08l0.078,-0.081l0.078,-0.083l0.076,-0.084l0.074,-0.085l0.073,-0.087l0.072,-0.088l0.07,-0.089l0.068,-0.091l0.067,-0.092l0.065,-0.093l0.064,-0.094l0.062,-0.095l0.06,-0.097l0.059,-0.098l0.057,-0.099l0.055,-0.099l0.054,-0.101l0.051,-0.103l0.05,-0.103l0.048,-0.104l0.047,-0.105l0.044,-0.106l0.043,-0.107l0.04,-0.108l0.039,-0.109l0.037,-0.11l0.035,-0.11l0.033,-0.112l0.031,-0.112l0.029,-0.113l0.027,-0.114l0.025,-0.115l0.023,-0.116l0.021,-0.116l0.018,-0.117l0.017,-0.117l0.014,-0.119l0.013,-0.119l0.01,-0.119l0.008,-0.121l0.005,-0.12l0.004,-0.122l0.001,-0.122l-0.001,-0.082l-0.001,-0.083l-0.003,-0.082l-0.003,-0.082l-0.005,-0.082l-0.006,-0.081l-0.007,-0.081l-0.007,-0.081l-0.009,-0.081l-0.01,-0.08l-0.01,-0.08l-0.012,-0.08l-0.013,-0.079l-0.013,-0.079l-0.015,-0.079l-0.015,-0.078l-0.017,-0.078l-0.017,-0.078l-0.019,-0.077l-0.019,-0.077l-0.02,-0.076l-0.021,-0.077l-0.022,-0.075l-0.023,-0.076l-0.024,-0.075l-0.025,-0.074l-0.026,-0.075l-0.026,-0.073l-0.028,-0.074l-0.028,-0.073l-0.029,-0.072l-0.03,-0.072l-0.031,-0.072l-0.031,-0.071l-0.033,-0.071l-0.033,-0.07l-0.034,-0.07l-0.035,-0.069l-0.036,-0.069l-0.037,-0.068l-0.037,-0.068l-0.038,-0.067l-0.039,-0.067l-0.04,-0.066l-0.041,-0.066l-0.041,-0.065l-0.042,-0.065l-0.043,-0.064l-0.043,-0.064l-0.045,-0.063l-0.045,-0.063l-0.046,-0.062l-0.046,-0.061l-0.047,-0.061l-0.048,-0.06l-0.049,-0.06l-0.049,-0.059l-0.05,-0.058l-0.051,-0.058l-0.051,-0.057l-0.052,-0.057l-0.053,-0.056l-0.053,-0.055l-0.054,-0.055l-0.055,-0.054l-0.055,-0.053l-0.056,-0.053l-0.057,-0.052l-0.057,-0.051l-0.058,-0.051l-0.058,-0.05l-0.059,-0.049l-0.06,-0.049l-0.06,-0.048l-0.061,-0.047l-0.061,-0.047l-0.062,-0.045l-0.063,-0.045l-0.063,-0.045l-0.064,-0.043l-0.064,-0.043l-0.065,-0.042l-0.065,-0.041l-0.066,-0.041l-0.066,-0.04l-0.067,-0.039l-0.067,-0.038l-0.068,-0.037l-0.068,-0.037l-0.069,-0.036l-0.069,-0.035l-0.07,-0.034l-0.07,-0.033l-0.071,-0.033l-0.071,-0.031l-0.072,-0.031l-0.072,-0.03l-0.072,-0.029l-0.073,-0.029l-0.074,-0.027l-0.073,-0.026l-0.075,-0.026l-0.074,-0.025l-0.075,-0.024l-0.076,-0.023l-0.075,-0.022l-0.077,-0.021l-0.076,-0.02l-0.077,-0.019l-0.077,-0.019l-0.078,-0.017l-0.078,-0.017l-0.078,-0.015l-0.079,-0.015l-0.079,-0.013l-0.079,-0.013l-0.08,-0.012l-0.08,-0.01l-0.08,-0.01l-0.081,-0.009l-0.081,-0.008l-0.081,-0.006l-0.081,-0.006l-0.082,-0.005l-0.082,-0.003l-0.082,-0.003l-0.083,-0.001l-0.082,-0.001l-0.083,0.001Zm0.017,-5.559l-0.11,0.001l-0.11,0.003l-0.11,0.003l-0.162,0.007l-0.162,0.009l-0.162,0.012l-0.161,0.014l-0.161,0.016l-0.16,0.019l-0.161,0.021l-0.159,0.024l-0.159,0.026l-0.159,0.028l-0.158,0.03l-0.158,0.033l-0.157,0.034l-0.156,0.037l-0.156,0.04l-0.155,0.041l-0.154,0.044l-0.154,0.046l-0.153,0.048l-0.152,0.05l-0.151,0.052l-0.151,0.054l-0.15,0.057l-0.149,0.058l-0.148,0.061l-0.147,0.062l-0.146,0.065l-0.146,0.067l-0.144,0.068l-0.143,0.071l-0.143,0.073l-0.141,0.074l-0.14,0.077l-0.139,0.078l-0.138,0.081l-0.137,0.082l-0.135,0.084l-0.135,0.086l-0.133,0.088l-0.132,0.09l-0.13,0.091l-0.13,0.093l-0.128,0.095l-0.127,0.097l-0.125,0.099l-0.124,0.1l-0.122,0.103l-0.121,0.103l-0.12,0.106l-0.118,0.107l-0.116,0.109l-0.115,0.111l-0.114,0.112l-0.111,0.114l-0.111,0.115l-0.108,0.117l-0.107,0.119l-0.105,0.12l-0.104,0.122l-0.101,0.123l-0.1,0.125l-0.098,0.126l-0.097,0.128l-0.094,0.13l-0.097,0.133l-0.048,0.068l-0.047,0.068l-0.022,0.035l-0.022,0.035l-0.021,0.035l-0.021,0.036l-0.019,0.037l-0.018,0.037l-0.017,0.039l-0.016,0.039l-0.011,0.031l-0.011,0.032l-0.01,0.033l-0.009,0.032l-0.008,0.033l-0.007,0.033l-0.006,0.033l-0.005,0.033l-0.004,0.033l-0.004,0.034l-0.002,0.033l-0.002,0.034l0,0.034l0,0.033l0.002,0.034l0.002,0.034l0.004,0.04l0.005,0.04l0.007,0.039l0.008,0.039l0.01,0.038l0.011,0.037l0.012,0.037l0.013,0.036l0.014,0.035l0.016,0.035l0.016,0.034l0.018,0.033l0.019,0.033l0.02,0.032l0.021,0.031l0.021,0.03l0.023,0.03l0.024,0.029l0.024,0.028l0.025,0.027l0.027,0.027l0.027,0.025l0.027,0.025l0.029,0.024l0.029,0.024l0.03,0.022l0.03,0.021l0.031,0.021l0.032,0.02l0.032,0.019l0.033,0.018l0.033,0.017l0.033,0.016l0.034,0.015l0.035,0.014l0.034,0.013l0.036,0.012l0.035,0.012l0.036,0.01l0.036,0.009l0.036,0.008l0.036,0.007l0.037,0.006l0.036,0.006l0.037,0.004l0.037,0.002l0.036,0.002l0.037,0.001l0.037,0l0.037,-0.002l0.036,-0.003l0.037,-0.003l0.036,-0.005l0.036,-0.006l0.036,-0.008l0.036,-0.008l0.035,-0.01l0.035,-0.011l0.035,-0.012l0.035,-0.013l0.034,-0.015l0.033,-0.016l0.033,-0.017l0.033,-0.018l0.029,-0.018l0.027,-0.019l0.027,-0.02l0.027,-0.021l0.052,-0.042l0.053,-0.042l0.174,-0.205l0.057,-0.085l0.059,-0.084l0.059,-0.083l0.061,-0.083l0.061,-0.082l0.062,-0.081l0.064,-0.08l0.064,-0.08l0.064,-0.079l0.066,-0.078l0.067,-0.077l0.067,-0.076l0.069,-0.076l0.069,-0.074l0.07,-0.074l0.071,-0.073l0.071,-0.073l0.073,-0.071l0.073,-0.071l0.074,-0.069l0.075,-0.069l0.075,-0.068l0.076,-0.067l0.077,-0.067l0.078,-0.065l0.079,-0.064l0.079,-0.064l0.08,-0.062l0.08,-0.062l0.081,-0.061l0.082,-0.06l0.083,-0.059l0.083,-0.058l0.083,-0.057l0.085,-0.056l0.085,-0.055l0.085,-0.054l0.087,-0.053l0.086,-0.052l0.088,-0.052l0.088,-0.05l0.088,-0.049l0.089,-0.048l0.09,-0.047l0.09,-0.046l0.091,-0.045l0.091,-0.045l0.091,-0.043l0.092,-0.042l0.093,-0.04l0.093,-0.04l0.094,-0.039l0.093,-0.038l0.095,-0.036l0.095,-0.036l0.095,-0.034l0.095,-0.034l0.096,-0.032l0.097,-0.031l0.097,-0.03l0.097,-0.029l0.097,-0.028l0.098,-0.026l0.098,-0.026l0.081,-0.02l0.082,-0.019l0.081,-0.018l0.081,-0.018l0.082,-0.016l0.081,-0.016l0.082,-0.015l0.082,-0.015l0.082,-0.013l0.081,-0.013l0.082,-0.012l0.082,-0.011l0.082,-0.01l0.083,-0.009l0.082,-0.009l0.082,-0.008l0.082,-0.007l0.082,-0.006l0.082,-0.005l0.083,-0.005l0.082,-0.004l0.082,-0.003l0.082,-0.002l0.082,-0.001l0.082,-0.001l0.082,0l0.083,0.001l0.082,0.001l0.081,0.003l0.082,0.003l0.082,0.004l0.082,0.004l0.082,0.006l0.081,0.006l0.082,0.007l0.082,0.008l0.162,0.017l0.162,0.021l0.162,0.023l0.161,0.026l0.161,0.029l0.16,0.033l0.16,0.034l0.158,0.038l0.158,0.041l0.158,0.043l0.156,0.046l0.155,0.049l0.155,0.052l0.153,0.054l0.153,0.057l0.151,0.059l0.15,0.063l0.15,0.064l0.147,0.068l0.147,0.07l0.145,0.072l0.144,0.075l0.143,0.078l0.141,0.08l0.14,0.083l0.138,0.085l0.136,0.087l0.135,0.09l0.133,0.092l0.132,0.095l0.129,0.096l0.128,0.1l0.126,0.101l0.124,0.104l0.122,0.106l0.06,0.054l0.06,0.054l0.059,0.055l0.059,0.056l0.058,0.056l0.058,0.056l0.057,0.057l0.057,0.058l0.056,0.058l0.055,0.059l0.055,0.059l0.055,0.06l0.053,0.06l0.054,0.061l0.052,0.062l0.052,0.062l0.052,0.062l0.051,0.063l0.05,0.063l0.05,0.064l0.049,0.065l0.048,0.065l0.05,0.069l0.048,0.071l0.047,0.071l0.048,0.071l0.05,0.069l0.026,0.034l0.027,0.034l0.027,0.033l0.029,0.032l0.03,0.032l0.031,0.03l0.025,0.023l0.025,0.022l0.026,0.021l0.027,0.021l0.027,0.02l0.028,0.019l0.028,0.018l0.029,0.018l0.029,0.016l0.03,0.016l0.03,0.015l0.031,0.014l0.031,0.013l0.031,0.013l0.032,0.011l0.032,0.011l0.039,0.012l0.038,0.01l0.039,0.008l0.039,0.008l0.039,0.005l0.038,0.004l0.039,0.003l0.038,0.002l0.038,0l0.038,-0.001l0.038,-0.003l0.038,-0.003l0.037,-0.005l0.037,-0.006l0.037,-0.008l0.036,-0.008l0.036,-0.01l0.036,-0.011l0.035,-0.012l0.035,-0.013l0.035,-0.014l0.034,-0.015l0.033,-0.016l0.033,-0.017l0.033,-0.019l0.032,-0.019l0.031,-0.02l0.031,-0.02l0.031,-0.022l0.029,-0.023l0.029,-0.023l0.029,-0.024l0.027,-0.025l0.027,-0.026l0.026,-0.026l0.026,-0.028l0.024,-0.027l0.024,-0.029l0.023,-0.029l0.022,-0.03l0.022,-0.03l0.02,-0.031l0.02,-0.031l0.018,-0.032l0.018,-0.033l0.017,-0.033l0.015,-0.033l0.015,-0.034l0.014,-0.034l0.012,-0.034l0.012,-0.035l0.01,-0.035l0.009,-0.036l0.008,-0.036l0.007,-0.036l0.006,-0.036l0.005,-0.036l0.003,-0.037l0.002,-0.037l0.001,-0.037l-0.001,-0.037l-0.002,-0.037l-0.003,-0.037l-0.005,-0.037l-0.005,-0.033l-0.007,-0.033l-0.009,-0.033l-0.009,-0.032l-0.019,-0.065l-0.018,-0.064l-0.124,-0.239l-0.086,-0.127l-0.087,-0.125l-0.098,-0.136l-0.1,-0.135l-0.102,-0.133l-0.104,-0.131l-0.107,-0.13l-0.108,-0.127l-0.11,-0.126l-0.112,-0.125l-0.113,-0.122l-0.116,-0.121l-0.118,-0.119l-0.119,-0.117l-0.121,-0.116l-0.122,-0.113l-0.125,-0.112l-0.125,-0.11l-0.128,-0.108l-0.129,-0.106l-0.131,-0.104l-0.132,-0.102l-0.133,-0.1l-0.136,-0.099l-0.136,-0.096l-0.138,-0.094l-0.139,-0.093l-0.14,-0.09l-0.142,-0.088l-0.143,-0.087l-0.145,-0.084l-0.145,-0.082l-0.147,-0.08l-0.147,-0.078l-0.149,-0.075l-0.15,-0.074l-0.151,-0.072l-0.152,-0.069l-0.152,-0.067l-0.154,-0.065l-0.155,-0.062l-0.155,-0.061l-0.156,-0.058l-0.158,-0.056l-0.157,-0.054l-0.159,-0.051l-0.159,-0.049l-0.16,-0.047l-0.161,-0.044l-0.161,-0.042l-0.162,-0.04l-0.162,-0.037l-0.163,-0.035l-0.163,-0.032l-0.164,-0.031l-0.164,-0.027l-0.165,-0.025l-0.165,-0.023l-0.165,-0.02l-0.166,-0.018l-0.165,-0.015l-0.166,-0.012l-0.166,-0.01l-0.167,-0.008l-0.166,-0.005l-0.167,-0.002l-0.109,0Zm-0.067,-5.578l-0.13,0.001l-0.129,0.003l-0.129,0.004l-0.129,0.004l-0.129,0.006l-0.128,0.007l-0.129,0.007l-0.128,0.009l-0.129,0.01l-0.128,0.011l-0.128,0.011l-0.128,0.013l-0.127,0.013l-0.128,0.015l-0.127,0.016l-0.127,0.016l-0.127,0.018l-0.127,0.018l-0.126,0.02l-0.127,0.02l-0.126,0.021l-0.126,0.023l-0.125,0.023l-0.126,0.024l-0.125,0.025l-0.125,0.026l-0.125,0.027l-0.124,0.028l-0.125,0.029l-0.124,0.03l-0.123,0.031l-0.124,0.031l-0.123,0.033l-0.123,0.033l-0.122,0.035l-0.123,0.035l-0.122,0.036l-0.122,0.037l-0.121,0.038l-0.121,0.039l-0.121,0.04l-0.12,0.04l-0.12,0.042l-0.12,0.042l-0.12,0.043l-0.119,0.044l-0.119,0.045l-0.118,0.046l-0.118,0.047l-0.118,0.047l-0.117,0.049l-0.117,0.049l-0.117,0.05l-0.116,0.051l-0.115,0.052l-0.116,0.052l-0.115,0.054l-0.114,0.054l-0.114,0.055l-0.114,0.056l-0.113,0.057l-0.113,0.057l-0.113,0.058l-0.112,0.06l-0.111,0.06l-0.111,0.06l-0.111,0.062l-0.11,0.062l-0.11,0.063l-0.109,0.064l-0.109,0.065l-0.108,0.065l-0.108,0.067l-0.107,0.067l-0.106,0.068l-0.107,0.068l-0.105,0.069l-0.106,0.071l-0.104,0.07l-0.104,0.072l-0.104,0.072l-0.103,0.074l-0.102,0.073l-0.102,0.075l-0.102,0.075l-0.101,0.076l-0.1,0.077l-0.1,0.078l-0.099,0.078l-0.098,0.079l-0.098,0.08l-0.097,0.08l-0.097,0.081l-0.096,0.082l-0.096,0.082l-0.095,0.084l-0.094,0.083l-0.094,0.085l-0.093,0.085l-0.092,0.086l-0.092,0.087l-0.091,0.087l-0.09,0.088l-0.09,0.089l-0.089,0.089l-0.088,0.09l-0.088,0.091l-0.087,0.091l-0.087,0.092l-0.085,0.093l-0.085,0.093l-0.084,0.094l-0.084,0.095l-0.083,0.095l-0.082,0.096l-0.081,0.097l-0.081,0.097l-0.08,0.097l-0.079,0.099l-0.079,0.099l-0.077,0.099l-0.077,0.101l-0.076,0.1l-0.076,0.102l-0.074,0.102l-0.074,0.103l-0.073,0.103l-0.072,0.104l-0.077,0.11l-0.038,0.056l-0.036,0.056l-0.034,0.057l-0.017,0.028l-0.015,0.03l-0.015,0.029l-0.015,0.03l-0.013,0.03l-0.012,0.031l-0.017,0.047l-0.015,0.048l-0.013,0.049l-0.011,0.049l-0.008,0.05l-0.007,0.05l-0.005,0.05l-0.002,0.051l-0.001,0.05l0.002,0.051l0.004,0.05l0.006,0.05l0.008,0.051l0.01,0.049l0.012,0.05l0.014,0.048l0.012,0.034l0.012,0.034l0.013,0.032l0.015,0.032l0.015,0.032l0.016,0.03l0.017,0.03l0.017,0.03l0.019,0.028l0.019,0.028l0.02,0.028l0.021,0.026l0.022,0.026l0.022,0.026l0.023,0.024l0.023,0.024l0.025,0.023l0.024,0.022l0.026,0.022l0.026,0.021l0.026,0.02l0.028,0.02l0.027,0.019l0.028,0.018l0.029,0.017l0.029,0.016l0.029,0.016l0.03,0.015l0.03,0.014l0.03,0.013l0.031,0.013l0.031,0.012l0.031,0.011l0.032,0.01l0.032,0.009l0.032,0.009l0.032,0.008l0.033,0.006l0.032,0.007l0.033,0.005l0.033,0.004l0.033,0.004l0.032,0.002l0.033,0.002l0.033,0.001l0.033,0l0.033,0l0.033,-0.002l0.033,-0.003l0.033,-0.003l0.032,-0.004l0.032,-0.006l0.033,-0.006l0.032,-0.007l0.032,-0.008l0.031,-0.008l0.032,-0.01l0.031,-0.011l0.03,-0.012l0.031,-0.012l0.03,-0.014l0.03,-0.014l0.029,-0.016l0.029,-0.016l0.028,-0.018l0.028,-0.019l0.027,-0.02l0.026,-0.021l0.053,-0.042l0.053,-0.042l0.173,-0.205l0.033,-0.049l0.09,-0.133l0.093,-0.132l0.093,-0.13l0.095,-0.13l0.097,-0.129l0.098,-0.128l0.099,-0.127l0.101,-0.125l0.102,-0.125l0.103,-0.123l0.105,-0.123l0.106,-0.121l0.108,-0.12l0.109,-0.119l0.11,-0.117l0.111,-0.117l0.113,-0.115l0.114,-0.114l0.115,-0.112l0.117,-0.112l0.117,-0.11l0.119,-0.109l0.12,-0.107l0.122,-0.107l0.122,-0.104l0.124,-0.104l0.125,-0.102l0.125,-0.101l0.127,-0.099l0.129,-0.098l0.129,-0.096l0.13,-0.095l0.135,-0.096l0.135,-0.094l0.137,-0.092l0.137,-0.091l0.139,-0.089l0.14,-0.088l0.141,-0.086l0.141,-0.084l0.143,-0.083l0.144,-0.081l0.144,-0.079l0.146,-0.078l0.146,-0.076l0.147,-0.075l0.148,-0.072l0.149,-0.072l0.15,-0.069l0.15,-0.068l0.151,-0.066l0.152,-0.064l0.153,-0.063l0.153,-0.061l0.154,-0.059l0.155,-0.057l0.155,-0.056l0.156,-0.054l0.156,-0.052l0.157,-0.051l0.158,-0.049l0.158,-0.047l0.159,-0.045l0.159,-0.044l0.16,-0.042l0.16,-0.04l0.16,-0.038l0.161,-0.036l0.162,-0.035l0.161,-0.033l0.162,-0.031l0.163,-0.029l0.163,-0.028l0.163,-0.025l0.163,-0.024l0.163,-0.022l0.164,-0.02l0.164,-0.019l0.164,-0.016l0.165,-0.015l0.164,-0.013l0.165,-0.011l0.164,-0.009l0.165,-0.007l0.165,-0.005l0.165,-0.004l0.165,-0.001l0.165,0l0.165,0.002l0.165,0.005l0.165,0.006l0.165,0.008l0.164,0.01l0.165,0.011l0.164,0.014l0.165,0.016l0.197,0.021l0.196,0.024l0.196,0.027l0.196,0.03l0.195,0.032l0.194,0.035l0.194,0.038l0.193,0.041l0.192,0.043l0.192,0.045l0.191,0.049l0.191,0.051l0.189,0.053l0.189,0.056l0.188,0.059l0.187,0.061l0.187,0.064l0.185,0.066l0.185,0.068l0.183,0.071l0.183,0.074l0.181,0.076l0.18,0.078l0.18,0.081l0.178,0.083l0.177,0.085l0.176,0.088l0.175,0.09l0.173,0.092l0.173,0.095l0.171,0.096l0.169,0.099l0.169,0.102l0.167,0.103l0.165,0.106l0.165,0.108l0.162,0.11l0.162,0.112l0.16,0.114l0.158,0.116l0.157,0.119l0.155,0.12l0.153,0.123l0.152,0.124l0.15,0.127l0.149,0.128l0.147,0.13l0.145,0.133l0.143,0.134l0.142,0.136l0.139,0.139l0.138,0.14l0.136,0.142l0.134,0.143l0.132,0.146l0.13,0.147l0.128,0.149l0.126,0.151l0.124,0.153l0.121,0.154l0.12,0.157l0.118,0.157l0.115,0.16l0.113,0.161l0.069,0.102l0.035,0.051l0.036,0.051l0.037,0.05l0.039,0.049l0.021,0.024l0.021,0.023l0.022,0.023l0.022,0.022l0.025,0.023l0.026,0.022l0.026,0.021l0.027,0.021l0.027,0.02l0.028,0.019l0.028,0.018l0.029,0.017l0.029,0.017l0.03,0.015l0.03,0.015l0.031,0.014l0.03,0.014l0.032,0.012l0.031,0.011l0.032,0.011l0.032,0.01l0.033,0.009l0.032,0.008l0.033,0.007l0.033,0.006l0.034,0.005l0.033,0.005l0.033,0.003l0.034,0.003l0.034,0.001l0.033,0.001l0.034,-0.001l0.034,-0.001l0.033,-0.002l0.034,-0.003l0.033,-0.005l0.03,-0.004l0.03,-0.006l0.029,-0.006l0.029,-0.007l0.029,-0.008l0.028,-0.008l0.028,-0.009l0.028,-0.01l0.028,-0.011l0.027,-0.011l0.027,-0.012l0.026,-0.013l0.052,-0.027l0.051,-0.03l0.049,-0.032l0.047,-0.035l0.046,-0.037l0.043,-0.039l0.042,-0.04l0.04,-0.043l0.039,-0.044l0.036,-0.047l0.033,-0.047l0.032,-0.049l0.03,-0.051l0.027,-0.052l0.024,-0.052l0.022,-0.054l0.02,-0.055l0.017,-0.056l0.014,-0.056l0.012,-0.057l0.008,-0.058l0.006,-0.058l0.002,-0.029l0.001,-0.029l0,-0.029l0,-0.029l-0.002,-0.03l-0.002,-0.029l-0.003,-0.029l-0.003,-0.029l-0.006,-0.033l-0.007,-0.033l-0.008,-0.033l-0.009,-0.032l-0.02,-0.065l-0.018,-0.065l-0.123,-0.239l-0.074,-0.109l-0.075,-0.11l-0.075,-0.108l-0.077,-0.108l-0.074,-0.103l-0.075,-0.103l-0.075,-0.101l-0.077,-0.102l-0.077,-0.1l-0.078,-0.1l-0.079,-0.099l-0.079,-0.099l-0.08,-0.097l-0.081,-0.098l-0.082,-0.096l-0.082,-0.096l-0.083,-0.095l-0.084,-0.095l-0.084,-0.094l-0.086,-0.093l-0.085,-0.093l-0.087,-0.092l-0.087,-0.091l-0.088,-0.09l-0.089,-0.09l-0.089,-0.089l-0.09,-0.089l-0.09,-0.088l-0.091,-0.087l-0.092,-0.086l-0.092,-0.086l-0.093,-0.085l-0.094,-0.084l-0.094,-0.083l-0.095,-0.083l-0.096,-0.082l-0.096,-0.082l-0.096,-0.08l-0.098,-0.08l-0.097,-0.08l-0.099,-0.078l-0.099,-0.078l-0.099,-0.077l-0.1,-0.076l-0.101,-0.076l-0.101,-0.075l-0.102,-0.074l-0.102,-0.073l-0.102,-0.073l-0.104,-0.072l-0.103,-0.071l-0.105,-0.07l-0.104,-0.069l-0.106,-0.069l-0.105,-0.068l-0.106,-0.068l-0.107,-0.066l-0.107,-0.066l-0.108,-0.065l-0.108,-0.064l-0.108,-0.063l-0.109,-0.063l-0.11,-0.062l-0.11,-0.061l-0.11,-0.06l-0.11,-0.059l-0.112,-0.059l-0.111,-0.058l-0.112,-0.057l-0.112,-0.056l-0.113,-0.055l-0.113,-0.055l-0.113,-0.054l-0.114,-0.052l-0.114,-0.053l-0.115,-0.051l-0.115,-0.05l-0.115,-0.05l-0.116,-0.049l-0.115,-0.048l-0.117,-0.047l-0.116,-0.046l-0.117,-0.046l-0.117,-0.044l-0.118,-0.044l-0.118,-0.043l-0.118,-0.042l-0.118,-0.041l-0.119,-0.041l-0.119,-0.039l-0.119,-0.039l-0.12,-0.037l-0.119,-0.037l-0.12,-0.036l-0.121,-0.035l-0.12,-0.035l-0.121,-0.033l-0.121,-0.032l-0.121,-0.032l-0.121,-0.031l-0.122,-0.03l-0.122,-0.029l-0.122,-0.028l-0.122,-0.027l-0.122,-0.026l-0.123,-0.025l-0.123,-0.025l-0.123,-0.023l-0.123,-0.023l-0.123,-0.021l-0.123,-0.021l-0.124,-0.02l-0.124,-0.019l-0.123,-0.018l-0.124,-0.017l-0.125,-0.016l-0.124,-0.015l-0.124,-0.014l-0.124,-0.014l-0.125,-0.012l-0.125,-0.012l-0.124,-0.01l-0.125,-0.01l-0.125,-0.008l-0.125,-0.008l-0.125,-0.006l-0.125,-0.006l-0.125,-0.005l-0.125,-0.003l-0.125,-0.003l-0.125,-0.002l-0.125,-0.001l-0.166,0.001Zm0.047,-5.393l-0.184,0.002l-0.184,0.003l-0.183,0.005l-0.184,0.006l-0.183,0.008l-0.183,0.009l-0.183,0.011l-0.183,0.012l-0.183,0.014l-0.183,0.015l-0.182,0.017l-0.182,0.018l-0.182,0.02l-0.182,0.022l-0.182,0.022l-0.181,0.025l-0.181,0.026l-0.181,0.027l-0.181,0.029l-0.18,0.031l-0.18,0.031l-0.18,0.034l-0.179,0.035l-0.18,0.036l-0.178,0.038l-0.179,0.04l-0.178,0.041l-0.178,0.042l-0.178,0.044l-0.177,0.046l-0.177,0.047l-0.176,0.048l-0.232,0.066l-0.232,0.069l-0.23,0.072l-0.23,0.074l-0.229,0.077l-0.228,0.079l-0.227,0.082l-0.226,0.085l-0.225,0.087l-0.224,0.089l-0.223,0.092l-0.222,0.095l-0.221,0.097l-0.22,0.099l-0.219,0.102l-0.217,0.104l-0.217,0.107l-0.215,0.109l-0.214,0.111l-0.213,0.114l-0.211,0.116l-0.211,0.118l-0.209,0.121l-0.207,0.123l-0.207,0.125l-0.204,0.127l-0.204,0.129l-0.202,0.132l-0.201,0.134l-0.199,0.136l-0.197,0.138l-0.197,0.14l-0.194,0.142l-0.193,0.145l-0.192,0.146l-0.189,0.148l-0.189,0.151l-0.186,0.152l-0.185,0.155l-0.183,0.156l-0.182,0.159l-0.179,0.16l-0.178,0.162l-0.176,0.164l-0.174,0.166l-0.173,0.168l-0.17,0.17l-0.169,0.171l-0.167,0.174l-0.164,0.175l-0.163,0.177l-0.161,0.178l-0.159,0.181l-0.156,0.182l-0.155,0.184l-0.153,0.185l-0.15,0.187l-0.148,0.189l-0.147,0.19l-0.144,0.192l-0.141,0.194l-0.14,0.195l-0.137,0.197l-0.135,0.198l-0.047,0.07l-0.024,0.045l-0.023,0.046l-0.021,0.046l-0.021,0.047l-0.019,0.047l-0.018,0.047l-0.016,0.048l-0.014,0.048l-0.013,0.048l-0.011,0.049l-0.009,0.049l-0.006,0.049l-0.005,0.05l-0.002,0.049l0,0.05l0.003,0.05l0.005,0.041l0.005,0.041l0.007,0.04l0.008,0.039l0.01,0.038l0.011,0.038l0.012,0.037l0.013,0.037l0.015,0.036l0.015,0.035l0.017,0.034l0.018,0.034l0.019,0.032l0.02,0.032l0.021,0.032l0.022,0.03l0.022,0.03l0.024,0.029l0.025,0.028l0.025,0.027l0.027,0.027l0.027,0.025l0.027,0.025l0.029,0.024l0.029,0.023l0.03,0.022l0.031,0.022l0.031,0.02l0.031,0.02l0.033,0.018l0.032,0.018l0.034,0.017l0.033,0.015l0.034,0.015l0.035,0.014l0.035,0.013l0.035,0.012l0.035,0.011l0.036,0.01l0.036,0.009l0.036,0.008l0.036,0.007l0.037,0.005l0.036,0.005l0.037,0.004l0.037,0.002l0.036,0.002l0.037,0l0.037,0l0.036,-0.002l0.037,-0.003l0.036,-0.004l0.036,-0.005l0.036,-0.006l0.036,-0.008l0.036,-0.008l0.035,-0.01l0.035,-0.011l0.035,-0.012l0.034,-0.014l0.034,-0.014l0.033,-0.016l0.033,-0.017l0.032,-0.018l0.029,-0.018l0.027,-0.019l0.027,-0.02l0.027,-0.021l0.052,-0.042l0.053,-0.042l0.174,-0.205l0.093,-0.138l0.093,-0.136l0.095,-0.136l0.097,-0.135l0.097,-0.134l0.098,-0.133l0.1,-0.132l0.101,-0.132l0.102,-0.13l0.102,-0.13l0.104,-0.129l0.106,-0.128l0.106,-0.127l0.107,-0.126l0.108,-0.125l0.109,-0.124l0.111,-0.123l0.111,-0.123l0.113,-0.121l0.113,-0.12l0.114,-0.12l0.116,-0.118l0.116,-0.118l0.118,-0.116l0.118,-0.116l0.119,-0.114l0.12,-0.114l0.122,-0.112l0.122,-0.111l0.123,-0.111l0.124,-0.109l0.125,-0.108l0.125,-0.108l0.127,-0.106l0.127,-0.105l0.129,-0.104l0.129,-0.103l0.13,-0.102l0.131,-0.1l0.132,-0.1l0.133,-0.099l0.133,-0.097l0.134,-0.096l0.135,-0.095l0.136,-0.094l0.137,-0.093l0.137,-0.092l0.138,-0.09l0.139,-0.089l0.14,-0.089l0.141,-0.086l0.141,-0.086l0.142,-0.085l0.142,-0.083l0.144,-0.082l0.144,-0.081l0.144,-0.079l0.146,-0.079l0.146,-0.077l0.146,-0.076l0.148,-0.074l0.148,-0.073l0.148,-0.072l0.15,-0.071l0.204,-0.094l0.205,-0.092l0.206,-0.089l0.207,-0.087l0.208,-0.084l0.209,-0.082l0.21,-0.079l0.21,-0.076l0.212,-0.075l0.212,-0.072l0.213,-0.069l0.214,-0.067l0.215,-0.064l0.215,-0.062l0.216,-0.059l0.216,-0.057l0.217,-0.054l0.218,-0.052l0.218,-0.049l0.219,-0.047l0.219,-0.045l0.22,-0.041l0.22,-0.04l0.221,-0.037l0.221,-0.034l0.221,-0.032l0.222,-0.029l0.222,-0.027l0.222,-0.024l0.223,-0.022l0.222,-0.019l0.223,-0.017l0.223,-0.014l0.223,-0.012l0.224,-0.009l0.223,-0.006l0.224,-0.004l0.223,-0.002l0.223,0.001l0.224,0.004l0.223,0.006l0.224,0.008l0.223,0.011l0.223,0.014l0.223,0.016l0.222,0.019l0.223,0.021l0.222,0.024l0.222,0.026l0.221,0.029l0.222,0.031l0.22,0.034l0.221,0.037l0.22,0.039l0.22,0.042l0.219,0.044l0.218,0.046l0.218,0.05l0.218,0.052l0.217,0.054l0.216,0.057l0.216,0.06l0.215,0.062l0.214,0.064l0.195,0.062l0.194,0.063l0.193,0.065l0.193,0.068l0.192,0.069l0.191,0.072l0.19,0.073l0.19,0.076l0.188,0.078l0.188,0.079l0.187,0.082l0.186,0.083l0.185,0.086l0.184,0.087l0.183,0.09l0.183,0.091l0.181,0.093l0.18,0.095l0.18,0.097l0.178,0.099l0.177,0.1l0.177,0.103l0.175,0.104l0.174,0.106l0.173,0.108l0.172,0.11l0.17,0.111l0.17,0.113l0.168,0.115l0.167,0.117l0.166,0.118l0.165,0.121l0.164,0.121l0.162,0.124l0.161,0.125l0.159,0.127l0.159,0.128l0.157,0.13l0.155,0.132l0.155,0.133l0.153,0.135l0.151,0.136l0.15,0.138l0.149,0.14l0.147,0.141l0.146,0.142l0.144,0.144l0.143,0.146l0.141,0.147l0.14,0.149l0.138,0.15l0.136,0.151l0.135,0.153l0.134,0.154l0.131,0.156l0.13,0.157l0.129,0.158l0.127,0.16l0.125,0.161l0.123,0.162l0.121,0.164l0.12,0.165l0.118,0.167l0.117,0.167l0.068,0.103l0.035,0.051l0.036,0.051l0.037,0.05l0.04,0.049l0.02,0.024l0.021,0.023l0.022,0.023l0.023,0.022l0.025,0.023l0.025,0.022l0.026,0.021l0.027,0.021l0.027,0.019l0.028,0.019l0.029,0.019l0.028,0.017l0.03,0.017l0.029,0.015l0.031,0.015l0.03,0.014l0.031,0.013l0.031,0.013l0.032,0.011l0.032,0.011l0.032,0.01l0.032,0.009l0.033,0.008l0.033,0.007l0.033,0.006l0.033,0.005l0.033,0.004l0.034,0.004l0.033,0.002l0.034,0.002l0.034,0.001l0.033,-0.001l0.034,-0.001l0.034,-0.002l0.033,-0.004l0.034,-0.004l0.035,-0.005l0.035,-0.007l0.034,-0.008l0.033,-0.008l0.034,-0.01l0.032,-0.01l0.033,-0.012l0.031,-0.013l0.032,-0.013l0.03,-0.014l0.031,-0.015l0.029,-0.016l0.029,-0.017l0.029,-0.018l0.028,-0.018l0.027,-0.02l0.027,-0.02l0.026,-0.02l0.026,-0.022l0.025,-0.022l0.024,-0.022l0.024,-0.024l0.023,-0.024l0.023,-0.024l0.021,-0.026l0.022,-0.025l0.02,-0.027l0.02,-0.026l0.019,-0.028l0.018,-0.027l0.018,-0.029l0.017,-0.028l0.016,-0.029l0.015,-0.03l0.015,-0.03l0.014,-0.03l0.013,-0.03l0.012,-0.031l0.012,-0.031l0.011,-0.031l0.009,-0.032l0.01,-0.032l0.008,-0.032l0.007,-0.032l0.007,-0.032l0.005,-0.033l0.005,-0.032l0.004,-0.033l0.003,-0.033l0.002,-0.033l0.002,-0.033l0,-0.033l-0.001,-0.032l-0.001,-0.033l-0.003,-0.033l-0.003,-0.033l-0.004,-0.033l-0.006,-0.032l-0.006,-0.033l-0.008,-0.032l-0.008,-0.032l-0.009,-0.032l-0.011,-0.031l-0.011,-0.032l-0.01,-0.023l-0.01,-0.024l-0.023,-0.048l-0.024,-0.046l-0.024,-0.042l-0.022,-0.037l-0.018,-0.028l-0.016,-0.025l-0.102,-0.152l-0.104,-0.15l-0.105,-0.15l-0.107,-0.149l-0.107,-0.148l-0.109,-0.147l-0.11,-0.146l-0.111,-0.145l-0.113,-0.145l-0.114,-0.143l-0.114,-0.143l-0.117,-0.141l-0.117,-0.141l-0.118,-0.14l-0.12,-0.138l-0.121,-0.138l-0.122,-0.137l-0.123,-0.136l-0.124,-0.134l-0.125,-0.134l-0.127,-0.133l-0.127,-0.131l-0.129,-0.131l-0.13,-0.129l-0.131,-0.128l-0.132,-0.128l-0.133,-0.126l-0.134,-0.125l-0.135,-0.124l-0.136,-0.122l-0.137,-0.122l-0.139,-0.12l-0.184,-0.157l-0.186,-0.156l-0.188,-0.152l-0.189,-0.151l-0.192,-0.149l-0.193,-0.146l-0.194,-0.144l-0.196,-0.142l-0.198,-0.14l-0.199,-0.137l-0.2,-0.136l-0.203,-0.133l-0.203,-0.13l-0.205,-0.129l-0.207,-0.126l-0.207,-0.124l-0.21,-0.122l-0.21,-0.119l-0.212,-0.117l-0.213,-0.114l-0.214,-0.113l-0.216,-0.109l-0.217,-0.108l-0.218,-0.105l-0.219,-0.103l-0.22,-0.1l-0.221,-0.098l-0.222,-0.096l-0.224,-0.093l-0.224,-0.091l-0.226,-0.088l-0.226,-0.086l-0.227,-0.083l-0.228,-0.081l-0.229,-0.078l-0.23,-0.076l-0.231,-0.074l-0.231,-0.071l-0.233,-0.068l-0.233,-0.066l-0.233,-0.063l-0.235,-0.061l-0.235,-0.058l-0.236,-0.056l-0.236,-0.053l-0.237,-0.05l-0.238,-0.048l-0.238,-0.045l-0.238,-0.043l-0.239,-0.04l-0.24,-0.037l-0.24,-0.035l-0.24,-0.032l-0.241,-0.029l-0.241,-0.027l-0.241,-0.024l-0.242,-0.021l-0.242,-0.019l-0.242,-0.016l-0.242,-0.013l-0.243,-0.01l-0.243,-0.008l-0.243,-0.005l-0.243,-0.002l-0.128,0Z" style="fill:#fff;"/></svg>