<?xml version="1.0" encoding="UTF-8" standalone="no"?><!DOCTYPE svg PUBLIC "-//W3C//DTD SVG 1.1//EN" "http://www.w3.org/Graphics/SVG/1.1/DTD/svg11.dtd"><svg width="100%" height="100%" viewBox="0 0 32 32" version="1.1" xmlns="http://www.w3.org/2000/svg" xmlns:xlink="http://www.w3.org/1999/xlink" xml:space="preserve" xmlns:serif="http://www.serif.com/" style="fill-rule:evenodd;clip-rule:evenodd;stroke-linejoin:round;stroke-miterlimit:1.41421;"><path d="M16,8.329c4.234,0 7.671,3.437 7.671,7.671c0,4.234 -3.437,7.671 -7.671,7.671c-4.234,0 -7.671,-3.437 -7.671,-7.671c0,-4.234 3.437,-7.671 7.671,-7.671Zm0,4.646c1.67,0 3.025,1.355 3.025,3.025c0,1.67 -1.355,3.025 -3.025,3.025c-1.67,0 -3.025,-1.355 -3.025,-3.025c0,-1.67 1.355,-3.025 3.025,-3.025Z" style="fill:#9a0000;"/><path d="M16.112,7.33l0.111,0.002l0.111,0.004l0.111,0.004l0.111,0.007l0.11,0.007l0.11,0.01l0.109,0.01l0.109,0.012l0.109,0.013l0.108,0.014l0.108,0.016l0.107,0.017l0.107,0.019l0.107,0.019l0.106,0.021l0.105,0.023l0.106,0.023l0.104,0.025l0.105,0.026l0.103,0.028l0.103,0.029l0.103,0.029l0.102,0.031l0.102,0.033l0.101,0.033l0.1,0.035l0.1,0.036l0.1,0.037l0.099,0.038l0.098,0.04l0.097,0.04l0.097,0.042l0.097,0.043l0.096,0.044l0.095,0.045l0.094,0.047l0.094,0.047l0.093,0.048l0.093,0.05l0.091,0.051l0.092,0.051l0.09,0.053l0.09,0.054l0.089,0.055l0.088,0.056l0.088,0.057l0.087,0.057l0.086,0.059l0.085,0.06l0.085,0.061l0.083,0.062l0.083,0.063l0.083,0.064l0.081,0.065l0.081,0.066l0.08,0.066l0.079,0.068l0.078,0.068l0.077,0.07l0.077,0.07l0.075,0.072l0.075,0.072l0.074,0.073l0.073,0.074l0.072,0.075l0.072,0.075l0.07,0.077l0.07,0.077l0.068,0.078l0.068,0.079l0.066,0.08l0.066,0.081l0.065,0.081l0.064,0.083l0.063,0.083l0.062,0.083l0.061,0.085l0.06,0.085l0.059,0.086l0.057,0.087l0.057,0.088l0.056,0.088l0.055,0.089l0.054,0.09l0.053,0.09l0.051,0.092l0.051,0.091l0.05,0.093l0.048,0.093l0.047,0.094l0.047,0.094l0.045,0.095l0.044,0.096l0.043,0.097l0.042,0.097l0.04,0.097l0.04,0.098l0.038,0.099l0.037,0.1l0.036,0.1l0.035,0.1l0.033,0.101l0.033,0.102l0.031,0.102l0.029,0.103l0.029,0.103l0.028,0.103l0.026,0.105l0.025,0.104l0.023,0.106l0.023,0.105l0.021,0.106l0.019,0.107l0.019,0.107l0.017,0.107l0.016,0.108l0.014,0.108l0.013,0.109l0.012,0.109l0.01,0.109l0.01,0.11l0.007,0.11l0.007,0.111l0.004,0.111l0.004,0.111l0.002,0.111l0.001,0.112l-0.001,0.112l-0.002,0.111l-0.004,0.111l-0.004,0.111l-0.007,0.111l-0.007,0.11l-0.01,0.11l-0.01,0.109l-0.012,0.109l-0.013,0.109l-0.014,0.108l-0.016,0.108l-0.017,0.107l-0.019,0.107l-0.019,0.107l-0.021,0.106l-0.023,0.105l-0.023,0.106l-0.025,0.104l-0.026,0.105l-0.028,0.103l-0.029,0.103l-0.029,0.103l-0.031,0.102l-0.033,0.102l-0.033,0.101l-0.035,0.1l-0.036,0.1l-0.037,0.1l-0.038,0.099l-0.04,0.098l-0.04,0.097l-0.042,0.097l-0.043,0.097l-0.044,0.096l-0.045,0.095l-0.047,0.094l-0.047,0.094l-0.048,0.093l-0.05,0.093l-0.051,0.091l-0.051,0.092l-0.053,0.09l-0.054,0.09l-0.055,0.089l-0.056,0.088l-0.057,0.088l-0.057,0.087l-0.059,0.086l-0.06,0.085l-0.061,0.085l-0.062,0.083l-0.063,0.083l-0.064,0.083l-0.065,0.081l-0.066,0.081l-0.066,0.08l-0.068,0.079l-0.068,0.078l-0.07,0.077l-0.07,0.077l-0.072,0.075l-0.072,0.075l-0.073,0.074l-0.074,0.073l-0.075,0.072l-0.075,0.072l-0.077,0.07l-0.077,0.07l-0.078,0.068l-0.079,0.068l-0.08,0.066l-0.081,0.066l-0.081,0.065l-0.083,0.064l-0.083,0.063l-0.083,0.062l-0.085,0.061l-0.085,0.06l-0.086,0.059l-0.087,0.057l-0.088,0.057l-0.088,0.056l-0.089,0.055l-0.09,0.054l-0.09,0.053l-0.092,0.051l-0.091,0.051l-0.093,0.05l-0.093,0.048l-0.094,0.047l-0.094,0.047l-0.095,0.045l-0.096,0.044l-0.097,0.043l-0.097,0.042l-0.097,0.04l-0.098,0.04l-0.099,0.038l-0.1,0.037l-0.1,0.036l-0.1,0.035l-0.101,0.033l-0.102,0.033l-0.102,0.031l-0.103,0.029l-0.103,0.029l-0.103,0.028l-0.105,0.026l-0.104,0.025l-0.106,0.023l-0.105,0.023l-0.106,0.021l-0.107,0.019l-0.107,0.019l-0.107,0.017l-0.108,0.016l-0.108,0.014l-0.109,0.013l-0.109,0.012l-0.109,0.01l-0.11,0.01l-0.11,0.007l-0.111,0.007l-0.111,0.004l-0.111,0.004l-0.111,0.002l-0.112,0.001l-0.112,-0.001l-0.111,-0.002l-0.111,-0.004l-0.111,-0.004l-0.111,-0.007l-0.11,-0.007l-0.11,-0.01l-0.109,-0.01l-0.109,-0.012l-0.109,-0.013l-0.108,-0.014l-0.108,-0.016l-0.107,-0.017l-0.107,-0.019l-0.107,-0.019l-0.106,-0.021l-0.105,-0.023l-0.106,-0.023l-0.104,-0.025l-0.105,-0.026l-0.103,-0.028l-0.103,-0.029l-0.103,-0.029l-0.102,-0.031l-0.102,-0.033l-0.101,-0.033l-0.1,-0.035l-0.1,-0.036l-0.1,-0.037l-0.099,-0.038l-0.098,-0.04l-0.097,-0.04l-0.097,-0.042l-0.097,-0.043l-0.096,-0.044l-0.095,-0.045l-0.094,-0.047l-0.094,-0.047l-0.093,-0.048l-0.093,-0.05l-0.091,-0.051l-0.092,-0.051l-0.09,-0.053l-0.09,-0.054l-0.089,-0.055l-0.088,-0.056l-0.088,-0.057l-0.087,-0.057l-0.086,-0.059l-0.085,-0.06l-0.085,-0.061l-0.083,-0.062l-0.083,-0.063l-0.083,-0.064l-0.081,-0.065l-0.081,-0.066l-0.08,-0.066l-0.079,-0.068l-0.078,-0.068l-0.077,-0.07l-0.077,-0.07l-0.075,-0.072l-0.075,-0.072l-0.074,-0.073l-0.073,-0.074l-0.072,-0.075l-0.072,-0.075l-0.07,-0.077l-0.07,-0.077l-0.068,-0.078l-0.068,-0.079l-0.066,-0.08l-0.066,-0.081l-0.065,-0.081l-0.064,-0.083l-0.063,-0.083l-0.062,-0.083l-0.061,-0.085l-0.06,-0.085l-0.059,-0.086l-0.057,-0.087l-0.057,-0.088l-0.056,-0.088l-0.055,-0.089l-0.054,-0.09l-0.053,-0.09l-0.051,-0.092l-0.051,-0.091l-0.05,-0.093l-0.048,-0.093l-0.047,-0.094l-0.047,-0.094l-0.045,-0.095l-0.044,-0.096l-0.043,-0.097l-0.042,-0.097l-0.04,-0.097l-0.04,-0.098l-0.038,-0.099l-0.037,-0.1l-0.036,-0.1l-0.035,-0.1l-0.033,-0.101l-0.033,-0.102l-0.031,-0.102l-0.029,-0.103l-0.029,-0.103l-0.028,-0.103l-0.026,-0.105l-0.025,-0.104l-0.023,-0.106l-0.023,-0.105l-0.021,-0.106l-0.019,-0.107l-0.019,-0.107l-0.017,-0.107l-0.016,-0.108l-0.014,-0.108l-0.013,-0.109l-0.012,-0.109l-0.01,-0.109l-0.01,-0.11l-0.007,-0.11l-0.007,-0.111l-0.004,-0.111l-0.004,-0.111l-0.002,-0.111l-0.001,-0.112l0.001,-0.112l0.002,-0.111l0.004,-0.111l0.004,-0.111l0.007,-0.111l0.007,-0.11l0.01,-0.11l0.01,-0.109l0.012,-0.109l0.013,-0.109l0.014,-0.108l0.016,-0.108l0.017,-0.107l0.019,-0.107l0.019,-0.107l0.021,-0.106l0.023,-0.105l0.023,-0.106l0.025,-0.104l0.026,-0.105l0.028,-0.103l0.029,-0.103l0.029,-0.103l0.031,-0.102l0.033,-0.102l0.033,-0.101l0.035,-0.1l0.036,-0.1l0.037,-0.1l0.038,-0.099l0.04,-0.098l0.04,-0.097l0.042,-0.097l0.043,-0.097l0.044,-0.096l0.045,-0.095l0.047,-0.094l0.047,-0.094l0.048,-0.093l0.05,-0.093l0.051,-0.091l0.051,-0.092l0.053,-0.09l0.054,-0.09l0.055,-0.089l0.056,-0.088l0.057,-0.088l0.057,-0.087l0.059,-0.086l0.06,-0.085l0.061,-0.085l0.062,-0.083l0.063,-0.083l0.064,-0.083l0.065,-0.081l0.066,-0.081l0.066,-0.08l0.068,-0.079l0.068,-0.078l0.07,-0.077l0.07,-0.077l0.072,-0.075l0.072,-0.075l0.073,-0.074l0.074,-0.073l0.075,-0.072l0.075,-0.072l0.077,-0.07l0.077,-0.07l0.078,-0.068l0.079,-0.068l0.08,-0.066l0.081,-0.066l0.081,-0.065l0.083,-0.064l0.083,-0.063l0.083,-0.062l0.085,-0.061l0.085,-0.06l0.086,-0.059l0.087,-0.057l0.088,-0.057l0.088,-0.056l0.089,-0.055l0.09,-0.054l0.09,-0.053l0.092,-0.051l0.091,-0.051l0.093,-0.05l0.093,-0.048l0.094,-0.047l0.094,-0.047l0.095,-0.045l0.096,-0.044l0.097,-0.043l0.097,-0.042l0.097,-0.04l0.098,-0.04l0.099,-0.038l0.1,-0.037l0.1,-0.036l0.1,-0.035l0.101,-0.033l0.102,-0.033l0.102,-0.031l0.103,-0.029l0.103,-0.029l0.103,-0.028l0.105,-0.026l0.104,-0.025l0.106,-0.023l0.105,-0.023l0.106,-0.021l0.107,-0.019l0.107,-0.019l0.107,-0.017l0.108,-0.016l0.108,-0.014l0.109,-0.013l0.109,-0.012l0.109,-0.01l0.11,-0.01l0.11,-0.007l0.111,-0.007l0.111,-0.004l0.111,-0.004l0.111,-0.002l0.112,-0.001l0.112,0.001Zm-0.211,1l-0.099,0.002l-0.098,0.003l-0.098,0.004l-0.098,0.006l-0.098,0.007l-0.097,0.008l-0.097,0.009l-0.096,0.01l-0.096,0.012l-0.096,0.013l-0.096,0.014l-0.095,0.015l-0.094,0.016l-0.094,0.018l-0.094,0.018l-0.094,0.02l-0.092,0.021l-0.093,0.022l-0.092,0.023l-0.092,0.024l-0.091,0.025l-0.091,0.027l-0.09,0.027l-0.09,0.029l-0.089,0.03l-0.089,0.03l-0.088,0.032l-0.088,0.033l-0.088,0.034l-0.086,0.035l-0.087,0.035l-0.085,0.037l-0.086,0.038l-0.084,0.039l-0.084,0.04l-0.084,0.041l-0.083,0.042l-0.082,0.043l-0.082,0.044l-0.081,0.044l-0.081,0.046l-0.08,0.047l-0.079,0.047l-0.079,0.049l-0.078,0.049l-0.078,0.051l-0.077,0.051l-0.076,0.052l-0.075,0.053l-0.075,0.054l-0.074,0.055l-0.074,0.056l-0.073,0.056l-0.072,0.058l-0.071,0.058l-0.071,0.059l-0.07,0.06l-0.069,0.06l-0.069,0.062l-0.067,0.062l-0.067,0.063l-0.067,0.064l-0.065,0.065l-0.065,0.065l-0.064,0.067l-0.063,0.067l-0.062,0.067l-0.062,0.069l-0.06,0.069l-0.06,0.07l-0.059,0.071l-0.058,0.071l-0.058,0.072l-0.056,0.073l-0.056,0.074l-0.055,0.074l-0.054,0.075l-0.053,0.075l-0.052,0.076l-0.051,0.077l-0.051,0.078l-0.049,0.078l-0.049,0.079l-0.047,0.079l-0.047,0.08l-0.046,0.081l-0.044,0.081l-0.044,0.082l-0.043,0.082l-0.042,0.083l-0.041,0.084l-0.04,0.084l-0.039,0.084l-0.038,0.086l-0.037,0.085l-0.035,0.087l-0.035,0.086l-0.034,0.088l-0.033,0.088l-0.032,0.088l-0.03,0.089l-0.03,0.089l-0.029,0.09l-0.027,0.09l-0.027,0.091l-0.025,0.091l-0.024,0.092l-0.023,0.092l-0.022,0.093l-0.021,0.092l-0.02,0.094l-0.018,0.094l-0.018,0.094l-0.016,0.094l-0.015,0.095l-0.014,0.096l-0.013,0.096l-0.012,0.096l-0.01,0.096l-0.009,0.097l-0.008,0.097l-0.007,0.098l-0.006,0.098l-0.004,0.098l-0.003,0.098l-0.002,0.099l-0.001,0.099l0.001,0.099l0.002,0.099l0.003,0.098l0.004,0.098l0.006,0.098l0.007,0.098l0.008,0.097l0.009,0.097l0.01,0.096l0.012,0.096l0.013,0.096l0.014,0.096l0.015,0.095l0.016,0.094l0.018,0.094l0.018,0.094l0.02,0.094l0.021,0.092l0.022,0.093l0.023,0.092l0.024,0.092l0.025,0.091l0.027,0.091l0.027,0.09l0.029,0.09l0.03,0.089l0.03,0.089l0.032,0.088l0.033,0.088l0.034,0.088l0.035,0.086l0.035,0.087l0.037,0.085l0.038,0.086l0.039,0.084l0.04,0.084l0.041,0.084l0.042,0.083l0.043,0.082l0.044,0.082l0.044,0.081l0.046,0.081l0.047,0.08l0.047,0.079l0.049,0.079l0.049,0.078l0.051,0.078l0.051,0.077l0.052,0.076l0.053,0.075l0.054,0.075l0.055,0.074l0.056,0.074l0.056,0.073l0.058,0.072l0.058,0.071l0.059,0.071l0.06,0.07l0.06,0.069l0.062,0.069l0.062,0.067l0.063,0.067l0.064,0.067l0.065,0.065l0.065,0.065l0.067,0.064l0.067,0.063l0.067,0.062l0.069,0.062l0.069,0.06l0.07,0.06l0.071,0.059l0.071,0.058l0.072,0.058l0.073,0.056l0.074,0.056l0.074,0.055l0.075,0.054l0.075,0.053l0.076,0.052l0.077,0.051l0.078,0.051l0.078,0.049l0.079,0.049l0.079,0.047l0.08,0.047l0.081,0.046l0.081,0.044l0.082,0.044l0.082,0.043l0.083,0.042l0.084,0.041l0.084,0.04l0.084,0.039l0.086,0.038l0.085,0.037l0.087,0.035l0.086,0.035l0.088,0.034l0.088,0.033l0.088,0.032l0.089,0.03l0.089,0.03l0.09,0.029l0.09,0.027l0.091,0.027l0.091,0.025l0.092,0.024l0.092,0.023l0.093,0.022l0.092,0.021l0.094,0.02l0.094,0.018l0.094,0.018l0.094,0.016l0.095,0.015l0.096,0.014l0.096,0.013l0.096,0.012l0.096,0.01l0.097,0.009l0.097,0.008l0.098,0.007l0.098,0.006l0.098,0.004l0.098,0.003l0.099,0.002l0.099,0.001l0.099,-0.001l0.099,-0.002l0.098,-0.003l0.098,-0.004l0.098,-0.006l0.098,-0.007l0.097,-0.008l0.097,-0.009l0.096,-0.01l0.096,-0.012l0.096,-0.013l0.096,-0.014l0.095,-0.015l0.094,-0.016l0.094,-0.018l0.094,-0.018l0.094,-0.02l0.092,-0.021l0.093,-0.022l0.092,-0.023l0.092,-0.024l0.091,-0.025l0.091,-0.027l0.09,-0.027l0.09,-0.029l0.089,-0.03l0.089,-0.03l0.088,-0.032l0.088,-0.033l0.088,-0.034l0.086,-0.035l0.087,-0.035l0.085,-0.037l0.086,-0.038l0.084,-0.039l0.084,-0.04l0.084,-0.041l0.083,-0.042l0.082,-0.043l0.082,-0.044l0.081,-0.044l0.081,-0.046l0.08,-0.047l0.079,-0.047l0.079,-0.049l0.078,-0.049l0.078,-0.051l0.077,-0.051l0.076,-0.052l0.075,-0.053l0.075,-0.054l0.074,-0.055l0.074,-0.056l0.073,-0.056l0.072,-0.058l0.071,-0.058l0.071,-0.059l0.07,-0.06l0.069,-0.06l0.069,-0.062l0.067,-0.062l0.067,-0.063l0.067,-0.064l0.065,-0.065l0.065,-0.065l0.064,-0.067l0.063,-0.067l0.062,-0.067l0.062,-0.069l0.06,-0.069l0.06,-0.07l0.059,-0.071l0.058,-0.071l0.058,-0.072l0.056,-0.073l0.056,-0.074l0.055,-0.074l0.054,-0.075l0.053,-0.075l0.052,-0.076l0.051,-0.077l0.051,-0.078l0.049,-0.078l0.049,-0.079l0.047,-0.079l0.047,-0.08l0.046,-0.081l0.044,-0.081l0.044,-0.082l0.043,-0.082l0.042,-0.083l0.041,-0.084l0.04,-0.084l0.039,-0.084l0.038,-0.086l0.037,-0.085l0.035,-0.087l0.035,-0.086l0.034,-0.088l0.033,-0.088l0.032,-0.088l0.03,-0.089l0.03,-0.089l0.029,-0.09l0.027,-0.09l0.027,-0.091l0.025,-0.091l0.024,-0.092l0.023,-0.092l0.022,-0.093l0.021,-0.092l0.02,-0.094l0.018,-0.094l0.018,-0.094l0.016,-0.094l0.015,-0.095l0.014,-0.096l0.013,-0.096l0.012,-0.096l0.01,-0.096l0.009,-0.097l0.008,-0.097l0.007,-0.098l0.006,-0.098l0.004,-0.098l0.003,-0.098l0.002,-0.099l0.001,-0.099l-0.001,-0.099l-0.002,-0.099l-0.003,-0.098l-0.004,-0.098l-0.006,-0.098l-0.007,-0.098l-0.008,-0.097l-0.009,-0.097l-0.01,-0.096l-0.012,-0.096l-0.013,-0.096l-0.014,-0.096l-0.015,-0.095l-0.016,-0.094l-0.018,-0.094l-0.018,-0.094l-0.02,-0.094l-0.021,-0.092l-0.022,-0.093l-0.023,-0.092l-0.024,-0.092l-0.025,-0.091l-0.027,-0.091l-0.027,-0.09l-0.029,-0.09l-0.03,-0.089l-0.03,-0.089l-0.032,-0.088l-0.033,-0.088l-0.034,-0.088l-0.035,-0.086l-0.035,-0.087l-0.037,-0.085l-0.038,-0.086l-0.039,-0.084l-0.04,-0.084l-0.041,-0.084l-0.042,-0.083l-0.043,-0.082l-0.044,-0.082l-0.044,-0.081l-0.046,-0.081l-0.047,-0.08l-0.047,-0.079l-0.049,-0.079l-0.049,-0.078l-0.051,-0.078l-0.051,-0.077l-0.052,-0.076l-0.053,-0.075l-0.054,-0.075l-0.055,-0.074l-0.056,-0.074l-0.056,-0.073l-0.058,-0.072l-0.058,-0.071l-0.059,-0.071l-0.06,-0.07l-0.06,-0.069l-0.062,-0.069l-0.062,-0.067l-0.063,-0.067l-0.064,-0.067l-0.065,-0.065l-0.065,-0.065l-0.067,-0.064l-0.067,-0.063l-0.067,-0.062l-0.069,-0.062l-0.069,-0.06l-0.07,-0.06l-0.071,-0.059l-0.071,-0.058l-0.072,-0.058l-0.073,-0.056l-0.074,-0.056l-0.074,-0.055l-0.075,-0.054l-0.075,-0.053l-0.076,-0.052l-0.077,-0.051l-0.078,-0.051l-0.078,-0.049l-0.079,-0.049l-0.079,-0.047l-0.08,-0.047l-0.081,-0.046l-0.081,-0.044l-0.082,-0.044l-0.082,-0.043l-0.083,-0.042l-0.084,-0.041l-0.084,-0.04l-0.084,-0.039l-0.086,-0.038l-0.085,-0.037l-0.087,-0.035l-0.086,-0.035l-0.088,-0.034l-0.088,-0.033l-0.088,-0.032l-0.089,-0.03l-0.089,-0.03l-0.09,-0.029l-0.09,-0.027l-0.091,-0.027l-0.091,-0.025l-0.092,-0.024l-0.092,-0.023l-0.093,-0.022l-0.092,-0.021l-0.094,-0.02l-0.094,-0.018l-0.094,-0.018l-0.094,-0.016l-0.095,-0.015l-0.096,-0.014l-0.096,-0.013l-0.096,-0.012l-0.096,-0.01l-0.097,-0.009l-0.097,-0.008l-0.098,-0.007l-0.098,-0.006l-0.098,-0.004l-0.098,-0.003l-0.099,-0.002l-0.099,-0.001l-0.099,0.001Zm0.177,4.646l0.078,0.003l0.077,0.004l0.076,0.007l0.076,0.009l0.075,0.011l0.075,0.012l0.074,0.014l0.074,0.016l0.073,0.018l0.072,0.019l0.071,0.022l0.071,0.023l0.07,0.024l0.069,0.027l0.068,0.028l0.068,0.029l0.066,0.031l0.066,0.033l0.065,0.034l0.063,0.036l0.063,0.037l0.062,0.039l0.061,0.04l0.06,0.041l0.059,0.043l0.057,0.044l0.057,0.046l0.055,0.047l0.055,0.048l0.053,0.049l0.052,0.051l0.051,0.052l0.049,0.053l0.048,0.055l0.047,0.055l0.046,0.057l0.044,0.057l0.043,0.059l0.041,0.06l0.04,0.061l0.039,0.062l0.037,0.063l0.036,0.063l0.034,0.065l0.033,0.066l0.031,0.066l0.029,0.068l0.028,0.068l0.027,0.069l0.024,0.07l0.023,0.071l0.022,0.071l0.019,0.072l0.018,0.073l0.016,0.074l0.014,0.074l0.012,0.075l0.011,0.075l0.009,0.076l0.007,0.076l0.004,0.077l0.003,0.078l0.001,0.078l-0.001,0.078l-0.003,0.078l-0.004,0.077l-0.007,0.076l-0.009,0.076l-0.011,0.075l-0.012,0.075l-0.014,0.074l-0.016,0.074l-0.018,0.073l-0.019,0.072l-0.022,0.071l-0.023,0.071l-0.024,0.07l-0.027,0.069l-0.028,0.068l-0.029,0.068l-0.031,0.066l-0.033,0.066l-0.034,0.065l-0.036,0.063l-0.037,0.063l-0.039,0.062l-0.04,0.061l-0.041,0.06l-0.043,0.059l-0.044,0.057l-0.046,0.057l-0.047,0.055l-0.048,0.055l-0.049,0.053l-0.051,0.052l-0.052,0.051l-0.053,0.049l-0.055,0.048l-0.055,0.047l-0.057,0.046l-0.057,0.044l-0.059,0.043l-0.06,0.041l-0.061,0.04l-0.062,0.039l-0.063,0.037l-0.063,0.036l-0.065,0.034l-0.066,0.033l-0.066,0.031l-0.068,0.029l-0.068,0.028l-0.069,0.027l-0.07,0.024l-0.071,0.023l-0.071,0.022l-0.072,0.019l-0.073,0.018l-0.074,0.016l-0.074,0.014l-0.075,0.012l-0.075,0.011l-0.076,0.009l-0.076,0.007l-0.077,0.004l-0.078,0.003l-0.078,0.001l-0.078,-0.001l-0.078,-0.003l-0.077,-0.004l-0.076,-0.007l-0.076,-0.009l-0.075,-0.011l-0.075,-0.012l-0.074,-0.014l-0.074,-0.016l-0.073,-0.018l-0.072,-0.019l-0.071,-0.022l-0.071,-0.023l-0.07,-0.024l-0.069,-0.027l-0.068,-0.028l-0.068,-0.029l-0.066,-0.031l-0.066,-0.033l-0.065,-0.034l-0.063,-0.036l-0.063,-0.037l-0.062,-0.039l-0.061,-0.04l-0.06,-0.041l-0.059,-0.043l-0.057,-0.044l-0.057,-0.046l-0.055,-0.047l-0.055,-0.048l-0.053,-0.049l-0.052,-0.051l-0.051,-0.052l-0.049,-0.053l-0.048,-0.055l-0.047,-0.055l-0.046,-0.057l-0.044,-0.057l-0.043,-0.059l-0.041,-0.06l-0.04,-0.061l-0.039,-0.062l-0.037,-0.063l-0.036,-0.063l-0.034,-0.065l-0.033,-0.066l-0.031,-0.066l-0.029,-0.068l-0.028,-0.068l-0.027,-0.069l-0.024,-0.07l-0.023,-0.071l-0.022,-0.071l-0.019,-0.072l-0.018,-0.073l-0.016,-0.074l-0.014,-0.074l-0.012,-0.075l-0.011,-0.075l-0.009,-0.076l-0.007,-0.076l-0.004,-0.077l-0.003,-0.078l-0.001,-0.078l0.001,-0.078l0.003,-0.078l0.004,-0.077l0.007,-0.076l0.009,-0.076l0.011,-0.075l0.012,-0.075l0.014,-0.074l0.016,-0.074l0.018,-0.073l0.019,-0.072l0.022,-0.071l0.023,-0.071l0.024,-0.07l0.027,-0.069l0.028,-0.068l0.029,-0.068l0.031,-0.066l0.033,-0.066l0.034,-0.065l0.036,-0.063l0.037,-0.063l0.039,-0.062l0.04,-0.061l0.041,-0.06l0.043,-0.059l0.044,-0.057l0.046,-0.057l0.047,-0.055l0.048,-0.055l0.049,-0.053l0.051,-0.052l0.052,-0.051l0.053,-0.049l0.055,-0.048l0.055,-0.047l0.057,-0.046l0.057,-0.044l0.059,-0.043l0.06,-0.041l0.061,-0.04l0.062,-0.039l0.063,-0.037l0.063,-0.036l0.065,-0.034l0.066,-0.033l0.066,-0.031l0.068,-0.029l0.068,-0.028l0.069,-0.027l0.07,-0.024l0.071,-0.023l0.071,-0.022l0.072,-0.019l0.073,-0.018l0.074,-0.016l0.074,-0.014l0.075,-0.012l0.075,-0.011l0.076,-0.009l0.076,-0.007l0.077,-0.004l0.078,-0.003l0.078,-0.001l0.078,0.001Zm-0.131,0.999l-0.052,0.002l-0.052,0.004l-0.051,0.004l-0.051,0.006l-0.05,0.007l-0.05,0.008l-0.05,0.01l-0.049,0.011l-0.048,0.011l-0.048,0.013l-0.048,0.015l-0.047,0.015l-0.047,0.016l-0.046,0.018l-0.045,0.019l-0.045,0.019l-0.045,0.021l-0.044,0.022l-0.043,0.023l-0.043,0.024l-0.042,0.024l-0.041,0.026l-0.041,0.027l-0.04,0.028l-0.04,0.029l-0.038,0.03l-0.038,0.03l-0.038,0.032l-0.036,0.032l-0.036,0.033l-0.035,0.034l-0.034,0.035l-0.033,0.036l-0.032,0.036l-0.032,0.038l-0.03,0.038l-0.03,0.038l-0.029,0.04l-0.028,0.04l-0.027,0.041l-0.026,0.041l-0.024,0.042l-0.024,0.043l-0.023,0.043l-0.022,0.044l-0.021,0.045l-0.019,0.045l-0.019,0.045l-0.018,0.046l-0.016,0.047l-0.015,0.047l-0.015,0.048l-0.013,0.048l-0.011,0.048l-0.011,0.049l-0.01,0.05l-0.008,0.05l-0.007,0.05l-0.006,0.051l-0.004,0.051l-0.004,0.052l-0.002,0.052l0,0.053l0,0.053l0.002,0.052l0.004,0.052l0.004,0.051l0.006,0.051l0.007,0.05l0.008,0.05l0.01,0.05l0.011,0.049l0.011,0.048l0.013,0.048l0.015,0.048l0.015,0.047l0.016,0.047l0.018,0.046l0.019,0.045l0.019,0.045l0.021,0.045l0.022,0.044l0.023,0.043l0.024,0.043l0.024,0.042l0.026,0.041l0.027,0.041l0.028,0.04l0.029,0.04l0.03,0.038l0.03,0.038l0.032,0.038l0.032,0.036l0.033,0.036l0.034,0.035l0.035,0.034l0.036,0.033l0.036,0.032l0.038,0.032l0.038,0.03l0.038,0.03l0.04,0.029l0.04,0.028l0.041,0.027l0.041,0.026l0.042,0.024l0.043,0.024l0.043,0.023l0.044,0.022l0.045,0.021l0.045,0.019l0.045,0.019l0.046,0.018l0.047,0.016l0.047,0.015l0.048,0.015l0.048,0.013l0.048,0.011l0.049,0.011l0.05,0.01l0.05,0.008l0.05,0.007l0.051,0.006l0.051,0.004l0.052,0.004l0.052,0.002l0.053,0l0.053,0l0.052,-0.002l0.052,-0.004l0.051,-0.004l0.051,-0.006l0.05,-0.007l0.05,-0.008l0.05,-0.01l0.049,-0.011l0.048,-0.011l0.048,-0.013l0.048,-0.015l0.047,-0.015l0.047,-0.016l0.046,-0.018l0.045,-0.019l0.045,-0.019l0.045,-0.021l0.044,-0.022l0.043,-0.023l0.043,-0.024l0.042,-0.024l0.041,-0.026l0.041,-0.027l0.04,-0.028l0.04,-0.029l0.038,-0.03l0.038,-0.03l0.038,-0.032l0.036,-0.032l0.036,-0.033l0.035,-0.034l0.034,-0.035l0.033,-0.036l0.032,-0.036l0.032,-0.038l0.03,-0.038l0.03,-0.038l0.029,-0.04l0.028,-0.04l0.027,-0.041l0.026,-0.041l0.024,-0.042l0.024,-0.043l0.023,-0.043l0.022,-0.044l0.021,-0.045l0.019,-0.045l0.019,-0.045l0.018,-0.046l0.016,-0.047l0.015,-0.047l0.015,-0.048l0.013,-0.048l0.011,-0.048l0.011,-0.049l0.01,-0.05l0.008,-0.05l0.007,-0.05l0.006,-0.051l0.004,-0.051l0.004,-0.052l0.002,-0.052l0,-0.053l0,-0.053l-0.002,-0.052l-0.004,-0.052l-0.004,-0.051l-0.006,-0.051l-0.007,-0.05l-0.008,-0.05l-0.01,-0.05l-0.011,-0.049l-0.011,-0.048l-0.013,-0.048l-0.015,-0.048l-0.015,-0.047l-0.016,-0.047l-0.018,-0.046l-0.019,-0.045l-0.019,-0.045l-0.021,-0.045l-0.022,-0.044l-0.023,-0.043l-0.024,-0.043l-0.024,-0.042l-0.026,-0.041l-0.027,-0.041l-0.028,-0.04l-0.029,-0.04l-0.03,-0.038l-0.03,-0.038l-0.032,-0.038l-0.032,-0.036l-0.033,-0.036l-0.034,-0.035l-0.035,-0.034l-0.036,-0.033l-0.036,-0.032l-0.038,-0.032l-0.038,-0.03l-0.038,-0.03l-0.04,-0.029l-0.04,-0.028l-0.041,-0.027l-0.041,-0.026l-0.042,-0.024l-0.043,-0.024l-0.043,-0.023l-0.044,-0.022l-0.045,-0.021l-0.045,-0.019l-0.045,-0.019l-0.046,-0.018l-0.047,-0.016l-0.047,-0.015l-0.048,-0.015l-0.048,-0.013l-0.048,-0.011l-0.049,-0.011l-0.05,-0.01l-0.05,-0.008l-0.05,-0.007l-0.051,-0.006l-0.051,-0.004l-0.052,-0.004l-0.052,-0.002l-0.053,0l-0.053,0Z" style="fill:#fff;"/></svg>