<?xml version="1.0" encoding="UTF-8" standalone="no"?><!DOCTYPE svg PUBLIC "-//W3C//DTD SVG 1.1//EN" "http://www.w3.org/Graphics/SVG/1.1/DTD/svg11.dtd"><svg width="100%" height="100%" viewBox="0 0 32 32" version="1.1" xmlns="http://www.w3.org/2000/svg" xmlns:xlink="http://www.w3.org/1999/xlink" xml:space="preserve" xmlns:serif="http://www.serif.com/" style="fill-rule:evenodd;clip-rule:evenodd;stroke-linejoin:round;stroke-miterlimit:1.41421;"><path d="M9.715,11.584c2.072,-3.491 6.898,-7.2 17.315,-5.432c-4.365,0.424 -7.318,1.472 -9.161,2.395c2.477,0.62 4.479,2.444 5.347,4.813c0.302,0.823 0.466,1.712 0.466,2.64c0,1.643 -0.517,3.167 -1.397,4.416c-2.072,3.491 -6.898,7.2 -17.315,5.432c4.365,-0.424 7.318,-1.472 9.161,-2.395c-3.338,-0.836 -5.813,-3.858 -5.813,-7.453c0,-1.643 0.517,-3.167 1.397,-4.416Zm6.285,1.39c1.67,0 3.026,1.356 3.026,3.026c0,1.67 -1.356,3.026 -3.026,3.026c-1.67,0 -3.026,-1.356 -3.026,-3.026c0,-1.67 1.356,-3.026 3.026,-3.026Z" style="fill:#9a0000;"/><path d="M22.146,4.697l0.21,0.002l0.212,0.004l0.213,0.006l0.216,0.007l0.217,0.009l0.22,0.011l0.221,0.013l0.223,0.015l0.224,0.016l0.227,0.018l0.228,0.02l0.231,0.022l0.232,0.024l0.234,0.026l0.236,0.028l0.238,0.029l0.24,0.032l0.242,0.033l0.244,0.036l0.246,0.037l0.247,0.04l0.247,0.041l0.091,0.019l0.088,0.028l0.086,0.036l0.082,0.044l0.077,0.051l0.072,0.058l0.067,0.064l0.061,0.07l0.053,0.076l0.047,0.08l0.039,0.085l0.03,0.087l0.023,0.09l0.014,0.092l0.006,0.093l-0.003,0.092l-0.012,0.092l-0.02,0.091l-0.028,0.088l-0.037,0.086l-0.044,0.081l-0.052,0.077l-0.058,0.072l-0.065,0.067l-0.071,0.059l-0.076,0.054l-0.081,0.046l-0.084,0.038l-0.088,0.03l-0.09,0.022l-0.092,0.013l-0.201,0.02l-0.196,0.021l-0.194,0.021l-0.192,0.023l-0.19,0.023l-0.188,0.024l-0.186,0.025l-0.183,0.025l-0.182,0.026l-0.18,0.027l-0.178,0.028l-0.175,0.028l-0.174,0.029l-0.172,0.03l-0.17,0.03l-0.168,0.031l-0.165,0.032l-0.164,0.032l-0.162,0.033l-0.16,0.033l-0.158,0.034l-0.156,0.034l-0.155,0.035l-0.152,0.035l-0.15,0.036l-0.149,0.036l-0.147,0.037l-0.144,0.037l-0.143,0.038l-0.141,0.037l-0.139,0.039l-0.138,0.038l-0.135,0.039l-0.134,0.039l-0.132,0.04l-0.13,0.04l-0.128,0.04l-0.126,0.04l-0.125,0.041l-0.122,0.041l-0.121,0.041l-0.12,0.041l-0.054,0.019l0.108,0.065l0.111,0.07l0.111,0.072l0.109,0.074l0.108,0.074l0.107,0.077l0.105,0.078l0.104,0.08l0.104,0.081l0.101,0.083l0.101,0.084l0.099,0.085l0.098,0.087l0.097,0.089l0.095,0.09l0.094,0.091l0.092,0.093l0.091,0.094l0.09,0.096l0.088,0.097l0.087,0.098l0.085,0.099l0.084,0.101l0.083,0.102l0.08,0.104l0.08,0.104l0.077,0.106l0.077,0.107l0.074,0.108l0.073,0.11l0.072,0.11l0.069,0.112l0.068,0.113l0.067,0.114l0.065,0.115l0.063,0.116l0.061,0.117l0.06,0.119l0.058,0.119l0.056,0.12l0.054,0.122l0.052,0.122l0.051,0.123l0.049,0.124l0.046,0.125l0.032,0.088l0.031,0.088l0.03,0.089l0.029,0.088l0.027,0.09l0.027,0.089l0.026,0.09l0.025,0.091l0.024,0.091l0.023,0.091l0.023,0.091l0.021,0.092l0.02,0.093l0.019,0.092l0.018,0.093l0.018,0.094l0.016,0.094l0.015,0.094l0.014,0.094l0.014,0.095l0.012,0.095l0.011,0.095l0.01,0.096l0.009,0.095l0.008,0.097l0.007,0.096l0.006,0.097l0.005,0.097l0.003,0.097l0.003,0.097l0.002,0.098l0,0.098l0,0.087l-0.001,0.086l-0.002,0.087l-0.004,0.088l-0.008,0.17l-0.012,0.171l-0.015,0.17l-0.018,0.169l-0.022,0.168l-0.024,0.168l-0.028,0.166l-0.031,0.165l-0.035,0.164l-0.037,0.163l-0.04,0.162l-0.044,0.161l-0.046,0.159l-0.049,0.159l-0.053,0.156l-0.055,0.156l-0.058,0.154l-0.06,0.153l-0.064,0.151l-0.066,0.15l-0.069,0.148l-0.072,0.147l-0.074,0.145l-0.077,0.143l-0.08,0.142l-0.082,0.141l-0.085,0.138l-0.087,0.137l-0.089,0.135l-0.069,0.099l-0.034,0.058l-0.055,0.09l-0.056,0.089l-0.057,0.089l-0.058,0.09l-0.059,0.089l-0.06,0.09l-0.062,0.089l-0.063,0.09l-0.063,0.089l-0.065,0.089l-0.067,0.09l-0.067,0.089l-0.069,0.088l-0.07,0.089l-0.071,0.089l-0.072,0.088l-0.074,0.088l-0.075,0.088l-0.076,0.088l-0.077,0.087l-0.079,0.087l-0.08,0.087l-0.081,0.086l-0.083,0.086l-0.084,0.086l-0.085,0.085l-0.087,0.085l-0.088,0.085l-0.089,0.084l-0.091,0.084l-0.092,0.083l-0.093,0.082l-0.095,0.082l-0.096,0.082l-0.097,0.081l-0.099,0.081l-0.101,0.079l-0.101,0.08l-0.103,0.078l-0.105,0.078l-0.106,0.078l-0.107,0.076l-0.109,0.076l-0.11,0.075l-0.112,0.075l-0.113,0.074l-0.115,0.073l-0.116,0.072l-0.117,0.071l-0.119,0.071l-0.121,0.069l-0.122,0.069l-0.123,0.068l-0.125,0.067l-0.127,0.066l-0.128,0.065l-0.129,0.064l-0.131,0.064l-0.133,0.062l-0.134,0.061l-0.135,0.06l-0.138,0.059l-0.138,0.058l-0.14,0.058l-0.142,0.055l-0.143,0.055l-0.145,0.054l-0.147,0.053l-0.148,0.051l-0.149,0.05l-0.152,0.049l-0.152,0.048l-0.155,0.047l-0.156,0.045l-0.157,0.044l-0.159,0.043l-0.161,0.041l-0.162,0.041l-0.164,0.039l-0.166,0.037l-0.167,0.037l-0.169,0.035l-0.171,0.033l-0.172,0.032l-0.174,0.031l-0.175,0.029l-0.177,0.028l-0.179,0.027l-0.181,0.025l-0.182,0.023l-0.184,0.022l-0.185,0.021l-0.188,0.019l-0.189,0.017l-0.19,0.016l-0.193,0.014l-0.194,0.013l-0.196,0.011l-0.198,0.01l-0.199,0.007l-0.201,0.007l-0.203,0.004l-0.205,0.003l-0.206,0.001l-0.209,0l-0.21,-0.002l-0.212,-0.004l-0.214,-0.006l-0.215,-0.007l-0.217,-0.009l-0.22,-0.011l-0.221,-0.013l-0.223,-0.015l-0.224,-0.016l-0.227,-0.018l-0.228,-0.02l-0.231,-0.022l-0.232,-0.024l-0.234,-0.026l-0.236,-0.028l-0.238,-0.029l-0.24,-0.032l-0.242,-0.033l-0.244,-0.036l-0.246,-0.037l-0.247,-0.04l-0.247,-0.041l-0.091,-0.019l-0.088,-0.028l-0.086,-0.036l-0.082,-0.044l-0.077,-0.051l-0.072,-0.058l-0.067,-0.064l-0.061,-0.07l-0.053,-0.076l-0.047,-0.08l-0.039,-0.085l-0.03,-0.087l-0.023,-0.09l-0.014,-0.092l-0.006,-0.093l0.003,-0.092l0.012,-0.092l0.02,-0.091l0.028,-0.088l0.037,-0.086l0.044,-0.081l0.052,-0.077l0.058,-0.072l0.065,-0.067l0.071,-0.059l0.076,-0.054l0.081,-0.045l0.084,-0.039l0.088,-0.03l0.09,-0.022l0.092,-0.013l0.201,-0.02l0.196,-0.021l0.194,-0.021l0.192,-0.023l0.19,-0.023l0.188,-0.024l0.186,-0.025l0.183,-0.025l0.182,-0.026l0.18,-0.027l0.178,-0.028l0.175,-0.028l0.174,-0.029l0.172,-0.03l0.17,-0.03l0.168,-0.031l0.165,-0.032l0.164,-0.032l0.162,-0.033l0.16,-0.033l0.158,-0.034l0.156,-0.034l0.155,-0.035l0.152,-0.035l0.15,-0.036l0.149,-0.036l0.147,-0.037l0.144,-0.037l0.143,-0.038l0.141,-0.037l0.139,-0.039l0.138,-0.038l0.135,-0.039l0.134,-0.039l0.132,-0.04l0.13,-0.04l0.128,-0.04l0.126,-0.04l0.125,-0.041l0.122,-0.041l0.121,-0.041l0.12,-0.041l0.054,-0.019l-0.056,-0.034l-0.076,-0.046l-0.075,-0.048l-0.074,-0.048l-0.075,-0.048l-0.073,-0.05l-0.073,-0.05l-0.072,-0.051l-0.072,-0.052l-0.072,-0.052l-0.07,-0.053l-0.071,-0.054l-0.069,-0.054l-0.069,-0.056l-0.069,-0.055l-0.068,-0.057l-0.067,-0.057l-0.067,-0.058l-0.066,-0.059l-0.065,-0.059l-0.065,-0.06l-0.065,-0.06l-0.063,-0.061l-0.063,-0.062l-0.063,-0.062l-0.062,-0.063l-0.061,-0.064l-0.06,-0.064l-0.06,-0.065l-0.059,-0.066l-0.059,-0.066l-0.058,-0.066l-0.057,-0.068l-0.057,-0.068l-0.055,-0.068l-0.056,-0.069l-0.054,-0.07l-0.054,-0.07l-0.053,-0.071l-0.053,-0.071l-0.051,-0.072l-0.051,-0.072l-0.05,-0.073l-0.05,-0.074l-0.049,-0.074l-0.048,-0.074l-0.047,-0.075l-0.047,-0.076l-0.046,-0.076l-0.045,-0.076l-0.044,-0.078l-0.044,-0.077l-0.042,-0.078l-0.042,-0.079l-0.042,-0.079l-0.04,-0.079l-0.04,-0.08l-0.039,-0.081l-0.038,-0.081l-0.037,-0.081l-0.036,-0.082l-0.036,-0.082l-0.035,-0.083l-0.034,-0.083l-0.033,-0.084l-0.032,-0.084l-0.031,-0.084l-0.031,-0.085l-0.03,-0.085l-0.029,-0.086l-0.028,-0.086l-0.027,-0.086l-0.026,-0.087l-0.025,-0.088l-0.025,-0.087l-0.023,-0.088l-0.023,-0.088l-0.022,-0.089l-0.02,-0.089l-0.02,-0.089l-0.019,-0.09l-0.018,-0.09l-0.018,-0.09l-0.016,-0.091l-0.015,-0.091l-0.014,-0.091l-0.014,-0.092l-0.012,-0.092l-0.012,-0.092l-0.01,-0.092l-0.01,-0.093l-0.008,-0.093l-0.008,-0.093l-0.006,-0.094l-0.006,-0.094l-0.004,-0.094l-0.004,-0.094l-0.002,-0.094l-0.002,-0.095l0,-0.095l0,-0.087l0.001,-0.086l0.002,-0.087l0.004,-0.088l0.008,-0.17l0.012,-0.171l0.015,-0.17l0.018,-0.169l0.022,-0.168l0.024,-0.168l0.028,-0.166l0.031,-0.165l0.035,-0.164l0.037,-0.163l0.04,-0.162l0.044,-0.161l0.046,-0.159l0.049,-0.159l0.053,-0.156l0.055,-0.156l0.058,-0.154l0.06,-0.153l0.064,-0.151l0.066,-0.15l0.069,-0.148l0.072,-0.147l0.074,-0.145l0.077,-0.143l0.08,-0.142l0.082,-0.141l0.085,-0.138l0.087,-0.137l0.089,-0.135l0.069,-0.099l0.034,-0.058l0.055,-0.09l0.056,-0.089l0.057,-0.089l0.058,-0.09l0.059,-0.089l0.06,-0.09l0.062,-0.089l0.063,-0.09l0.063,-0.089l0.065,-0.089l0.067,-0.09l0.067,-0.089l0.069,-0.088l0.07,-0.089l0.071,-0.089l0.072,-0.088l0.074,-0.088l0.075,-0.088l0.076,-0.088l0.077,-0.087l0.079,-0.087l0.08,-0.087l0.081,-0.086l0.083,-0.086l0.084,-0.086l0.085,-0.085l0.087,-0.085l0.088,-0.085l0.089,-0.084l0.091,-0.084l0.092,-0.083l0.093,-0.082l0.095,-0.082l0.096,-0.082l0.097,-0.081l0.099,-0.081l0.101,-0.079l0.101,-0.08l0.103,-0.078l0.105,-0.078l0.106,-0.078l0.107,-0.076l0.109,-0.076l0.11,-0.075l0.112,-0.075l0.113,-0.074l0.115,-0.073l0.116,-0.072l0.117,-0.071l0.119,-0.071l0.121,-0.069l0.122,-0.069l0.123,-0.068l0.125,-0.067l0.127,-0.066l0.128,-0.065l0.129,-0.064l0.131,-0.064l0.133,-0.062l0.134,-0.061l0.135,-0.06l0.138,-0.059l0.138,-0.058l0.14,-0.058l0.142,-0.055l0.143,-0.055l0.145,-0.054l0.147,-0.053l0.148,-0.051l0.149,-0.05l0.152,-0.049l0.152,-0.048l0.155,-0.047l0.156,-0.045l0.157,-0.044l0.159,-0.043l0.161,-0.041l0.162,-0.041l0.164,-0.039l0.166,-0.037l0.167,-0.037l0.169,-0.035l0.171,-0.033l0.172,-0.032l0.174,-0.031l0.175,-0.029l0.177,-0.028l0.179,-0.027l0.181,-0.025l0.182,-0.023l0.184,-0.022l0.185,-0.021l0.188,-0.019l0.189,-0.017l0.19,-0.016l0.193,-0.014l0.194,-0.013l0.196,-0.011l0.198,-0.01l0.199,-0.007l0.201,-0.007l0.203,-0.004l0.205,-0.003l0.206,-0.001l0.209,0Zm-0.405,1.001l-0.196,0.003l-0.195,0.004l-0.193,0.006l-0.191,0.008l-0.189,0.009l-0.187,0.01l-0.185,0.012l-0.184,0.014l-0.182,0.015l-0.18,0.017l-0.178,0.018l-0.177,0.019l-0.175,0.021l-0.173,0.023l-0.171,0.023l-0.17,0.025l-0.168,0.027l-0.166,0.028l-0.164,0.029l-0.163,0.03l-0.161,0.032l-0.16,0.033l-0.157,0.034l-0.156,0.035l-0.155,0.037l-0.153,0.038l-0.151,0.039l-0.149,0.04l-0.148,0.042l-0.146,0.042l-0.145,0.044l-0.143,0.045l-0.141,0.046l-0.14,0.046l-0.138,0.048l-0.137,0.05l-0.135,0.05l-0.134,0.051l-0.132,0.052l-0.13,0.053l-0.129,0.054l-0.128,0.055l-0.126,0.056l-0.124,0.057l-0.123,0.057l-0.121,0.059l-0.12,0.059l-0.119,0.061l-0.117,0.061l-0.115,0.062l-0.115,0.063l-0.112,0.063l-0.112,0.064l-0.109,0.066l-0.109,0.065l-0.107,0.067l-0.106,0.067l-0.104,0.068l-0.103,0.069l-0.101,0.069l-0.1,0.07l-0.099,0.07l-0.097,0.071l-0.096,0.072l-0.095,0.072l-0.094,0.073l-0.092,0.073l-0.09,0.074l-0.09,0.075l-0.088,0.075l-0.087,0.075l-0.086,0.076l-0.084,0.076l-0.083,0.077l-0.082,0.077l-0.08,0.077l-0.08,0.078l-0.078,0.078l-0.077,0.079l-0.076,0.079l-0.074,0.079l-0.073,0.079l-0.073,0.08l-0.07,0.08l-0.07,0.08l-0.069,0.081l-0.067,0.081l-0.067,0.08l-0.065,0.082l-0.064,0.081l-0.063,0.081l-0.061,0.082l-0.061,0.081l-0.06,0.082l-0.058,0.082l-0.058,0.082l-0.056,0.082l-0.055,0.082l-0.055,0.082l-0.053,0.082l-0.052,0.082l-0.051,0.082l-0.05,0.082l-0.049,0.082l-0.082,0.118l-0.079,0.119l-0.077,0.121l-0.075,0.123l-0.073,0.124l-0.07,0.125l-0.068,0.127l-0.066,0.129l-0.063,0.13l-0.061,0.131l-0.059,0.132l-0.056,0.134l-0.054,0.135l-0.051,0.136l-0.049,0.138l-0.046,0.138l-0.043,0.14l-0.041,0.141l-0.039,0.142l-0.035,0.143l-0.033,0.144l-0.031,0.145l-0.027,0.146l-0.025,0.147l-0.022,0.148l-0.019,0.149l-0.016,0.15l-0.013,0.151l-0.011,0.151l-0.007,0.152l-0.003,0.077l-0.002,0.076l-0.001,0.077l0,0.077l0,0.084l0.001,0.084l0.003,0.084l0.003,0.083l0.004,0.084l0.005,0.083l0.006,0.082l0.006,0.083l0.008,0.082l0.008,0.082l0.009,0.082l0.011,0.082l0.011,0.081l0.011,0.081l0.013,0.081l0.014,0.08l0.014,0.08l0.015,0.08l0.016,0.08l0.017,0.079l0.017,0.079l0.019,0.079l0.019,0.078l0.02,0.078l0.021,0.078l0.022,0.077l0.022,0.078l0.023,0.076l0.024,0.077l0.025,0.076l0.025,0.075l0.027,0.076l0.027,0.075l0.027,0.074l0.029,0.075l0.029,0.074l0.03,0.073l0.031,0.073l0.031,0.073l0.033,0.072l0.033,0.072l0.033,0.072l0.035,0.071l0.035,0.071l0.035,0.07l0.037,0.07l0.037,0.07l0.038,0.069l0.038,0.069l0.04,0.068l0.04,0.068l0.04,0.067l0.041,0.067l0.042,0.066l0.043,0.066l0.043,0.066l0.044,0.065l0.044,0.064l0.045,0.064l0.046,0.064l0.047,0.063l0.047,0.063l0.047,0.062l0.049,0.061l0.048,0.062l0.05,0.06l0.05,0.06l0.051,0.06l0.051,0.059l0.052,0.058l0.052,0.058l0.053,0.058l0.054,0.057l0.054,0.056l0.055,0.056l0.055,0.055l0.056,0.055l0.056,0.054l0.057,0.054l0.058,0.053l0.058,0.052l0.058,0.052l0.059,0.051l0.06,0.051l0.06,0.05l0.061,0.049l0.061,0.049l0.062,0.048l0.062,0.048l0.062,0.047l0.063,0.046l0.064,0.046l0.064,0.045l0.065,0.045l0.065,0.043l0.065,0.044l0.066,0.042l0.067,0.042l0.067,0.041l0.067,0.041l0.068,0.039l0.068,0.04l0.069,0.038l0.069,0.038l0.069,0.037l0.07,0.037l0.071,0.035l0.071,0.035l0.071,0.035l0.071,0.033l0.072,0.033l0.073,0.032l0.073,0.032l0.073,0.03l0.073,0.03l0.074,0.03l0.074,0.028l0.075,0.028l0.075,0.027l0.076,0.026l0.075,0.026l0.076,0.024l0.077,0.024l0.077,0.023l0.077,0.023l0.077,0.021l0.078,0.021l0.078,0.02l-0.176,0.087l-0.183,0.087l-0.189,0.088l-0.196,0.088l-0.202,0.089l-0.21,0.088l-0.216,0.089l-0.223,0.088l-0.23,0.088l-0.237,0.087l-0.121,0.043l-0.123,0.044l-0.125,0.043l-0.127,0.043l-0.128,0.042l-0.13,0.042l-0.132,0.043l-0.134,0.041l-0.135,0.042l-0.138,0.041l-0.139,0.041l-0.141,0.041l-0.143,0.04l-0.144,0.04l-0.147,0.039l-0.149,0.039l-0.15,0.038l-0.152,0.039l-0.154,0.037l-0.156,0.037l-0.158,0.037l-0.16,0.036l-0.162,0.036l-0.163,0.035l-0.166,0.034l-0.167,0.034l-0.17,0.033l-0.171,0.033l-0.174,0.032l-0.175,0.031l-0.177,0.031l-0.18,0.03l-0.181,0.029l-0.183,0.028l-0.185,0.028l-0.188,0.027l-0.189,0.026l-0.191,0.026l-0.194,0.024l-0.195,0.024l-0.197,0.023l-0.2,0.022l-0.201,0.021l-0.204,0.021l0.243,0.04l0.241,0.039l0.239,0.036l0.238,0.035l0.235,0.032l0.233,0.031l0.231,0.029l0.229,0.026l0.227,0.025l0.225,0.024l0.223,0.021l0.221,0.019l0.219,0.018l0.217,0.016l0.216,0.014l0.213,0.012l0.212,0.011l0.209,0.009l0.208,0.007l0.206,0.005l0.203,0.004l0.202,0.002l0.201,0l0.198,-0.001l0.196,-0.003l0.195,-0.004l0.193,-0.006l0.191,-0.008l0.189,-0.009l0.187,-0.01l0.185,-0.012l0.184,-0.014l0.182,-0.015l0.18,-0.017l0.178,-0.018l0.177,-0.019l0.175,-0.021l0.173,-0.023l0.171,-0.023l0.17,-0.025l0.168,-0.027l0.166,-0.028l0.164,-0.029l0.163,-0.03l0.161,-0.032l0.16,-0.033l0.157,-0.034l0.156,-0.035l0.155,-0.037l0.153,-0.038l0.151,-0.039l0.149,-0.04l0.148,-0.042l0.146,-0.042l0.145,-0.044l0.143,-0.045l0.141,-0.046l0.14,-0.046l0.138,-0.048l0.137,-0.05l0.135,-0.05l0.134,-0.051l0.132,-0.052l0.13,-0.053l0.129,-0.054l0.128,-0.055l0.126,-0.056l0.124,-0.057l0.123,-0.057l0.121,-0.059l0.12,-0.059l0.119,-0.061l0.117,-0.061l0.115,-0.062l0.115,-0.063l0.112,-0.063l0.112,-0.064l0.109,-0.066l0.109,-0.065l0.107,-0.067l0.106,-0.067l0.104,-0.068l0.103,-0.069l0.101,-0.069l0.1,-0.07l0.099,-0.07l0.097,-0.071l0.096,-0.072l0.095,-0.072l0.094,-0.073l0.092,-0.073l0.09,-0.074l0.09,-0.075l0.088,-0.075l0.087,-0.075l0.086,-0.076l0.084,-0.076l0.083,-0.077l0.082,-0.077l0.08,-0.077l0.08,-0.078l0.078,-0.078l0.077,-0.079l0.076,-0.079l0.074,-0.079l0.073,-0.079l0.073,-0.08l0.07,-0.08l0.07,-0.08l0.069,-0.081l0.067,-0.081l0.067,-0.08l0.065,-0.082l0.064,-0.081l0.063,-0.081l0.061,-0.082l0.061,-0.081l0.06,-0.082l0.058,-0.082l0.058,-0.082l0.056,-0.082l0.055,-0.082l0.055,-0.082l0.053,-0.082l0.052,-0.082l0.051,-0.082l0.05,-0.082l0.049,-0.082l0.082,-0.118l0.079,-0.119l0.077,-0.121l0.075,-0.123l0.073,-0.124l0.07,-0.125l0.068,-0.127l0.066,-0.129l0.063,-0.13l0.061,-0.131l0.059,-0.132l0.056,-0.134l0.054,-0.135l0.051,-0.136l0.049,-0.138l0.046,-0.138l0.043,-0.14l0.041,-0.141l0.039,-0.142l0.035,-0.143l0.033,-0.144l0.031,-0.145l0.027,-0.146l0.025,-0.147l0.022,-0.148l0.019,-0.149l0.016,-0.15l0.013,-0.151l0.011,-0.151l0.007,-0.152l0.003,-0.077l0.002,-0.076l0.001,-0.077l0,-0.077l0,-0.087l-0.002,-0.086l-0.002,-0.087l-0.003,-0.086l-0.005,-0.086l-0.005,-0.086l-0.006,-0.085l-0.007,-0.085l-0.008,-0.085l-0.009,-0.085l-0.01,-0.084l-0.011,-0.084l-0.011,-0.084l-0.013,-0.083l-0.013,-0.083l-0.015,-0.083l-0.015,-0.083l-0.016,-0.082l-0.017,-0.082l-0.018,-0.082l-0.019,-0.081l-0.019,-0.081l-0.021,-0.08l-0.021,-0.081l-0.022,-0.08l-0.023,-0.079l-0.024,-0.08l-0.024,-0.078l-0.026,-0.079l-0.026,-0.078l-0.027,-0.078l-0.028,-0.077l-0.042,-0.111l-0.043,-0.11l-0.045,-0.109l-0.046,-0.108l-0.048,-0.107l-0.05,-0.107l-0.051,-0.105l-0.052,-0.105l-0.055,-0.103l-0.056,-0.103l-0.057,-0.102l-0.059,-0.101l-0.06,-0.1l-0.062,-0.099l-0.063,-0.098l-0.064,-0.096l-0.066,-0.096l-0.068,-0.095l-0.069,-0.094l-0.07,-0.092l-0.072,-0.092l-0.072,-0.09l-0.075,-0.089l-0.075,-0.089l-0.077,-0.086l-0.078,-0.086l-0.08,-0.085l-0.08,-0.083l-0.082,-0.082l-0.083,-0.081l-0.085,-0.08l-0.085,-0.078l-0.087,-0.078l-0.088,-0.075l-0.089,-0.075l-0.09,-0.073l-0.091,-0.072l-0.093,-0.07l-0.093,-0.07l-0.095,-0.067l-0.095,-0.067l-0.097,-0.065l-0.097,-0.063l-0.099,-0.062l-0.1,-0.061l-0.1,-0.059l-0.102,-0.057l-0.103,-0.057l-0.103,-0.054l-0.105,-0.053l-0.105,-0.052l-0.106,-0.05l-0.107,-0.048l-0.108,-0.047l-0.109,-0.045l-0.11,-0.043l-0.11,-0.042l-0.111,-0.04l-0.112,-0.039l-0.113,-0.037l-0.114,-0.035l-0.114,-0.033l-0.115,-0.032l-0.116,-0.03l0.176,-0.087l0.183,-0.087l0.189,-0.088l0.196,-0.088l0.202,-0.089l0.21,-0.088l0.216,-0.089l0.223,-0.088l0.23,-0.088l0.237,-0.087l0.121,-0.043l0.123,-0.044l0.125,-0.043l0.127,-0.043l0.128,-0.042l0.13,-0.042l0.132,-0.043l0.134,-0.041l0.135,-0.042l0.138,-0.041l0.139,-0.041l0.141,-0.041l0.143,-0.04l0.144,-0.04l0.147,-0.039l0.149,-0.039l0.15,-0.038l0.152,-0.039l0.154,-0.037l0.156,-0.037l0.158,-0.037l0.16,-0.036l0.162,-0.036l0.163,-0.035l0.166,-0.034l0.167,-0.034l0.17,-0.033l0.171,-0.033l0.174,-0.032l0.175,-0.031l0.177,-0.031l0.18,-0.03l0.181,-0.029l0.183,-0.028l0.185,-0.028l0.188,-0.027l0.189,-0.026l0.191,-0.026l0.194,-0.024l0.195,-0.024l0.197,-0.023l0.2,-0.022l0.201,-0.021l0.204,-0.021l-0.243,-0.04l-0.241,-0.039l-0.239,-0.036l-0.238,-0.035l-0.235,-0.032l-0.233,-0.031l-0.231,-0.029l-0.229,-0.026l-0.227,-0.025l-0.225,-0.024l-0.223,-0.021l-0.221,-0.019l-0.219,-0.018l-0.217,-0.016l-0.216,-0.014l-0.213,-0.012l-0.212,-0.011l-0.209,-0.009l-0.208,-0.007l-0.206,-0.005l-0.203,-0.004l-0.202,-0.002l-0.201,0l-0.198,0.001Zm-5.663,7.277l0.078,0.003l0.077,0.005l0.076,0.007l0.076,0.008l0.076,0.011l0.074,0.012l0.075,0.015l0.073,0.016l0.073,0.017l0.072,0.02l0.071,0.021l0.071,0.023l0.07,0.025l0.069,0.026l0.068,0.028l0.068,0.029l0.066,0.032l0.066,0.032l0.065,0.034l0.064,0.036l0.063,0.037l0.061,0.039l0.061,0.04l0.06,0.042l0.059,0.042l0.058,0.045l0.056,0.045l0.056,0.047l0.054,0.048l0.053,0.05l0.052,0.051l0.051,0.052l0.05,0.053l0.048,0.054l0.047,0.056l0.045,0.056l0.045,0.058l0.042,0.059l0.042,0.06l0.04,0.061l0.039,0.061l0.037,0.063l0.036,0.064l0.034,0.065l0.032,0.066l0.032,0.066l0.029,0.068l0.028,0.068l0.026,0.069l0.025,0.07l0.023,0.071l0.021,0.071l0.02,0.072l0.017,0.073l0.016,0.073l0.015,0.075l0.012,0.074l0.011,0.076l0.008,0.076l0.007,0.076l0.005,0.077l0.003,0.078l0.001,0.078l-0.001,0.078l-0.003,0.078l-0.005,0.077l-0.007,0.076l-0.008,0.076l-0.011,0.076l-0.012,0.074l-0.015,0.075l-0.016,0.073l-0.017,0.073l-0.02,0.072l-0.021,0.071l-0.023,0.071l-0.025,0.07l-0.026,0.069l-0.028,0.068l-0.029,0.068l-0.032,0.066l-0.032,0.066l-0.034,0.065l-0.036,0.064l-0.037,0.063l-0.039,0.061l-0.04,0.061l-0.042,0.06l-0.042,0.059l-0.045,0.058l-0.045,0.056l-0.047,0.056l-0.048,0.054l-0.05,0.053l-0.051,0.052l-0.052,0.051l-0.053,0.05l-0.054,0.048l-0.056,0.047l-0.056,0.045l-0.058,0.045l-0.059,0.042l-0.06,0.042l-0.061,0.04l-0.061,0.039l-0.063,0.037l-0.064,0.036l-0.065,0.034l-0.066,0.032l-0.066,0.032l-0.068,0.029l-0.068,0.028l-0.069,0.026l-0.07,0.025l-0.071,0.023l-0.071,0.021l-0.072,0.02l-0.073,0.017l-0.073,0.016l-0.075,0.015l-0.074,0.012l-0.076,0.011l-0.076,0.008l-0.076,0.007l-0.077,0.005l-0.078,0.003l-0.078,0.001l-0.078,-0.001l-0.078,-0.003l-0.077,-0.005l-0.076,-0.007l-0.076,-0.008l-0.076,-0.011l-0.074,-0.012l-0.075,-0.015l-0.073,-0.016l-0.073,-0.017l-0.072,-0.02l-0.071,-0.021l-0.071,-0.023l-0.07,-0.025l-0.069,-0.026l-0.068,-0.028l-0.068,-0.029l-0.066,-0.032l-0.066,-0.032l-0.065,-0.034l-0.064,-0.036l-0.063,-0.037l-0.061,-0.039l-0.061,-0.04l-0.06,-0.042l-0.059,-0.042l-0.058,-0.045l-0.056,-0.045l-0.056,-0.047l-0.054,-0.048l-0.053,-0.05l-0.052,-0.051l-0.051,-0.052l-0.05,-0.053l-0.048,-0.054l-0.047,-0.056l-0.045,-0.056l-0.045,-0.058l-0.042,-0.059l-0.042,-0.06l-0.04,-0.061l-0.039,-0.061l-0.037,-0.063l-0.036,-0.064l-0.034,-0.065l-0.032,-0.066l-0.032,-0.066l-0.029,-0.068l-0.028,-0.068l-0.026,-0.069l-0.025,-0.07l-0.023,-0.071l-0.021,-0.071l-0.02,-0.072l-0.017,-0.073l-0.016,-0.073l-0.015,-0.075l-0.012,-0.074l-0.011,-0.076l-0.008,-0.076l-0.007,-0.076l-0.005,-0.077l-0.003,-0.078l-0.001,-0.078l0.001,-0.078l0.003,-0.078l0.005,-0.077l0.007,-0.076l0.008,-0.076l0.011,-0.076l0.012,-0.074l0.015,-0.075l0.016,-0.073l0.017,-0.073l0.02,-0.072l0.021,-0.071l0.023,-0.071l0.025,-0.07l0.026,-0.069l0.028,-0.068l0.029,-0.068l0.032,-0.066l0.032,-0.066l0.034,-0.065l0.036,-0.064l0.037,-0.063l0.039,-0.061l0.04,-0.061l0.042,-0.06l0.042,-0.059l0.045,-0.058l0.045,-0.056l0.047,-0.056l0.048,-0.054l0.05,-0.053l0.051,-0.052l0.052,-0.051l0.053,-0.05l0.054,-0.048l0.056,-0.047l0.056,-0.045l0.058,-0.045l0.059,-0.042l0.06,-0.042l0.061,-0.04l0.061,-0.039l0.063,-0.037l0.064,-0.036l0.065,-0.034l0.066,-0.032l0.066,-0.032l0.068,-0.029l0.068,-0.028l0.069,-0.026l0.07,-0.025l0.071,-0.023l0.071,-0.021l0.072,-0.02l0.073,-0.017l0.073,-0.016l0.075,-0.015l0.074,-0.012l0.076,-0.011l0.076,-0.008l0.076,-0.007l0.077,-0.005l0.078,-0.003l0.078,-0.001l0.078,0.001Zm-0.131,1l-0.052,0.002l-0.052,0.003l-0.051,0.005l-0.051,0.005l-0.05,0.007l-0.05,0.009l-0.05,0.009l-0.049,0.011l-0.048,0.012l-0.049,0.013l-0.047,0.014l-0.047,0.015l-0.047,0.017l-0.046,0.017l-0.046,0.019l-0.045,0.02l-0.044,0.02l-0.044,0.022l-0.043,0.023l-0.043,0.024l-0.042,0.025l-0.042,0.026l-0.04,0.027l-0.041,0.028l-0.039,0.028l-0.039,0.03l-0.038,0.031l-0.037,0.031l-0.037,0.033l-0.035,0.033l-0.035,0.034l-0.034,0.035l-0.033,0.035l-0.033,0.037l-0.031,0.037l-0.031,0.038l-0.03,0.039l-0.028,0.039l-0.028,0.041l-0.027,0.04l-0.026,0.042l-0.025,0.042l-0.024,0.043l-0.023,0.043l-0.022,0.044l-0.02,0.044l-0.02,0.045l-0.019,0.046l-0.017,0.046l-0.017,0.047l-0.015,0.047l-0.014,0.047l-0.013,0.049l-0.012,0.048l-0.011,0.049l-0.009,0.05l-0.009,0.05l-0.007,0.05l-0.005,0.051l-0.005,0.051l-0.003,0.052l-0.002,0.052l-0.001,0.053l0.001,0.053l0.002,0.052l0.003,0.052l0.005,0.051l0.005,0.051l0.007,0.05l0.009,0.05l0.009,0.05l0.011,0.049l0.012,0.048l0.013,0.049l0.014,0.047l0.015,0.047l0.017,0.047l0.017,0.046l0.019,0.046l0.02,0.045l0.02,0.044l0.022,0.044l0.023,0.043l0.024,0.043l0.025,0.042l0.026,0.042l0.027,0.04l0.028,0.041l0.028,0.039l0.03,0.039l0.031,0.038l0.031,0.037l0.033,0.037l0.033,0.035l0.034,0.035l0.035,0.034l0.035,0.033l0.037,0.033l0.037,0.031l0.038,0.031l0.039,0.03l0.039,0.028l0.041,0.028l0.04,0.027l0.042,0.026l0.042,0.025l0.043,0.024l0.043,0.023l0.044,0.022l0.044,0.02l0.045,0.02l0.046,0.019l0.046,0.017l0.047,0.017l0.047,0.015l0.047,0.014l0.049,0.013l0.048,0.012l0.049,0.011l0.05,0.009l0.05,0.009l0.05,0.007l0.051,0.005l0.051,0.005l0.052,0.003l0.052,0.002l0.053,0.001l0.053,-0.001l0.052,-0.002l0.052,-0.003l0.051,-0.005l0.051,-0.005l0.05,-0.007l0.05,-0.009l0.05,-0.009l0.049,-0.011l0.048,-0.012l0.049,-0.013l0.047,-0.014l0.047,-0.015l0.047,-0.017l0.046,-0.017l0.046,-0.019l0.045,-0.02l0.044,-0.02l0.044,-0.022l0.043,-0.023l0.043,-0.024l0.042,-0.025l0.042,-0.026l0.04,-0.027l0.041,-0.028l0.039,-0.028l0.039,-0.03l0.038,-0.031l0.037,-0.031l0.037,-0.033l0.035,-0.033l0.035,-0.034l0.034,-0.035l0.033,-0.035l0.033,-0.037l0.031,-0.037l0.031,-0.038l0.03,-0.039l0.028,-0.039l0.028,-0.041l0.027,-0.04l0.026,-0.042l0.025,-0.042l0.024,-0.043l0.023,-0.043l0.022,-0.044l0.02,-0.044l0.02,-0.045l0.019,-0.046l0.017,-0.046l0.017,-0.047l0.015,-0.047l0.014,-0.047l0.013,-0.049l0.012,-0.048l0.011,-0.049l0.009,-0.05l0.009,-0.05l0.007,-0.05l0.005,-0.051l0.005,-0.051l0.003,-0.052l0.002,-0.052l0.001,-0.053l-0.001,-0.053l-0.002,-0.052l-0.003,-0.052l-0.005,-0.051l-0.005,-0.051l-0.007,-0.05l-0.009,-0.05l-0.009,-0.05l-0.011,-0.049l-0.012,-0.048l-0.013,-0.049l-0.014,-0.047l-0.015,-0.047l-0.017,-0.047l-0.017,-0.046l-0.019,-0.046l-0.02,-0.045l-0.02,-0.044l-0.022,-0.044l-0.023,-0.043l-0.024,-0.043l-0.025,-0.042l-0.026,-0.042l-0.027,-0.04l-0.028,-0.041l-0.028,-0.039l-0.03,-0.039l-0.031,-0.038l-0.031,-0.037l-0.033,-0.037l-0.033,-0.035l-0.034,-0.035l-0.035,-0.034l-0.035,-0.033l-0.037,-0.033l-0.037,-0.031l-0.038,-0.031l-0.039,-0.03l-0.039,-0.028l-0.041,-0.028l-0.04,-0.027l-0.042,-0.026l-0.042,-0.025l-0.043,-0.024l-0.043,-0.023l-0.044,-0.022l-0.044,-0.02l-0.045,-0.02l-0.046,-0.019l-0.046,-0.017l-0.047,-0.017l-0.047,-0.015l-0.047,-0.014l-0.049,-0.013l-0.048,-0.012l-0.049,-0.011l-0.05,-0.009l-0.05,-0.009l-0.05,-0.007l-0.051,-0.005l-0.051,-0.005l-0.052,-0.003l-0.052,-0.002l-0.053,-0.001l-0.053,0.001Z" style="fill:#fff;"/></svg>