<?xml version="1.0" encoding="UTF-8" standalone="no"?><!DOCTYPE svg PUBLIC "-//W3C//DTD SVG 1.1//EN" "http://www.w3.org/Graphics/SVG/1.1/DTD/svg11.dtd"><svg width="100%" height="100%" viewBox="0 0 145 95" version="1.1" xmlns="http://www.w3.org/2000/svg" xmlns:xlink="http://www.w3.org/1999/xlink" xml:space="preserve" xmlns:serif="http://www.serif.com/" style="fill-rule:evenodd;clip-rule:evenodd;stroke-linejoin:round;stroke-miterlimit:1.41421;"><g><path d="M104.032,50.894c-8.283,0 -13.233,6.871 -13.233,13.515c0,6.644 4.95,13.516 13.233,13.516c8.32,0 13.292,-6.872 13.292,-13.516c0,-6.644 -4.972,-13.515 -13.292,-13.515Zm5.465,13.515c0,3.722 -0.71,9.966 -5.465,9.966c-4.467,0 -5.405,-5.42 -5.405,-9.966c0,-4.548 0.938,-9.969 5.405,-9.969c4.755,0 5.465,6.246 5.465,9.969Z" style="fill:#006940;fill-rule:nonzero;"/><path d="M143.79,51.625l-11.085,0c0,0 3.474,3.474 3.54,3.539c0,0.089 0,9.556 0,10.159c-0.387,-0.487 -10.872,-13.698 -10.872,-13.698l-8.999,0c0,0 3.472,3.474 3.538,3.539c0,0.091 0,18.396 0,18.489c-0.065,0.064 -3.538,3.54 -3.538,3.54l11.3,0c0,0 -3.473,-3.476 -3.538,-3.54c0,-0.091 0,-12.952 0,-13.549c0.389,0.472 16.368,19.86 16.368,19.86c0,0 0.02,-24.708 0.02,-24.8c0.064,-0.065 3.538,-3.539 3.538,-3.539l-0.272,0Z" style="fill:#006940;fill-rule:nonzero;"/><path d="M66.868,11.124l6.138,-11.124c-1.458,1.367 -2.192,1.796 -3.546,2.726c-7.423,5.095 -16.557,6.307 -25.736,13.857c-6.226,5.123 -9.1,12.547 -9.1,12.547c0,0 8.357,-9.386 20.995,-14.068c5.097,-1.89 8.653,-2.927 11.249,-3.938Z" style="fill:#febe0f;fill-rule:nonzero;"/><path d="M63.594,17.06c-6.651,2.121 -14.575,4.139 -22.692,9.617c-6.323,4.267 -9.995,11.548 -9.995,11.548c0,0 8.914,-8.916 21.875,-11.96c2.607,-0.611 4.797,-1.122 6.631,-1.549l4.181,-7.656Z" style="fill:#006940;fill-rule:nonzero;"/><path d="M85.8,63.521l-6.703,-3.604c-1.74,-1.011 -2.361,-2.242 -2.361,-3.055c-0.024,-0.388 0.209,-0.888 0.608,-1.313c0.629,-0.67 1.557,-1.054 2.546,-1.054c0.52,0 1.131,0.163 1.868,0.498c0,0.009 3.461,3.412 3.461,3.412l0.099,0.097l3.769,-5.894l-6.871,-0.982c-0.908,-0.169 -1.965,-0.169 -2.665,-0.169c-6.228,0 -9.066,3.707 -9.066,7.152c0,2.017 1.214,4.834 4.62,6.685c0.001,0.001 6.703,3.608 6.703,3.608c0.585,0.425 1.404,1.018 1.404,2.377c0,2.439 -2.222,3.324 -3.716,3.324c-0.871,0 -1.645,-0.222 -2.302,-0.658c0,-0.003 -3.814,-3.76 -3.814,-3.76l-0.109,-0.107l-3.113,6.064l-2.135,-2.679c0,-0.013 -8.6,-21.767 -8.6,-21.767l-0.028,-0.071l-0.077,0l-4.185,0c0,0 -8.813,21.866 -8.814,21.866c-0.002,-0.001 -1.241,1.576 -2.061,2.619l-2.81,-3.22l0,-33.484c8.961,-7.102 14.753,-8.542 14.738,-8.541c-3.185,0.288 -9.837,0.886 -17.615,5.219c-5.117,2.851 -9.156,6.748 -9.156,6.748l-0.01,0.026l-0.005,-0.007c-1.519,2.851 -3.625,7.594 -5.688,12.69l-10.26,-18.732l-13.452,0l4.301,4.303l0,31.685l-4.301,4.302l14.712,0l-4.371,-4.302l0,-24.582l9.613,17.2c-1.434,4.042 -2.563,7.653 -3.033,9.973l3.093,-3.592c0,0 2.51,-11.955 12.403,-23.687l0,25.068l-4.302,4.015l15.294,0l-0.002,0.001l10.722,0c0,0 -3.305,-3.304 -3.407,-3.406c0.053,-0.13 1.298,-3.222 1.352,-3.354c0.147,0 7.575,0 7.729,0c0.05,0.141 1.145,3.226 1.19,3.352c-0.098,0.097 -3.409,3.408 -3.409,3.408l12.741,0c1.787,0.047 6.4,0.166 6.406,0.166c0.915,0.152 1.91,0.226 3.044,0.226c7.277,0 9.858,-4.307 9.858,-7.997c0,-3.69 -2.68,-5.472 -3.833,-6.067Zm-32.34,3.419c0.114,-0.282 2.345,-5.855 2.537,-6.335c0.185,0.483 2.32,6.056 2.427,6.335c-0.297,0 -4.661,0 -4.964,0Z" style="fill:#006940;fill-rule:nonzero;"/><path d="M65.535,47.223c-2.034,0.517 -3.551,0.552 -4.654,0.552c-3.207,0 -6.913,-1.621 -6.913,-6.171c0,-4.535 3.189,-6.275 7.602,-6.275c0.793,0 2.466,0.086 3.638,0.534l-0.259,2.62c-1,-0.586 -2.172,-0.775 -2.93,-0.775c-2.604,0 -4.741,1.085 -4.741,3.896c0,2.361 1.672,3.792 4.016,3.792c0.432,0 0.845,-0.069 1.138,-0.207l0,-2.379l-1.879,0l0,-2.275l4.982,0l0,6.688Z" style="fill:#006940;fill-rule:nonzero;"/><path d="M71.586,35.535l8.481,0l0,2.276l-5.275,0l0,2.482l4.982,0l0,2.276l-4.982,0l0,2.723l5.465,0l0,2.276l-8.671,0l0,-12.033Z" style="fill:#006940;fill-rule:nonzero;"/><path d="M90.927,35.329c3.965,0 6.033,2.361 6.033,6.223c0,3.826 -2.102,6.223 -6.033,6.223c-3.93,0 -6.033,-2.397 -6.033,-6.223c0,-3.862 2.068,-6.223 6.033,-6.223Zm0,10.067c1.948,0 2.724,-1.862 2.724,-3.844c0,-2.086 -0.776,-3.844 -2.724,-3.844c-1.948,0 -2.723,1.758 -2.723,3.844c0,1.982 0.775,3.844 2.723,3.844Z" style="fill:#006940;fill-rule:nonzero;"/><path d="M101.977,35.535l5.724,0c2.137,0 3.878,0.965 3.878,3.034c0,1.603 -0.758,2.672 -2.31,3.035l0,0.034c1.034,0.276 1.104,1.189 1.707,2.654l1.172,3.276l-3.345,0l-0.689,-2.172c-0.655,-2.069 -1.069,-2.586 -2.258,-2.586l-0.673,0l0,4.758l-3.206,0l0,-12.033Zm3.206,5l0.845,0c1.035,0 2.345,-0.035 2.345,-1.397c0,-1.12 -1.121,-1.327 -2.345,-1.327l-0.845,0l0,2.724Z" style="fill:#006940;fill-rule:nonzero;"/><path d="M127.973,47.223c-2.034,0.517 -3.552,0.552 -4.655,0.552c-3.206,0 -6.912,-1.621 -6.912,-6.171c0,-4.535 3.189,-6.275 7.602,-6.275c0.793,0 2.465,0.086 3.637,0.534l-0.259,2.62c-0.999,-0.586 -2.172,-0.775 -2.93,-0.775c-2.603,0 -4.741,1.085 -4.741,3.896c0,2.361 1.672,3.792 4.017,3.792c0.431,0 0.845,-0.069 1.138,-0.207l0,-2.379l-1.879,0l0,-2.275l4.982,0l0,6.688Z" style="fill:#006940;fill-rule:nonzero;"/><path d="M133.662,35.535l8.481,0l0,2.276l-5.275,0l0,2.482l4.982,0l0,2.276l-4.982,0l0,2.723l5.464,0l0,2.276l-8.67,0l0,-12.033Z" style="fill:#006940;fill-rule:nonzero;"/><path d="M9.594,90.261c0,2.331 -1.513,3.381 -3.734,3.381c-2.221,0 -3.735,-1.05 -3.735,-3.381l0,-5.283l2.27,0l0,4.905c0,1.123 0.306,2.075 1.465,2.075c1.159,0 1.464,-0.952 1.464,-2.075l0,-4.905l2.27,0l0,5.283Z" style="fill:#006940;fill-rule:nonzero;"/><path d="M18.453,84.978l2.892,0l2.88,5.784l0.024,0l-0.037,-5.784l2.075,0l0,8.517l-2.819,0l-2.977,-5.821l-0.025,0l0.074,5.821l-2.087,0l0,-8.517Z" style="fill:#006940;fill-rule:nonzero;"/><rect x="36.049" y="84.978" width="2.27" height="8.517" style="fill:#006940;fill-rule:nonzero;"/><path d="M47.532,84.978l2.417,0l1.891,6.687l0.024,0l1.904,-6.687l2.331,0l-2.905,8.517l-2.806,0l-2.856,-8.517Z" style="fill:#006940;fill-rule:nonzero;"/><path d="M64.555,84.978l6.004,0l0,1.61l-3.734,0l0,1.758l3.527,0l0,1.611l-3.527,0l0,1.927l3.868,0l0,1.611l-6.138,0l0,-8.517Z" style="fill:#006940;fill-rule:nonzero;"/><path d="M79.663,84.978l4.05,0c1.514,0 2.746,0.683 2.746,2.147c0,1.135 -0.537,1.892 -1.635,2.148l0,0.024c0.732,0.196 0.781,0.842 1.208,1.88l0.83,2.318l-2.367,0l-0.489,-1.537c-0.464,-1.465 -0.757,-1.831 -1.598,-1.831l-0.476,0l0,3.368l-2.269,0l0,-8.517Zm2.269,3.539l0.598,0c0.732,0 1.659,-0.025 1.659,-0.989c0,-0.793 -0.793,-0.94 -1.659,-0.94l-0.598,0l0,1.929Z" style="fill:#006940;fill-rule:nonzero;"/><path d="M95.111,91.396c0.586,0.317 1.403,0.562 2.343,0.562c0.719,0 1.403,-0.147 1.403,-0.83c0,-1.586 -4.026,-0.586 -4.026,-3.686c0,-2.049 2.001,-2.611 3.709,-2.611c0.818,0 1.623,0.122 2.197,0.317l-0.147,1.758c-0.586,-0.269 -1.245,-0.391 -1.891,-0.391c-0.575,0 -1.526,0.049 -1.526,0.793c0,1.379 4.027,0.452 4.027,3.527c0,2.208 -1.855,2.807 -3.746,2.807c-0.793,0 -1.782,-0.122 -2.539,-0.367l0.196,-1.879Z" style="fill:#006940;fill-rule:nonzero;"/><rect x="109.73" y="84.978" width="2.269" height="8.517" style="fill:#006940;fill-rule:nonzero;"/><path d="M122.995,86.662l-2.1,0l0,-1.684l6.468,0l0,1.684l-2.099,0l0,6.833l-2.269,0l0,-6.833Z" style="fill:#006940;fill-rule:nonzero;"/><path d="M137.003,90.286l-3.148,-5.308l2.611,0l1.672,3.417l1.648,-3.417l2.611,0l-3.124,5.308l0,3.209l-2.27,0l0,-3.209Z" style="fill:#006940;fill-rule:nonzero;"/></g></svg>