<?xml version="1.0" standalone="no"?>
<!DOCTYPE svg PUBLIC "-//W3C//DTD SVG 20010904//EN"
 "http://www.w3.org/TR/2001/REC-SVG-20010904/DTD/svg10.dtd">
<svg version="1.0" xmlns="http://www.w3.org/2000/svg"
 width="512.000000pt" height="512.000000pt" viewBox="0 0 512.000000 512.000000"
 preserveAspectRatio="xMidYMid meet">
<metadata>
Created by potrace 1.11, written by Peter Selinger 2001-2013
</metadata>
<g transform="translate(0.000000,512.000000) scale(0.100000,-0.100000)"
fill="#000000" stroke="none">
<path d="M2425 4953 c16 -40 17 -55 1 -93 -18 -45 -10 -82 23 -99 31 -17 39
-14 90 34 26 25 51 45 54 45 9 0 57 -73 57 -86 0 -6 -18 -19 -40 -29 -22 -10
-47 -26 -57 -37 -16 -18 -16 -21 0 -51 10 -18 43 -50 73 -72 66 -47 144 -128
144 -149 0 -8 -15 -35 -34 -59 -56 -73 -69 -107 -74 -188 -4 -62 1 -93 23
-168 24 -83 26 -98 15 -139 -6 -26 -34 -81 -61 -123 -56 -87 -67 -129 -49
-195 12 -43 90 -144 112 -144 5 0 8 23 7 52 l-3 51 62 13 c136 28 162 69 142
225 -21 160 -2 338 39 364 18 11 56 -20 76 -60 20 -43 43 -370 31 -448 -7 -48
-30 -77 -99 -130 -30 -23 -37 -34 -37 -63 0 -59 23 -100 60 -108 18 -3 36 -6
40 -6 4 0 11 20 14 45 14 92 63 109 104 36 44 -77 20 -145 -43 -121 -39 15
-42 13 -49 -23 -15 -78 43 -198 153 -319 60 -65 66 -69 78 -52 7 10 18 35 24
56 5 21 13 38 17 38 20 0 83 -65 102 -105 19 -40 26 -45 55 -45 47 0 64 8 80
41 19 37 19 69 -1 98 -14 20 -23 23 -60 18 -41 -4 -44 -3 -44 19 0 17 7 25 25
30 47 12 48 28 4 64 -52 42 -79 86 -79 130 0 53 21 76 76 83 59 6 72 20 84 91
12 76 32 106 69 106 21 0 37 -10 57 -32 27 -33 27 -34 21 -145 -4 -62 -3 -113
2 -113 19 0 77 48 104 86 23 32 30 56 34 107 6 65 5 67 -30 102 -22 22 -45 35
-61 35 -30 0 -29 -4 -16 113 11 91 26 133 61 168 27 27 43 24 89 -17 44 -40
88 -53 183 -54 53 0 57 2 57 23 0 13 -12 52 -26 87 -37 92 -41 149 -15 209 41
96 22 139 -76 173 -28 10 -62 27 -77 39 -35 28 -168 228 -205 310 l-30 66
-133 66 c-314 155 -600 234 -935 257 -210 14 -217 14 -208 -7z"/>
<path d="M1900 4895 c-547 -140 -1011 -449 -1347 -899 -235 -315 -387 -680
-450 -1086 -25 -160 -25 -528 0 -690 64 -413 222 -783 480 -1125 78 -103 319
-344 422 -422 189 -142 476 -306 497 -285 6 6 11 32 12 58 1 44 3 48 30 55 54
15 86 1 107 -47 19 -45 31 -51 94 -44 64 6 75 86 25 186 -42 86 -125 161 -218
197 -96 38 -131 76 -231 253 -47 82 -104 179 -128 217 -78 121 -161 290 -182
367 -48 178 -79 541 -62 712 16 161 45 218 111 218 76 0 130 -94 178 -310 24
-107 26 -134 26 -376 1 -203 4 -264 14 -277 8 -9 38 -32 68 -52 92 -62 114
-134 114 -389 l0 -149 35 -33 c76 -71 256 -135 403 -142 118 -5 170 9 217 58
24 25 30 41 33 93 5 79 -12 142 -48 179 -36 35 -85 37 -206 7 -68 -17 -90 -19
-110 -10 -26 12 -44 47 -44 87 0 27 2 28 48 15 17 -5 32 -9 32 -8 0 1 -11 29
-25 62 -41 101 -31 155 31 155 83 0 163 -86 189 -204 6 -27 8 -28 46 -23 90
12 113 60 85 173 -32 126 -74 184 -133 184 -37 0 -94 22 -120 45 l-28 25 27
24 c23 21 53 31 156 52 23 5 23 6 -18 50 -41 44 -90 134 -90 165 0 42 60 52
104 18 32 -25 81 -121 126 -244 49 -136 91 -235 100 -235 17 0 72 123 77 174
9 85 -7 115 -102 196 -119 101 -124 137 -17 125 l52 -6 0 38 c0 51 23 83 61
83 34 0 98 -54 137 -114 22 -35 24 -47 19 -105 -3 -36 -17 -113 -31 -171 -36
-153 -40 -200 -22 -244 24 -57 114 -86 163 -51 22 15 37 68 48 166 3 30 15 70
26 88 40 66 84 12 84 -104 0 -65 -4 -78 -53 -174 -29 -58 -62 -117 -73 -132
-21 -30 -25 -49 -9 -49 5 0 21 -21 34 -47 13 -27 38 -61 55 -77 50 -47 42 -94
-36 -227 -18 -31 -11 -77 14 -86 21 -8 59 34 112 125 61 105 114 156 215 210
83 44 92 51 122 106 43 79 145 383 146 436 1 83 -40 88 -120 15 -51 -45 -86
-46 -143 -2 -53 40 -76 93 -63 144 15 58 31 61 125 24 l84 -32 17 21 c10 12
18 29 18 37 0 33 -35 84 -100 147 l-69 66 -40 127 c-27 86 -50 140 -70 163
l-29 35 -138 6 c-223 9 -256 33 -334 239 -57 148 -73 241 -47 274 13 18 17 15
59 -50 50 -77 144 -176 262 -277 74 -62 122 -87 172 -87 12 0 35 -5 53 -11 27
-10 38 -25 72 -98 41 -88 95 -155 138 -172 21 -9 40 0 137 66 123 81 139 103
109 149 -20 30 -97 87 -285 214 -234 156 -283 225 -229 317 19 31 20 39 9 65
-20 49 -97 109 -246 194 -312 179 -404 263 -404 370 0 38 28 104 52 123 7 6
34 13 60 16 60 8 84 23 104 66 29 62 29 103 0 138 -15 17 -39 34 -55 38 -80
17 -80 91 -2 259 28 59 51 111 51 115 0 3 -23 14 -51 24 -65 23 -123 77 -144
132 -16 40 -16 47 -1 98 36 123 19 166 -76 203 -62 24 -72 31 -91 70 -11 24
-26 44 -31 44 -6 -1 -72 -16 -146 -35z"/>
<path d="M4019 4397 c14 -18 51 -42 51 -33 0 3 -15 15 -32 27 -24 17 -29 18
-19 6z"/>
<path d="M4246 4070 c-7 -120 -1 -146 37 -155 23 -6 132 29 141 44 5 7 -159
221 -168 221 -2 0 -6 -50 -10 -110z"/>
</g>
</svg>
