<?xml version="1.0" encoding="UTF-8" standalone="no"?><!DOCTYPE svg PUBLIC "-//W3C//DTD SVG 1.1//EN" "http://www.w3.org/Graphics/SVG/1.1/DTD/svg11.dtd"><svg width="100%" height="100%" viewBox="0 0 35 45" version="1.1" xmlns="http://www.w3.org/2000/svg" xmlns:xlink="http://www.w3.org/1999/xlink" xml:space="preserve" xmlns:serif="http://www.serif.com/" style="fill-rule:evenodd;clip-rule:evenodd;stroke-linejoin:round;stroke-miterlimit:1.41421;"><path d="M17.687,2.195l0.145,0.002l0.145,0.003l0.29,0.01l0.145,0.007l0.144,0.008l0.145,0.009l0.144,0.01l0.144,0.011l0.145,0.012l0.143,0.014l0.288,0.03l0.143,0.017l0.144,0.018l0.143,0.019l0.143,0.02l0.142,0.021l0.143,0.023l0.142,0.023l0.284,0.05l0.142,0.027l0.142,0.028l0.282,0.058l0.14,0.031l0.141,0.032l0.28,0.068l0.14,0.035l0.139,0.036l0.139,0.037l0.278,0.078l0.138,0.04l0.138,0.042l0.137,0.042l0.138,0.044l0.137,0.044l0.136,0.046l0.272,0.094l0.136,0.049l0.135,0.049l0.135,0.051l0.268,0.104l0.134,0.054l0.133,0.054l0.133,0.056l0.133,0.057l0.132,0.057l0.131,0.059l0.132,0.059l0.13,0.061l0.131,0.061l0.13,0.063l0.129,0.063l0.258,0.13l0.128,0.067l0.127,0.067l0.127,0.068l0.127,0.069l0.252,0.142l0.125,0.072l0.124,0.073l0.124,0.074l0.124,0.075l0.123,0.075l0.122,0.077l0.122,0.078l0.122,0.079l0.121,0.079l0.12,0.081l0.119,0.081l0.12,0.082l0.118,0.083l0.118,0.085l0.117,0.085l0.117,0.086l0.116,0.086l0.116,0.088l0.114,0.089l0.115,0.089l0.226,0.182l0.112,0.092l0.112,0.093l0.111,0.094l0.11,0.095l0.11,0.096l0.109,0.097l0.108,0.097l0.214,0.198l0.106,0.1l0.106,0.101l0.208,0.204l0.206,0.208l0.202,0.212l0.1,0.107l0.099,0.107l0.099,0.109l0.098,0.11l0.097,0.11l0.096,0.111l0.095,0.112l0.095,0.113l0.093,0.113l0.093,0.115l0.092,0.115l0.091,0.116l0.18,0.234l0.176,0.238l0.087,0.12l0.085,0.121l0.085,0.122l0.084,0.122l0.079,0.117l0.062,0.098l0.057,0.101l0.123,0.239l0.058,0.123l0.05,0.126l0.041,0.129l0.014,0.052l0.02,0.066l0.02,0.071l0.023,0.09l0.024,0.112l0.02,0.122l0.015,0.116l0.009,0.108l0.006,0.107l0.001,0.106l-0.002,0.106l-0.005,0.104l-0.009,0.104l-0.013,0.102l-0.015,0.1l-0.019,0.1l-0.021,0.097l-0.025,0.097l-0.027,0.094l-0.03,0.094l-0.033,0.091l-0.035,0.09l-0.037,0.088l-0.04,0.087l-0.042,0.085l-0.045,0.084l-0.046,0.081l-0.049,0.08l-0.051,0.079l-0.053,0.077l-0.055,0.075l-0.056,0.073l-0.059,0.072l-0.061,0.07l-0.063,0.068l-0.065,0.067l-0.067,0.065l-0.068,0.063l-0.071,0.062l-0.072,0.06l-0.075,0.057l-0.077,0.056l-0.078,0.054l-0.08,0.052l-0.083,0.05l-0.084,0.047l-0.086,0.046l-0.089,0.043l-0.09,0.04l-0.092,0.038l-0.094,0.036l-0.095,0.032l-0.098,0.03l-0.099,0.027l-0.101,0.024l-0.102,0.02l-0.104,0.018l-0.105,0.013l-0.106,0.011l-0.108,0.006l-0.108,0.003l-0.109,0l-0.109,-0.005l-0.11,-0.008l-0.11,-0.013l-0.11,-0.016l-0.109,-0.021l-0.11,-0.024l-0.108,-0.029l-0.116,-0.034l-0.138,-0.048l-0.142,-0.058l-0.135,-0.063l-0.129,-0.068l-0.04,-0.023l0.001,0.012l0.005,0.107l0.002,0.106l-0.002,0.106l-0.005,0.104l-0.009,0.103l-0.012,0.102l-0.016,0.101l-0.018,0.099l-0.022,0.098l-0.024,0.097l-0.028,0.094l-0.029,0.094l-0.033,0.091l-0.035,0.09l-0.037,0.089l-0.04,0.086l-0.042,0.085l-0.045,0.084l-0.046,0.081l-0.049,0.081l-0.051,0.078l-0.052,0.077l-0.055,0.075l-0.057,0.073l-0.059,0.072l-0.061,0.071l-0.063,0.068l-0.064,0.067l-0.067,0.065l-0.069,0.063l-0.07,0.062l-0.073,0.059l-0.074,0.058l-0.077,0.056l-0.078,0.054l-0.08,0.052l-0.083,0.05l-0.084,0.047l-0.086,0.046l-0.089,0.043l-0.09,0.04l-0.092,0.039l-0.094,0.035l-0.095,0.033l-0.098,0.03l-0.099,0.027l-0.101,0.023l-0.102,0.021l-0.104,0.017l-0.105,0.014l-0.106,0.011l-0.107,0.007l-0.108,0.003l-0.109,-0.001l-0.11,-0.004l-0.11,-0.009l-0.11,-0.012l-0.109,-0.017l-0.023,-0.004l0.024,0.06l0.037,0.096l0.036,0.096l0.035,0.097l0.034,0.098l0.064,0.196l0.03,0.1l0.029,0.099l0.028,0.1l0.052,0.202l0.024,0.102l0.023,0.102l0.021,0.102l0.021,0.103l0.019,0.104l0.018,0.103l0.016,0.105l0.016,0.104l0.014,0.105l0.012,0.106l0.012,0.105l0.01,0.106l0.009,0.107l0.007,0.106l0.006,0.107l0.005,0.108l0.003,0.107l0.002,0.108l0.001,0.111l-0.001,0.156l-0.005,0.159l-0.007,0.158l-0.01,0.158l-0.014,0.157l-0.016,0.156l-0.019,0.155l-0.021,0.154l-0.025,0.154l-0.027,0.153l-0.03,0.151l-0.033,0.151l-0.036,0.15l-0.038,0.149l-0.041,0.148l-0.043,0.146l-0.046,0.146l-0.048,0.144l-0.051,0.143l-0.054,0.142l-0.056,0.141l-0.059,0.14l-0.06,0.138l-0.064,0.137l-0.065,0.135l-0.068,0.134l-0.07,0.133l-0.073,0.131l-0.075,0.13l-0.077,0.128l-0.079,0.127l-0.081,0.125l-0.084,0.124l-0.085,0.122l-0.088,0.12l-0.09,0.119l-0.091,0.117l-0.094,0.115l-0.096,0.114l-0.098,0.112l-0.099,0.11l-0.102,0.109l-0.103,0.106l-0.105,0.105l-0.108,0.103l-0.108,0.101l-0.111,0.099l-0.113,0.097l-0.114,0.095l-0.116,0.094l-0.117,0.091l-0.12,0.089l-0.121,0.087l-0.122,0.085l-0.122,0.081l0,9.312l-0.008,0.174l-0.022,0.173l-0.038,0.171l-0.053,0.166l-0.066,0.161l-0.081,0.155l-2.607,4.516l-0.094,0.147l-0.106,0.138l-0.118,0.129l-0.129,0.118l-0.138,0.106l-0.147,0.094l-0.155,0.081l-0.161,0.066l-0.167,0.053l-0.17,0.038l-0.173,0.022l-0.174,0.008l-0.175,-0.008l-0.173,-0.022l-0.17,-0.038l-0.166,-0.053l-0.161,-0.066l-0.155,-0.081l-0.147,-0.094l-0.139,-0.106l-0.128,-0.118l-0.118,-0.129l-0.107,-0.138l-0.093,-0.147l-2.608,-4.516l-0.08,-0.155l-0.067,-0.161l-0.052,-0.166l-0.038,-0.171l-0.023,-0.173l-0.008,-0.174l0,-9.312l-0.121,-0.081l-0.123,-0.085l-0.121,-0.087l-0.119,-0.089l-0.118,-0.091l-0.116,-0.094l-0.114,-0.095l-0.112,-0.097l-0.111,-0.099l-0.109,-0.101l-0.107,-0.103l-0.105,-0.105l-0.104,-0.106l-0.101,-0.109l-0.1,-0.11l-0.098,-0.112l-0.095,-0.114l-0.094,-0.115l-0.092,-0.117l-0.09,-0.119l-0.087,-0.12l-0.086,-0.122l-0.083,-0.124l-0.082,-0.125l-0.079,-0.127l-0.077,-0.128l-0.075,-0.13l-0.072,-0.131l-0.07,-0.133l-0.068,-0.134l-0.066,-0.135l-0.063,-0.137l-0.061,-0.138l-0.058,-0.14l-0.056,-0.141l-0.054,-0.142l-0.051,-0.143l-0.049,-0.144l-0.046,-0.146l-0.043,-0.146l-0.041,-0.148l-0.038,-0.149l-0.035,-0.15l-0.033,-0.151l-0.03,-0.151l-0.028,-0.153l-0.024,-0.154l-0.022,-0.154l-0.019,-0.155l-0.016,-0.156l-0.013,-0.157l-0.01,-0.158l-0.008,-0.158l-0.004,-0.159l-0.002,-0.156l0.001,-0.111l0.002,-0.108l0.004,-0.107l0.004,-0.108l0.006,-0.107l0.008,-0.106l0.009,-0.107l0.01,-0.106l0.011,-0.105l0.013,-0.106l0.014,-0.105l0.015,-0.104l0.017,-0.105l0.018,-0.103l0.019,-0.104l0.02,-0.103l0.022,-0.102l0.023,-0.102l0.024,-0.102l0.025,-0.101l0.027,-0.101l0.028,-0.1l0.029,-0.099l0.03,-0.1l0.031,-0.098l0.033,-0.098l0.034,-0.098l0.034,-0.097l0.036,-0.096l0.038,-0.096l0.028,-0.07l-0.03,0.005l-0.1,0.013l-0.099,0.011l-0.099,0.007l-0.099,0.004l-0.097,0.001l-0.097,-0.002l-0.096,-0.005l-0.096,-0.007l-0.094,-0.011l-0.094,-0.013l-0.093,-0.015l-0.092,-0.018l-0.092,-0.021l-0.09,-0.023l-0.089,-0.026l-0.089,-0.028l-0.088,-0.03l-0.086,-0.033l-0.086,-0.035l-0.085,-0.038l-0.084,-0.04l-0.082,-0.043l-0.082,-0.045l-0.081,-0.047l-0.08,-0.05l-0.078,-0.052l-0.077,-0.054l-0.077,-0.057l-0.074,-0.06l-0.074,-0.062l-0.072,-0.065l-0.071,-0.067l-0.069,-0.07l-0.067,-0.073l-0.065,-0.075l-0.064,-0.078l-0.062,-0.08l-0.059,-0.083l-0.057,-0.086l-0.055,-0.088l-0.052,-0.091l-0.05,-0.093l-0.047,-0.095l-0.043,-0.098l-0.041,-0.1l-0.037,-0.102l-0.034,-0.104l-0.031,-0.106l-0.026,-0.107l-0.023,-0.109l-0.02,-0.11l-0.015,-0.111l-0.011,-0.108l-0.006,-0.093l-0.004,-0.09l-0.001,-0.09l0.001,-0.09l0.004,-0.09l0.005,-0.066l-0.036,0.021l-0.078,0.043l-0.083,0.042l-0.09,0.042l-0.096,0.041l-0.102,0.04l-0.103,0.035l-0.097,0.029l-0.093,0.025l-0.093,0.022l-0.093,0.018l-0.093,0.016l-0.093,0.013l-0.092,0.01l-0.092,0.007l-0.091,0.004l-0.091,0.002l-0.091,-0.001l-0.089,-0.003l-0.089,-0.006l-0.088,-0.008l-0.088,-0.011l-0.086,-0.013l-0.086,-0.016l-0.084,-0.017l-0.084,-0.02l-0.083,-0.021l-0.082,-0.024l-0.081,-0.026l-0.08,-0.028l-0.079,-0.03l-0.078,-0.032l-0.078,-0.033l-0.076,-0.036l-0.075,-0.038l-0.074,-0.039l-0.073,-0.041l-0.072,-0.043l-0.071,-0.045l-0.07,-0.047l-0.069,-0.049l-0.068,-0.05l-0.066,-0.052l-0.066,-0.055l-0.064,-0.056l-0.063,-0.058l-0.061,-0.06l-0.061,-0.061l-0.059,-0.064l-0.057,-0.065l-0.056,-0.068l-0.055,-0.069l-0.053,-0.071l-0.051,-0.073l-0.049,-0.075l-0.048,-0.077l-0.045,-0.079l-0.044,-0.08l-0.042,-0.083l-0.039,-0.084l-0.037,-0.085l-0.035,-0.088l-0.032,-0.089l-0.03,-0.09l-0.027,-0.092l-0.025,-0.093l-0.022,-0.095l-0.018,-0.096l-0.016,-0.096l-0.013,-0.098l-0.01,-0.1l-0.007,-0.102l-0.003,-0.102l0,-0.101l0.004,-0.099l0.006,-0.097l0.01,-0.095l0.012,-0.093l0.015,-0.091l0.017,-0.088l0.019,-0.085l0.021,-0.083l0.022,-0.081l0.024,-0.078l0.029,-0.086l0.049,-0.134l0.057,-0.136l0.058,-0.127l0.061,-0.119l0.06,-0.111l0.061,-0.104l0.061,-0.098l0.059,-0.092l0.056,-0.082l0.081,-0.117l0.08,-0.113l0.08,-0.111l0.081,-0.111l0.082,-0.111l0.082,-0.109l0.084,-0.109l0.084,-0.109l0.085,-0.107l0.085,-0.107l0.087,-0.106l0.087,-0.106l0.088,-0.105l0.089,-0.104l0.089,-0.104l0.091,-0.103l0.091,-0.102l0.091,-0.101l0.093,-0.101l0.093,-0.1l0.094,-0.1l0.094,-0.098l0.095,-0.098l0.096,-0.097l0.097,-0.097l0.097,-0.096l0.098,-0.095l0.099,-0.094l0.099,-0.094l0.1,-0.093l0.1,-0.092l0.102,-0.091l0.102,-0.091l0.102,-0.09l0.103,-0.089l0.104,-0.089l0.104,-0.087l0.105,-0.087l0.106,-0.086l0.106,-0.086l0.107,-0.085l0.107,-0.084l0.108,-0.083l0.108,-0.082l0.109,-0.082l0.11,-0.08l0.11,-0.081l0.111,-0.079l0.111,-0.078l0.112,-0.078l0.113,-0.077l0.113,-0.076l0.113,-0.075l0.114,-0.075l0.115,-0.074l0.115,-0.072l0.115,-0.073l0.116,-0.071l0.117,-0.07l0.117,-0.07l0.117,-0.069l0.118,-0.068l0.119,-0.067l0.118,-0.067l0.12,-0.065l0.12,-0.065l0.12,-0.064l0.121,-0.063l0.121,-0.062l0.122,-0.061l0.122,-0.061l0.122,-0.059l0.123,-0.059l0.124,-0.058l0.123,-0.057l0.125,-0.056l0.124,-0.056l0.125,-0.054l0.126,-0.054l0.125,-0.052l0.126,-0.052l0.127,-0.051l0.127,-0.05l0.127,-0.049l0.128,-0.049l0.128,-0.047l0.128,-0.047l0.129,-0.045l0.129,-0.045l0.129,-0.044l0.13,-0.042l0.13,-0.042l0.13,-0.041l0.131,-0.04l0.131,-0.04l0.131,-0.038l0.132,-0.037l0.132,-0.036l0.132,-0.036l0.133,-0.034l0.132,-0.034l0.133,-0.032l0.134,-0.032l0.133,-0.03l0.134,-0.03l0.134,-0.029l0.134,-0.028l0.135,-0.026l0.135,-0.026l0.135,-0.025l0.135,-0.024l0.136,-0.022l0.135,-0.022l0.136,-0.021l0.136,-0.02l0.137,-0.019l0.136,-0.018l0.137,-0.016l0.137,-0.016l0.137,-0.015l0.137,-0.014l0.137,-0.012l0.138,-0.012l0.137,-0.011l0.138,-0.009l0.138,-0.009l0.138,-0.007l0.141,-0.007l0.211,-0.008l0.213,-0.005l0.212,-0.003l0.211,-0.001l0.148,0.001Z" style="fill:#fff;"/><path d="M14.896,27.584c-2.239,-0.996 -3.799,-3.24 -3.799,-5.847c0,-3.536 2.871,-6.406 6.407,-6.406c3.536,0 6.406,2.87 6.406,6.406c0,2.607 -1.56,4.851 -3.799,5.847l0,10.492l-2.607,4.516l-2.608,-4.516l0,-10.492Zm2.652,-17.811c3.645,0.021 7.224,1.89 9.308,5.002l0.124,0.238c0.023,0.087 0.055,0.172 0.068,0.261c0.111,0.782 -0.699,1.585 -1.553,1.314c-0.172,-0.055 -0.33,-0.147 -0.461,-0.271c-0.17,-0.161 -0.277,-0.363 -0.413,-0.547c-2.064,-2.8 -5.825,-4.199 -9.283,-3.326c-2.097,0.53 -3.974,1.851 -5.191,3.667l-0.174,0.206c-0.071,0.054 -0.137,0.116 -0.215,0.161c-0.691,0.407 -1.734,-0.068 -1.806,-0.935c-0.015,-0.18 0.011,-0.361 0.075,-0.53c0.081,-0.21 0.219,-0.382 0.348,-0.562c2.003,-2.784 5.321,-4.565 8.777,-4.673c0.132,-0.004 0.264,-0.005 0.396,-0.005Zm-0.011,-5.579c5.513,0.015 10.933,2.847 14.075,7.546l0.123,0.239c0.023,0.087 0.055,0.172 0.068,0.26c0.11,0.782 -0.7,1.585 -1.554,1.313c-0.525,-0.167 -0.798,-0.738 -1.163,-1.218c-2.52,-3.311 -6.517,-5.45 -10.674,-5.71c-3.608,-0.225 -7.279,0.953 -10.08,3.224c-1.135,0.921 -2.13,2.017 -2.939,3.227l-0.174,0.206c-0.144,0.108 -0.29,0.217 -0.46,0.271c-0.682,0.217 -1.498,-0.287 -1.562,-1.044c-0.03,-0.355 0.146,-0.695 0.347,-0.987c2.965,-4.297 7.982,-7.086 13.231,-7.312c0.254,-0.01 0.508,-0.015 0.762,-0.015Z" style="fill:#e9d834;"/></svg>