<?xml version="1.0" encoding="UTF-8" standalone="no"?><!DOCTYPE svg PUBLIC "-//W3C//DTD SVG 1.1//EN" "http://www.w3.org/Graphics/SVG/1.1/DTD/svg11.dtd"><svg width="100%" height="100%" viewBox="0 0 45 50" version="1.1" xmlns="http://www.w3.org/2000/svg" xmlns:xlink="http://www.w3.org/1999/xlink" xml:space="preserve" xmlns:serif="http://www.serif.com/" style="fill-rule:evenodd;clip-rule:evenodd;stroke-linejoin:round;stroke-miterlimit:1.41421;"><path d="M22.818,1.804l0.266,0.005l0.265,0.009l0.265,0.011l0.265,0.015l0.264,0.017l0.264,0.02l0.264,0.024l0.264,0.026l0.263,0.029l0.263,0.032l0.262,0.035l0.262,0.038l0.261,0.041l0.261,0.044l0.26,0.046l0.26,0.05l0.259,0.052l0.258,0.055l0.258,0.058l0.257,0.06l0.257,0.064l0.255,0.066l0.255,0.069l0.254,0.072l0.254,0.075l0.252,0.077l0.252,0.08l0.25,0.083l0.25,0.085l0.249,0.089l0.247,0.09l0.247,0.094l0.246,0.096l0.245,0.099l0.243,0.102l0.243,0.104l0.241,0.107l0.24,0.109l0.239,0.112l0.238,0.115l0.236,0.117l0.235,0.12l0.234,0.122l0.233,0.125l0.231,0.128l0.229,0.13l0.229,0.133l0.227,0.135l0.225,0.137l0.224,0.141l0.222,0.142l0.221,0.145l0.219,0.148l0.218,0.15l0.216,0.153l0.214,0.155l0.213,0.157l0.21,0.16l0.209,0.163l0.208,0.164l0.205,0.168l0.204,0.169l0.2,0.171l0.152,0.133l0.15,0.133l0.149,0.134l0.148,0.135l0.292,0.274l0.144,0.139l0.143,0.14l0.282,0.284l0.139,0.144l0.138,0.144l0.137,0.146l0.135,0.147l0.135,0.148l0.133,0.15l0.131,0.15l0.131,0.151l0.129,0.153l0.128,0.153l0.127,0.154l0.125,0.156l0.124,0.156l0.123,0.158l0.121,0.158l0.12,0.16l0.119,0.16l0.117,0.161l0.116,0.163l0.115,0.163l0.113,0.164l0.121,0.179l0.039,0.06l0.035,0.058l0.042,0.07l0.049,0.086l0.054,0.104l0.055,0.113l0.038,0.086l0.033,0.083l0.034,0.093l0.03,0.092l0.027,0.092l0.024,0.093l0.021,0.093l0.018,0.092l0.016,0.093l0.012,0.092l0.009,0.092l0.007,0.091l0.004,0.091l0.001,0.09l-0.001,0.09l-0.004,0.089l-0.006,0.088l-0.009,0.088l-0.011,0.086l-0.013,0.086l-0.015,0.086l-0.018,0.084l-0.019,0.083l-0.022,0.082l-0.024,0.082l-0.026,0.08l-0.027,0.08l-0.03,0.079l-0.032,0.078l-0.033,0.077l-0.036,0.075l-0.037,0.075l-0.039,0.074l-0.041,0.073l-0.043,0.072l-0.045,0.071l-0.047,0.07l-0.048,0.069l-0.051,0.068l-0.052,0.067l-0.054,0.065l-0.056,0.064l-0.058,0.064l-0.06,0.061l-0.062,0.061l-0.063,0.059l-0.066,0.058l-0.068,0.056l-0.069,0.055l-0.072,0.053l-0.073,0.052l-0.076,0.049l-0.077,0.048l-0.079,0.046l-0.081,0.044l-0.083,0.042l-0.085,0.04l-0.087,0.037l-0.088,0.035l-0.09,0.032l-0.091,0.03l-0.093,0.027l-0.095,0.024l-0.095,0.022l-0.097,0.018l-0.096,0.015l-0.093,0.012l-0.092,0.009l-0.091,0.006l-0.091,0.004l-0.091,0l-0.09,-0.001l-0.09,-0.004l-0.089,-0.007l-0.089,-0.009l-0.088,-0.012l-0.088,-0.014l-0.087,-0.016l-0.086,-0.019l-0.086,-0.021l-0.058,-0.015l0.001,0.014l0.001,0.106l-0.002,0.106l-0.005,0.104l-0.009,0.104l-0.013,0.102l-0.015,0.1l-0.019,0.1l-0.021,0.098l-0.025,0.096l-0.027,0.095l-0.03,0.093l-0.033,0.091l-0.035,0.09l-0.037,0.088l-0.04,0.087l-0.042,0.085l-0.045,0.084l-0.046,0.081l-0.049,0.08l-0.051,0.079l-0.053,0.077l-0.055,0.075l-0.056,0.073l-0.059,0.072l-0.061,0.07l-0.063,0.068l-0.065,0.067l-0.067,0.065l-0.068,0.063l-0.071,0.062l-0.072,0.06l-0.075,0.057l-0.077,0.056l-0.078,0.054l-0.08,0.052l-0.083,0.05l-0.084,0.047l-0.086,0.046l-0.089,0.043l-0.09,0.04l-0.092,0.038l-0.094,0.036l-0.095,0.032l-0.098,0.03l-0.099,0.027l-0.101,0.024l-0.102,0.02l-0.104,0.018l-0.105,0.013l-0.106,0.011l-0.108,0.006l-0.108,0.003l-0.109,0l-0.109,-0.005l-0.11,-0.008l-0.11,-0.013l-0.11,-0.016l-0.109,-0.021l-0.11,-0.024l-0.108,-0.029l-0.116,-0.034l-0.138,-0.048l-0.142,-0.058l-0.135,-0.063l-0.129,-0.068l-0.04,-0.023l0.001,0.012l0.005,0.107l0.002,0.106l-0.002,0.106l-0.005,0.104l-0.009,0.104l-0.012,0.101l-0.016,0.101l-0.018,0.1l-0.022,0.097l-0.024,0.097l-0.028,0.094l-0.029,0.094l-0.033,0.091l-0.035,0.09l-0.037,0.089l-0.04,0.086l-0.042,0.085l-0.045,0.084l-0.046,0.081l-0.049,0.081l-0.051,0.078l-0.052,0.077l-0.055,0.075l-0.057,0.073l-0.059,0.072l-0.061,0.071l-0.062,0.068l-0.065,0.067l-0.067,0.065l-0.069,0.063l-0.07,0.062l-0.073,0.059l-0.074,0.058l-0.077,0.056l-0.078,0.054l-0.08,0.052l-0.083,0.05l-0.084,0.047l-0.086,0.046l-0.089,0.043l-0.09,0.04l-0.092,0.039l-0.094,0.035l-0.095,0.033l-0.098,0.03l-0.099,0.027l-0.101,0.023l-0.102,0.021l-0.104,0.017l-0.105,0.014l-0.106,0.011l-0.107,0.007l-0.108,0.003l-0.109,-0.001l-0.11,-0.004l-0.11,-0.009l-0.11,-0.012l-0.109,-0.017l-0.023,-0.004l0.024,0.06l0.037,0.096l0.036,0.096l0.035,0.097l0.034,0.098l0.064,0.196l0.03,0.1l0.029,0.099l0.028,0.1l0.026,0.101l0.025,0.101l0.025,0.102l0.023,0.102l0.021,0.102l0.021,0.103l0.019,0.104l0.018,0.103l0.016,0.105l0.016,0.104l0.014,0.105l0.012,0.105l0.012,0.106l0.01,0.106l0.009,0.107l0.007,0.106l0.006,0.107l0.005,0.108l0.003,0.107l0.002,0.108l0.001,0.111l-0.001,0.156l-0.005,0.159l-0.007,0.158l-0.01,0.158l-0.014,0.156l-0.016,0.157l-0.019,0.155l-0.021,0.154l-0.025,0.154l-0.027,0.153l-0.03,0.151l-0.033,0.151l-0.036,0.15l-0.038,0.149l-0.041,0.148l-0.043,0.146l-0.046,0.146l-0.048,0.144l-0.051,0.143l-0.054,0.142l-0.056,0.141l-0.059,0.14l-0.06,0.138l-0.064,0.137l-0.065,0.135l-0.068,0.134l-0.07,0.133l-0.073,0.131l-0.075,0.13l-0.077,0.128l-0.079,0.127l-0.081,0.125l-0.084,0.124l-0.085,0.122l-0.088,0.12l-0.09,0.119l-0.091,0.117l-0.094,0.115l-0.096,0.114l-0.097,0.112l-0.1,0.11l-0.102,0.109l-0.103,0.106l-0.105,0.105l-0.108,0.103l-0.108,0.101l-0.111,0.099l-0.113,0.097l-0.114,0.095l-0.116,0.094l-0.117,0.091l-0.12,0.089l-0.121,0.087l-0.122,0.085l-0.122,0.081l0,9.312l-0.008,0.174l-0.022,0.173l-0.038,0.171l-0.053,0.166l-0.066,0.161l-0.081,0.155l-2.607,4.516l-0.098,0.153l-0.112,0.144l-0.124,0.133l-0.136,0.121l-0.146,0.109l-0.156,0.094l-0.163,0.08l-0.171,0.065l-0.175,0.049l-0.179,0.033l-0.181,0.017l-0.182,0l-0.182,-0.017l-0.179,-0.033l-0.175,-0.049l-0.17,-0.065l-0.164,-0.08l-0.155,-0.094l-0.146,-0.109l-0.136,-0.121l-0.125,-0.133l-0.111,-0.144l-0.098,-0.153l-2.608,-4.516l-0.08,-0.155l-0.067,-0.161l-0.052,-0.166l-0.038,-0.171l-0.023,-0.173l-0.008,-0.174l0,-9.312l-0.121,-0.081l-0.123,-0.085l-0.121,-0.087l-0.119,-0.089l-0.118,-0.091l-0.116,-0.094l-0.114,-0.095l-0.112,-0.097l-0.111,-0.099l-0.109,-0.101l-0.107,-0.103l-0.105,-0.105l-0.104,-0.106l-0.101,-0.109l-0.1,-0.11l-0.098,-0.112l-0.095,-0.114l-0.094,-0.115l-0.092,-0.117l-0.09,-0.119l-0.087,-0.12l-0.086,-0.122l-0.083,-0.124l-0.082,-0.125l-0.079,-0.127l-0.077,-0.128l-0.075,-0.13l-0.072,-0.131l-0.07,-0.133l-0.068,-0.134l-0.066,-0.135l-0.063,-0.137l-0.061,-0.138l-0.058,-0.14l-0.056,-0.141l-0.054,-0.142l-0.051,-0.143l-0.049,-0.144l-0.046,-0.146l-0.043,-0.146l-0.041,-0.148l-0.038,-0.149l-0.035,-0.15l-0.033,-0.151l-0.03,-0.151l-0.028,-0.153l-0.024,-0.154l-0.022,-0.154l-0.019,-0.155l-0.016,-0.156l-0.013,-0.157l-0.01,-0.158l-0.008,-0.158l-0.004,-0.159l-0.002,-0.156l0.001,-0.111l0.002,-0.108l0.004,-0.107l0.004,-0.108l0.006,-0.107l0.008,-0.106l0.009,-0.107l0.01,-0.106l0.011,-0.106l0.013,-0.105l0.014,-0.105l0.015,-0.104l0.017,-0.105l0.018,-0.103l0.019,-0.104l0.02,-0.103l0.022,-0.102l0.023,-0.102l0.024,-0.102l0.025,-0.101l0.027,-0.101l0.028,-0.1l0.029,-0.099l0.03,-0.1l0.031,-0.098l0.033,-0.098l0.034,-0.098l0.034,-0.097l0.036,-0.096l0.038,-0.096l0.028,-0.07l-0.03,0.005l-0.1,0.013l-0.099,0.011l-0.099,0.007l-0.099,0.004l-0.097,0.001l-0.097,-0.002l-0.096,-0.005l-0.096,-0.007l-0.094,-0.011l-0.094,-0.013l-0.093,-0.015l-0.092,-0.018l-0.092,-0.021l-0.09,-0.023l-0.089,-0.026l-0.089,-0.028l-0.088,-0.03l-0.086,-0.033l-0.086,-0.035l-0.085,-0.038l-0.084,-0.04l-0.082,-0.043l-0.082,-0.045l-0.081,-0.047l-0.08,-0.05l-0.078,-0.052l-0.078,-0.054l-0.076,-0.057l-0.074,-0.06l-0.074,-0.062l-0.072,-0.065l-0.071,-0.067l-0.069,-0.07l-0.067,-0.073l-0.065,-0.075l-0.064,-0.078l-0.062,-0.08l-0.059,-0.083l-0.057,-0.086l-0.055,-0.088l-0.052,-0.091l-0.05,-0.093l-0.047,-0.095l-0.043,-0.098l-0.041,-0.1l-0.037,-0.102l-0.034,-0.104l-0.031,-0.106l-0.026,-0.107l-0.023,-0.109l-0.02,-0.11l-0.015,-0.111l-0.011,-0.108l-0.006,-0.093l-0.004,-0.09l-0.001,-0.09l0.001,-0.09l0.004,-0.09l0.005,-0.066l-0.036,0.021l-0.078,0.043l-0.083,0.042l-0.09,0.042l-0.096,0.041l-0.102,0.04l-0.103,0.035l-0.097,0.029l-0.093,0.025l-0.093,0.022l-0.093,0.018l-0.093,0.016l-0.093,0.013l-0.092,0.01l-0.092,0.007l-0.091,0.004l-0.091,0.002l-0.091,-0.001l-0.089,-0.003l-0.089,-0.006l-0.088,-0.008l-0.088,-0.011l-0.086,-0.013l-0.086,-0.016l-0.084,-0.017l-0.084,-0.02l-0.083,-0.021l-0.082,-0.024l-0.081,-0.026l-0.08,-0.028l-0.079,-0.03l-0.078,-0.032l-0.078,-0.033l-0.076,-0.036l-0.075,-0.038l-0.074,-0.039l-0.073,-0.041l-0.072,-0.043l-0.071,-0.045l-0.07,-0.047l-0.069,-0.049l-0.068,-0.05l-0.066,-0.052l-0.066,-0.055l-0.064,-0.056l-0.063,-0.058l-0.061,-0.06l-0.061,-0.061l-0.059,-0.064l-0.057,-0.065l-0.056,-0.068l-0.055,-0.069l-0.052,-0.071l-0.052,-0.073l-0.049,-0.075l-0.048,-0.077l-0.045,-0.079l-0.044,-0.08l-0.042,-0.083l-0.039,-0.084l-0.037,-0.085l-0.035,-0.088l-0.032,-0.089l-0.03,-0.09l-0.027,-0.092l-0.025,-0.093l-0.022,-0.095l-0.018,-0.096l-0.016,-0.096l-0.013,-0.098l-0.01,-0.1l-0.007,-0.102l-0.003,-0.102l0,-0.101l0.004,-0.099l0,-0.001l-0.075,0.02l-0.093,0.022l-0.093,0.018l-0.093,0.016l-0.093,0.013l-0.092,0.01l-0.092,0.007l-0.091,0.004l-0.091,0.002l-0.09,-0.001l-0.09,-0.003l-0.089,-0.006l-0.088,-0.009l-0.087,-0.01l-0.087,-0.013l-0.085,-0.016l-0.085,-0.017l-0.084,-0.02l-0.083,-0.022l-0.082,-0.024l-0.081,-0.025l-0.08,-0.028l-0.079,-0.03l-0.078,-0.032l-0.077,-0.034l-0.077,-0.035l-0.075,-0.038l-0.074,-0.039l-0.073,-0.041l-0.072,-0.044l-0.071,-0.045l-0.07,-0.046l-0.069,-0.049l-0.067,-0.05l-0.067,-0.053l-0.065,-0.054l-0.065,-0.056l-0.062,-0.058l-0.062,-0.06l-0.06,-0.062l-0.059,-0.063l-0.058,-0.066l-0.056,-0.067l-0.054,-0.069l-0.053,-0.072l-0.051,-0.073l-0.05,-0.075l-0.047,-0.077l-0.046,-0.078l-0.044,-0.081l-0.041,-0.082l-0.04,-0.084l-0.037,-0.086l-0.035,-0.087l-0.032,-0.089l-0.03,-0.091l-0.027,-0.092l-0.025,-0.093l-0.021,-0.094l-0.019,-0.096l-0.016,-0.097l-0.013,-0.097l-0.011,-0.109l-0.008,-0.143l-0.001,-0.15l0.006,-0.146l0.013,-0.142l0.019,-0.136l0.023,-0.132l0.028,-0.125l0.032,-0.12l0.034,-0.115l0.037,-0.109l0.039,-0.103l0.04,-0.099l0.042,-0.094l0.041,-0.09l0.043,-0.085l0.033,-0.064l0.053,-0.094l0.058,-0.092l0.051,-0.076l0.146,-0.214l0.151,-0.216l0.153,-0.214l0.155,-0.213l0.158,-0.21l0.16,-0.209l0.163,-0.207l0.165,-0.205l0.167,-0.203l0.169,-0.201l0.172,-0.199l0.174,-0.197l0.175,-0.196l0.178,-0.193l0.181,-0.191l0.182,-0.19l0.184,-0.187l0.186,-0.185l0.188,-0.183l0.191,-0.182l0.192,-0.179l0.194,-0.176l0.196,-0.175l0.198,-0.173l0.2,-0.17l0.201,-0.169l0.204,-0.166l0.205,-0.164l0.207,-0.162l0.209,-0.159l0.21,-0.157l0.212,-0.155l0.214,-0.153l0.215,-0.15l0.217,-0.148l0.219,-0.146l0.22,-0.143l0.222,-0.141l0.223,-0.138l0.225,-0.137l0.226,-0.133l0.228,-0.131l0.229,-0.129l0.23,-0.126l0.232,-0.124l0.233,-0.121l0.235,-0.119l0.236,-0.116l0.237,-0.114l0.239,-0.111l0.239,-0.108l0.241,-0.106l0.242,-0.103l0.244,-0.1l0.244,-0.097l0.246,-0.095l0.246,-0.093l0.248,-0.089l0.249,-0.087l0.25,-0.083l0.251,-0.082l0.252,-0.078l0.252,-0.075l0.253,-0.072l0.194,-0.053l0.193,-0.052l0.194,-0.049l0.193,-0.048l0.195,-0.047l0.194,-0.045l0.195,-0.043l0.196,-0.041l0.195,-0.04l0.196,-0.038l0.197,-0.037l0.196,-0.034l0.197,-0.034l0.197,-0.031l0.198,-0.03l0.197,-0.028l0.198,-0.027l0.198,-0.025l0.199,-0.023l0.198,-0.022l0.199,-0.02l0.199,-0.018l0.199,-0.017l0.2,-0.015l0.199,-0.014l0.2,-0.011l0.2,-0.011l0.2,-0.008l0.2,-0.007l0.2,-0.005l0.2,-0.003l0.2,-0.002l0.146,0l0.264,0.002Z" style="fill:#fff;"/><path d="M19.896,32.584c-2.239,-0.996 -3.799,-3.24 -3.799,-5.847c0,-3.536 2.871,-6.406 6.407,-6.406c3.536,0 6.406,2.87 6.406,6.406c0,2.607 -1.56,4.851 -3.799,5.847l0,10.492l-2.607,4.516l-2.608,-4.516l0,-10.492Zm2.652,-17.811c3.645,0.021 7.224,1.89 9.308,5.002l0.124,0.238c0.023,0.087 0.055,0.172 0.068,0.261c0.111,0.782 -0.699,1.585 -1.553,1.314c-0.172,-0.055 -0.33,-0.147 -0.461,-0.271c-0.17,-0.161 -0.277,-0.363 -0.413,-0.547c-2.064,-2.8 -5.825,-4.199 -9.283,-3.326c-2.097,0.53 -3.974,1.851 -5.191,3.667l-0.174,0.206c-0.071,0.054 -0.137,0.116 -0.215,0.161c-0.691,0.407 -1.734,-0.068 -1.806,-0.935c-0.015,-0.18 0.011,-0.361 0.075,-0.53c0.081,-0.21 0.219,-0.382 0.348,-0.562c2.003,-2.784 5.321,-4.565 8.777,-4.673c0.132,-0.004 0.264,-0.005 0.396,-0.005Zm-0.011,-5.579c5.513,0.015 10.933,2.847 14.075,7.546l0.123,0.239c0.023,0.087 0.055,0.172 0.068,0.26c0.11,0.782 -0.7,1.585 -1.554,1.313c-0.525,-0.167 -0.798,-0.738 -1.163,-1.218c-2.52,-3.311 -6.517,-5.45 -10.674,-5.71c-3.608,-0.225 -7.279,0.953 -10.08,3.224c-1.135,0.921 -2.13,2.017 -2.939,3.227l-0.174,0.206c-0.144,0.108 -0.29,0.217 -0.46,0.271c-0.682,0.217 -1.498,-0.287 -1.562,-1.044c-0.03,-0.355 0.146,-0.695 0.347,-0.987c2.965,-4.297 7.982,-7.086 13.231,-7.312c0.254,-0.01 0.508,-0.015 0.762,-0.015Zm0.01,-5.392c5.178,0.015 10.316,1.932 14.225,5.305c1.481,1.278 2.787,2.758 3.873,4.376c0,0 0.1,0.15 0.147,0.274c0.257,0.672 -0.214,1.513 -0.954,1.618c-0.357,0.05 -0.731,-0.069 -0.993,-0.316c-0.123,-0.116 -0.21,-0.262 -0.302,-0.396c-2.465,-3.596 -6.152,-6.314 -10.314,-7.597c-4.565,-1.407 -9.626,-1.061 -13.968,0.973c-3.191,1.494 -5.959,3.875 -7.925,6.814l-0.174,0.206c-0.143,0.108 -0.29,0.217 -0.46,0.271c-0.682,0.217 -1.498,-0.287 -1.561,-1.044c-0.023,-0.268 0.069,-0.527 0.198,-0.768c0.001,-0.001 0.047,-0.07 0.047,-0.07c2.864,-4.257 7.295,-7.459 12.245,-8.842c1.88,-0.525 3.826,-0.795 5.787,-0.804c0.043,0 0.086,0 0.129,0Z" style="fill:#dd2ea8;"/></svg>