<?xml version="1.0" encoding="UTF-8" standalone="no"?><!DOCTYPE svg PUBLIC "-//W3C//DTD SVG 1.1//EN" "http://www.w3.org/Graphics/SVG/1.1/DTD/svg11.dtd"><svg width="100%" height="100%" viewBox="0 0 18 18" version="1.1" xmlns="http://www.w3.org/2000/svg" xmlns:xlink="http://www.w3.org/1999/xlink" xml:space="preserve" xmlns:serif="http://www.serif.com/" style="fill-rule:evenodd;clip-rule:evenodd;stroke-linejoin:round;stroke-miterlimit:1.41421;"><rect x="5" y="5" width="8" height="8" style="fill:#008B8B;"/><path d="M13.066,3.565l0.067,0.005l0.065,0.008l0.066,0.01l0.065,0.014l0.064,0.017l0.063,0.019l0.063,0.023l0.061,0.025l0.06,0.028l0.059,0.031l0.057,0.034l0.056,0.036l0.053,0.039l0.052,0.041l0.05,0.044l0.048,0.046l0.046,0.048l0.044,0.05l0.041,0.052l0.039,0.053l0.036,0.056l0.034,0.057l0.031,0.059l0.028,0.06l0.025,0.061l0.023,0.063l0.019,0.063l0.017,0.064l0.014,0.065l0.01,0.066l0.008,0.065l0.005,0.067l0.001,0.066l0,8l-0.001,0.066l-0.005,0.067l-0.008,0.065l-0.01,0.066l-0.014,0.065l-0.017,0.064l-0.019,0.063l-0.023,0.063l-0.025,0.061l-0.028,0.06l-0.031,0.059l-0.034,0.057l-0.036,0.056l-0.039,0.053l-0.041,0.052l-0.044,0.05l-0.046,0.048l-0.048,0.046l-0.05,0.044l-0.052,0.041l-0.053,0.039l-0.056,0.036l-0.057,0.034l-0.059,0.031l-0.06,0.028l-0.061,0.025l-0.063,0.023l-0.063,0.019l-0.064,0.017l-0.065,0.014l-0.066,0.01l-0.065,0.008l-0.067,0.005l-0.066,0.001l-8,0l-0.066,-0.001l-0.067,-0.005l-0.065,-0.008l-0.066,-0.01l-0.065,-0.014l-0.064,-0.017l-0.063,-0.019l-0.063,-0.023l-0.061,-0.025l-0.06,-0.028l-0.059,-0.031l-0.057,-0.034l-0.056,-0.036l-0.053,-0.039l-0.052,-0.041l-0.05,-0.044l-0.048,-0.046l-0.046,-0.048l-0.044,-0.05l-0.041,-0.052l-0.039,-0.053l-0.036,-0.056l-0.034,-0.057l-0.031,-0.059l-0.028,-0.06l-0.025,-0.061l-0.023,-0.063l-0.019,-0.063l-0.017,-0.064l-0.014,-0.065l-0.01,-0.066l-0.008,-0.065l-0.005,-0.067l-0.001,-0.066l0,-8l0.001,-0.066l0.005,-0.067l0.008,-0.065l0.01,-0.066l0.014,-0.065l0.017,-0.064l0.019,-0.063l0.023,-0.063l0.025,-0.061l0.028,-0.06l0.031,-0.059l0.034,-0.057l0.036,-0.056l0.039,-0.053l0.041,-0.052l0.044,-0.05l0.046,-0.048l0.048,-0.046l0.05,-0.044l0.052,-0.041l0.053,-0.039l0.056,-0.036l0.057,-0.034l0.059,-0.031l0.06,-0.028l0.061,-0.025l0.063,-0.023l0.063,-0.019l0.064,-0.017l0.065,-0.014l0.066,-0.01l0.065,-0.008l0.067,-0.005l0.066,-0.001l8,0l0.066,0.001Zm-8.066,1.435l0,8l8,0l0,-8l-8,0Z" style="fill:#fff;"/></svg>