<?xml version="1.0" encoding="UTF-8" standalone="no"?><!DOCTYPE svg PUBLIC "-//W3C//DTD SVG 1.1//EN" "http://www.w3.org/Graphics/SVG/1.1/DTD/svg11.dtd"><svg width="100%" height="100%" viewBox="0 0 21 32" version="1.1" xmlns="http://www.w3.org/2000/svg" xmlns:xlink="http://www.w3.org/1999/xlink" xml:space="preserve" xmlns:serif="http://www.serif.com/" style="fill-rule:evenodd;clip-rule:evenodd;stroke-linejoin:round;stroke-miterlimit:1.41421;"><path d="M10.608,0.331l0.108,0.002l0.108,0.004l0.107,0.005l0.107,0.006l0.107,0.007l0.106,0.009l0.106,0.01l0.106,0.012l0.105,0.012l0.105,0.014l0.105,0.016l0.104,0.016l0.103,0.018l0.104,0.019l0.103,0.021l0.102,0.021l0.102,0.023l0.102,0.024l0.202,0.052l0.1,0.028l0.1,0.029l0.099,0.03l0.196,0.064l0.098,0.034l0.097,0.035l0.096,0.036l0.096,0.037l0.096,0.038l0.188,0.08l0.094,0.042l0.093,0.043l0.092,0.043l0.092,0.045l0.091,0.046l0.09,0.047l0.09,0.048l0.089,0.049l0.088,0.05l0.088,0.052l0.087,0.052l0.086,0.053l0.086,0.054l0.085,0.055l0.084,0.056l0.166,0.116l0.082,0.059l0.081,0.06l0.16,0.122l0.079,0.063l0.078,0.064l0.078,0.065l0.076,0.065l0.076,0.067l0.075,0.067l0.074,0.068l0.073,0.069l0.073,0.07l0.142,0.142l0.07,0.073l0.069,0.073l0.068,0.074l0.068,0.075l0.066,0.076l0.066,0.077l0.064,0.077l0.064,0.078l0.063,0.079l0.062,0.08l0.06,0.08l0.06,0.081l0.06,0.082l0.058,0.083l0.057,0.083l0.056,0.085l0.055,0.084l0.054,0.086l0.053,0.086l0.053,0.087l0.051,0.088l0.05,0.088l0.049,0.089l0.048,0.09l0.047,0.09l0.046,0.092l0.045,0.091l0.044,0.092l0.042,0.093l0.042,0.094l0.04,0.094l0.04,0.095l0.038,0.095l0.037,0.096l0.036,0.096l0.035,0.097l0.034,0.098l0.064,0.196l0.03,0.1l0.029,0.099l0.028,0.1l0.052,0.202l0.024,0.102l0.023,0.102l0.021,0.102l0.021,0.103l0.019,0.104l0.018,0.103l0.017,0.105l0.015,0.104l0.014,0.105l0.013,0.106l0.011,0.105l0.01,0.106l0.009,0.107l0.007,0.106l0.006,0.107l0.005,0.108l0.004,0.107l0.002,0.108l0,0.111l-0.001,0.156l-0.004,0.159l-0.008,0.158l-0.01,0.158l-0.013,0.157l-0.016,0.156l-0.019,0.155l-0.022,0.154l-0.025,0.154l-0.027,0.153l-0.03,0.151l-0.033,0.151l-0.035,0.15l-0.039,0.149l-0.04,0.148l-0.044,0.146l-0.046,0.146l-0.048,0.144l-0.051,0.143l-0.054,0.142l-0.056,0.141l-0.058,0.14l-0.061,0.138l-0.063,0.137l-0.066,0.135l-0.068,0.134l-0.07,0.133l-0.073,0.131l-0.074,0.13l-0.077,0.128l-0.08,0.127l-0.081,0.125l-0.083,0.124l-0.086,0.122l-0.088,0.12l-0.089,0.119l-0.092,0.117l-0.094,0.115l-0.096,0.114l-0.097,0.112l-0.1,0.11l-0.101,0.109l-0.104,0.106l-0.105,0.105l-0.107,0.103l-0.109,0.101l-0.111,0.099l-0.112,0.097l-0.115,0.095l-0.116,0.094l-0.117,0.091l-0.12,0.089l-0.12,0.087l-0.123,0.085l-0.122,0.081l0,9.312l-0.004,0.131l-0.013,0.13l-0.021,0.129l-0.03,0.128l-0.038,0.125l-0.046,0.122l-0.054,0.119l-0.062,0.116l-2.607,4.516l-0.077,0.122l-0.085,0.117l-0.093,0.11l-0.102,0.103l-0.108,0.095l-0.115,0.088l-0.121,0.079l-0.126,0.07l-0.131,0.06l-0.135,0.051l-0.139,0.041l-0.141,0.031l-0.143,0.021l-0.144,0.011l-0.144,0l-0.144,-0.011l-0.143,-0.021l-0.141,-0.031l-0.139,-0.041l-0.135,-0.051l-0.131,-0.06l-0.126,-0.07l-0.121,-0.079l-0.115,-0.088l-0.108,-0.095l-0.102,-0.103l-0.093,-0.11l-0.085,-0.117l-0.077,-0.122l-2.607,-4.516l-0.062,-0.116l-0.054,-0.119l-0.046,-0.122l-0.038,-0.125l-0.03,-0.128l-0.021,-0.129l-0.013,-0.13l-0.004,-0.131l0,-9.312l-0.122,-0.081l-0.123,-0.085l-0.12,-0.087l-0.12,-0.089l-0.117,-0.091l-0.116,-0.094l-0.115,-0.095l-0.112,-0.097l-0.111,-0.099l-0.109,-0.101l-0.107,-0.103l-0.105,-0.105l-0.104,-0.106l-0.101,-0.109l-0.1,-0.11l-0.097,-0.112l-0.096,-0.114l-0.094,-0.115l-0.092,-0.117l-0.089,-0.119l-0.088,-0.12l-0.086,-0.122l-0.083,-0.124l-0.081,-0.125l-0.08,-0.127l-0.077,-0.128l-0.074,-0.13l-0.073,-0.131l-0.07,-0.133l-0.068,-0.134l-0.066,-0.135l-0.063,-0.137l-0.061,-0.138l-0.058,-0.14l-0.056,-0.141l-0.054,-0.142l-0.051,-0.143l-0.048,-0.144l-0.046,-0.146l-0.044,-0.146l-0.04,-0.148l-0.039,-0.149l-0.035,-0.15l-0.033,-0.151l-0.03,-0.151l-0.027,-0.153l-0.025,-0.154l-0.022,-0.154l-0.019,-0.155l-0.016,-0.156l-0.013,-0.157l-0.01,-0.158l-0.008,-0.158l-0.004,-0.159l-0.001,-0.156l0,-0.111l0.002,-0.108l0.004,-0.107l0.005,-0.108l0.006,-0.107l0.007,-0.106l0.009,-0.107l0.01,-0.106l0.011,-0.105l0.013,-0.106l0.014,-0.105l0.015,-0.104l0.017,-0.105l0.018,-0.103l0.019,-0.104l0.021,-0.103l0.021,-0.102l0.023,-0.102l0.024,-0.102l0.026,-0.101l0.026,-0.101l0.028,-0.1l0.029,-0.099l0.03,-0.1l0.032,-0.098l0.032,-0.098l0.034,-0.098l0.035,-0.097l0.036,-0.096l0.037,-0.096l0.038,-0.095l0.04,-0.095l0.04,-0.094l0.042,-0.094l0.042,-0.093l0.044,-0.092l0.045,-0.092l0.046,-0.091l0.047,-0.09l0.048,-0.09l0.049,-0.089l0.05,-0.088l0.051,-0.088l0.053,-0.087l0.053,-0.086l0.054,-0.086l0.055,-0.084l0.056,-0.085l0.057,-0.083l0.058,-0.083l0.06,-0.082l0.06,-0.081l0.06,-0.08l0.062,-0.08l0.063,-0.079l0.064,-0.078l0.064,-0.077l0.066,-0.077l0.066,-0.076l0.068,-0.075l0.068,-0.074l0.069,-0.073l0.07,-0.073l0.071,-0.071l0.071,-0.071l0.073,-0.07l0.073,-0.069l0.074,-0.068l0.075,-0.067l0.076,-0.067l0.076,-0.065l0.078,-0.065l0.078,-0.064l0.079,-0.063l0.08,-0.061l0.08,-0.061l0.081,-0.06l0.082,-0.059l0.083,-0.058l0.083,-0.058l0.084,-0.056l0.085,-0.055l0.086,-0.054l0.086,-0.053l0.087,-0.052l0.088,-0.052l0.088,-0.05l0.089,-0.049l0.09,-0.048l0.09,-0.047l0.091,-0.046l0.092,-0.045l0.092,-0.043l0.093,-0.043l0.094,-0.042l0.094,-0.04l0.094,-0.04l0.096,-0.038l0.096,-0.037l0.096,-0.036l0.097,-0.035l0.098,-0.034l0.098,-0.032l0.098,-0.032l0.099,-0.03l0.1,-0.029l0.1,-0.028l0.101,-0.026l0.101,-0.026l0.102,-0.024l0.102,-0.023l0.102,-0.021l0.103,-0.021l0.104,-0.019l0.103,-0.018l0.104,-0.016l0.105,-0.016l0.105,-0.014l0.105,-0.012l0.106,-0.012l0.106,-0.01l0.106,-0.009l0.107,-0.007l0.107,-0.006l0.107,-0.005l0.108,-0.004l0.108,-0.002l0.216,0Z" style="fill:#fff;"/><path d="M7.893,14.584c-2.24,-0.996 -3.799,-3.24 -3.799,-5.847c0,-3.536 2.87,-6.406 6.406,-6.406c3.536,0 6.406,2.87 6.406,6.406c0,2.607 -1.559,4.851 -3.799,5.847l0,10.492l-2.607,4.516l-2.607,-4.516l0,-10.492Z" style="fill:#b0b0b0;"/></svg>