<?xml version="1.0" encoding="UTF-8" standalone="no"?><!DOCTYPE svg PUBLIC "-//W3C//DTD SVG 1.1//EN" "http://www.w3.org/Graphics/SVG/1.1/DTD/svg11.dtd"><svg width="100%" height="100%" viewBox="0 0 191 139" version="1.1" xmlns="http://www.w3.org/2000/svg" xmlns:xlink="http://www.w3.org/1999/xlink" xml:space="preserve" xmlns:serif="http://www.serif.com/" style="fill-rule:evenodd;clip-rule:evenodd;stroke-linejoin:round;stroke-miterlimit:1.41421;"><path id="path3739" d="M37.691,138.109l-0.637,-0.378l0.507,-0.129l0.508,-0.13l0.259,1.015l-0.637,-0.378Zm-2.622,-1.025l0.328,-0.552l0.129,0.508l0.095,0.372l-0.552,-0.328Zm90.674,-72.994l1.727,-2.851l1.726,-2.851l0.762,-1.486l0.762,-1.485l1.104,-1.606l1.104,-1.605l-0.773,-1.08l-0.773,-1.079l0.317,-1.13l0.316,-1.129l0.357,-0.618l0.358,-0.619l0.63,1.044l0.631,1.043l1.419,0.247l1.42,0.247l1.214,-1.349l1.214,-1.348l1.026,-1.733l1.026,-1.733l-0.022,-1.951l-0.022,-1.951l0.79,-2.005l0.791,-2.006l-1.105,-5.538l-1.106,-5.539l-0.451,-2.232l-0.452,-2.232l0.249,-0.418l0.248,-0.418l0.434,2.069l0.434,2.07l0.966,-2.301l0.967,-2.3l-0.14,-0.885l-0.14,-0.884l-0.844,-0.144l-0.844,-0.144l-0.306,-0.859l-0.306,-0.858l-2.416,-1.888l-2.417,-1.887l-1.196,-1.866l-1.197,-1.866l-0.159,-1.272l-0.159,-1.273l0.505,1.306l0.506,1.306l1.034,1.415l1.034,1.415l2.741,1.975l2.741,1.975l2.525,3.998l-0.405,0.681l-0.404,0.682l-0.137,2.909l-0.137,2.91l1.488,5.018l1.487,5.017l-0.554,4.53l-0.553,4.531l0.89,0.528l1.786,-3.437l1.786,-3.437l-0.241,-3.074l-0.241,-3.075l0.769,0.456l0.341,1.656l0.341,1.656l-0.082,1.362l-0.082,1.363l-1.436,2.419l-1.437,2.42l1.332,0.791l2.15,-0.515l2.15,-0.514l1.738,-0.751l1.737,-0.751l2.652,2.858l2.16,-0.229l2.161,-0.228l2.152,0.494l2.152,0.494l1.565,-0.79l1.566,-0.79l1.214,-0.123l1.215,-0.123l0.473,-0.813l0.473,-0.813l-0.888,0.441l-0.889,0.442l0.489,-0.84l0.489,-0.84l0.986,0.585l-0.149,0.868l-0.148,0.868l-3.125,1.328l-3.125,1.329l-1.713,-0.348l-1.712,-0.347l-2.853,0.168l-2.853,0.169l-1.399,-1.297l-1.399,-1.296l-1.663,1.014l-1.664,1.014l-2.439,0.51l-2.439,0.511l-2.203,1.568l-2.203,1.569l-3.126,3.124l-3.127,3.125l-2.459,3.29l-2.459,3.29l-0.3,1.508l-0.299,1.508l1.858,1.678l1.857,1.678l-1.28,0.532l-1.281,0.532l-0.251,-0.957l-0.251,-0.956l-0.305,-0.181l-0.306,-0.182l-1.247,0.867l-1.247,0.867l-0.151,0.887l-0.152,0.887l1.331,0.79l-0.458,0.772l-0.459,0.772l-0.807,-0.817l-0.807,-0.817l-0.134,0.226l-0.133,0.225l-0.056,1.259l-0.056,1.258l1.056,-0.168l1.055,-0.167l0.31,1.215l0.31,1.215l-1.882,1.266l-1.882,1.266l-1.027,-0.295l-1.026,-0.295l-1.951,1.07l-1.95,1.071l-0.743,1.253l-0.744,1.252l-0.426,1.731l-0.426,1.731l-0.743,2.143l-0.743,2.143l1.412,0.886l1.592,3.308l2.657,0.96l-0.464,0.766l-0.464,0.765l-0.781,0.397l-0.781,0.397l-1.92,-1.543l-1.92,-1.543l-2.082,0.312l-2.081,0.312l-2.85,4.318l-2.85,4.318l0.956,0.163l0.956,0.164l-0.454,0.764l-1.627,-0.072l-1.627,-0.073l-1.452,0.906l-1.451,0.906l-0.283,0.477l0.689,2.376l0.689,2.376l3.845,2.288l0.618,1.37l0.619,1.369l2.008,2.172l2.009,2.171l-1.256,0.121l-1.256,0.12l-0.541,-0.894l-0.541,-0.895l-1.067,0.381l-1.067,0.38l-0.116,-1.206l-0.116,-1.205l-2.134,-1.319l-2.134,-1.319l-0.331,0.557l-0.781,-0.587l-0.782,-0.588l-0.905,-1.196l-0.905,-1.197l-0.827,-0.734l-0.828,-0.734l0.414,-1.32l0.414,-1.32l-2.653,0.691l-2.653,0.692l-2.202,-1.51l-2.202,-1.509l-2.631,0.129l-2.631,0.129l-0.248,0.418l-0.248,0.418l-0.547,-1.058l-0.547,-1.058l-2.9,-0.347l-2.9,-0.348l-0.566,-0.336l-0.567,-0.336l-2.078,0.578l-2.079,0.578l-0.329,0.554l-0.329,0.554l-2.511,0.817l-2.511,0.817l-1.157,2.681l-1.157,2.681l-1.193,3.167l-1.192,3.168l-1.572,2.811l-1.572,2.811l2.101,0.815l2.1,0.815l0.67,-0.33l0.671,-0.33l-0.489,0.84l-0.489,0.84l-0.64,-0.282l-0.641,-0.281l-0.604,-0.288l-0.604,-0.288l-2.953,1.002l-2.952,1.002l-1.964,-0.12l-1.964,-0.119l-3.178,0.926l-3.179,0.926l-1.005,-0.596l-1.005,-0.597l-2.248,0.372l-2.248,0.372l-3.463,-2.473l-3.463,-2.472l-3.504,0.022l-3.503,0.023l-2.362,1.505l-0.43,0.274l-17.928,-10.641l11.561,-19.478l0.188,-0.009l1.334,2.207l1.409,0.42l1.409,0.42l-0.1,-0.389l-0.099,-0.389l1.293,-0.584l1.292,-0.583l1.519,-2.56l-0.74,-4.466l-0.74,-4.467l0.398,-0.371l0.397,-0.37l-0.165,-1.317l0.407,-0.685l0.139,0.549l1.111,4.373l1.412,0.839l0.639,0.557l1.267,-0.791l1.267,-0.79l-0.607,1.039l-0.607,1.04l-0.675,-0.147l-0.676,-0.147l-0.18,1.058l-0.181,1.057l4.261,2.295l4.262,2.295l0.094,2.052l0.095,2.052l1.873,0.94l1.873,0.94l-0.545,0.285l-0.545,0.285l-0.275,-0.525l-0.275,-0.526l-2.14,-0.598l-2.14,-0.598l-1.932,1.175l-1.931,1.176l-1.625,-0.089l-1.625,-0.088l-0.869,-0.88l-0.869,-0.879l-0.186,0.314l-0.186,0.313l-0.148,2.309l-0.147,2.309l0.469,1.518l0.469,1.517l-0.818,0.729l-0.818,0.729l0.166,1.049l0.166,1.049l1.885,0.755l1.885,0.754l4.466,1.184l0.685,-0.066l0.684,-0.065l2.022,0.74l2.023,0.74l1.895,-0.811l1.896,-0.811l0.13,-0.491l0.13,-0.491l0.891,0.529l0.87,-0.775l0.87,-0.775l0.557,0.892l0.557,0.893l4.303,2.882l4.304,2.882l0.147,-0.964l0.147,-0.965l0.808,-1.942l0.809,-1.943l-0.363,-0.215l-0.363,-0.216l0.363,-1.238l0.363,-1.238l-1.133,-2.933l-1.132,-2.932l0.67,-1.864l0.669,-1.863l-0.74,-2.19l-0.741,-2.19l-0.347,-0.232l-0.347,-0.232l-0.794,-3.115l-0.795,-3.115l-1.052,-0.303l-1.052,-0.302l-0.012,-0.649l-0.011,-0.648l-1.151,-0.331l-1.15,-0.331l-0.316,-0.885l-0.316,-0.885l0.216,-0.364l0.216,-0.363l1.025,0.294l1.025,0.295l0.506,0.873l0.506,0.873l2.318,0.755l2.318,0.754l0.032,0.791l0.031,0.79l0.898,-0.436l0.898,-0.436l0.127,-0.679l0.128,-0.678l0.832,0.142l0.833,0.143l0.144,-0.843l0.144,-0.843l0.665,-0.012l0.665,-0.011l-0.06,1.342l-0.059,1.343l-1.207,1.372l-1.206,1.372l0.424,1.972l0.424,1.971l1.361,0.808l0.17,1.069l0.169,1.07l3.526,2.093l2.038,-0.567l2.037,-0.567l1.806,-1.342l1.805,-1.343l0.728,-2.238l0.729,-2.238l-0.21,-0.821l-0.209,-0.822l1.02,-1.719l-0.477,-0.284l-0.478,-0.284l0.283,-0.477l0.284,-0.478l2.409,1.43l-0.156,1.434l-0.155,1.434l2.096,2.189l2.096,2.189l1.32,0.242l1.319,0.242l2.159,-0.357l2.158,-0.356l2.406,0.154l2.406,0.154l0.514,-0.866l0.514,-0.866l0.511,-0.13l0.51,-0.131l0.751,1.542l0.751,1.542l6.185,3.729l1.782,-0.103l1.783,-0.103l1.938,-1.487l1.938,-1.487l2.636,-4.642l2.636,-4.641l0.031,-1.919l0.032,-1.92l1.163,-1.761l1.163,-1.761l-0.198,-0.379l-0.199,-0.379l1.656,-2.609l1.655,-2.608l0.501,-0.128l0.5,-0.128l0.267,-0.449l0.267,-0.449l-0.88,-0.15l-0.88,-0.151l0.211,-0.339l0.211,-0.339l0.828,-0.421l0.827,-0.421l-0.196,-1.936l-0.196,-1.936l0.642,-1.197l0.642,-1.198l0.574,1.099l0.172,-1.006l0.172,-1.006l0.556,1.064l0.588,-0.307l0.589,-0.308l1.854,1.101l-0.275,0.463l-0.274,0.462l0.851,0.146l0.852,0.145l3.965,-6.252Zm-63.456,61.801l-0.393,0.1l-0.129,-0.508l-0.13,-0.507l0.293,-0.494l0.293,-0.493l0.46,1.801l-0.394,0.101Zm46.212,-20.685l-0.239,-0.142l0.578,-0.302l0.579,-0.303l0.478,0.284l-0.579,0.302l-0.579,0.303l-0.238,-0.142Zm2.817,-0.265l-0.239,-0.142l0.142,-0.239l0.142,-0.239l0.478,0.284l-0.142,0.239l-0.142,0.238l-0.239,-0.141Zm-21.375,-7.52l-0.239,-0.142l0.142,-0.239l0.142,-0.239l0.477,0.284l-0.141,0.239l-0.142,0.239l-0.239,-0.142Zm-0.458,-3.201l-0.261,0.06l-0.219,-1.034l-0.22,-1.034l0.937,0.556l0.012,0.696l0.013,0.697l-0.262,0.059Zm0.395,-2.88l-0.705,0.78l0.175,-1.079l0.176,-1.079l0.317,-0.534l0.317,-0.534l0.212,0.832l0.212,0.833l-0.704,0.781Zm-64.11,-3.157l-0.508,0.13l0.378,-0.637l0.378,-0.637l0.259,1.015l-0.507,0.129Zm28.498,-0.31l-0.238,-0.141l0.141,-0.239l0.142,-0.239l0.478,0.283l-0.142,0.239l-0.142,0.239l-0.239,-0.142Zm-0.927,-0.55l-0.21,-0.125l-0.012,-0.653l-0.012,-0.653l1.012,0.601l-0.284,0.477l-0.283,0.478l-0.211,-0.125Zm63.972,-20.596l0.13,0.507l-1.274,-0.756l0.507,-0.129l0.508,-0.13l0.129,0.508Zm57.753,-25.54l-0.46,0.117l0.581,-0.893l0.581,-0.893l-0.121,0.776l-0.122,0.776l-0.459,0.117l0,0Zm-1.195,-1.395l-0.73,-0.434l0.452,-0.391l0.452,-0.391l0.679,0.148l0.68,0.147l-0.402,0.677l-0.402,0.677l-0.729,-0.433Zm4.264,-2.422l-0.439,-0.26l1.078,-0.652l1.079,-0.652l0.354,0.21l-0.817,0.807l-0.817,0.808l-0.438,-0.261Zm-39.923,-0.441l-0.305,-0.182l0.168,-0.283l0.168,-0.283l1.676,-0.647l1.676,-0.648l-0.407,0.653l-0.407,0.653l-1.131,0.46l-1.13,0.459l-0.306,-0.182l-0.002,0Zm40.342,-1.238l-1.617,0.645l0.451,-0.784l0.45,-0.783l1.087,-0.173l1.087,-0.172l0.079,0.311l0.079,0.31l-1.616,0.646Zm3.31,-0.629l-1.392,0.789l0.284,-0.478l0.283,-0.478l1.392,-0.789l1.391,-0.789l-0.283,0.478l-0.284,0.478l-1.391,0.789Zm3.168,-0.713l-0.362,-0.205l0.425,-0.717l0.425,-0.717l1.597,0.948l1.489,-0.246l1.489,-0.247l-1.664,0.627l-1.664,0.627l-0.686,0.068l-0.686,0.067l-0.363,-0.205l0,0Zm-43.784,-3.232l-0.394,0.666l-0.395,0.665l-0.427,-0.253l-0.427,-0.253l0.159,-0.928l0.158,-0.928l0.22,-0.369l1.106,1.4Zm5.385,-1.3l-1.119,-0.322l-0.263,-1.298l-0.263,-1.298l2.025,0.346l0.369,1.447l0.369,1.446l-1.118,-0.321Zm-6.385,-11.705l-0.239,-0.142l0.141,-0.239l0.142,-0.239l0.478,0.284l-0.142,0.239l-0.142,0.238l-0.238,-0.141Zm-4.843,-12.21l-0.38,0.097l-0.175,-1.104l-0.175,-1.104l0.381,-0.097l0.38,-0.097l0.175,1.104l0.175,1.104l-0.381,0.097Zm-2.962,-2.892l-0.289,0.073l0.057,-1.271l0.056,-1.272l0.161,-0.27l0.16,-0.27l0.844,0.501l-0.35,1.217l-0.35,1.218l-0.289,0.074Z" style="fill:#37a35a;fill-rule:nonzero;"/></svg>