<?xml version="1.0" encoding="UTF-8" standalone="no"?><!DOCTYPE svg PUBLIC "-//W3C//DTD SVG 1.1//EN" "http://www.w3.org/Graphics/SVG/1.1/DTD/svg11.dtd"><svg width="100%" height="100%" viewBox="0 0 93 116" version="1.1" xmlns="http://www.w3.org/2000/svg" xmlns:xlink="http://www.w3.org/1999/xlink" xml:space="preserve" xmlns:serif="http://www.serif.com/" style="fill-rule:evenodd;clip-rule:evenodd;stroke-linejoin:round;stroke-miterlimit:1.41421;"><path d="M2.958,112.61c3.129,0.505 3.477,-0.053 5.128,-0.473l3.025,-1.008c1.287,-0.545 1.804,-0.79 1.804,-0.79l1.263,-0.557c1.479,-0.688 1.954,-0.864 1.954,-0.864l2.645,-1.063c3.73,-1.342 3.046,-0.88 3.435,-0.954c2.574,-0.491 5.272,-0.321 7.751,0.309l3.441,1.141c1.412,0.597 1.91,0.835 1.91,0.835l2.614,1.153c1.83,0.813 2.463,1.028 2.463,1.028l2.957,0.921c4.766,1.008 4.923,0.335 6.835,-0.15l3.025,-1.009c1.286,-0.545 1.804,-0.79 1.804,-0.79l1.263,-0.557c1.479,-0.688 1.954,-0.864 1.954,-0.864l2.645,-1.063c3.73,-1.342 3.046,-0.88 3.435,-0.954c2.581,-0.492 5.271,-0.321 7.752,0.309l3.44,1.141c1.412,0.597 1.911,0.835 1.911,0.835l2.613,1.153c1.831,0.813 2.463,1.028 2.463,1.028l2.957,0.921c2.48,0.524 3.712,0.593 4.594,0.47l0,3.187c-3.231,0.147 -6.75,-0.685 -6.75,-0.685c-1.328,-0.422 -2.704,-0.958 -2.704,-0.958c-1.412,-0.598 -1.91,-0.835 -1.91,-0.835l-1.351,-0.597c-1.349,-0.627 -1.899,-0.839 -1.899,-0.839l-2.444,-0.981c-3.73,-1.342 -2.75,-0.794 -3.512,-0.908c-2.648,-0.399 -6.302,0.531 -6.302,0.531c-4.118,1.308 -2.735,0.994 -3.554,1.358l-2.549,1.142l-2.611,1.129l-1.338,0.496c-3.713,1.335 -3.044,0.879 -3.436,0.953c-3.547,0.676 -8.487,-0.491 -8.487,-0.491c-1.328,-0.422 -2.704,-0.958 -2.704,-0.958c-1.412,-0.598 -1.911,-0.835 -1.911,-0.835l-1.35,-0.597c-1.349,-0.628 -1.899,-0.839 -1.899,-0.839l-2.445,-0.981c-3.73,-1.342 -2.748,-0.793 -3.511,-0.908c-2.648,-0.399 -6.302,0.531 -6.302,0.531c-4.118,1.308 -2.735,0.994 -3.555,1.358l-2.547,1.142l-2.612,1.129l-1.338,0.496c-3.73,1.342 -3.046,0.879 -3.435,0.953c-1.453,0.277 -3.14,0.245 -4.625,0.11l0,-3.251Z" style="fill:#3489e6;"/><path d="M2.958,100.08c2.578,0.219 5.767,-0.593 5.767,-0.593c3.34,-1.06 3.358,-1.271 4.19,-1.641l2.614,-1.153l1.236,-0.549c1.526,-0.646 2.012,-0.782 2.012,-0.782c3.73,-1.342 3.046,-0.879 3.435,-0.953c3.548,-0.676 8.488,0.491 8.488,0.491c1.322,0.42 2.704,0.958 2.704,0.958c1.412,0.598 1.91,0.835 1.91,0.835l1.351,0.597c1.349,0.628 1.899,0.839 1.899,0.839c0.695,0.309 2.445,0.981 2.445,0.981c3.709,1.335 2.742,0.793 3.511,0.908c2.648,0.399 6.302,-0.531 6.302,-0.531c3.347,-1.062 3.359,-1.271 4.19,-1.641l2.614,-1.153l1.236,-0.549c1.526,-0.646 2.012,-0.782 2.012,-0.782c3.73,-1.342 3.046,-0.879 3.435,-0.953c3.548,-0.676 8.488,0.491 8.488,0.491c1.322,0.42 2.704,0.958 2.704,0.958c0.225,0.096 0.451,0.189 0.675,0.286c0.014,0.006 2.586,1.146 2.586,1.146l1.899,0.839c0.693,0.308 2.445,0.981 2.445,0.981c3.71,1.336 2.742,0.792 3.512,0.908c1.078,0.163 2.323,0.105 3.421,-0.021l0,3.494c-2.032,0.161 -4.086,-0.052 -6.013,-0.541l-3.441,-1.141c-0.225,-0.095 -0.451,-0.188 -0.675,-0.285c-0.013,-0.006 -1.937,-0.844 -1.937,-0.844c-1.947,-0.906 -2.548,-1.141 -2.548,-1.141l-2.445,-0.982c-3.729,-1.341 -2.752,-0.793 -3.511,-0.908c-2.648,-0.399 -6.302,0.532 -6.302,0.532c-4.119,1.308 -2.736,0.994 -3.554,1.358l-2.549,1.141l-1.937,0.844c-1.526,0.646 -2.012,0.781 -2.012,0.781c-3.657,1.317 -3.034,0.878 -3.436,0.954c-2.58,0.492 -5.27,0.321 -7.751,-0.309l-3.44,-1.141c-0.225,-0.095 -0.451,-0.188 -0.675,-0.285c-0.023,-0.01 -1.937,-0.844 -1.937,-0.844c-2.421,-1.126 -2.44,-1.093 -3.153,-1.41l-1.84,-0.713c-3.73,-1.342 -2.752,-0.793 -3.512,-0.908c-2.647,-0.399 -6.301,0.532 -6.301,0.532c-4.119,1.308 -2.736,0.994 -3.554,1.358l-1.899,0.839c-1.478,0.688 -1.954,0.864 -1.954,0.864c-0.85,0.378 -2.645,1.063 -2.645,1.063c-3.672,1.322 -3.036,0.878 -3.435,0.954c-1.526,0.291 -3.089,0.35 -4.625,0.219l0,-3.398Z" style="fill:#3489e6;"/><path d="M2.958,87.588c2.578,0.219 5.767,-0.593 5.767,-0.593c4.118,-1.308 2.735,-0.994 3.555,-1.358l1.898,-0.84c1.479,-0.688 1.954,-0.864 1.954,-0.864c0.85,-0.378 2.645,-1.063 2.645,-1.063c3.672,-1.322 3.037,-0.878 3.435,-0.954c2.574,-0.49 5.272,-0.32 7.751,0.31l3.441,1.14c0.225,0.095 0.451,0.189 0.675,0.286c0.013,0.005 1.937,0.843 1.937,0.843c1.016,0.473 1.912,0.859 1.912,0.859l1.241,0.552c1.303,0.551 1.839,0.712 1.839,0.712c3.73,1.342 2.753,0.794 3.512,0.908c2.648,0.399 6.302,-0.531 6.302,-0.531c4.119,-1.308 2.735,-0.994 3.554,-1.358l1.899,-0.84c1.479,-0.688 1.954,-0.864 1.954,-0.864c0.85,-0.378 2.645,-1.063 2.645,-1.063c3.673,-1.322 3.037,-0.878 3.435,-0.954c2.581,-0.492 5.271,-0.32 7.752,0.31l3.44,1.14c0.225,0.095 0.451,0.189 0.675,0.286c0.033,0.014 1.937,0.843 1.937,0.843c2.421,1.127 2.44,1.094 3.153,1.411l1.84,0.712c3.73,1.342 2.752,0.794 3.512,0.908c1.078,0.163 2.323,0.105 3.421,-0.021l0,3.455c-3.231,0.147 -6.75,-0.685 -6.75,-0.685c-1.328,-0.422 -2.704,-0.958 -2.704,-0.958c-1.412,-0.598 -1.91,-0.835 -1.91,-0.835l-1.351,-0.596c-1.349,-0.628 -1.899,-0.84 -1.899,-0.84c-0.69,-0.306 -2.445,-0.981 -2.445,-0.981c-3.709,-1.335 -2.743,-0.792 -3.511,-0.908c-2.648,-0.399 -6.302,0.532 -6.302,0.532c-3.34,1.06 -3.358,1.27 -4.19,1.64l-2.614,1.153l-1.236,0.549c-1.526,0.647 -2.012,0.782 -2.012,0.782c-3.713,1.336 -3.044,0.879 -3.436,0.954c-3.547,0.676 -8.487,-0.492 -8.487,-0.492c-1.328,-0.422 -2.704,-0.958 -2.704,-0.958c-1.412,-0.598 -1.911,-0.835 -1.911,-0.835l-1.35,-0.596c-1.349,-0.628 -1.899,-0.84 -1.899,-0.84c-0.692,-0.307 -2.445,-0.981 -2.445,-0.981c-3.71,-1.335 -2.743,-0.792 -3.511,-0.908c-2.648,-0.399 -6.302,0.532 -6.302,0.532c-3.34,1.06 -3.358,1.27 -4.19,1.64l-2.614,1.153l-1.235,0.549c-1.527,0.647 -2.013,0.782 -2.013,0.782c-3.73,1.342 -3.046,0.88 -3.435,0.954c-1.453,0.277 -3.14,0.244 -4.625,0.109l0,-3.288Z" style="fill:#3489e6;"/><path d="M36.103,68.058l0,11.021c-0.268,-0.114 -0.576,-0.244 -0.94,-0.397l-3.811,-1.263c-0.889,-0.22 -1.784,-0.412 -2.689,-0.543c-1.914,-0.276 -3.862,-0.319 -5.789,-0.112c-0.275,0.032 -0.343,0.084 -1.339,0.151c-1.837,0.125 -3.375,0.771 -6.755,2.159c-0.193,0.081 -0.19,0.087 -0.486,0.208c-0.17,0.07 -0.341,0.142 -0.511,0.214l0,-34.49l32.687,-29.029l32.688,29.029l0,34.488c-0.498,-0.218 -1.097,-0.475 -1.898,-0.812l-3.81,-1.263c-3.639,-0.901 -9.532,-0.517 -9.532,-0.517c-2.201,0.102 -4.618,1.143 -7.325,2.367l0,-11.211l-20.49,0Z" style="fill:#ff8917;"/><path d="M46.348,0l46.593,41.347l-5.001,5.366l-41.47,-36.713l-41.714,36.713l-4.756,-5.366l46.348,-41.347Z" style="fill:#ff8917;"/></svg>