<?xml version="1.0" encoding="UTF-8" standalone="no"?><!DOCTYPE svg PUBLIC "-//W3C//DTD SVG 1.1//EN" "http://www.w3.org/Graphics/SVG/1.1/DTD/svg11.dtd"><svg width="100%" height="100%" viewBox="0 0 186 80" version="1.1" xmlns="http://www.w3.org/2000/svg" xmlns:xlink="http://www.w3.org/1999/xlink" xml:space="preserve" xmlns:serif="http://www.serif.com/" style="fill-rule:evenodd;clip-rule:evenodd;stroke-linejoin:round;stroke-miterlimit:1.41421;"><path d="M182.123,59.182c1.375,-0.421 2.84,0.348 3.262,1.722c0.421,1.384 -0.348,2.84 -1.723,3.271c-10.791,3.115 -23.763,8.025 -33.959,11.387c-12.487,4.113 -26.265,6.413 -38.605,0.733c-4.122,-1.896 -7.897,-4.626 -12.001,-6.596c-4.15,-1.988 -8.456,-3.619 -12.917,-4.746c-9.399,-2.372 -19.183,-2.427 -28.784,-1.493c-16.361,1.603 -24.35,1.869 -40.107,6.505c-4.718,1.392 -9.362,3.206 -14.108,4.47c-1.401,0.321 -2.803,-0.559 -3.115,-1.969c-0.32,-1.402 0.55,-2.804 1.961,-3.124c11.57,-3.179 14.557,-4.37 24.9,-10.426c9.921,-5.808 19.577,-12.477 27.812,-20.539c12.359,-12.074 21.584,-28.564 38.238,-35.444c3.033,-1.246 6.523,-2.381 9.803,-2.739c21.189,-2.244 36.836,15.272 37.221,36.489c0.092,1.337 -0.916,2.491 -2.254,2.583c-0.76,0.055 -1.465,-0.257 -1.942,-0.779c-3.353,-3.16 -7.878,-5.102 -12.862,-5.102c-11.396,0 -18.752,8.4 -18.752,18.761c0,10.169 9.106,19.156 24.579,19.156c16.874,0 42.36,-8.675 53.353,-12.12Z" style="fill:#3489e6;fill-rule:nonzero;"/></svg>